%TF.GenerationSoftware,KiCad,Pcbnew,9.0.6*%
%TF.CreationDate,2026-01-30T11:20:47+00:00*%
%TF.ProjectId,mu,6d752e6b-6963-4616-945f-706362585858,rev?*%
%TF.SameCoordinates,Original*%
%TF.FileFunction,Copper,L1,Top*%
%TF.FilePolarity,Positive*%
%FSLAX46Y46*%
G04 Gerber Fmt 4.6, Leading zero omitted, Abs format (unit mm)*
G04 Created by KiCad (PCBNEW 9.0.6) date 2026-01-30 11:20:47*
%MOMM*%
%LPD*%
G01*
G04 APERTURE LIST*
G04 Aperture macros list*
%AMRoundRect*
0 Rectangle with rounded corners*
0 $1 Rounding radius*
0 $2 $3 $4 $5 $6 $7 $8 $9 X,Y pos of 4 corners*
0 Add a 4 corners polygon primitive as box body*
4,1,4,$2,$3,$4,$5,$6,$7,$8,$9,$2,$3,0*
0 Add four circle primitives for the rounded corners*
1,1,$1+$1,$2,$3*
1,1,$1+$1,$4,$5*
1,1,$1+$1,$6,$7*
1,1,$1+$1,$8,$9*
0 Add four rect primitives between the rounded corners*
20,1,$1+$1,$2,$3,$4,$5,0*
20,1,$1+$1,$4,$5,$6,$7,0*
20,1,$1+$1,$6,$7,$8,$9,0*
20,1,$1+$1,$8,$9,$2,$3,0*%
%AMFreePoly0*
4,1,260,1.343000,3.149050,1.349000,3.149050,1.349016,3.149047,1.355012,3.147048,1.361016,3.146047,1.379026,3.140043,1.384026,3.137043,1.390026,3.134043,1.395028,3.131042,1.401028,3.127042,1.406031,3.123039,1.410031,3.119039,1.415031,3.115039,1.415039,3.115031,1.419039,3.110031,1.423039,3.106031,1.427042,3.101028,1.431043,3.095026,1.434043,3.090026,1.437043,3.084026,
1.440043,3.079026,1.446049,3.061008,1.447048,3.055012,1.449047,3.049016,1.449050,3.049000,1.449050,3.043000,1.450050,3.036000,1.450050,1.450050,3.046000,1.450050,3.046010,1.450049,3.051005,1.449050,3.057000,1.449050,3.063008,1.448049,3.063019,1.448046,3.068014,1.446048,3.074008,1.445049,3.074019,1.445046,3.079022,1.443045,3.085022,1.440045,3.085021,1.440044,
3.090026,1.438043,3.105026,1.429043,3.105035,1.429035,3.109028,1.425041,3.114026,1.422043,3.122035,1.414035,3.122043,1.414026,3.125041,1.409028,3.129035,1.405035,3.129043,1.405026,3.138043,1.390026,3.140045,1.385022,3.143046,1.379019,3.145046,1.374019,3.145049,1.374008,3.146048,1.368014,3.148046,1.363019,3.148049,1.363008,3.149050,1.357000,3.149050,1.351005,
3.150049,1.346010,3.150050,1.346000,3.150050,-1.336000,3.149050,-1.343000,3.149050,-1.349000,3.149047,-1.349016,3.147048,-1.355012,3.146047,-1.361016,3.140043,-1.379026,3.137043,-1.384026,3.134043,-1.390026,3.131042,-1.395028,3.127042,-1.401028,3.123039,-1.406031,3.119039,-1.410031,3.115039,-1.415031,3.115031,-1.415039,3.110031,-1.419039,3.106031,-1.423039,3.101028,-1.427042,
3.095026,-1.431043,3.090026,-1.434043,3.084026,-1.437043,3.079026,-1.440043,3.061008,-1.446049,3.055012,-1.447048,3.049016,-1.449047,3.049000,-1.449050,3.043000,-1.449050,3.036000,-1.450050,1.450050,-1.450050,1.450050,-3.046000,1.450049,-3.046010,1.449050,-3.051005,1.449050,-3.057000,1.448049,-3.063008,1.448046,-3.063019,1.446048,-3.068014,1.445049,-3.074008,1.445046,-3.074019,
1.443045,-3.079022,1.440045,-3.085022,1.438043,-3.090026,1.429043,-3.105026,1.429035,-3.105035,1.425041,-3.109028,1.422043,-3.114026,1.414035,-3.122035,1.414026,-3.122043,1.409028,-3.125041,1.405035,-3.129035,1.405026,-3.129043,1.390026,-3.138043,1.385021,-3.140044,1.385022,-3.140045,1.379019,-3.143046,1.374019,-3.145046,1.374008,-3.145049,1.368014,-3.146048,1.363019,-3.148046,
1.363008,-3.148049,1.357000,-3.149050,1.351005,-3.149050,1.346010,-3.150049,1.346000,-3.150050,-1.346000,-3.150050,-1.346010,-3.150049,-1.351005,-3.149050,-1.357000,-3.149050,-1.363008,-3.148049,-1.363019,-3.148046,-1.368014,-3.146048,-1.374008,-3.145049,-1.374019,-3.145046,-1.379022,-3.143045,-1.385022,-3.140045,-1.385021,-3.140044,-1.390026,-3.138043,-1.405026,-3.129043,-1.405035,-3.129035,
-1.409028,-3.125041,-1.414026,-3.122043,-1.422035,-3.114035,-1.422043,-3.114026,-1.425041,-3.109028,-1.429035,-3.105035,-1.429043,-3.105026,-1.438043,-3.090026,-1.440045,-3.085022,-1.443046,-3.079019,-1.445046,-3.074019,-1.445049,-3.074008,-1.446048,-3.068014,-1.448046,-3.063019,-1.448049,-3.063008,-1.449050,-3.057000,-1.449050,-3.051005,-1.450049,-3.046010,-1.450050,-3.046000,-1.450050,-1.450050,
-3.027000,-1.450050,-3.034008,-1.449049,-3.040008,-1.448049,-3.040007,-1.448048,-3.054007,-1.446049,-3.054016,-1.446047,-3.060020,-1.444046,-3.067020,-1.441046,-3.067019,-1.441045,-3.073022,-1.439045,-3.085028,-1.433042,-3.091028,-1.429042,-3.096027,-1.425041,-3.096028,-1.425042,-3.102028,-1.421042,-3.107031,-1.417039,-3.117039,-1.407031,-3.121042,-1.402028,-3.125042,-1.396028,-3.125041,-1.396027,
-3.129042,-1.391028,-3.133042,-1.385028,-3.139045,-1.373022,-3.141046,-1.367020,-3.144047,-1.360016,-3.146047,-1.354016,-3.148049,-1.340008,-3.149049,-1.334007,-3.150050,-1.327000,-3.150050,1.346000,-3.150049,1.346010,-3.149050,1.351005,-3.149050,1.357000,-3.148049,1.363008,-3.148046,1.363019,-3.146048,1.368014,-3.145049,1.374008,-3.145046,1.374019,-3.143045,1.379022,-3.140045,1.385022,
-3.138043,1.390026,-3.129043,1.405026,-3.129035,1.405035,-3.125041,1.409028,-3.122043,1.414026,-3.114035,1.422035,-3.114026,1.422043,-3.109028,1.425041,-3.105035,1.429035,-3.105026,1.429043,-3.090026,1.438043,-3.085021,1.440044,-3.085022,1.440045,-3.079019,1.443046,-3.074019,1.445046,-3.074008,1.445049,-3.068014,1.446048,-3.063019,1.448046,-3.063008,1.448049,-3.057000,1.449050,
-3.051005,1.449050,-3.046010,1.450049,-3.046000,1.450050,-1.450050,1.450050,-1.450050,3.046000,-1.450049,3.046010,-1.449050,3.051005,-1.449050,3.057000,-1.448049,3.063008,-1.448046,3.063019,-1.446048,3.068014,-1.445049,3.074008,-1.445046,3.074019,-1.443045,3.079022,-1.440045,3.085022,-1.438043,3.090026,-1.429043,3.105026,-1.429035,3.105035,-1.425041,3.109028,-1.422043,3.114026,
-1.414035,3.122035,-1.414026,3.122043,-1.409028,3.125041,-1.405035,3.129035,-1.405026,3.129043,-1.390026,3.138043,-1.385021,3.140044,-1.385022,3.140045,-1.379019,3.143046,-1.374019,3.145046,-1.374008,3.145049,-1.368014,3.146048,-1.363019,3.148046,-1.363008,3.148049,-1.357000,3.149050,-1.351005,3.149050,-1.346010,3.150049,-1.346000,3.150050,1.336000,3.150050,1.343000,3.149050,
1.343000,3.149050,$1*%
G04 Aperture macros list end*
%TA.AperFunction,SMDPad,CuDef*%
%ADD10RoundRect,0.140000X0.170000X-0.140000X0.170000X0.140000X-0.170000X0.140000X-0.170000X-0.140000X0*%
%TD*%
%TA.AperFunction,SMDPad,CuDef*%
%ADD11RoundRect,0.150000X0.150000X0.400000X-0.150000X0.400000X-0.150000X-0.400000X0.150000X-0.400000X0*%
%TD*%
%TA.AperFunction,SMDPad,CuDef*%
%ADD12RoundRect,0.150000X0.400000X0.150000X-0.400000X0.150000X-0.400000X-0.150000X0.400000X-0.150000X0*%
%TD*%
%TA.AperFunction,SMDPad,CuDef*%
%ADD13FreePoly0,180.000000*%
%TD*%
%TA.AperFunction,ComponentPad*%
%ADD14R,1.600200X1.600200*%
%TD*%
%TA.AperFunction,ComponentPad*%
%ADD15C,1.600200*%
%TD*%
%TA.AperFunction,ComponentPad*%
%ADD16RoundRect,0.250000X0.600000X-0.600000X0.600000X0.600000X-0.600000X0.600000X-0.600000X-0.600000X0*%
%TD*%
%TA.AperFunction,ComponentPad*%
%ADD17C,1.700000*%
%TD*%
%TA.AperFunction,ComponentPad*%
%ADD18R,1.524000X1.524000*%
%TD*%
%TA.AperFunction,ComponentPad*%
%ADD19C,1.524000*%
%TD*%
%TA.AperFunction,ComponentPad*%
%ADD20C,2.550000*%
%TD*%
%TA.AperFunction,ComponentPad*%
%ADD21R,2.550000X2.550000*%
%TD*%
%TA.AperFunction,ComponentPad*%
%ADD22C,1.508000*%
%TD*%
%TA.AperFunction,ViaPad*%
%ADD23C,0.600000*%
%TD*%
%TA.AperFunction,Conductor*%
%ADD24C,0.200000*%
%TD*%
%TA.AperFunction,Conductor*%
%ADD25C,0.300000*%
%TD*%
G04 APERTURE END LIST*
D10*
%TO.P,C1,1*%
%TO.N,GND*%
X156222238Y-83748531D03*
%TO.P,C1,2*%
%TO.N,HV*%
X156222238Y-82788531D03*
%TD*%
%TO.P,C2,1*%
%TO.N,GND*%
X155180631Y-83760105D03*
%TO.P,C2,2*%
%TO.N,HV*%
X155180631Y-82800105D03*
%TD*%
%TO.P,C3,1*%
%TO.N,GND*%
X154139024Y-83783252D03*
%TO.P,C3,2*%
%TO.N,HV*%
X154139024Y-82823252D03*
%TD*%
D11*
%TO.P,U3,1*%
%TO.N,GND*%
X159350000Y-75500000D03*
D12*
%TO.P,U3,2*%
%TO.N,Net-(U6-NONIINVERTINGINPUT)*%
X153500000Y-75650000D03*
D11*
%TO.P,U3,3*%
%TO.N,HV*%
X153650000Y-81500000D03*
D12*
%TO.P,U3,4*%
%TO.N,N/C*%
X159500000Y-81350000D03*
D13*
%TO.P,U3,5,EP*%
%TO.N,unconnected-(U3-EP-Pad5)*%
X156500000Y-78500000D03*
%TD*%
D14*
%TO.P,MOSFET1,1,G*%
%TO.N,GND*%
X166500000Y-53170000D03*
D15*
%TO.P,MOSFET1,2,D*%
%TO.N,Net-(MOSFET1-D)*%
X166500000Y-55710000D03*
%TO.P,MOSFET1,3,S*%
%TO.N,VBAT_Local*%
X166500000Y-58250000D03*
%TD*%
D16*
%TO.P,J1,1,Pin_1*%
%TO.N,NRST*%
X161580000Y-102502736D03*
D17*
%TO.P,J1,2,Pin_2*%
%TO.N,SWCLK*%
X161580000Y-99962736D03*
%TO.P,J1,3,Pin_3*%
%TO.N,unconnected-(J1-Pin_3-Pad3)*%
X159040000Y-102502736D03*
%TO.P,J1,4,Pin_4*%
%TO.N,SWDIO*%
X159040000Y-99962736D03*
%TO.P,J1,5,Pin_5*%
%TO.N,GND*%
X156500000Y-102502736D03*
%TO.P,J1,6,Pin_6*%
X156500000Y-99962736D03*
%TO.P,J1,7,Pin_7*%
%TO.N,3.3V_Dig*%
X153960000Y-102502736D03*
%TO.P,J1,8,Pin_8*%
X153960000Y-99962736D03*
%TO.P,J1,9,Pin_9*%
%TO.N,unconnected-(J1-Pin_9-Pad9)*%
X151420000Y-102502736D03*
%TO.P,J1,10,Pin_10*%
%TO.N,unconnected-(J1-Pin_10-Pad10)*%
X151420000Y-99962736D03*
%TD*%
D18*
%TO.P,J5,01,01*%
%TO.N,unconnected-(J5-Pad01)*%
X130744815Y-66879292D03*
D19*
%TO.P,J5,02,02*%
%TO.N,unconnected-(J5-Pad02)*%
X133284815Y-66879292D03*
%TO.P,J5,03,03*%
%TO.N,GND*%
X130744815Y-69419292D03*
%TO.P,J5,04,04*%
X133284815Y-69419292D03*
%TO.P,J5,05,05*%
%TO.N,5V_LOGIC*%
X130744815Y-71959292D03*
%TO.P,J5,06,06*%
X133284815Y-71959292D03*
%TO.P,J5,07,07*%
%TO.N,GND*%
X130744815Y-74499292D03*
%TO.P,J5,08,08*%
X133284815Y-74499292D03*
%TO.P,J5,09,09*%
%TO.N,unconnected-(J5-Pad09)*%
X130744815Y-77039292D03*
%TO.P,J5,10,10*%
%TO.N,unconnected-(J5-Pad10)*%
X133284815Y-77039292D03*
%TO.P,J5,11,11*%
%TO.N,unconnected-(J5-Pad11)*%
X130744815Y-79579292D03*
%TO.P,J5,12,12*%
%TO.N,unconnected-(J5-Pad12)*%
X133284815Y-79579292D03*
%TO.P,J5,13,13*%
%TO.N,unconnected-(J5-Pad13)*%
X130744815Y-82119292D03*
%TO.P,J5,14,14*%
%TO.N,GND*%
X133284815Y-82119292D03*
%TO.P,J5,15,15*%
%TO.N,unconnected-(J5-Pad15)*%
X130744815Y-84659292D03*
%TO.P,J5,16,16*%
%TO.N,CAN_o+*%
X133284815Y-84659292D03*
%TO.P,J5,17,17*%
%TO.N,unconnected-(J5-Pad17)*%
X130744815Y-87199292D03*
%TO.P,J5,18,18*%
%TO.N,CAN_o-*%
X133284815Y-87199292D03*
%TO.P,J5,19,19*%
%TO.N,GND*%
X130744815Y-89739292D03*
%TO.P,J5,20,20*%
X133284815Y-89739292D03*
%TD*%
D20*
%TO.P,J2,N,N*%
%TO.N,GND*%
X154500000Y-60337500D03*
D21*
%TO.P,J2,P,P*%
%TO.N,Net-(MOSFET1-D)*%
X159500000Y-60337500D03*
D22*
%TO.P,J2,S1*%
%TO.N,N/C*%
X151500000Y-50337500D03*
%TO.P,J2,S2*%
X162500000Y-50337500D03*
%TD*%
D23*
%TO.N,GND*%
X149585899Y-63595000D03*
X147000000Y-71000000D03*
X183000000Y-76192000D03*
X177024000Y-76712000D03*
X165299118Y-91500000D03*
X148500000Y-89500000D03*
X158500000Y-88500000D03*
X153641474Y-64730000D03*
X145000000Y-96000000D03*
X149371899Y-85596400D03*
X161647918Y-76476339D03*
X154775744Y-94086411D03*
X150500000Y-59750000D03*
X141000000Y-82000000D03*
X170500000Y-67000000D03*
X154915380Y-71834620D03*
X160400000Y-79649454D03*
X159500000Y-63000000D03*
X160250298Y-82874552D03*
X146575000Y-59356000D03*
X157600000Y-86589000D03*
X163745558Y-82129442D03*
X155371962Y-85784152D03*
X143500000Y-68000000D03*
X163125001Y-67549999D03*
X153640474Y-67263078D03*
X159625001Y-65549999D03*
X168500000Y-73000000D03*
X152000000Y-94500000D03*
X151568905Y-71068905D03*
X163079459Y-83427988D03*
X147000000Y-69500000D03*
X152000000Y-81500000D03*
X148125000Y-87500000D03*
X179500000Y-76192000D03*
X171000000Y-78500000D03*
X156872053Y-94895824D03*
X152500000Y-59250000D03*
X165860966Y-80156412D03*
X165500000Y-95000000D03*
X150000000Y-96000000D03*
X152415818Y-76364183D03*
X152000000Y-79000000D03*
X170500000Y-76500000D03*
X155540000Y-68750000D03*
X144781498Y-65137344D03*
X165500000Y-75564799D03*
X163125001Y-63549999D03*
X160449429Y-94364214D03*
X183500000Y-82976000D03*
X161046890Y-69577988D03*
X160400000Y-76750000D03*
X158385149Y-93500000D03*
X153386136Y-74008305D03*
X139000000Y-89500000D03*
X158125000Y-72400000D03*
X163500000Y-76356301D03*
X154500000Y-55500000D03*
X148595000Y-62336000D03*
X143000000Y-87000000D03*
X161000000Y-88500000D03*
X167500000Y-69500000D03*
X184000000Y-73212000D03*
X160500000Y-71000000D03*
X169000000Y-57750000D03*
X149500000Y-66000000D03*
X137790223Y-85897800D03*
X144500000Y-71000000D03*
X146500000Y-75000000D03*
X148473993Y-75024668D03*
X177524000Y-73212000D03*
X154500000Y-89250000D03*
%TO.N,3.3V_Dig*%
X161750000Y-79796870D03*
X164500000Y-75856301D03*
X149000000Y-91500000D03*
X171000000Y-82500000D03*
X167500000Y-79365243D03*
X162000000Y-67549999D03*
X156000000Y-70250000D03*
X166293225Y-91600756D03*
X159474999Y-94579000D03*
%TO.N,HV*%
X175000000Y-75000000D03*
%TO.N,5V*%
X183500000Y-79980000D03*
X148371899Y-67000000D03*
X159000000Y-71500000D03*
X156000000Y-71500000D03*
%TO.N,Latch_Out*%
X157570896Y-68515098D03*
X161784995Y-87170905D03*
%TO.N,VBAT_Local*%
X144750000Y-63750000D03*
X164500000Y-60549999D03*
%TO.N,NRST*%
X157383057Y-87883057D03*
%TO.N,Latch_Rst*%
X160500000Y-87000000D03*
X158082944Y-67900434D03*
%TO.N,SPI_CS_FLASH*%
X169053800Y-87500000D03*
X163500000Y-86500000D03*
%TO.N,SPI_MOSI*%
X167796073Y-86899146D03*
X158500000Y-66000000D03*
X165000000Y-80183278D03*
%TO.N,SWDIO*%
X156100000Y-90500000D03*
%TO.N,SWCLK*%
X156000000Y-89500000D03*
%TO.N,SPI_SCK*%
X163750000Y-91250000D03*
X155000000Y-66000000D03*
%TO.N,SPI_CS_DAC*%
X163875000Y-84000000D03*
X155000000Y-64730000D03*
%TO.N,Net-(U6-NONIINVERTINGINPUT)*%
X153390323Y-74808297D03*
%TO.N,5V_LOGIC*%
X166350001Y-60649999D03*
%TO.N,SPI_CS_BMP*%
X161416970Y-92637029D03*
X163223212Y-79503979D03*
%TD*%
D24*
%TO.N,GND*%
X157500000Y-86500000D02*
X157681842Y-86500000D01*
D25*
X159350000Y-75700000D02*
X159350000Y-75500000D01*
%TO.N,HV*%
X156222238Y-82788531D02*
X157538531Y-82788531D01*
X158500000Y-83750000D02*
X161091613Y-83750000D01*
X157538531Y-82788531D02*
X158500000Y-83750000D01*
X173150000Y-81350000D02*
X163491613Y-81350000D01*
X173170000Y-81350000D02*
X173150000Y-81350000D01*
X175000000Y-79500000D02*
X173150000Y-81350000D01*
X154139024Y-82823252D02*
X154123252Y-82823252D01*
X153650000Y-82350000D02*
X153665772Y-82350000D01*
X163491613Y-81350000D02*
X161091613Y-83750000D01*
X175000000Y-75000000D02*
X175000000Y-79500000D01*
X153650000Y-82350000D02*
X153650000Y-81500000D01*
X154139024Y-82823252D02*
X156187517Y-82823252D01*
X153782886Y-82467114D02*
X154139024Y-82823252D01*
X156187517Y-82823252D02*
X156222238Y-82788531D01*
X153665772Y-82350000D02*
X153782886Y-82467114D01*
%TO.N,5V*%
X159000000Y-71500000D02*
X156000000Y-71500000D01*
D24*
%TO.N,Net-(U6-NONIINVERTINGINPUT)*%
X153500000Y-74917974D02*
X153500000Y-75650000D01*
X153390323Y-74808297D02*
X153500000Y-74917974D01*
%TD*%
%TA.AperFunction,Conductor*%
%TO.N,GND*%
G36*
X157055250Y-48814364D02*
G01*
X158103235Y-48851794D01*
X158107648Y-48852030D01*
X159153660Y-48926843D01*
X159157966Y-48927228D01*
X160200698Y-49039333D01*
X160205054Y-49039880D01*
X161243045Y-49189121D01*
X161247388Y-49189824D01*
X161564482Y-49247035D01*
X161931131Y-49313186D01*
X161993610Y-49344461D01*
X162029262Y-49404550D01*
X162026768Y-49474375D01*
X161986920Y-49531768D01*
X161978005Y-49538318D01*
X161891542Y-49596091D01*
X161891538Y-49596094D01*
X161758594Y-49729038D01*
X161758591Y-49729042D01*
X161654136Y-49885368D01*
X161654129Y-49885381D01*
X161582182Y-50059078D01*
X161582179Y-50059090D01*
X161545500Y-50243485D01*
X161545500Y-50431514D01*
X161582179Y-50615909D01*
X161582182Y-50615921D01*
X161654129Y-50789618D01*
X161654136Y-50789631D01*
X161758591Y-50945957D01*
X161758594Y-50945961D01*
X161891538Y-51078905D01*
X161891542Y-51078908D01*
X162047868Y-51183363D01*
X162047881Y-51183370D01*
X162221578Y-51255317D01*
X162221583Y-51255319D01*
X162405985Y-51291999D01*
X162405988Y-51292000D01*
X162405990Y-51292000D01*
X162594012Y-51292000D01*
X162594013Y-51291999D01*
X162778417Y-51255319D01*
X162952125Y-51183367D01*
X163108458Y-51078908D01*
X163241408Y-50945958D01*
X163345867Y-50789625D01*
X163417819Y-50615917D01*
X163454500Y-50431510D01*
X163454500Y-50243490D01*
X163454500Y-50243487D01*
X163454499Y-50243485D01*
X163417820Y-50059090D01*
X163417819Y-50059083D01*
X163417817Y-50059078D01*
X163345870Y-49885381D01*
X163345862Y-49885366D01*
X163303231Y-49821566D01*
X163282352Y-49754889D01*
X163300836Y-49687508D01*
X163352814Y-49640818D01*
X163421784Y-49629641D01*
X163436997Y-49632525D01*
X164328816Y-49860149D01*
X164333033Y-49861306D01*
X165300343Y-50145333D01*
X165339241Y-50156755D01*
X165343467Y-50158078D01*
X166338455Y-50489242D01*
X166342557Y-50490688D01*
X167325190Y-50857192D01*
X167329232Y-50858782D01*
X167860663Y-51078908D01*
X168298099Y-51260100D01*
X168302157Y-51261867D01*
X169256005Y-51697475D01*
X169259999Y-51699385D01*
X170197755Y-52168792D01*
X170201677Y-52170844D01*
X171122046Y-52673403D01*
X171125859Y-52675574D01*
X171394029Y-52834687D01*
X172027766Y-53210701D01*
X172031531Y-53213028D01*
X172913672Y-53779945D01*
X172917353Y-53782404D01*
X173256571Y-54017927D01*
X173778768Y-54380494D01*
X173782320Y-54383056D01*
X174621806Y-55011488D01*
X174625302Y-55014203D01*
X175441835Y-55672207D01*
X175445232Y-55675046D01*
X176237746Y-56361763D01*
X176241039Y-56364721D01*
X177008548Y-57079297D01*
X177011733Y-57082371D01*
X177753217Y-57823855D01*
X177756291Y-57827040D01*
X178470867Y-58594549D01*
X178473825Y-58597842D01*
X179160542Y-59390356D01*
X179163381Y-59393753D01*
X179821385Y-60210286D01*
X179824100Y-60213782D01*
X180026463Y-60484107D01*
X180450458Y-61050498D01*
X180452518Y-61053249D01*
X180455101Y-61056831D01*
X180545826Y-61187500D01*
X181053184Y-61918235D01*
X181055643Y-61921916D01*
X181622560Y-62804057D01*
X181624887Y-62807822D01*
X182160004Y-63709712D01*
X182162194Y-63713559D01*
X182664744Y-64633911D01*
X182666796Y-64637833D01*
X183136203Y-65575589D01*
X183138113Y-65579583D01*
X183573721Y-66533431D01*
X183575488Y-66537489D01*
X183828991Y-67149499D01*
X183974380Y-67500500D01*
X183976790Y-67506317D01*
X183978407Y-67510427D01*
X184328773Y-68449793D01*
X184344887Y-68492995D01*
X184346359Y-68497170D01*
X184677510Y-69492123D01*
X184678833Y-69496347D01*
X184974275Y-70502529D01*
X184975446Y-70506798D01*
X185234782Y-71522867D01*
X185235800Y-71527175D01*
X185458703Y-72551843D01*
X185459567Y-72556184D01*
X185645761Y-73588187D01*
X185646469Y-73592557D01*
X185795705Y-74630516D01*
X185796257Y-74634908D01*
X185908355Y-75677571D01*
X185908749Y-75681980D01*
X185983557Y-76727936D01*
X185983794Y-76732356D01*
X186021224Y-77780338D01*
X186021303Y-77784764D01*
X186021303Y-78833409D01*
X186021224Y-78837835D01*
X185983794Y-79885817D01*
X185983557Y-79890237D01*
X185908749Y-80936193D01*
X185908355Y-80940602D01*
X185796257Y-81983265D01*
X185795705Y-81987657D01*
X185646469Y-83025616D01*
X185645761Y-83029986D01*
X185459567Y-84061989D01*
X185458703Y-84066330D01*
X185235800Y-85090998D01*
X185234782Y-85095306D01*
X184975446Y-86111375D01*
X184974275Y-86115644D01*
X184678833Y-87121826D01*
X184677510Y-87126050D01*
X184346359Y-88121003D01*
X184344887Y-88125178D01*
X183978411Y-89107737D01*
X183976790Y-89111856D01*
X183575488Y-90080684D01*
X183573721Y-90084742D01*
X183138113Y-91038590D01*
X183136203Y-91042584D01*
X182666796Y-91980340D01*
X182664744Y-91984262D01*
X182162194Y-92904614D01*
X182160004Y-92908461D01*
X181624887Y-93810351D01*
X181622560Y-93814116D01*
X181055643Y-94696257D01*
X181053184Y-94699938D01*
X180455107Y-95561334D01*
X180452518Y-95564924D01*
X179824100Y-96404391D01*
X179821385Y-96407887D01*
X179163381Y-97224420D01*
X179160542Y-97227817D01*
X178473825Y-98020331D01*
X178470867Y-98023624D01*
X177756291Y-98791133D01*
X177753217Y-98794318D01*
X177011733Y-99535802D01*
X177008548Y-99538876D01*
X176241039Y-100253452D01*
X176237746Y-100256410D01*
X175445232Y-100943127D01*
X175441835Y-100945966D01*
X174625302Y-101603970D01*
X174621806Y-101606685D01*
X173782339Y-102235103D01*
X173778749Y-102237692D01*
X172917353Y-102835769D01*
X172913672Y-102838228D01*
X172031531Y-103405145D01*
X172027766Y-103407472D01*
X171125876Y-103942589D01*
X171122029Y-103944779D01*
X170201677Y-104447329D01*
X170197755Y-104449381D01*
X169259999Y-104918788D01*
X169256005Y-104920698D01*
X168302157Y-105356306D01*
X168298099Y-105358073D01*
X167329271Y-105759375D01*
X167325152Y-105760996D01*
X166342593Y-106127472D01*
X166338418Y-106128944D01*
X165343465Y-106460095D01*
X165339241Y-106461418D01*
X164333059Y-106756860D01*
X164328790Y-106758031D01*
X163312721Y-107017367D01*
X163308413Y-107018385D01*
X162283745Y-107241288D01*
X162279404Y-107242152D01*
X161247401Y-107428346D01*
X161243031Y-107429054D01*
X160205072Y-107578290D01*
X160200680Y-107578842D01*
X159158017Y-107690940D01*
X159153608Y-107691334D01*
X158107652Y-107766142D01*
X158103232Y-107766379D01*
X157055251Y-107803809D01*
X157050825Y-107803888D01*
X156002179Y-107803888D01*
X155997753Y-107803809D01*
X154949771Y-107766379D01*
X154945351Y-107766142D01*
X153899395Y-107691334D01*
X153894986Y-107690940D01*
X152852323Y-107578842D01*
X152847931Y-107578290D01*
X151809972Y-107429054D01*
X151805602Y-107428346D01*
X150773599Y-107242152D01*
X150769258Y-107241288D01*
X149744590Y-107018385D01*
X149740282Y-107017367D01*
X148724213Y-106758031D01*
X148719944Y-106756860D01*
X147713762Y-106461418D01*
X147709538Y-106460095D01*
X146714585Y-106128944D01*
X146710410Y-106127472D01*
X145727851Y-105760996D01*
X145723742Y-105759378D01*
X145534152Y-105680848D01*
X144754904Y-105358073D01*
X144750846Y-105356306D01*
X143796998Y-104920698D01*
X143793004Y-104918788D01*
X142855248Y-104449381D01*
X142851326Y-104447329D01*
X141930974Y-103944779D01*
X141927127Y-103942589D01*
X141025237Y-103407472D01*
X141021472Y-103405145D01*
X140139331Y-102838228D01*
X140135650Y-102835769D01*
X139644899Y-102495035D01*
X139506965Y-102399266D01*
X150369500Y-102399266D01*
X150369500Y-102606205D01*
X150409868Y-102809148D01*
X150409870Y-102809156D01*
X150475939Y-102968661D01*
X150489059Y-103000334D01*
X150502836Y-103020953D01*
X150604024Y-103172393D01*
X150750342Y-103318711D01*
X150750345Y-103318713D01*
X150922402Y-103433677D01*
X151113580Y-103512866D01*
X151302187Y-103550382D01*
X151316530Y-103553235D01*
X151316534Y-103553236D01*
X151316535Y-103553236D01*
X151523466Y-103553236D01*
X151523467Y-103553235D01*
X151726420Y-103512866D01*
X151917598Y-103433677D01*
X152089655Y-103318713D01*
X152235977Y-103172391D01*
X152350941Y-103000334D01*
X152430130Y-102809156D01*
X152470500Y-102606201D01*
X152470500Y-102399271D01*
X152430130Y-102196316D01*
X152350941Y-102005138D01*
X152235977Y-101833081D01*
X152235975Y-101833078D01*
X152089657Y-101686760D01*
X151967815Y-101605349D01*
X151917598Y-101571795D01*
X151726420Y-101492606D01*
X151726412Y-101492604D01*
X151523469Y-101452236D01*
X151523465Y-101452236D01*
X151316535Y-101452236D01*
X151316530Y-101452236D01*
X151113587Y-101492604D01*
X151113579Y-101492606D01*
X150922403Y-101571794D01*
X150750342Y-101686760D01*
X150604024Y-101833078D01*
X150489058Y-102005139D01*
X150409870Y-102196315D01*
X150409868Y-102196323D01*
X150369500Y-102399266D01*
X139506965Y-102399266D01*
X139286669Y-102246312D01*
X139274246Y-102237686D01*
X139270664Y-102235103D01*
X139262555Y-102229033D01*
X138754178Y-101848466D01*
X138431197Y-101606685D01*
X138427701Y-101603970D01*
X137611168Y-100945966D01*
X137607771Y-100943127D01*
X136815257Y-100256410D01*
X136811964Y-100253452D01*
X136479518Y-99943934D01*
X136388578Y-99859266D01*
X150369500Y-99859266D01*
X150369500Y-100066205D01*
X150409868Y-100269148D01*
X150409870Y-100269156D01*
X150475939Y-100428661D01*
X150489059Y-100460334D01*
X150502836Y-100480953D01*
X150604024Y-100632393D01*
X150750342Y-100778711D01*
X150750345Y-100778713D01*
X150922402Y-100893677D01*
X151113580Y-100972866D01*
X151316530Y-101013235D01*
X151316534Y-101013236D01*
X151316535Y-101013236D01*
X151523466Y-101013236D01*
X151523467Y-101013235D01*
X151726420Y-100972866D01*
X151917598Y-100893677D01*
X152089655Y-100778713D01*
X152235977Y-100632391D01*
X152350941Y-100460334D01*
X152430130Y-100269156D01*
X152470500Y-100066201D01*
X152470500Y-99859271D01*
X152470499Y-99859266D01*
X152909500Y-99859266D01*
X152909500Y-100066205D01*
X152949868Y-100269148D01*
X152949870Y-100269156D01*
X153015939Y-100428661D01*
X153029059Y-100460334D01*
X153042836Y-100480953D01*
X153144024Y-100632393D01*
X153290342Y-100778711D01*
X153290345Y-100778713D01*
X153462402Y-100893677D01*
X153653580Y-100972866D01*
X153856530Y-101013235D01*
X153856534Y-101013236D01*
X153856535Y-101013236D01*
X154063466Y-101013236D01*
X154063467Y-101013235D01*
X154266420Y-100972866D01*
X154457598Y-100893677D01*
X154629655Y-100778713D01*
X154775977Y-100632391D01*
X154890941Y-100460334D01*
X154959165Y-100295625D01*
X155003004Y-100241224D01*
X155069298Y-100219159D01*
X155136998Y-100236438D01*
X155184609Y-100287575D01*
X155191656Y-100304762D01*
X155248904Y-100480952D01*
X155345375Y-100670286D01*
X155384728Y-100724452D01*
X156017036Y-100092143D01*
X156034075Y-100155729D01*
X156099901Y-100269743D01*
X156192993Y-100362835D01*
X156307007Y-100428661D01*
X156370591Y-100445698D01*
X155769971Y-101046317D01*
X155848711Y-101163631D01*
X155849920Y-101167465D01*
X155852844Y-101170227D01*
X155860343Y-101200514D01*
X155869727Y-101230265D01*
X155868671Y-101234144D01*
X155869638Y-101238048D01*
X155859573Y-101267580D01*
X155851383Y-101297683D01*
X155848397Y-101300376D01*
X155847100Y-101304183D01*
X155802051Y-101343219D01*
X155792440Y-101348116D01*
X155738282Y-101387463D01*
X155738282Y-101387464D01*
X156370591Y-102019773D01*
X156307007Y-102036811D01*
X156192993Y-102102637D01*
X156099901Y-102195729D01*
X156034075Y-102309743D01*
X156017037Y-102373327D01*
X155384728Y-101741018D01*
X155384727Y-101741018D01*
X155345380Y-101795175D01*
X155248905Y-101984517D01*
X155191656Y-102160710D01*
X155152218Y-102218385D01*
X155087859Y-102245583D01*
X155019013Y-102233668D01*
X154967537Y-102186424D01*
X154959164Y-102169843D01*
X154890943Y-102005141D01*
X154775975Y-101833078D01*
X154629657Y-101686760D01*
X154507815Y-101605349D01*
X154457598Y-101571795D01*
X154266420Y-101492606D01*
X154266412Y-101492604D01*
X154063469Y-101452236D01*
X154063465Y-101452236D01*
X153856535Y-101452236D01*
X153856530Y-101452236D01*
X153653587Y-101492604D01*
X153653579Y-101492606D01*
X153462403Y-101571794D01*
X153290342Y-101686760D01*
X153144024Y-101833078D01*
X153029058Y-102005139D01*
X152949870Y-102196315D01*
X152949868Y-102196323D01*
X152909500Y-102399266D01*
X152909500Y-102606205D01*
X152949868Y-102809148D01*
X152949870Y-102809156D01*
X153015939Y-102968661D01*
X153029059Y-103000334D01*
X153042836Y-103020953D01*
X153144024Y-103172393D01*
X153290342Y-103318711D01*
X153290345Y-103318713D01*
X153462402Y-103433677D01*
X153653580Y-103512866D01*
X153842187Y-103550382D01*
X153856530Y-103553235D01*
X153856534Y-103553236D01*
X153856535Y-103553236D01*
X154063466Y-103553236D01*
X154063467Y-103553235D01*
X154266420Y-103512866D01*
X154457598Y-103433677D01*
X154629655Y-103318713D01*
X154775977Y-103172391D01*
X154890941Y-103000334D01*
X154959165Y-102835625D01*
X155003004Y-102781224D01*
X155069298Y-102759159D01*
X155136998Y-102776438D01*
X155184609Y-102827575D01*
X155191656Y-102844762D01*
X155248904Y-103020952D01*
X155345375Y-103210286D01*
X155384728Y-103264452D01*
X156017036Y-102632143D01*
X156034075Y-102695729D01*
X156099901Y-102809743D01*
X156192993Y-102902835D01*
X156307007Y-102968661D01*
X156370590Y-102985698D01*
X155738282Y-103618005D01*
X155738282Y-103618006D01*
X155792449Y-103657360D01*
X155981782Y-103753831D01*
X156183870Y-103819493D01*
X156393754Y-103852736D01*
X156606246Y-103852736D01*
X156816127Y-103819493D01*
X156816130Y-103819493D01*
X157018217Y-103753831D01*
X157207554Y-103657358D01*
X157261716Y-103618006D01*
X157261717Y-103618006D01*
X156629408Y-102985698D01*
X156692993Y-102968661D01*
X156807007Y-102902835D01*
X156900099Y-102809743D01*
X156965925Y-102695729D01*
X156982962Y-102632144D01*
X157615270Y-103264453D01*
X157615270Y-103264452D01*
X157654622Y-103210290D01*
X157751095Y-103020953D01*
X157808343Y-102844762D01*
X157847780Y-102787087D01*
X157912139Y-102759888D01*
X157980985Y-102771802D01*
X158032461Y-102819046D01*
X158040835Y-102835627D01*
X158095939Y-102968661D01*
X158109059Y-103000334D01*
X158122836Y-103020953D01*
X158224024Y-103172393D01*
X158370342Y-103318711D01*
X158370345Y-103318713D01*
X158542402Y-103433677D01*
X158733580Y-103512866D01*
X158922187Y-103550382D01*
X158936530Y-103553235D01*
X158936534Y-103553236D01*
X158936535Y-103553236D01*
X159143466Y-103553236D01*
X159143467Y-103553235D01*
X159346420Y-103512866D01*
X159537598Y-103433677D01*
X159709655Y-103318713D01*
X159855977Y-103172391D01*
X159970941Y-103000334D01*
X160050130Y-102809156D01*
X160090500Y-102606201D01*
X160090500Y-102399271D01*
X160050130Y-102196316D01*
X159970941Y-102005138D01*
X159910353Y-101914461D01*
X159910352Y-101914458D01*
X159866257Y-101848466D01*
X160529500Y-101848466D01*
X160529500Y-103157005D01*
X160532353Y-103187435D01*
X160532353Y-103187437D01*
X160577206Y-103315616D01*
X160577207Y-103315618D01*
X160657850Y-103424886D01*
X160767118Y-103505529D01*
X160788089Y-103512867D01*
X160895299Y-103550382D01*
X160925730Y-103553236D01*
X160925734Y-103553236D01*
X162234270Y-103553236D01*
X162264699Y-103550382D01*
X162264701Y-103550382D01*
X162328790Y-103527955D01*
X162392882Y-103505529D01*
X162502150Y-103424886D01*
X162582793Y-103315618D01*
X162619649Y-103210290D01*
X162627646Y-103187437D01*
X162627646Y-103187435D01*
X162630500Y-103157005D01*
X162630500Y-101848466D01*
X162627646Y-101818036D01*
X162627646Y-101818034D01*
X162582793Y-101689855D01*
X162582792Y-101689853D01*
X162502150Y-101580586D01*
X162392882Y-101499943D01*
X162392880Y-101499942D01*
X162264700Y-101455089D01*
X162234270Y-101452236D01*
X162234266Y-101452236D01*
X160925734Y-101452236D01*
X160925730Y-101452236D01*
X160895300Y-101455089D01*
X160895298Y-101455089D01*
X160767119Y-101499942D01*
X160767117Y-101499943D01*
X160657850Y-101580586D01*
X160577207Y-101689853D01*
X160577206Y-101689855D01*
X160532353Y-101818034D01*
X160532353Y-101818036D01*
X160529500Y-101848466D01*
X159866257Y-101848466D01*
X159855980Y-101833085D01*
X159855974Y-101833077D01*
X159709657Y-101686760D01*
X159587815Y-101605349D01*
X159537598Y-101571795D01*
X159346420Y-101492606D01*
X159346412Y-101492604D01*
X159143469Y-101452236D01*
X159143465Y-101452236D01*
X158936535Y-101452236D01*
X158936530Y-101452236D01*
X158733587Y-101492604D01*
X158733579Y-101492606D01*
X158542403Y-101571794D01*
X158370342Y-101686760D01*
X158224024Y-101833078D01*
X158109057Y-102005139D01*
X158040835Y-102169844D01*
X157996994Y-102224247D01*
X157930700Y-102246312D01*
X157863000Y-102229033D01*
X157815390Y-102177895D01*
X157808343Y-102160709D01*
X157751095Y-101984518D01*
X157654624Y-101795185D01*
X157615270Y-101741018D01*
X157615269Y-101741018D01*
X156982962Y-102373326D01*
X156965925Y-102309743D01*
X156900099Y-102195729D01*
X156807007Y-102102637D01*
X156692993Y-102036811D01*
X156629409Y-102019773D01*
X157261716Y-101387464D01*
X157207550Y-101348111D01*
X157197954Y-101343222D01*
X157147157Y-101295248D01*
X157130361Y-101227428D01*
X157152897Y-101161292D01*
X157197954Y-101122250D01*
X157207554Y-101117358D01*
X157261716Y-101078006D01*
X157261717Y-101078006D01*
X156629408Y-100445698D01*
X156692993Y-100428661D01*
X156807007Y-100362835D01*
X156900099Y-100269743D01*
X156965925Y-100155729D01*
X156982962Y-100092144D01*
X157615270Y-100724453D01*
X157615270Y-100724452D01*
X157654622Y-100670290D01*
X157751095Y-100480953D01*
X157808343Y-100304762D01*
X157847780Y-100247087D01*
X157912139Y-100219888D01*
X157980985Y-100231802D01*
X158032461Y-100279046D01*
X158040835Y-100295627D01*
X158095939Y-100428661D01*
X158109059Y-100460334D01*
X158122836Y-100480953D01*
X158224024Y-100632393D01*
X158370342Y-100778711D01*
X158370345Y-100778713D01*
X158542402Y-100893677D01*
X158733580Y-100972866D01*
X158936530Y-101013235D01*
X158936534Y-101013236D01*
X158936535Y-101013236D01*
X159143466Y-101013236D01*
X159143467Y-101013235D01*
X159346420Y-100972866D01*
X159537598Y-100893677D01*
X159709655Y-100778713D01*
X159855977Y-100632391D01*
X159970941Y-100460334D01*
X160050130Y-100269156D01*
X160090500Y-100066201D01*
X160090500Y-99859271D01*
X160090499Y-99859266D01*
X160529500Y-99859266D01*
X160529500Y-100066205D01*
X160569868Y-100269148D01*
X160569870Y-100269156D01*
X160635939Y-100428661D01*
X160649059Y-100460334D01*
X160662836Y-100480953D01*
X160764024Y-100632393D01*
X160910342Y-100778711D01*
X160910345Y-100778713D01*
X161082402Y-100893677D01*
X161273580Y-100972866D01*
X161476530Y-101013235D01*
X161476534Y-101013236D01*
X161476535Y-101013236D01*
X161683466Y-101013236D01*
X161683467Y-101013235D01*
X161886420Y-100972866D01*
X162077598Y-100893677D01*
X162249655Y-100778713D01*
X162395977Y-100632391D01*
X162510941Y-100460334D01*
X162590130Y-100269156D01*
X162630500Y-100066201D01*
X162630500Y-99859271D01*
X162590130Y-99656316D01*
X162510941Y-99465138D01*
X162395977Y-99293081D01*
X162395975Y-99293078D01*
X162249657Y-99146760D01*
X162163626Y-99089277D01*
X162077598Y-99031795D01*
X161886420Y-98952606D01*
X161886412Y-98952604D01*
X161683469Y-98912236D01*
X161683465Y-98912236D01*
X161476535Y-98912236D01*
X161476530Y-98912236D01*
X161273587Y-98952604D01*
X161273579Y-98952606D01*
X161082403Y-99031794D01*
X160910342Y-99146760D01*
X160764024Y-99293078D01*
X160649058Y-99465139D01*
X160569870Y-99656315D01*
X160569868Y-99656323D01*
X160529500Y-99859266D01*
X160090499Y-99859266D01*
X160050130Y-99656316D01*
X159970941Y-99465138D01*
X159855977Y-99293081D01*
X159855975Y-99293078D01*
X159709657Y-99146760D01*
X159623626Y-99089277D01*
X159537598Y-99031795D01*
X159346420Y-98952606D01*
X159346412Y-98952604D01*
X159143469Y-98912236D01*
X159143465Y-98912236D01*
X158936535Y-98912236D01*
X158936530Y-98912236D01*
X158733587Y-98952604D01*
X158733579Y-98952606D01*
X158542403Y-99031794D01*
X158370342Y-99146760D01*
X158224024Y-99293078D01*
X158109057Y-99465139D01*
X158040835Y-99629844D01*
X157996994Y-99684247D01*
X157930700Y-99706312D01*
X157863000Y-99689033D01*
X157815390Y-99637895D01*
X157808343Y-99620709D01*
X157751095Y-99444518D01*
X157654624Y-99255185D01*
X157615270Y-99201018D01*
X157615269Y-99201018D01*
X156982962Y-99833326D01*
X156965925Y-99769743D01*
X156900099Y-99655729D01*
X156807007Y-99562637D01*
X156692993Y-99496811D01*
X156629409Y-99479773D01*
X157261716Y-98847464D01*
X157207550Y-98808111D01*
X157018217Y-98711640D01*
X156816129Y-98645978D01*
X156606246Y-98612736D01*
X156393754Y-98612736D01*
X156183872Y-98645978D01*
X156183869Y-98645978D01*
X155981782Y-98711640D01*
X155792439Y-98808116D01*
X155738282Y-98847463D01*
X155738282Y-98847464D01*
X156370591Y-99479773D01*
X156307007Y-99496811D01*
X156192993Y-99562637D01*
X156099901Y-99655729D01*
X156034075Y-99769743D01*
X156017037Y-99833327D01*
X155384728Y-99201018D01*
X155384727Y-99201018D01*
X155345380Y-99255175D01*
X155248905Y-99444517D01*
X155191656Y-99620710D01*
X155152218Y-99678385D01*
X155087859Y-99705583D01*
X155019013Y-99693668D01*
X154967537Y-99646424D01*
X154959164Y-99629843D01*
X154890943Y-99465141D01*
X154775975Y-99293078D01*
X154629657Y-99146760D01*
X154543626Y-99089277D01*
X154457598Y-99031795D01*
X154266420Y-98952606D01*
X154266412Y-98952604D01*
X154063469Y-98912236D01*
X154063465Y-98912236D01*
X153856535Y-98912236D01*
X153856530Y-98912236D01*
X153653587Y-98952604D01*
X153653579Y-98952606D01*
X153462403Y-99031794D01*
X153290342Y-99146760D01*
X153144024Y-99293078D01*
X153029058Y-99465139D01*
X152949870Y-99656315D01*
X152949868Y-99656323D01*
X152909500Y-99859266D01*
X152470499Y-99859266D01*
X152430130Y-99656316D01*
X152350941Y-99465138D01*
X152235977Y-99293081D01*
X152235975Y-99293078D01*
X152089657Y-99146760D01*
X152003626Y-99089277D01*
X151917598Y-99031795D01*
X151726420Y-98952606D01*
X151726412Y-98952604D01*
X151523469Y-98912236D01*
X151523465Y-98912236D01*
X151316535Y-98912236D01*
X151316530Y-98912236D01*
X151113587Y-98952604D01*
X151113579Y-98952606D01*
X150922403Y-99031794D01*
X150750342Y-99146760D01*
X150604024Y-99293078D01*
X150489058Y-99465139D01*
X150409870Y-99656315D01*
X150409868Y-99656323D01*
X150369500Y-99859266D01*
X136388578Y-99859266D01*
X136044455Y-99538876D01*
X136041270Y-99535802D01*
X135299786Y-98794318D01*
X135296712Y-98791133D01*
X134582136Y-98023624D01*
X134579178Y-98020331D01*
X133892461Y-97227817D01*
X133889622Y-97224420D01*
X133231618Y-96407887D01*
X133228903Y-96404391D01*
X133030481Y-96139331D01*
X132600471Y-95564905D01*
X132597909Y-95561353D01*
X132281422Y-95105525D01*
X136455439Y-95105525D01*
X136455439Y-95453774D01*
X136494428Y-95799808D01*
X136494430Y-95799820D01*
X136571921Y-96139334D01*
X136571924Y-96139342D01*
X136686938Y-96468032D01*
X136838031Y-96781780D01*
X137023310Y-97076649D01*
X137023311Y-97076651D01*
X137240426Y-97348906D01*
X137486682Y-97595162D01*
X137758937Y-97812277D01*
X137758940Y-97812278D01*
X137758942Y-97812280D01*
X138053806Y-97997556D01*
X138367560Y-98148652D01*
X138614427Y-98235034D01*
X138696246Y-98263664D01*
X138696254Y-98263667D01*
X138696257Y-98263667D01*
X138696258Y-98263668D01*
X139035768Y-98341159D01*
X139381815Y-98380149D01*
X139381816Y-98380150D01*
X139381819Y-98380150D01*
X139730062Y-98380150D01*
X139730062Y-98380149D01*
X140076110Y-98341159D01*
X140415620Y-98263668D01*
X140744318Y-98148652D01*
X141058072Y-97997556D01*
X141352936Y-97812280D01*
X141352940Y-97812277D01*
X141625195Y-97595162D01*
X141625197Y-97595159D01*
X141625202Y-97595156D01*
X141871445Y-97348913D01*
X141968016Y-97227817D01*
X142088566Y-97076651D01*
X142088567Y-97076649D01*
X142088569Y-97076647D01*
X142273845Y-96781783D01*
X142424941Y-96468029D01*
X142539957Y-96139331D01*
X142617448Y-95799821D01*
X142656439Y-95453770D01*
X142656439Y-95105530D01*
X142656438Y-95105525D01*
X170396565Y-95105525D01*
X170396565Y-95453774D01*
X170435554Y-95799808D01*
X170435556Y-95799820D01*
X170513047Y-96139334D01*
X170513050Y-96139342D01*
X170628064Y-96468032D01*
X170779157Y-96781780D01*
X170964436Y-97076649D01*
X170964437Y-97076651D01*
X171181552Y-97348906D01*
X171427808Y-97595162D01*
X171700063Y-97812277D01*
X171700066Y-97812278D01*
X171700068Y-97812280D01*
X171994932Y-97997556D01*
X172308686Y-98148652D01*
X172555553Y-98235034D01*
X172637372Y-98263664D01*
X172637380Y-98263667D01*
X172637383Y-98263667D01*
X172637384Y-98263668D01*
X172976894Y-98341159D01*
X173322941Y-98380149D01*
X173322942Y-98380150D01*
X173322945Y-98380150D01*
X173671188Y-98380150D01*
X173671188Y-98380149D01*
X174017236Y-98341159D01*
X174356746Y-98263668D01*
X174685444Y-98148652D01*
X174999198Y-97997556D01*
X175294062Y-97812280D01*
X175294066Y-97812277D01*
X175566321Y-97595162D01*
X175566323Y-97595159D01*
X175566328Y-97595156D01*
X175812571Y-97348913D01*
X175909142Y-97227817D01*
X176029692Y-97076651D01*
X176029693Y-97076649D01*
X176029695Y-97076647D01*
X176214971Y-96781783D01*
X176366067Y-96468029D01*
X176481083Y-96139331D01*
X176558574Y-95799821D01*
X176597565Y-95453770D01*
X176597565Y-95105530D01*
X176558574Y-94759479D01*
X176481083Y-94419969D01*
X176366067Y-94091271D01*
X176214971Y-93777517D01*
X176029695Y-93482653D01*
X176029693Y-93482650D01*
X176029692Y-93482648D01*
X175812577Y-93210393D01*
X175566321Y-92964137D01*
X175294066Y-92747022D01*
X175294064Y-92747021D01*
X174999195Y-92561742D01*
X174685447Y-92410649D01*
X174356757Y-92295635D01*
X174356749Y-92295632D01*
X174097799Y-92236529D01*
X174017236Y-92218141D01*
X174017232Y-92218140D01*
X174017223Y-92218139D01*
X173671189Y-92179150D01*
X173671185Y-92179150D01*
X173322945Y-92179150D01*
X173322940Y-92179150D01*
X172976906Y-92218139D01*
X172976894Y-92218141D01*
X172637380Y-92295632D01*
X172637372Y-92295635D01*
X172308682Y-92410649D01*
X171994934Y-92561742D01*
X171700065Y-92747021D01*
X171700063Y-92747022D01*
X171427808Y-92964137D01*
X171181552Y-93210393D01*
X170964437Y-93482648D01*
X170964436Y-93482650D01*
X170779157Y-93777519D01*
X170628064Y-94091267D01*
X170513050Y-94419957D01*
X170513047Y-94419965D01*
X170435556Y-94759479D01*
X170435554Y-94759491D01*
X170396565Y-95105525D01*
X142656438Y-95105525D01*
X142617448Y-94759479D01*
X142561215Y-94513108D01*
X158974499Y-94513108D01*
X158974499Y-94644891D01*
X159008607Y-94772187D01*
X159041553Y-94829250D01*
X159074499Y-94886314D01*
X159167685Y-94979500D01*
X159281813Y-95045392D01*
X159409107Y-95079500D01*
X159409109Y-95079500D01*
X159540889Y-95079500D01*
X159540891Y-95079500D01*
X159668185Y-95045392D01*
X159782313Y-94979500D01*
X159875499Y-94886314D01*
X159941391Y-94772186D01*
X159975499Y-94644892D01*
X159975499Y-94513108D01*
X159941391Y-94385814D01*
X159875499Y-94271686D01*
X159782313Y-94178500D01*
X159725249Y-94145554D01*
X159668186Y-94112608D01*
X159588553Y-94091271D01*
X159540891Y-94078500D01*
X159409107Y-94078500D01*
X159281811Y-94112608D01*
X159167685Y-94178500D01*
X159167682Y-94178502D01*
X159074501Y-94271683D01*
X159074499Y-94271686D01*
X159008607Y-94385812D01*
X158974499Y-94513108D01*
X142561215Y-94513108D01*
X142539957Y-94419969D01*
X142424941Y-94091271D01*
X142273845Y-93777517D01*
X142088569Y-93482653D01*
X142088567Y-93482650D01*
X142088566Y-93482648D01*
X141871451Y-93210393D01*
X141625195Y-92964137D01*
X141352940Y-92747022D01*
X141352938Y-92747021D01*
X141227183Y-92668004D01*
X141073021Y-92571137D01*
X160916470Y-92571137D01*
X160916470Y-92702921D01*
X160928287Y-92747022D01*
X160950578Y-92830216D01*
X160983524Y-92887279D01*
X161016470Y-92944343D01*
X161109656Y-93037529D01*
X161223784Y-93103421D01*
X161351078Y-93137529D01*
X161351080Y-93137529D01*
X161482860Y-93137529D01*
X161482862Y-93137529D01*
X161610156Y-93103421D01*
X161724284Y-93037529D01*
X161817470Y-92944343D01*
X161883362Y-92830215D01*
X161917470Y-92702921D01*
X161917470Y-92571137D01*
X161883362Y-92443843D01*
X161817470Y-92329715D01*
X161724284Y-92236529D01*
X161667220Y-92203583D01*
X161610157Y-92170637D01*
X161546509Y-92153583D01*
X161482862Y-92136529D01*
X161351078Y-92136529D01*
X161223782Y-92170637D01*
X161109656Y-92236529D01*
X161109653Y-92236531D01*
X161016472Y-92329712D01*
X161016470Y-92329715D01*
X160950578Y-92443841D01*
X160949321Y-92448533D01*
X160916470Y-92571137D01*
X141073021Y-92571137D01*
X141058069Y-92561742D01*
X140744321Y-92410649D01*
X140415631Y-92295635D01*
X140415623Y-92295632D01*
X140156673Y-92236529D01*
X140076110Y-92218141D01*
X140076106Y-92218140D01*
X140076097Y-92218139D01*
X139730063Y-92179150D01*
X139730059Y-92179150D01*
X139381819Y-92179150D01*
X139381814Y-92179150D01*
X139035780Y-92218139D01*
X139035768Y-92218141D01*
X138696254Y-92295632D01*
X138696246Y-92295635D01*
X138367556Y-92410649D01*
X138053808Y-92561742D01*
X137758939Y-92747021D01*
X137758937Y-92747022D01*
X137486682Y-92964137D01*
X137240426Y-93210393D01*
X137023311Y-93482648D01*
X137023310Y-93482650D01*
X136838031Y-93777519D01*
X136686938Y-94091267D01*
X136571924Y-94419957D01*
X136571921Y-94419965D01*
X136494430Y-94759479D01*
X136494428Y-94759491D01*
X136455439Y-95105525D01*
X132281422Y-95105525D01*
X132049982Y-94772187D01*
X131999819Y-94699938D01*
X131997360Y-94696257D01*
X131430443Y-93814116D01*
X131428116Y-93810351D01*
X131182665Y-93396666D01*
X130892989Y-92908444D01*
X130890809Y-92904614D01*
X130804757Y-92747022D01*
X130471403Y-92136529D01*
X130388259Y-91984262D01*
X130386207Y-91980339D01*
X130136500Y-91481487D01*
X130136499Y-91481486D01*
X130112783Y-91434108D01*
X148499500Y-91434108D01*
X148499500Y-91565891D01*
X148533608Y-91693187D01*
X148547005Y-91716391D01*
X148599500Y-91807314D01*
X148692686Y-91900500D01*
X148806814Y-91966392D01*
X148934108Y-92000500D01*
X148934110Y-92000500D01*
X149065890Y-92000500D01*
X149065892Y-92000500D01*
X149193186Y-91966392D01*
X149307314Y-91900500D01*
X149400500Y-91807314D01*
X149466392Y-91693186D01*
X149500500Y-91565892D01*
X149500500Y-91434108D01*
X149466392Y-91306814D01*
X149400500Y-91192686D01*
X149391922Y-91184108D01*
X163249500Y-91184108D01*
X163249500Y-91315891D01*
X163283608Y-91443187D01*
X163305721Y-91481487D01*
X163349500Y-91557314D01*
X163442686Y-91650500D01*
X163556814Y-91716392D01*
X163684108Y-91750500D01*
X163684110Y-91750500D01*
X163815890Y-91750500D01*
X163815892Y-91750500D01*
X163943186Y-91716392D01*
X164057314Y-91650500D01*
X164150500Y-91557314D01*
X164163462Y-91534864D01*
X165792725Y-91534864D01*
X165792725Y-91666648D01*
X165806054Y-91716392D01*
X165826833Y-91793943D01*
X165859779Y-91851006D01*
X165892725Y-91908070D01*
X165985911Y-92001256D01*
X166100039Y-92067148D01*
X166227333Y-92101256D01*
X166227335Y-92101256D01*
X166359115Y-92101256D01*
X166359117Y-92101256D01*
X166486411Y-92067148D01*
X166600539Y-92001256D01*
X166693725Y-91908070D01*
X166759617Y-91793942D01*
X166793725Y-91666648D01*
X166793725Y-91534864D01*
X166759617Y-91407570D01*
X166693725Y-91293442D01*
X166600539Y-91200256D01*
X166543475Y-91167310D01*
X166486412Y-91134364D01*
X166422764Y-91117310D01*
X166359117Y-91100256D01*
X166227333Y-91100256D01*
X166100037Y-91134364D01*
X165985911Y-91200256D01*
X165985908Y-91200258D01*
X165892727Y-91293439D01*
X165892725Y-91293442D01*
X165826833Y-91407568D01*
X165808835Y-91474739D01*
X165792725Y-91534864D01*
X164163462Y-91534864D01*
X164216392Y-91443186D01*
X164250500Y-91315892D01*
X164250500Y-91184108D01*
X164216392Y-91056814D01*
X164150500Y-90942686D01*
X164057314Y-90849500D01*
X164000250Y-90816554D01*
X163943187Y-90783608D01*
X163879539Y-90766554D01*
X163815892Y-90749500D01*
X163684108Y-90749500D01*
X163556812Y-90783608D01*
X163442686Y-90849500D01*
X163442683Y-90849502D01*
X163349502Y-90942683D01*
X163349500Y-90942686D01*
X163283608Y-91056812D01*
X163249500Y-91184108D01*
X149391922Y-91184108D01*
X149307314Y-91099500D01*
X149233380Y-91056814D01*
X149193187Y-91033608D01*
X149129539Y-91016554D01*
X149065892Y-90999500D01*
X148934108Y-90999500D01*
X148806812Y-91033608D01*
X148692686Y-91099500D01*
X148692683Y-91099502D01*
X148599502Y-91192683D01*
X148599500Y-91192686D01*
X148533608Y-91306812D01*
X148499500Y-91434108D01*
X130112783Y-91434108D01*
X129916800Y-91042584D01*
X129914890Y-91038591D01*
X129897856Y-91001292D01*
X129876872Y-90955344D01*
X129866929Y-90886189D01*
X129895953Y-90822633D01*
X129954731Y-90784858D01*
X130024601Y-90784858D01*
X130062553Y-90803517D01*
X130083382Y-90818650D01*
X130260377Y-90908834D01*
X130449292Y-90970216D01*
X130645494Y-91001292D01*
X130844136Y-91001292D01*
X131040335Y-90970216D01*
X131040338Y-90970216D01*
X131229252Y-90908834D01*
X131406240Y-90818654D01*
X131443530Y-90791560D01*
X130880756Y-90228787D01*
X130940896Y-90212673D01*
X131056735Y-90145794D01*
X131151317Y-90051212D01*
X131218196Y-89935373D01*
X131234310Y-89875234D01*
X131797083Y-90438007D01*
X131824177Y-90400717D01*
X131904330Y-90243409D01*
X131952304Y-90192613D01*
X132020125Y-90175818D01*
X132086260Y-90198355D01*
X132125300Y-90243409D01*
X132205456Y-90400724D01*
X132232545Y-90438007D01*
X132232546Y-90438008D01*
X132795319Y-89875234D01*
X132811434Y-89935373D01*
X132878313Y-90051212D01*
X132972895Y-90145794D01*
X133088734Y-90212673D01*
X133148872Y-90228786D01*
X132586098Y-90791560D01*
X132586098Y-90791561D01*
X132623382Y-90818650D01*
X132800377Y-90908834D01*
X132989292Y-90970216D01*
X133185494Y-91001292D01*
X133384136Y-91001292D01*
X133580335Y-90970216D01*
X133580338Y-90970216D01*
X133769252Y-90908834D01*
X133946240Y-90818654D01*
X133983531Y-90791560D01*
X133420757Y-90228786D01*
X133480896Y-90212673D01*
X133596735Y-90145794D01*
X133691317Y-90051212D01*
X133758196Y-89935373D01*
X133774310Y-89875234D01*
X134337083Y-90438007D01*
X134364177Y-90400717D01*
X134454357Y-90223729D01*
X134515739Y-90034815D01*
X134515739Y-90034812D01*
X134546815Y-89838613D01*
X134546815Y-89639970D01*
X134515995Y-89445379D01*
X134515739Y-89443770D01*
X134515739Y-89443768D01*
X134512600Y-89434108D01*
X155499500Y-89434108D01*
X155499500Y-89565891D01*
X155533608Y-89693187D01*
X155560227Y-89739291D01*
X155599500Y-89807314D01*
X155692686Y-89900500D01*
X155706890Y-89908701D01*
X155742295Y-89929143D01*
X155790510Y-89979710D01*
X155803732Y-90048317D01*
X155777764Y-90113182D01*
X155767976Y-90124210D01*
X155699500Y-90192686D01*
X155633608Y-90306812D01*
X155599500Y-90434108D01*
X155599500Y-90565891D01*
X155633608Y-90693187D01*
X155666121Y-90749500D01*
X155699500Y-90807314D01*
X155792686Y-90900500D01*
X155906814Y-90966392D01*
X156034108Y-91000500D01*
X156034110Y-91000500D01*
X156165890Y-91000500D01*
X156165892Y-91000500D01*
X156293186Y-90966392D01*
X156407314Y-90900500D01*
X156500500Y-90807314D01*
X156566392Y-90693186D01*
X156600500Y-90565892D01*
X156600500Y-90434108D01*
X156566392Y-90306814D01*
X156500500Y-90192686D01*
X156407314Y-90099500D01*
X156395610Y-90092743D01*
X156357703Y-90070856D01*
X156309488Y-90020288D01*
X156296267Y-89951681D01*
X156322236Y-89886817D01*
X156332008Y-89875805D01*
X156400500Y-89807314D01*
X156466392Y-89693186D01*
X156500500Y-89565892D01*
X156500500Y-89434108D01*
X156466392Y-89306814D01*
X156400500Y-89192686D01*
X156307314Y-89099500D01*
X156250250Y-89066554D01*
X156193187Y-89033608D01*
X156129539Y-89016554D01*
X156065892Y-88999500D01*
X155934108Y-88999500D01*
X155806812Y-89033608D01*
X155692686Y-89099500D01*
X155692683Y-89099502D01*
X155599502Y-89192683D01*
X155599500Y-89192686D01*
X155533608Y-89306812D01*
X155499500Y-89434108D01*
X134512600Y-89434108D01*
X134454357Y-89254854D01*
X134364173Y-89077859D01*
X134337083Y-89040575D01*
X133774309Y-89603349D01*
X133758196Y-89543211D01*
X133691317Y-89427372D01*
X133596735Y-89332790D01*
X133480896Y-89265911D01*
X133420757Y-89249796D01*
X133983531Y-88687023D01*
X133983530Y-88687022D01*
X133946247Y-88659933D01*
X133769252Y-88569749D01*
X133580337Y-88508367D01*
X133384136Y-88477292D01*
X133185494Y-88477292D01*
X132989294Y-88508367D01*
X132989291Y-88508367D01*
X132800377Y-88569749D01*
X132623379Y-88659935D01*
X132586098Y-88687021D01*
X132586097Y-88687022D01*
X133148873Y-89249796D01*
X133088734Y-89265911D01*
X132972895Y-89332790D01*
X132878313Y-89427372D01*
X132811434Y-89543211D01*
X132795319Y-89603349D01*
X132232545Y-89040574D01*
X132232544Y-89040575D01*
X132205458Y-89077856D01*
X132125300Y-89235174D01*
X132077325Y-89285970D01*
X132009504Y-89302765D01*
X131943369Y-89280227D01*
X131904330Y-89235174D01*
X131824173Y-89077859D01*
X131797083Y-89040575D01*
X131234309Y-89603349D01*
X131218196Y-89543211D01*
X131151317Y-89427372D01*
X131056735Y-89332790D01*
X130940896Y-89265911D01*
X130880757Y-89249796D01*
X131443531Y-88687023D01*
X131443530Y-88687022D01*
X131406247Y-88659933D01*
X131229252Y-88569749D01*
X131040337Y-88508367D01*
X130844136Y-88477292D01*
X130645494Y-88477292D01*
X130449294Y-88508367D01*
X130449291Y-88508367D01*
X130260377Y-88569749D01*
X130083379Y-88659935D01*
X130046098Y-88687021D01*
X130046097Y-88687022D01*
X130608873Y-89249796D01*
X130548734Y-89265911D01*
X130432895Y-89332790D01*
X130338313Y-89427372D01*
X130271434Y-89543211D01*
X130255319Y-89603350D01*
X129692545Y-89040574D01*
X129692544Y-89040575D01*
X129665458Y-89077856D01*
X129575272Y-89254854D01*
X129513890Y-89443768D01*
X129513890Y-89443771D01*
X129499634Y-89533778D01*
X129469704Y-89596913D01*
X129410393Y-89633844D01*
X129340530Y-89632846D01*
X129282298Y-89594236D01*
X129262600Y-89561833D01*
X129076197Y-89111817D01*
X129074607Y-89107775D01*
X128708103Y-88125142D01*
X128706657Y-88121040D01*
X128375487Y-87126033D01*
X128374170Y-87121826D01*
X128369079Y-87104489D01*
X129782315Y-87104489D01*
X129782315Y-87294094D01*
X129819301Y-87480035D01*
X129819303Y-87480043D01*
X129891857Y-87655204D01*
X129997192Y-87812850D01*
X130131256Y-87946914D01*
X130211452Y-88000499D01*
X130288900Y-88052248D01*
X130464064Y-88124804D01*
X130650012Y-88161791D01*
X130650016Y-88161792D01*
X130650017Y-88161792D01*
X130839614Y-88161792D01*
X130839615Y-88161791D01*
X131025566Y-88124804D01*
X131200730Y-88052248D01*
X131358373Y-87946914D01*
X131492437Y-87812850D01*
X131597771Y-87655207D01*
X131670327Y-87480043D01*
X131707315Y-87294090D01*
X131707315Y-87104494D01*
X131707314Y-87104489D01*
X132322315Y-87104489D01*
X132322315Y-87294094D01*
X132359301Y-87480035D01*
X132359303Y-87480043D01*
X132431857Y-87655204D01*
X132537192Y-87812850D01*
X132671256Y-87946914D01*
X132751452Y-88000499D01*
X132828900Y-88052248D01*
X133004064Y-88124804D01*
X133190012Y-88161791D01*
X133190016Y-88161792D01*
X133190017Y-88161792D01*
X133379614Y-88161792D01*
X133379615Y-88161791D01*
X133565566Y-88124804D01*
X133740730Y-88052248D01*
X133898373Y-87946914D01*
X134028122Y-87817165D01*
X156882557Y-87817165D01*
X156882557Y-87948948D01*
X156916665Y-88076244D01*
X156942507Y-88121003D01*
X156982557Y-88190371D01*
X157075743Y-88283557D01*
X157189871Y-88349449D01*
X157317165Y-88383557D01*
X157317167Y-88383557D01*
X157448947Y-88383557D01*
X157448949Y-88383557D01*
X157576243Y-88349449D01*
X157690371Y-88283557D01*
X157783557Y-88190371D01*
X157849449Y-88076243D01*
X157883557Y-87948949D01*
X157883557Y-87817165D01*
X157849449Y-87689871D01*
X157783557Y-87575743D01*
X157690371Y-87482557D01*
X157606459Y-87434110D01*
X157576244Y-87416665D01*
X157512596Y-87399611D01*
X157448949Y-87382557D01*
X157317165Y-87382557D01*
X157189869Y-87416665D01*
X157075743Y-87482557D01*
X157075740Y-87482559D01*
X156982559Y-87575740D01*
X156982557Y-87575743D01*
X156916665Y-87689869D01*
X156882557Y-87817165D01*
X134028122Y-87817165D01*
X134032437Y-87812850D01*
X134137771Y-87655207D01*
X134210327Y-87480043D01*
X134247315Y-87294090D01*
X134247315Y-87104494D01*
X134239637Y-87065892D01*
X134216620Y-86950177D01*
X134216619Y-86950175D01*
X134213423Y-86934108D01*
X159999500Y-86934108D01*
X159999500Y-87065891D01*
X160033608Y-87193187D01*
X160058786Y-87236795D01*
X160099500Y-87307314D01*
X160192686Y-87400500D01*
X160306814Y-87466392D01*
X160434108Y-87500500D01*
X160434110Y-87500500D01*
X160565890Y-87500500D01*
X160565892Y-87500500D01*
X160693186Y-87466392D01*
X160807314Y-87400500D01*
X160900500Y-87307314D01*
X160966392Y-87193186D01*
X160990018Y-87105013D01*
X161284495Y-87105013D01*
X161284495Y-87236796D01*
X161318603Y-87364092D01*
X161319438Y-87365538D01*
X161384495Y-87478219D01*
X161477681Y-87571405D01*
X161591809Y-87637297D01*
X161719103Y-87671405D01*
X161719105Y-87671405D01*
X161850885Y-87671405D01*
X161850887Y-87671405D01*
X161978181Y-87637297D01*
X162092309Y-87571405D01*
X162185495Y-87478219D01*
X162210963Y-87434108D01*
X168553300Y-87434108D01*
X168553300Y-87565892D01*
X168554777Y-87571404D01*
X168587408Y-87693187D01*
X168614520Y-87740145D01*
X168653300Y-87807314D01*
X168746486Y-87900500D01*
X168860614Y-87966392D01*
X168987908Y-88000500D01*
X168987910Y-88000500D01*
X169119690Y-88000500D01*
X169119692Y-88000500D01*
X169246986Y-87966392D01*
X169361114Y-87900500D01*
X169454300Y-87807314D01*
X169520192Y-87693186D01*
X169554300Y-87565892D01*
X169554300Y-87434108D01*
X169520192Y-87306814D01*
X169454300Y-87192686D01*
X169361114Y-87099500D01*
X169302900Y-87065890D01*
X169246987Y-87033608D01*
X169183339Y-87016554D01*
X169119692Y-86999500D01*
X168987908Y-86999500D01*
X168860612Y-87033608D01*
X168746486Y-87099500D01*
X168746483Y-87099502D01*
X168653302Y-87192683D01*
X168653300Y-87192686D01*
X168587408Y-87306812D01*
X168571673Y-87365537D01*
X168553300Y-87434108D01*
X162210963Y-87434108D01*
X162251387Y-87364091D01*
X162285495Y-87236797D01*
X162285495Y-87105013D01*
X162251387Y-86977719D01*
X162185495Y-86863591D01*
X162092309Y-86770405D01*
X162035245Y-86737459D01*
X161978182Y-86704513D01*
X161914534Y-86687459D01*
X161850887Y-86670405D01*
X161719103Y-86670405D01*
X161591807Y-86704513D01*
X161477681Y-86770405D01*
X161477678Y-86770407D01*
X161384497Y-86863588D01*
X161384495Y-86863591D01*
X161318603Y-86977717D01*
X161284495Y-87105013D01*
X160990018Y-87105013D01*
X161000500Y-87065892D01*
X161000500Y-86934108D01*
X160966392Y-86806814D01*
X160900500Y-86692686D01*
X160807314Y-86599500D01*
X160693186Y-86533608D01*
X160565892Y-86499500D01*
X160434108Y-86499500D01*
X160306812Y-86533608D01*
X160192686Y-86599500D01*
X160192683Y-86599502D01*
X160099502Y-86692683D01*
X160099500Y-86692686D01*
X160033608Y-86806812D01*
X159999500Y-86934108D01*
X134213423Y-86934108D01*
X134210327Y-86918541D01*
X134148967Y-86770407D01*
X134137772Y-86743379D01*
X134032437Y-86585733D01*
X133898373Y-86451669D01*
X133872091Y-86434108D01*
X162999500Y-86434108D01*
X162999500Y-86565892D01*
X163004817Y-86585734D01*
X163033608Y-86693187D01*
X163040983Y-86705960D01*
X163099500Y-86807314D01*
X163192686Y-86900500D01*
X163306814Y-86966392D01*
X163434108Y-87000500D01*
X163434110Y-87000500D01*
X163565890Y-87000500D01*
X163565892Y-87000500D01*
X163693186Y-86966392D01*
X163807314Y-86900500D01*
X163874560Y-86833254D01*
X167295573Y-86833254D01*
X167295573Y-86965038D01*
X167298971Y-86977719D01*
X167329681Y-87092333D01*
X167349147Y-87126048D01*
X167395573Y-87206460D01*
X167488759Y-87299646D01*
X167602887Y-87365538D01*
X167730181Y-87399646D01*
X167730183Y-87399646D01*
X167861963Y-87399646D01*
X167861965Y-87399646D01*
X167989259Y-87365538D01*
X168103387Y-87299646D01*
X168196573Y-87206460D01*
X168262465Y-87092332D01*
X168296573Y-86965038D01*
X168296573Y-86833254D01*
X168262465Y-86705960D01*
X168255090Y-86693187D01*
X168241937Y-86670405D01*
X168196573Y-86591832D01*
X168103387Y-86498646D01*
X168046323Y-86465700D01*
X167989260Y-86432754D01*
X167925612Y-86415700D01*
X167861965Y-86398646D01*
X167730181Y-86398646D01*
X167602885Y-86432754D01*
X167488759Y-86498646D01*
X167488756Y-86498648D01*
X167395575Y-86591829D01*
X167395573Y-86591832D01*
X167329681Y-86705958D01*
X167302523Y-86807316D01*
X167295573Y-86833254D01*
X163874560Y-86833254D01*
X163900500Y-86807314D01*
X163966392Y-86693186D01*
X164000500Y-86565892D01*
X164000500Y-86434108D01*
X163966392Y-86306814D01*
X163900500Y-86192686D01*
X163807314Y-86099500D01*
X163750250Y-86066554D01*
X163693187Y-86033608D01*
X163629539Y-86016554D01*
X163565892Y-85999500D01*
X163434108Y-85999500D01*
X163306812Y-86033608D01*
X163192686Y-86099500D01*
X163192683Y-86099502D01*
X163099502Y-86192683D01*
X163099500Y-86192686D01*
X163033608Y-86306812D01*
X163009002Y-86398646D01*
X162999500Y-86434108D01*
X133872091Y-86434108D01*
X133740727Y-86346334D01*
X133565566Y-86273780D01*
X133565558Y-86273778D01*
X133379617Y-86236792D01*
X133379613Y-86236792D01*
X133190017Y-86236792D01*
X133190012Y-86236792D01*
X133004071Y-86273778D01*
X133004063Y-86273780D01*
X132828902Y-86346334D01*
X132671256Y-86451669D01*
X132537192Y-86585733D01*
X132431857Y-86743379D01*
X132359303Y-86918540D01*
X132359301Y-86918548D01*
X132322315Y-87104489D01*
X131707314Y-87104489D01*
X131670327Y-86918541D01*
X131608967Y-86770407D01*
X131597772Y-86743379D01*
X131492437Y-86585733D01*
X131358373Y-86451669D01*
X131200727Y-86346334D01*
X131025566Y-86273780D01*
X131025558Y-86273778D01*
X130839617Y-86236792D01*
X130839613Y-86236792D01*
X130650017Y-86236792D01*
X130650012Y-86236792D01*
X130464071Y-86273778D01*
X130464063Y-86273780D01*
X130288902Y-86346334D01*
X130131256Y-86451669D01*
X129997192Y-86585733D01*
X129891857Y-86743379D01*
X129819303Y-86918540D01*
X129819301Y-86918548D01*
X129782315Y-87104489D01*
X128369079Y-87104489D01*
X128323769Y-86950177D01*
X128078721Y-86115618D01*
X128077564Y-86111401D01*
X127818218Y-85095294D01*
X127817203Y-85090998D01*
X127707078Y-84584760D01*
X127702668Y-84564489D01*
X129782315Y-84564489D01*
X129782315Y-84754094D01*
X129819301Y-84940035D01*
X129819303Y-84940043D01*
X129891857Y-85115204D01*
X129997192Y-85272850D01*
X130131256Y-85406914D01*
X130236115Y-85476978D01*
X130288900Y-85512248D01*
X130464064Y-85584804D01*
X130650012Y-85621791D01*
X130650016Y-85621792D01*
X130650017Y-85621792D01*
X130839614Y-85621792D01*
X130839615Y-85621791D01*
X131025566Y-85584804D01*
X131200730Y-85512248D01*
X131358373Y-85406914D01*
X131492437Y-85272850D01*
X131597771Y-85115207D01*
X131670327Y-84940043D01*
X131707315Y-84754090D01*
X131707315Y-84564494D01*
X131707314Y-84564489D01*
X132322315Y-84564489D01*
X132322315Y-84754094D01*
X132359301Y-84940035D01*
X132359303Y-84940043D01*
X132431857Y-85115204D01*
X132537192Y-85272850D01*
X132671256Y-85406914D01*
X132776115Y-85476978D01*
X132828900Y-85512248D01*
X133004064Y-85584804D01*
X133190012Y-85621791D01*
X133190016Y-85621792D01*
X133190017Y-85621792D01*
X133379614Y-85621792D01*
X133379615Y-85621791D01*
X133565566Y-85584804D01*
X133740730Y-85512248D01*
X133898373Y-85406914D01*
X134032437Y-85272850D01*
X134137771Y-85115207D01*
X134210327Y-84940043D01*
X134247315Y-84754090D01*
X134247315Y-84564494D01*
X134210327Y-84378541D01*
X134137771Y-84203377D01*
X134130962Y-84193186D01*
X134053489Y-84077239D01*
X134053488Y-84077238D01*
X134032436Y-84045732D01*
X134019956Y-84033252D01*
X153334520Y-84033252D01*
X153376992Y-84179447D01*
X153459302Y-84318626D01*
X153459309Y-84318635D01*
X153573640Y-84432966D01*
X153573649Y-84432973D01*
X153712828Y-84515283D01*
X153868113Y-84560397D01*
X153889024Y-84562041D01*
X154389024Y-84562041D01*
X154409934Y-84560397D01*
X154565220Y-84515283D01*
X154616272Y-84485090D01*
X154683996Y-84467905D01*
X154742519Y-84485089D01*
X154754435Y-84492136D01*
X154909720Y-84537250D01*
X154930631Y-84538894D01*
X155430631Y-84538894D01*
X155451541Y-84537250D01*
X155606825Y-84492137D01*
X155648094Y-84467729D01*
X155715818Y-84450544D01*
X155774342Y-84467728D01*
X155796043Y-84480562D01*
X155951327Y-84525676D01*
X155972238Y-84527320D01*
X156472238Y-84527320D01*
X156493148Y-84525676D01*
X156648433Y-84480562D01*
X156787612Y-84398252D01*
X156787621Y-84398245D01*
X156901952Y-84283914D01*
X156901959Y-84283905D01*
X156984269Y-84144726D01*
X157026742Y-83998531D01*
X156472238Y-83998531D01*
X156472238Y-84527320D01*
X155972238Y-84527320D01*
X155972238Y-84010105D01*
X155430631Y-84010105D01*
X155430631Y-84538894D01*
X154930631Y-84538894D01*
X154930631Y-84033252D01*
X154389024Y-84033252D01*
X154389024Y-84562041D01*
X153889024Y-84562041D01*
X153889024Y-84033252D01*
X153334520Y-84033252D01*
X134019956Y-84033252D01*
X133898373Y-83911669D01*
X133740727Y-83806334D01*
X133565566Y-83733780D01*
X133565558Y-83733778D01*
X133379617Y-83696792D01*
X133379613Y-83696792D01*
X133190017Y-83696792D01*
X133190012Y-83696792D01*
X133004071Y-83733778D01*
X133004063Y-83733780D01*
X132828902Y-83806334D01*
X132671256Y-83911669D01*
X132537195Y-84045730D01*
X132537194Y-84045732D01*
X132431857Y-84203379D01*
X132359303Y-84378540D01*
X132359301Y-84378548D01*
X132322315Y-84564489D01*
X131707314Y-84564489D01*
X131670327Y-84378541D01*
X131597771Y-84203377D01*
X131513488Y-84077239D01*
X131492436Y-84045732D01*
X131358373Y-83911669D01*
X131200727Y-83806334D01*
X131025566Y-83733780D01*
X131025558Y-83733778D01*
X130839617Y-83696792D01*
X130839613Y-83696792D01*
X130650017Y-83696792D01*
X130650012Y-83696792D01*
X130464071Y-83733778D01*
X130464063Y-83733780D01*
X130288902Y-83806334D01*
X130131256Y-83911669D01*
X129997195Y-84045730D01*
X129997194Y-84045732D01*
X129891857Y-84203379D01*
X129819303Y-84378540D01*
X129819301Y-84378548D01*
X129782315Y-84564489D01*
X127702668Y-84564489D01*
X127636515Y-84260388D01*
X127594296Y-84066310D01*
X127593436Y-84061989D01*
X127590503Y-84045734D01*
X127407239Y-83029973D01*
X127406534Y-83025616D01*
X127404251Y-83009740D01*
X127262593Y-82024489D01*
X129782315Y-82024489D01*
X129782315Y-82214094D01*
X129819301Y-82400035D01*
X129819303Y-82400043D01*
X129891857Y-82575204D01*
X129997192Y-82732850D01*
X130131256Y-82866914D01*
X130236115Y-82936978D01*
X130288900Y-82972248D01*
X130464064Y-83044804D01*
X130650012Y-83081791D01*
X130650016Y-83081792D01*
X130650017Y-83081792D01*
X130839614Y-83081792D01*
X130839615Y-83081791D01*
X131025566Y-83044804D01*
X131200730Y-82972248D01*
X131358373Y-82866914D01*
X131492437Y-82732850D01*
X131597771Y-82575207D01*
X131670327Y-82400043D01*
X131707315Y-82214090D01*
X131707315Y-82024494D01*
X131707315Y-82024491D01*
X131706416Y-82019970D01*
X132022815Y-82019970D01*
X132022815Y-82218613D01*
X132053890Y-82414812D01*
X132053890Y-82414815D01*
X132115272Y-82603729D01*
X132205456Y-82780724D01*
X132232545Y-82818007D01*
X132232546Y-82818008D01*
X132795319Y-82255234D01*
X132811434Y-82315373D01*
X132878313Y-82431212D01*
X132972895Y-82525794D01*
X133088734Y-82592673D01*
X133148872Y-82608786D01*
X132586098Y-83171560D01*
X132586098Y-83171561D01*
X132623382Y-83198650D01*
X132800377Y-83288834D01*
X132989292Y-83350216D01*
X133185494Y-83381292D01*
X133384136Y-83381292D01*
X133580335Y-83350216D01*
X133580338Y-83350216D01*
X133769252Y-83288834D01*
X133946240Y-83198654D01*
X133983531Y-83171560D01*
X133420757Y-82608786D01*
X133480896Y-82592673D01*
X133596735Y-82525794D01*
X133691317Y-82431212D01*
X133758196Y-82315373D01*
X133774310Y-82255234D01*
X134337083Y-82818007D01*
X134364177Y-82780717D01*
X134454357Y-82603729D01*
X134515739Y-82414815D01*
X134515739Y-82414812D01*
X134546815Y-82218613D01*
X134546815Y-82019970D01*
X134515739Y-81823771D01*
X134515739Y-81823768D01*
X134454357Y-81634854D01*
X134364173Y-81457859D01*
X134337083Y-81420575D01*
X133774309Y-81983349D01*
X133758196Y-81923211D01*
X133691317Y-81807372D01*
X133596735Y-81712790D01*
X133480896Y-81645911D01*
X133420756Y-81629796D01*
X133983530Y-81067023D01*
X133983530Y-81067022D01*
X133983141Y-81066739D01*
X153149500Y-81066739D01*
X153149500Y-81933260D01*
X153159426Y-82001391D01*
X153159427Y-82001393D01*
X153210802Y-82106483D01*
X153263182Y-82158863D01*
X153296666Y-82220184D01*
X153299500Y-82246543D01*
X153299500Y-82396144D01*
X153318681Y-82467729D01*
X153323387Y-82485290D01*
X153323388Y-82485293D01*
X153369526Y-82565205D01*
X153369529Y-82565209D01*
X153369531Y-82565212D01*
X153434788Y-82630469D01*
X153450475Y-82639526D01*
X153457964Y-82643850D01*
X153483646Y-82663556D01*
X153592205Y-82772115D01*
X153625690Y-82833438D01*
X153628524Y-82859795D01*
X153628524Y-83003148D01*
X153629794Y-83012790D01*
X153619025Y-83081825D01*
X153578674Y-83127284D01*
X153579812Y-83128751D01*
X153573645Y-83133534D01*
X153459306Y-83247872D01*
X153459302Y-83247877D01*
X153376992Y-83387056D01*
X153334520Y-83533252D01*
X154251582Y-83533252D01*
X154288782Y-83512939D01*
X154315140Y-83510105D01*
X155302810Y-83510105D01*
X155318816Y-83501365D01*
X155345174Y-83498531D01*
X157026742Y-83498531D01*
X156984269Y-83352336D01*
X156968784Y-83326151D01*
X156951602Y-83258427D01*
X156973763Y-83192165D01*
X157028229Y-83148402D01*
X157075517Y-83139031D01*
X157341987Y-83139031D01*
X157409026Y-83158716D01*
X157429668Y-83175350D01*
X158284787Y-84030469D01*
X158311220Y-84045730D01*
X158311224Y-84045732D01*
X158311226Y-84045734D01*
X158311227Y-84045734D01*
X158364712Y-84076614D01*
X158453856Y-84100500D01*
X158453858Y-84100500D01*
X161137755Y-84100500D01*
X161137757Y-84100500D01*
X161226901Y-84076614D01*
X161248482Y-84064154D01*
X161306825Y-84030470D01*
X161403187Y-83934108D01*
X163374500Y-83934108D01*
X163374500Y-84065892D01*
X163383773Y-84100499D01*
X163408608Y-84193187D01*
X163441554Y-84250250D01*
X163474500Y-84307314D01*
X163567686Y-84400500D01*
X163681814Y-84466392D01*
X163809108Y-84500500D01*
X163809110Y-84500500D01*
X163940890Y-84500500D01*
X163940892Y-84500500D01*
X164068186Y-84466392D01*
X164182314Y-84400500D01*
X164275500Y-84307314D01*
X164341392Y-84193186D01*
X164375500Y-84065892D01*
X164375500Y-83934108D01*
X164341392Y-83806814D01*
X164275500Y-83692686D01*
X164182314Y-83599500D01*
X164125250Y-83566554D01*
X164068187Y-83533608D01*
X164004539Y-83516554D01*
X163940892Y-83499500D01*
X163809108Y-83499500D01*
X163681812Y-83533608D01*
X163567686Y-83599500D01*
X163567683Y-83599502D01*
X163474502Y-83692683D01*
X163474500Y-83692686D01*
X163408608Y-83806812D01*
X163400171Y-83838300D01*
X163374500Y-83934108D01*
X161403187Y-83934108D01*
X162903187Y-82434108D01*
X170499500Y-82434108D01*
X170499500Y-82565891D01*
X170533608Y-82693187D01*
X170556508Y-82732850D01*
X170599500Y-82807314D01*
X170692686Y-82900500D01*
X170806814Y-82966392D01*
X170934108Y-83000500D01*
X170934110Y-83000500D01*
X171065890Y-83000500D01*
X171065892Y-83000500D01*
X171193186Y-82966392D01*
X171307314Y-82900500D01*
X171400500Y-82807314D01*
X171466392Y-82693186D01*
X171500500Y-82565892D01*
X171500500Y-82434108D01*
X171466392Y-82306814D01*
X171400500Y-82192686D01*
X171307314Y-82099500D01*
X171250250Y-82066554D01*
X171193187Y-82033608D01*
X171129539Y-82016554D01*
X171065892Y-81999500D01*
X170934108Y-81999500D01*
X170806812Y-82033608D01*
X170692686Y-82099500D01*
X170692683Y-82099502D01*
X170599502Y-82192683D01*
X170599500Y-82192686D01*
X170533608Y-82306812D01*
X170499500Y-82434108D01*
X162903187Y-82434108D01*
X163600476Y-81736819D01*
X163661799Y-81703334D01*
X163688157Y-81700500D01*
X173216142Y-81700500D01*
X173216144Y-81700500D01*
X173305288Y-81676614D01*
X173385212Y-81630469D01*
X173450469Y-81565212D01*
X173469631Y-81532022D01*
X173489329Y-81506351D01*
X175081574Y-79914108D01*
X182999500Y-79914108D01*
X182999500Y-80045892D01*
X183010676Y-80087603D01*
X183033608Y-80173187D01*
X183059199Y-80217511D01*
X183099500Y-80287314D01*
X183192686Y-80380500D01*
X183306814Y-80446392D01*
X183434108Y-80480500D01*
X183434110Y-80480500D01*
X183565890Y-80480500D01*
X183565892Y-80480500D01*
X183693186Y-80446392D01*
X183807314Y-80380500D01*
X183900500Y-80287314D01*
X183966392Y-80173186D01*
X184000500Y-80045892D01*
X184000500Y-79914108D01*
X183966392Y-79786814D01*
X183900500Y-79672686D01*
X183807314Y-79579500D01*
X183749538Y-79546143D01*
X183693187Y-79513608D01*
X183612401Y-79491962D01*
X183565892Y-79479500D01*
X183434108Y-79479500D01*
X183306812Y-79513608D01*
X183192686Y-79579500D01*
X183192683Y-79579502D01*
X183099502Y-79672683D01*
X183099500Y-79672686D01*
X183033608Y-79786812D01*
X183002081Y-79904476D01*
X182999500Y-79914108D01*
X175081574Y-79914108D01*
X175280470Y-79715212D01*
X175326614Y-79635288D01*
X175344142Y-79569871D01*
X175350500Y-79546144D01*
X175350500Y-75408676D01*
X175370185Y-75341637D01*
X175386819Y-75320995D01*
X175391906Y-75315908D01*
X175400500Y-75307314D01*
X175466392Y-75193186D01*
X175500500Y-75065892D01*
X175500500Y-74934108D01*
X175466392Y-74806814D01*
X175400500Y-74692686D01*
X175307314Y-74599500D01*
X175249588Y-74566172D01*
X175193187Y-74533608D01*
X175129539Y-74516554D01*
X175065892Y-74499500D01*
X174934108Y-74499500D01*
X174806812Y-74533608D01*
X174692686Y-74599500D01*
X174692683Y-74599502D01*
X174599502Y-74692683D01*
X174599500Y-74692686D01*
X174533608Y-74806812D01*
X174499500Y-74934108D01*
X174499500Y-75065891D01*
X174533608Y-75193187D01*
X174566410Y-75250000D01*
X174599500Y-75307314D01*
X174599502Y-75307316D01*
X174613181Y-75320995D01*
X174646666Y-75382318D01*
X174649500Y-75408676D01*
X174649500Y-79303456D01*
X174629815Y-79370495D01*
X174613181Y-79391137D01*
X173041137Y-80963181D01*
X172979814Y-80996666D01*
X172953456Y-80999500D01*
X163445469Y-80999500D01*
X163356325Y-81023386D01*
X163356322Y-81023387D01*
X163276404Y-81069527D01*
X163276399Y-81069531D01*
X160982750Y-83363181D01*
X160921427Y-83396666D01*
X160895069Y-83399500D01*
X158696544Y-83399500D01*
X158629505Y-83379815D01*
X158608863Y-83363181D01*
X157753744Y-82508062D01*
X157753743Y-82508061D01*
X157673819Y-82461917D01*
X157673341Y-82461789D01*
X157673328Y-82461785D01*
X157673323Y-82461784D01*
X157630146Y-82450215D01*
X157584675Y-82438031D01*
X157584674Y-82438031D01*
X156714640Y-82438031D01*
X156647601Y-82418346D01*
X156626959Y-82401712D01*
X156590554Y-82365307D01*
X156556182Y-82349279D01*
X156481725Y-82314559D01*
X156481723Y-82314558D01*
X156481724Y-82314558D01*
X156432139Y-82308031D01*
X156012343Y-82308031D01*
X155996624Y-82310100D01*
X155962751Y-82314559D01*
X155962749Y-82314560D01*
X155962747Y-82314560D01*
X155853923Y-82365306D01*
X155783328Y-82435901D01*
X155722004Y-82469385D01*
X155652313Y-82464400D01*
X155607966Y-82435900D01*
X155548947Y-82376881D01*
X155548945Y-82376880D01*
X155440118Y-82326133D01*
X155440116Y-82326132D01*
X155440117Y-82326132D01*
X155390532Y-82319605D01*
X154970736Y-82319605D01*
X154955017Y-82321674D01*
X154921144Y-82326133D01*
X154921142Y-82326134D01*
X154921140Y-82326134D01*
X154812316Y-82376880D01*
X154752762Y-82436434D01*
X154725831Y-82451138D01*
X154700016Y-82467729D01*
X154693813Y-82468620D01*
X154691438Y-82469918D01*
X154665081Y-82472752D01*
X154631426Y-82472752D01*
X154564387Y-82453067D01*
X154543745Y-82436433D01*
X154507340Y-82400028D01*
X154457699Y-82376880D01*
X154398511Y-82349280D01*
X154398509Y-82349279D01*
X154398510Y-82349279D01*
X154348926Y-82342752D01*
X154348925Y-82342752D01*
X154205568Y-82342752D01*
X154176127Y-82334107D01*
X154146141Y-82327584D01*
X154141125Y-82323829D01*
X154138529Y-82323067D01*
X154117887Y-82306433D01*
X154091249Y-82279795D01*
X154057764Y-82218472D01*
X154062748Y-82148780D01*
X154084138Y-82115497D01*
X154083227Y-82114847D01*
X154089195Y-82106486D01*
X154089198Y-82106483D01*
X154140573Y-82001393D01*
X154150500Y-81933260D01*
X154150500Y-81066740D01*
X154140573Y-80998607D01*
X154089198Y-80893517D01*
X154089196Y-80893515D01*
X154089196Y-80893514D01*
X154006485Y-80810803D01*
X153901391Y-80759426D01*
X153833261Y-80749500D01*
X153833260Y-80749500D01*
X153466740Y-80749500D01*
X153466739Y-80749500D01*
X153398608Y-80759426D01*
X153293514Y-80810803D01*
X153210803Y-80893514D01*
X153159426Y-80998608D01*
X153149500Y-81066739D01*
X133983141Y-81066739D01*
X133946247Y-81039933D01*
X133769252Y-80949749D01*
X133580337Y-80888367D01*
X133384136Y-80857292D01*
X133185494Y-80857292D01*
X132989294Y-80888367D01*
X132989291Y-80888367D01*
X132800377Y-80949749D01*
X132623379Y-81039935D01*
X132586098Y-81067021D01*
X132586097Y-81067022D01*
X133148873Y-81629796D01*
X133088734Y-81645911D01*
X132972895Y-81712790D01*
X132878313Y-81807372D01*
X132811434Y-81923211D01*
X132795319Y-81983349D01*
X132232545Y-81420574D01*
X132232544Y-81420575D01*
X132205458Y-81457856D01*
X132115272Y-81634854D01*
X132053890Y-81823768D01*
X132053890Y-81823771D01*
X132022815Y-82019970D01*
X131706416Y-82019970D01*
X131674705Y-81860550D01*
X131670327Y-81838541D01*
X131606352Y-81684092D01*
X131597772Y-81663379D01*
X131593641Y-81657197D01*
X131562501Y-81610592D01*
X131492437Y-81505733D01*
X131358373Y-81371669D01*
X131200727Y-81266334D01*
X131110215Y-81228843D01*
X131025566Y-81193780D01*
X131025558Y-81193778D01*
X130839617Y-81156792D01*
X130839613Y-81156792D01*
X130650017Y-81156792D01*
X130650012Y-81156792D01*
X130464071Y-81193778D01*
X130464063Y-81193780D01*
X130288902Y-81266334D01*
X130131256Y-81371669D01*
X129997192Y-81505733D01*
X129891857Y-81663379D01*
X129819303Y-81838540D01*
X129819301Y-81838548D01*
X129782315Y-82024489D01*
X127262593Y-82024489D01*
X127257295Y-81987639D01*
X127256746Y-81983265D01*
X127243497Y-81860028D01*
X127144643Y-80940551D01*
X127144258Y-80936245D01*
X127069445Y-79890233D01*
X127069209Y-79885817D01*
X127068818Y-79874860D01*
X127054876Y-79484489D01*
X129782315Y-79484489D01*
X129782315Y-79674094D01*
X129819301Y-79860035D01*
X129819303Y-79860043D01*
X129891857Y-80035204D01*
X129997192Y-80192850D01*
X130131256Y-80326914D01*
X130205415Y-80376465D01*
X130288900Y-80432248D01*
X130464064Y-80504804D01*
X130650012Y-80541791D01*
X130650016Y-80541792D01*
X130650017Y-80541792D01*
X130839614Y-80541792D01*
X130839615Y-80541791D01*
X131025566Y-80504804D01*
X131200730Y-80432248D01*
X131358373Y-80326914D01*
X131492437Y-80192850D01*
X131597771Y-80035207D01*
X131670327Y-79860043D01*
X131707315Y-79674090D01*
X131707315Y-79484494D01*
X131707314Y-79484489D01*
X132322315Y-79484489D01*
X132322315Y-79674094D01*
X132359301Y-79860035D01*
X132359303Y-79860043D01*
X132431857Y-80035204D01*
X132537192Y-80192850D01*
X132671256Y-80326914D01*
X132745415Y-80376465D01*
X132828900Y-80432248D01*
X133004064Y-80504804D01*
X133190012Y-80541791D01*
X133190016Y-80541792D01*
X133190017Y-80541792D01*
X133379614Y-80541792D01*
X133379615Y-80541791D01*
X133565566Y-80504804D01*
X133740730Y-80432248D01*
X133898373Y-80326914D01*
X134032437Y-80192850D01*
X134137771Y-80035207D01*
X134210327Y-79860043D01*
X134247315Y-79674090D01*
X134247315Y-79484494D01*
X134210327Y-79298541D01*
X134137771Y-79123377D01*
X134080448Y-79037587D01*
X134032437Y-78965733D01*
X133898373Y-78831669D01*
X133740727Y-78726334D01*
X133565566Y-78653780D01*
X133565558Y-78653778D01*
X133379617Y-78616792D01*
X133379613Y-78616792D01*
X133190017Y-78616792D01*
X133190012Y-78616792D01*
X133004071Y-78653778D01*
X133004063Y-78653780D01*
X132828902Y-78726334D01*
X132671256Y-78831669D01*
X132537192Y-78965733D01*
X132431857Y-79123379D01*
X132359303Y-79298540D01*
X132359301Y-79298548D01*
X132322315Y-79484489D01*
X131707314Y-79484489D01*
X131670327Y-79298541D01*
X131597771Y-79123377D01*
X131540448Y-79037587D01*
X131492437Y-78965733D01*
X131358373Y-78831669D01*
X131200727Y-78726334D01*
X131025566Y-78653780D01*
X131025558Y-78653778D01*
X130839617Y-78616792D01*
X130839613Y-78616792D01*
X130650017Y-78616792D01*
X130650012Y-78616792D01*
X130464071Y-78653778D01*
X130464063Y-78653780D01*
X130288902Y-78726334D01*
X130131256Y-78831669D01*
X129997192Y-78965733D01*
X129891857Y-79123379D01*
X129819303Y-79298540D01*
X129819301Y-79298548D01*
X129782315Y-79484489D01*
X127054876Y-79484489D01*
X127031780Y-78837835D01*
X127031701Y-78833409D01*
X127031701Y-77784764D01*
X127031780Y-77780338D01*
X127054876Y-77133659D01*
X127061632Y-76944489D01*
X129782315Y-76944489D01*
X129782315Y-77134094D01*
X129819301Y-77320035D01*
X129819303Y-77320043D01*
X129891857Y-77495204D01*
X129997192Y-77652850D01*
X130131256Y-77786914D01*
X130236115Y-77856978D01*
X130288900Y-77892248D01*
X130464064Y-77964804D01*
X130650012Y-78001791D01*
X130650016Y-78001792D01*
X130650017Y-78001792D01*
X130839614Y-78001792D01*
X130839615Y-78001791D01*
X131025566Y-77964804D01*
X131200730Y-77892248D01*
X131358373Y-77786914D01*
X131492437Y-77652850D01*
X131597771Y-77495207D01*
X131670327Y-77320043D01*
X131707315Y-77134090D01*
X131707315Y-76944494D01*
X131707314Y-76944489D01*
X132322315Y-76944489D01*
X132322315Y-77134094D01*
X132359301Y-77320035D01*
X132359303Y-77320043D01*
X132431857Y-77495204D01*
X132537192Y-77652850D01*
X132671256Y-77786914D01*
X132776115Y-77856978D01*
X132828900Y-77892248D01*
X133004064Y-77964804D01*
X133190012Y-78001791D01*
X133190016Y-78001792D01*
X133190017Y-78001792D01*
X133379614Y-78001792D01*
X133379615Y-78001791D01*
X133565566Y-77964804D01*
X133740730Y-77892248D01*
X133898373Y-77786914D01*
X134032437Y-77652850D01*
X134137771Y-77495207D01*
X134210327Y-77320043D01*
X134247315Y-77134090D01*
X134247315Y-76944494D01*
X134210327Y-76758541D01*
X134137771Y-76583377D01*
X134082916Y-76501281D01*
X134032437Y-76425733D01*
X133898373Y-76291669D01*
X133740727Y-76186334D01*
X133565566Y-76113780D01*
X133565558Y-76113778D01*
X133379617Y-76076792D01*
X133379613Y-76076792D01*
X133190017Y-76076792D01*
X133190012Y-76076792D01*
X133004071Y-76113778D01*
X133004063Y-76113780D01*
X132828902Y-76186334D01*
X132671256Y-76291669D01*
X132537192Y-76425733D01*
X132431857Y-76583379D01*
X132359303Y-76758540D01*
X132359301Y-76758548D01*
X132322315Y-76944489D01*
X131707314Y-76944489D01*
X131670327Y-76758541D01*
X131597771Y-76583377D01*
X131542916Y-76501281D01*
X131492437Y-76425733D01*
X131358373Y-76291669D01*
X131200727Y-76186334D01*
X131025566Y-76113780D01*
X131025558Y-76113778D01*
X130839617Y-76076792D01*
X130839613Y-76076792D01*
X130650017Y-76076792D01*
X130650012Y-76076792D01*
X130464071Y-76113778D01*
X130464063Y-76113780D01*
X130288902Y-76186334D01*
X130131256Y-76291669D01*
X129997192Y-76425733D01*
X129891857Y-76583379D01*
X129819303Y-76758540D01*
X129819301Y-76758548D01*
X129782315Y-76944489D01*
X127061632Y-76944489D01*
X127069209Y-76732350D01*
X127069446Y-76727936D01*
X127070339Y-76715450D01*
X127144258Y-75681924D01*
X127144649Y-75677571D01*
X127158196Y-75551561D01*
X127256749Y-74634883D01*
X127257298Y-74630516D01*
X127259513Y-74615111D01*
X127290446Y-74399970D01*
X129482815Y-74399970D01*
X129482815Y-74598613D01*
X129513890Y-74794812D01*
X129513890Y-74794815D01*
X129575272Y-74983729D01*
X129665456Y-75160724D01*
X129692545Y-75198007D01*
X129692546Y-75198008D01*
X130255319Y-74635234D01*
X130271434Y-74695373D01*
X130338313Y-74811212D01*
X130432895Y-74905794D01*
X130548734Y-74972673D01*
X130608872Y-74988786D01*
X130046098Y-75551560D01*
X130046098Y-75551561D01*
X130083382Y-75578650D01*
X130260377Y-75668834D01*
X130449292Y-75730216D01*
X130645494Y-75761292D01*
X130844136Y-75761292D01*
X131040335Y-75730216D01*
X131040338Y-75730216D01*
X131229252Y-75668834D01*
X131406240Y-75578654D01*
X131443531Y-75551560D01*
X130880757Y-74988786D01*
X130940896Y-74972673D01*
X131056735Y-74905794D01*
X131151317Y-74811212D01*
X131218196Y-74695373D01*
X131234310Y-74635234D01*
X131797083Y-75198007D01*
X131824177Y-75160717D01*
X131904330Y-75003409D01*
X131952304Y-74952613D01*
X132020125Y-74935818D01*
X132086260Y-74958355D01*
X132125300Y-75003409D01*
X132205456Y-75160724D01*
X132232545Y-75198007D01*
X132232546Y-75198008D01*
X132795319Y-74635234D01*
X132811434Y-74695373D01*
X132878313Y-74811212D01*
X132972895Y-74905794D01*
X133088734Y-74972673D01*
X133148872Y-74988786D01*
X132586098Y-75551560D01*
X132586098Y-75551561D01*
X132623382Y-75578650D01*
X132800377Y-75668834D01*
X132989292Y-75730216D01*
X133185494Y-75761292D01*
X133384136Y-75761292D01*
X133580335Y-75730216D01*
X133580338Y-75730216D01*
X133769252Y-75668834D01*
X133946240Y-75578654D01*
X133983531Y-75551560D01*
X133790267Y-75358296D01*
X148934907Y-75358296D01*
X149310907Y-75358296D01*
X149377946Y-75377981D01*
X149423701Y-75430785D01*
X149434907Y-75482296D01*
X149434907Y-77858296D01*
X150444907Y-77858296D01*
X150444907Y-77164000D01*
X153139450Y-77164000D01*
X153139450Y-77166402D01*
X153139450Y-79846012D01*
X153140382Y-79864878D01*
X153140382Y-79864882D01*
X153140450Y-79866243D01*
X153140548Y-79867233D01*
X153141000Y-79870264D01*
X153141156Y-79874025D01*
X153141225Y-79874855D01*
X153143315Y-79891614D01*
X153144315Y-79897614D01*
X153149087Y-79919085D01*
X153149379Y-79920131D01*
X153150822Y-79924395D01*
X153152087Y-79930085D01*
X153152379Y-79931131D01*
X153152426Y-79931271D01*
X153152427Y-79931274D01*
X153159504Y-79952186D01*
X153159508Y-79952197D01*
X153161508Y-79957196D01*
X153164931Y-79965253D01*
X153165087Y-79965599D01*
X153169015Y-79973870D01*
X153170172Y-79976379D01*
X153173303Y-79983370D01*
X153173657Y-79984082D01*
X153181458Y-79998332D01*
X153190459Y-80013333D01*
X153204634Y-80033989D01*
X153204636Y-80033991D01*
X153205395Y-80034964D01*
X153206042Y-80035743D01*
X153210697Y-80041708D01*
X153211635Y-80042989D01*
X153212387Y-80043953D01*
X153212403Y-80043973D01*
X153229109Y-80062870D01*
X153229141Y-80062904D01*
X153237095Y-80070858D01*
X153237112Y-80070874D01*
X153237119Y-80070881D01*
X153256034Y-80087603D01*
X153257007Y-80088362D01*
X153261332Y-80091330D01*
X153265034Y-80094603D01*
X153266007Y-80095362D01*
X153286673Y-80109545D01*
X153301673Y-80118545D01*
X153315908Y-80126338D01*
X153316630Y-80126697D01*
X153325819Y-80130811D01*
X153326840Y-80131322D01*
X153334371Y-80134899D01*
X153334615Y-80135009D01*
X153334746Y-80135068D01*
X153342803Y-80138491D01*
X153347802Y-80140491D01*
X153347813Y-80140495D01*
X153368721Y-80147571D01*
X153368869Y-80147621D01*
X153369915Y-80147913D01*
X153369929Y-80147916D01*
X153371543Y-80148321D01*
X153371530Y-80148370D01*
X153378927Y-80150330D01*
X153379855Y-80150616D01*
X153379869Y-80150621D01*
X153380915Y-80150913D01*
X153402386Y-80155685D01*
X153402392Y-80155686D01*
X153408390Y-80156686D01*
X153421751Y-80158351D01*
X153425145Y-80158775D01*
X153425975Y-80158844D01*
X153425982Y-80158844D01*
X153428561Y-80159059D01*
X153428553Y-80159153D01*
X153431221Y-80159373D01*
X153431229Y-80159299D01*
X153432741Y-80159448D01*
X153432767Y-80159452D01*
X153433757Y-80159550D01*
X153433786Y-80159551D01*
X153433790Y-80159552D01*
X153444055Y-80160058D01*
X153454000Y-80160550D01*
X154715450Y-80160550D01*
X154782489Y-80180235D01*
X154828244Y-80233039D01*
X154839450Y-80284550D01*
X154839450Y-81536003D01*
X154839971Y-81550630D01*
X154840024Y-81551371D01*
X154841515Y-81565302D01*
X154841566Y-81565776D01*
X154842105Y-81569553D01*
X154843100Y-81581898D01*
X154843359Y-81583495D01*
X154846259Y-81595281D01*
X154846313Y-81595602D01*
X154847166Y-81599728D01*
X154847170Y-81599750D01*
X154849547Y-81611241D01*
X154849736Y-81612005D01*
X154854250Y-81627567D01*
X154860256Y-81645585D01*
X154860266Y-81645612D01*
X154868537Y-81666524D01*
X154868545Y-81666542D01*
X154868552Y-81666560D01*
X154869013Y-81667561D01*
X154873794Y-81676612D01*
X154875194Y-81679261D01*
X154876460Y-81681725D01*
X154877671Y-81684147D01*
X154881423Y-81691296D01*
X154881611Y-81691637D01*
X154885455Y-81698328D01*
X154888449Y-81703318D01*
X154890853Y-81707225D01*
X154890957Y-81707390D01*
X154893795Y-81711767D01*
X154893812Y-81711792D01*
X154897812Y-81717792D01*
X154902948Y-81725143D01*
X154902959Y-81725159D01*
X154902966Y-81725168D01*
X154903204Y-81725493D01*
X154908598Y-81732543D01*
X154912583Y-81737525D01*
X154919861Y-81746127D01*
X154920267Y-81746581D01*
X154924711Y-81751279D01*
X154924735Y-81751303D01*
X154927078Y-81753780D01*
X154935747Y-81763465D01*
X154936535Y-81764253D01*
X154946219Y-81772921D01*
X154948726Y-81775292D01*
X154953433Y-81779745D01*
X154953872Y-81780138D01*
X154962474Y-81787416D01*
X154967456Y-81791401D01*
X154967470Y-81791412D01*
X154974503Y-81796793D01*
X154974857Y-81797052D01*
X154982208Y-81802188D01*
X154988208Y-81806188D01*
X154992592Y-81809031D01*
X154992795Y-81809159D01*
X154996673Y-81811545D01*
X155001673Y-81814545D01*
X155008368Y-81818392D01*
X155008708Y-81818579D01*
X155015840Y-81822322D01*
X155019515Y-81824159D01*
X155032439Y-81830987D01*
X155033440Y-81831448D01*
X155054418Y-81839745D01*
X155072418Y-81845745D01*
X155087990Y-81850262D01*
X155088757Y-81850452D01*
X155104398Y-81853687D01*
X155104718Y-81853740D01*
X155116505Y-81856641D01*
X155118048Y-81856891D01*
X155118108Y-81856901D01*
X155126633Y-81857587D01*
X155134158Y-81858427D01*
X155137411Y-81858775D01*
X155148645Y-81859977D01*
X155149359Y-81860028D01*
X155160621Y-81860429D01*
X155163997Y-81860550D01*
X155164000Y-81860550D01*
X157845981Y-81860550D01*
X157846000Y-81860550D01*
X157855285Y-81860091D01*
X157864875Y-81859618D01*
X157864878Y-81859617D01*
X157866243Y-81859550D01*
X157867233Y-81859452D01*
X157870264Y-81858999D01*
X157874025Y-81858844D01*
X157874855Y-81858775D01*
X157891614Y-81856685D01*
X157897614Y-81855685D01*
X157919085Y-81850913D01*
X157920131Y-81850621D01*
X157924395Y-81849177D01*
X157930085Y-81847913D01*
X157931131Y-81847621D01*
X157945466Y-81842768D01*
X157952186Y-81840495D01*
X157952197Y-81840491D01*
X157954062Y-81839745D01*
X157957197Y-81838491D01*
X157965247Y-81835071D01*
X157965629Y-81834899D01*
X157973160Y-81831322D01*
X157973183Y-81831310D01*
X157973902Y-81830969D01*
X157976379Y-81829826D01*
X157983370Y-81826697D01*
X157984092Y-81826338D01*
X157998327Y-81818545D01*
X158013327Y-81809545D01*
X158031531Y-81797052D01*
X158033979Y-81795372D01*
X158033983Y-81795368D01*
X158033993Y-81795362D01*
X158034966Y-81794603D01*
X158034987Y-81794583D01*
X158035733Y-81793965D01*
X158041760Y-81789263D01*
X158042952Y-81788389D01*
X158042993Y-81788362D01*
X158043966Y-81787603D01*
X158062881Y-81770881D01*
X158070881Y-81762881D01*
X158087603Y-81743966D01*
X158088362Y-81742993D01*
X158091330Y-81738667D01*
X158094603Y-81734966D01*
X158095362Y-81733993D01*
X158109545Y-81713327D01*
X158118545Y-81698327D01*
X158126338Y-81684092D01*
X158126697Y-81683370D01*
X158130811Y-81674180D01*
X158131322Y-81673160D01*
X158134899Y-81665629D01*
X158135071Y-81665247D01*
X158138491Y-81657197D01*
X158140491Y-81652197D01*
X158147621Y-81631131D01*
X158147913Y-81630085D01*
X158147917Y-81630065D01*
X158147920Y-81630056D01*
X158148320Y-81628463D01*
X158148362Y-81628473D01*
X158148365Y-81628466D01*
X158148373Y-81628468D01*
X158150338Y-81621047D01*
X158150612Y-81620156D01*
X158150621Y-81620131D01*
X158150913Y-81619085D01*
X158155685Y-81597614D01*
X158156685Y-81591614D01*
X158158775Y-81574855D01*
X158158844Y-81574025D01*
X158158844Y-81574014D01*
X158159059Y-81571439D01*
X158159152Y-81571446D01*
X158159372Y-81568782D01*
X158159299Y-81568775D01*
X158159449Y-81567252D01*
X158159452Y-81567233D01*
X158159550Y-81566243D01*
X158159597Y-81565302D01*
X158159991Y-81557315D01*
X158160550Y-81546000D01*
X158160550Y-81166739D01*
X158749500Y-81166739D01*
X158749500Y-81533260D01*
X158759426Y-81601391D01*
X158773439Y-81630056D01*
X158794511Y-81673160D01*
X158810803Y-81706485D01*
X158893514Y-81789196D01*
X158893515Y-81789196D01*
X158893517Y-81789198D01*
X158998607Y-81840573D01*
X159032673Y-81845536D01*
X159066739Y-81850500D01*
X159066740Y-81850500D01*
X159933261Y-81850500D01*
X159965895Y-81845745D01*
X160001393Y-81840573D01*
X160106483Y-81789198D01*
X160189198Y-81706483D01*
X160240573Y-81601393D01*
X160250500Y-81533260D01*
X160250500Y-81166740D01*
X160240573Y-81098607D01*
X160189198Y-80993517D01*
X160189196Y-80993515D01*
X160189196Y-80993514D01*
X160106485Y-80910803D01*
X160001391Y-80859426D01*
X159933261Y-80849500D01*
X159933260Y-80849500D01*
X159066740Y-80849500D01*
X159066739Y-80849500D01*
X158998608Y-80859426D01*
X158893514Y-80910803D01*
X158810803Y-80993514D01*
X158759426Y-81098608D01*
X158749500Y-81166739D01*
X158160550Y-81166739D01*
X158160550Y-80284550D01*
X158180235Y-80217511D01*
X158233039Y-80171756D01*
X158284550Y-80160550D01*
X159545981Y-80160550D01*
X159546000Y-80160550D01*
X159555285Y-80160091D01*
X159564875Y-80159618D01*
X159564878Y-80159617D01*
X159566243Y-80159550D01*
X159567233Y-80159452D01*
X159570264Y-80158999D01*
X159574025Y-80158844D01*
X159574855Y-80158775D01*
X159591614Y-80156685D01*
X159597614Y-80155685D01*
X159619085Y-80150913D01*
X159620131Y-80150621D01*
X159624395Y-80149177D01*
X159630085Y-80147913D01*
X159631131Y-80147621D01*
X159645466Y-80142768D01*
X159652186Y-80140495D01*
X159652197Y-80140491D01*
X159657197Y-80138491D01*
X159665247Y-80135071D01*
X159665629Y-80134899D01*
X159673160Y-80131322D01*
X159673183Y-80131310D01*
X159673902Y-80130969D01*
X159676379Y-80129826D01*
X159683370Y-80126697D01*
X159684092Y-80126338D01*
X159698327Y-80118545D01*
X159713327Y-80109545D01*
X159727629Y-80099729D01*
X159733979Y-80095372D01*
X159733983Y-80095368D01*
X159733993Y-80095362D01*
X159734966Y-80094603D01*
X159734987Y-80094583D01*
X159735733Y-80093965D01*
X159741760Y-80089263D01*
X159742952Y-80088389D01*
X159742993Y-80088362D01*
X159743966Y-80087603D01*
X159762881Y-80070881D01*
X159770881Y-80062881D01*
X159787603Y-80043966D01*
X159788362Y-80042993D01*
X159791330Y-80038667D01*
X159794603Y-80034966D01*
X159795362Y-80033993D01*
X159809545Y-80013327D01*
X159818545Y-79998327D01*
X159826338Y-79984092D01*
X159826697Y-79983370D01*
X159830811Y-79974180D01*
X159831322Y-79973160D01*
X159834899Y-79965629D01*
X159835071Y-79965247D01*
X159838491Y-79957197D01*
X159840491Y-79952197D01*
X159847621Y-79931131D01*
X159847913Y-79930085D01*
X159847917Y-79930065D01*
X159847920Y-79930056D01*
X159848320Y-79928463D01*
X159848362Y-79928473D01*
X159848365Y-79928466D01*
X159848373Y-79928468D01*
X159850338Y-79921047D01*
X159850612Y-79920156D01*
X159850621Y-79920131D01*
X159850913Y-79919085D01*
X159855685Y-79897614D01*
X159856685Y-79891614D01*
X159857133Y-79888027D01*
X159857730Y-79883234D01*
X159858775Y-79874855D01*
X159858844Y-79874025D01*
X159858844Y-79874014D01*
X159859059Y-79871439D01*
X159859152Y-79871446D01*
X159859372Y-79868782D01*
X159859299Y-79868775D01*
X159859449Y-79867252D01*
X159859452Y-79867233D01*
X159859550Y-79866243D01*
X159859618Y-79864878D01*
X159860549Y-79846012D01*
X159860550Y-79846000D01*
X159860550Y-79730978D01*
X161249500Y-79730978D01*
X161249500Y-79862762D01*
X161260677Y-79904476D01*
X161283608Y-79990057D01*
X161314733Y-80043966D01*
X161349500Y-80104184D01*
X161442686Y-80197370D01*
X161556814Y-80263262D01*
X161684108Y-80297370D01*
X161684110Y-80297370D01*
X161815890Y-80297370D01*
X161815892Y-80297370D01*
X161943186Y-80263262D01*
X162057314Y-80197370D01*
X162137298Y-80117386D01*
X164499500Y-80117386D01*
X164499500Y-80249169D01*
X164533608Y-80376465D01*
X164535938Y-80380500D01*
X164599500Y-80490592D01*
X164692686Y-80583778D01*
X164806814Y-80649670D01*
X164934108Y-80683778D01*
X164934110Y-80683778D01*
X165065890Y-80683778D01*
X165065892Y-80683778D01*
X165193186Y-80649670D01*
X165307314Y-80583778D01*
X165400500Y-80490592D01*
X165466392Y-80376464D01*
X165500500Y-80249170D01*
X165500500Y-80117386D01*
X165466392Y-79990092D01*
X165400500Y-79875964D01*
X165307314Y-79782778D01*
X165250250Y-79749832D01*
X165193187Y-79716886D01*
X165119589Y-79697166D01*
X165065892Y-79682778D01*
X164934108Y-79682778D01*
X164806812Y-79716886D01*
X164692686Y-79782778D01*
X164692683Y-79782780D01*
X164599502Y-79875961D01*
X164599500Y-79875964D01*
X164533608Y-79990090D01*
X164499500Y-80117386D01*
X162137298Y-80117386D01*
X162150500Y-80104184D01*
X162216392Y-79990056D01*
X162250500Y-79862762D01*
X162250500Y-79730978D01*
X162216392Y-79603684D01*
X162202430Y-79579502D01*
X162151889Y-79491962D01*
X162150500Y-79489556D01*
X162099031Y-79438087D01*
X162722712Y-79438087D01*
X162722712Y-79569871D01*
X162731772Y-79603682D01*
X162756820Y-79697166D01*
X162767237Y-79715208D01*
X162822712Y-79811293D01*
X162915898Y-79904479D01*
X162998529Y-79952186D01*
X163025988Y-79968040D01*
X163030026Y-79970371D01*
X163157320Y-80004479D01*
X163157322Y-80004479D01*
X163289102Y-80004479D01*
X163289104Y-80004479D01*
X163416398Y-79970371D01*
X163530526Y-79904479D01*
X163623712Y-79811293D01*
X163689604Y-79697165D01*
X163723712Y-79569871D01*
X163723712Y-79438087D01*
X163689604Y-79310793D01*
X163682998Y-79299351D01*
X166999500Y-79299351D01*
X166999500Y-79431135D01*
X167012459Y-79479500D01*
X167033608Y-79558430D01*
X167059734Y-79603680D01*
X167099500Y-79672557D01*
X167192686Y-79765743D01*
X167306814Y-79831635D01*
X167434108Y-79865743D01*
X167434110Y-79865743D01*
X167565890Y-79865743D01*
X167565892Y-79865743D01*
X167693186Y-79831635D01*
X167807314Y-79765743D01*
X167900500Y-79672557D01*
X167966392Y-79558429D01*
X168000500Y-79431135D01*
X168000500Y-79299351D01*
X167966392Y-79172057D01*
X167900500Y-79057929D01*
X167807314Y-78964743D01*
X167750250Y-78931797D01*
X167693187Y-78898851D01*
X167629539Y-78881797D01*
X167565892Y-78864743D01*
X167434108Y-78864743D01*
X167306812Y-78898851D01*
X167192686Y-78964743D01*
X167192683Y-78964745D01*
X167099502Y-79057926D01*
X167099500Y-79057929D01*
X167033608Y-79172055D01*
X167027015Y-79196662D01*
X166999500Y-79299351D01*
X163682998Y-79299351D01*
X163623712Y-79196665D01*
X163530526Y-79103479D01*
X163473462Y-79070533D01*
X163416399Y-79037587D01*
X163352751Y-79020533D01*
X163289104Y-79003479D01*
X163157320Y-79003479D01*
X163030024Y-79037587D01*
X162915898Y-79103479D01*
X162915895Y-79103481D01*
X162822714Y-79196662D01*
X162822712Y-79196665D01*
X162756820Y-79310791D01*
X162740823Y-79370495D01*
X162722712Y-79438087D01*
X162099031Y-79438087D01*
X162057314Y-79396370D01*
X161985344Y-79354818D01*
X161943187Y-79330478D01*
X161869712Y-79310791D01*
X161815892Y-79296370D01*
X161684108Y-79296370D01*
X161556812Y-79330478D01*
X161442686Y-79396370D01*
X161442683Y-79396372D01*
X161349502Y-79489553D01*
X161349500Y-79489556D01*
X161283608Y-79603682D01*
X161253724Y-79715212D01*
X161249500Y-79730978D01*
X159860550Y-79730978D01*
X159860550Y-77173000D01*
X159860028Y-77158359D01*
X159859977Y-77157645D01*
X159858434Y-77143224D01*
X159857434Y-77136224D01*
X159857069Y-77133775D01*
X159857051Y-77133659D01*
X159856685Y-77131386D01*
X159856090Y-77127816D01*
X159854434Y-77116224D01*
X159851024Y-77098168D01*
X159850816Y-77097285D01*
X159845745Y-77079418D01*
X159843745Y-77073418D01*
X159840883Y-77065389D01*
X159840734Y-77064997D01*
X159837519Y-77057044D01*
X159837254Y-77056426D01*
X159833627Y-77046711D01*
X159833353Y-77046050D01*
X159827322Y-77032840D01*
X159821322Y-77020840D01*
X159815272Y-77009624D01*
X159814957Y-77009081D01*
X159808188Y-76998208D01*
X159804188Y-76992208D01*
X159799052Y-76984857D01*
X159799023Y-76984817D01*
X159798806Y-76984520D01*
X159798793Y-76984503D01*
X159796948Y-76982092D01*
X159793776Y-76977756D01*
X159791052Y-76973857D01*
X159790793Y-76973503D01*
X159785412Y-76966470D01*
X159785401Y-76966456D01*
X159781416Y-76961474D01*
X159774123Y-76952855D01*
X159773762Y-76952451D01*
X159767867Y-76946219D01*
X159765881Y-76944119D01*
X159755881Y-76934119D01*
X159747554Y-76926243D01*
X159747548Y-76926237D01*
X159747144Y-76925876D01*
X159738525Y-76918583D01*
X159733543Y-76914598D01*
X159727297Y-76909819D01*
X159727296Y-76909818D01*
X159726497Y-76909207D01*
X159726143Y-76908948D01*
X159720046Y-76904688D01*
X159715497Y-76901207D01*
X159715143Y-76900948D01*
X159707792Y-76895812D01*
X159701792Y-76891812D01*
X159690919Y-76885043D01*
X159690376Y-76884728D01*
X159679160Y-76878678D01*
X159667160Y-76872678D01*
X159653950Y-76866647D01*
X159653289Y-76866373D01*
X159643573Y-76862745D01*
X159642956Y-76862481D01*
X159635716Y-76859554D01*
X159635714Y-76859553D01*
X159635023Y-76859274D01*
X159635019Y-76859272D01*
X159635003Y-76859266D01*
X159634791Y-76859185D01*
X159634583Y-76859106D01*
X159626583Y-76856254D01*
X159620594Y-76854258D01*
X159620568Y-76854250D01*
X159602728Y-76849187D01*
X159602689Y-76849177D01*
X159601841Y-76848977D01*
X159583793Y-76845569D01*
X159583779Y-76845566D01*
X159573596Y-76844111D01*
X159570783Y-76843676D01*
X159568606Y-76843313D01*
X159566211Y-76842928D01*
X159563786Y-76842567D01*
X159558533Y-76841817D01*
X159556776Y-76841566D01*
X159548743Y-76840706D01*
X159542367Y-76840024D01*
X159542358Y-76840023D01*
X159542355Y-76840023D01*
X159542072Y-76840002D01*
X159541630Y-76839971D01*
X159527003Y-76839450D01*
X159527000Y-76839450D01*
X158284550Y-76839450D01*
X158217511Y-76819765D01*
X158171756Y-76766961D01*
X158160550Y-76715450D01*
X158160550Y-75965649D01*
X158550000Y-75965649D01*
X158552899Y-76002489D01*
X158552900Y-76002495D01*
X158598716Y-76160193D01*
X158598717Y-76160196D01*
X158682314Y-76301552D01*
X158682321Y-76301561D01*
X158798438Y-76417678D01*
X158798447Y-76417685D01*
X158939801Y-76501281D01*
X159097514Y-76547100D01*
X159097511Y-76547100D01*
X159099998Y-76547295D01*
X159100000Y-76547295D01*
X159600000Y-76547295D01*
X159600001Y-76547295D01*
X159602486Y-76547100D01*
X159760198Y-76501281D01*
X159901552Y-76417685D01*
X159901561Y-76417678D01*
X160017678Y-76301561D01*
X160017685Y-76301552D01*
X160101282Y-76160196D01*
X160101283Y-76160193D01*
X160147099Y-76002495D01*
X160147100Y-76002489D01*
X160149999Y-75965649D01*
X160150000Y-75965634D01*
X160150000Y-75790409D01*
X163999500Y-75790409D01*
X163999500Y-75922192D01*
X164033608Y-76049488D01*
X164056534Y-76089196D01*
X164099500Y-76163615D01*
X164192686Y-76256801D01*
X164306814Y-76322693D01*
X164434108Y-76356801D01*
X164434110Y-76356801D01*
X164565890Y-76356801D01*
X164565892Y-76356801D01*
X164693186Y-76322693D01*
X164807314Y-76256801D01*
X164900500Y-76163615D01*
X164966392Y-76049487D01*
X165000500Y-75922193D01*
X165000500Y-75790409D01*
X164966392Y-75663115D01*
X164900500Y-75548987D01*
X164807314Y-75455801D01*
X164750250Y-75422855D01*
X164693187Y-75389909D01*
X164618626Y-75369931D01*
X164565892Y-75355801D01*
X164434108Y-75355801D01*
X164306812Y-75389909D01*
X164192686Y-75455801D01*
X164192683Y-75455803D01*
X164099502Y-75548984D01*
X164099500Y-75548987D01*
X164033608Y-75663113D01*
X163999500Y-75790409D01*
X160150000Y-75790409D01*
X160150000Y-75750000D01*
X159600000Y-75750000D01*
X159600000Y-76547295D01*
X159100000Y-76547295D01*
X159100000Y-75750000D01*
X158550000Y-75750000D01*
X158550000Y-75965649D01*
X158160550Y-75965649D01*
X158160550Y-75454019D01*
X158160550Y-75454000D01*
X158159550Y-75433757D01*
X158159452Y-75432767D01*
X158158999Y-75429735D01*
X158158844Y-75425975D01*
X158158775Y-75425145D01*
X158156685Y-75408386D01*
X158155685Y-75402386D01*
X158150913Y-75380915D01*
X158150621Y-75379869D01*
X158149177Y-75375604D01*
X158147913Y-75369915D01*
X158147621Y-75368869D01*
X158147572Y-75368723D01*
X158140495Y-75347813D01*
X158140491Y-75347802D01*
X158138491Y-75342803D01*
X158135068Y-75334746D01*
X158135009Y-75334615D01*
X158134899Y-75334371D01*
X158131322Y-75326840D01*
X158131309Y-75326814D01*
X158130987Y-75326136D01*
X158129819Y-75323603D01*
X158126697Y-75316630D01*
X158126342Y-75315917D01*
X158126338Y-75315908D01*
X158118545Y-75301673D01*
X158109545Y-75286673D01*
X158107097Y-75283106D01*
X158095365Y-75266010D01*
X158095363Y-75266008D01*
X158094597Y-75265026D01*
X158093951Y-75264248D01*
X158089289Y-75258273D01*
X158088355Y-75256998D01*
X158087624Y-75256060D01*
X158087596Y-75256026D01*
X158070890Y-75237129D01*
X158070858Y-75237095D01*
X158062904Y-75229141D01*
X158062870Y-75229109D01*
X158044666Y-75213016D01*
X158043966Y-75212397D01*
X158042993Y-75211638D01*
X158038667Y-75208669D01*
X158034966Y-75205397D01*
X158033993Y-75204638D01*
X158013327Y-75190455D01*
X157998327Y-75181455D01*
X157984092Y-75173662D01*
X157983370Y-75173303D01*
X157974180Y-75169188D01*
X157973160Y-75168678D01*
X157965629Y-75165101D01*
X157965619Y-75165096D01*
X157965599Y-75165087D01*
X157965253Y-75164931D01*
X157957196Y-75161508D01*
X157952197Y-75159508D01*
X157952186Y-75159504D01*
X157931147Y-75152383D01*
X157930301Y-75152147D01*
X157930293Y-75152145D01*
X157930085Y-75152087D01*
X157929677Y-75151996D01*
X157928500Y-75151712D01*
X157928268Y-75151578D01*
X157921110Y-75149681D01*
X157920119Y-75149375D01*
X157919104Y-75149092D01*
X157919096Y-75149090D01*
X157919094Y-75149089D01*
X157919085Y-75149087D01*
X157907158Y-75146436D01*
X157897607Y-75144313D01*
X157891609Y-75143313D01*
X157874871Y-75141226D01*
X157871448Y-75140942D01*
X157871455Y-75140855D01*
X157868772Y-75140633D01*
X157868766Y-75140700D01*
X157867234Y-75140548D01*
X157867233Y-75140548D01*
X157866243Y-75140450D01*
X157866233Y-75140449D01*
X157866209Y-75140447D01*
X157846012Y-75139450D01*
X157846000Y-75139450D01*
X155154000Y-75139450D01*
X155153987Y-75139450D01*
X155135122Y-75140381D01*
X155135110Y-75140383D01*
X155133757Y-75140450D01*
X155132767Y-75140548D01*
X155129735Y-75141000D01*
X155125975Y-75141156D01*
X155125145Y-75141225D01*
X155108386Y-75143315D01*
X155102386Y-75144315D01*
X155080915Y-75149087D01*
X155079869Y-75149379D01*
X155075604Y-75150822D01*
X155069915Y-75152087D01*
X155068869Y-75152379D01*
X155068732Y-75152425D01*
X155068728Y-75152426D01*
X155047813Y-75159504D01*
X155047802Y-75159508D01*
X155042803Y-75161508D01*
X155034746Y-75164931D01*
X155034401Y-75165086D01*
X155026136Y-75169012D01*
X155023629Y-75170168D01*
X155016641Y-75173297D01*
X155015911Y-75173660D01*
X155001667Y-75181458D01*
X154986666Y-75190459D01*
X154966016Y-75204630D01*
X154965015Y-75205412D01*
X154964208Y-75206082D01*
X154958289Y-75210699D01*
X154957008Y-75211636D01*
X154956050Y-75212384D01*
X154956026Y-75212403D01*
X154937129Y-75229109D01*
X154937095Y-75229141D01*
X154929141Y-75237095D01*
X154929109Y-75237129D01*
X154917731Y-75250000D01*
X154912397Y-75256034D01*
X154911638Y-75257007D01*
X154908669Y-75261332D01*
X154905397Y-75265034D01*
X154904638Y-75266007D01*
X154890455Y-75286673D01*
X154881455Y-75301673D01*
X154873662Y-75315908D01*
X154873303Y-75316630D01*
X154869188Y-75325819D01*
X154868678Y-75326840D01*
X154866231Y-75331991D01*
X154866229Y-75331995D01*
X154865086Y-75334401D01*
X154864931Y-75334746D01*
X154861508Y-75342803D01*
X154859508Y-75347802D01*
X154859504Y-75347813D01*
X154852382Y-75368857D01*
X154852382Y-75368858D01*
X154852082Y-75369931D01*
X154851687Y-75371510D01*
X154851644Y-75371499D01*
X154851637Y-75371526D01*
X154851636Y-75371525D01*
X154849697Y-75378836D01*
X154849379Y-75379866D01*
X154849091Y-75380899D01*
X154849090Y-75380903D01*
X154844313Y-75402392D01*
X154843313Y-75408390D01*
X154841227Y-75425127D01*
X154841225Y-75425145D01*
X154841156Y-75425975D01*
X154840942Y-75428552D01*
X154840853Y-75428544D01*
X154840631Y-75431231D01*
X154840700Y-75431238D01*
X154840448Y-75433780D01*
X154840447Y-75433790D01*
X154839450Y-75453987D01*
X154839450Y-76715450D01*
X154819765Y-76782489D01*
X154766961Y-76828244D01*
X154715450Y-76839450D01*
X153463997Y-76839450D01*
X153449369Y-76839971D01*
X153448639Y-76840023D01*
X153434671Y-76841518D01*
X153434667Y-76841518D01*
X153434224Y-76841566D01*
X153430446Y-76842105D01*
X153418102Y-76843100D01*
X153416505Y-76843359D01*
X153404718Y-76846259D01*
X153404398Y-76846313D01*
X153400320Y-76847156D01*
X153400286Y-76847162D01*
X153388745Y-76849550D01*
X153387994Y-76849736D01*
X153372432Y-76854250D01*
X153354414Y-76860256D01*
X153354387Y-76860266D01*
X153333475Y-76868537D01*
X153333451Y-76868547D01*
X153333440Y-76868552D01*
X153333119Y-76868699D01*
X153332448Y-76869008D01*
X153332423Y-76869021D01*
X153320725Y-76875200D01*
X153318295Y-76876449D01*
X153315840Y-76877676D01*
X153308723Y-76881412D01*
X153308362Y-76881611D01*
X153301671Y-76885455D01*
X153296681Y-76888449D01*
X153292774Y-76890853D01*
X153292609Y-76890957D01*
X153288223Y-76893801D01*
X153282234Y-76897794D01*
X153274831Y-76902966D01*
X153274506Y-76903204D01*
X153267456Y-76908598D01*
X153262474Y-76912583D01*
X153253862Y-76919870D01*
X153253447Y-76920241D01*
X153248693Y-76924737D01*
X153248671Y-76924758D01*
X153246219Y-76927078D01*
X153236535Y-76935747D01*
X153235747Y-76936535D01*
X153227078Y-76946219D01*
X153224758Y-76948671D01*
X153224737Y-76948693D01*
X153220241Y-76953447D01*
X153219870Y-76953862D01*
X153212583Y-76962474D01*
X153208598Y-76967456D01*
X153203204Y-76974506D01*
X153202966Y-76974831D01*
X153200380Y-76978532D01*
X153197886Y-76982103D01*
X153197794Y-76982234D01*
X153193801Y-76988223D01*
X153190957Y-76992609D01*
X153190853Y-76992774D01*
X153188449Y-76996681D01*
X153185455Y-77001671D01*
X153181611Y-77008362D01*
X153181412Y-77008723D01*
X153179726Y-77011935D01*
X153179723Y-77011943D01*
X153177678Y-77015840D01*
X153175840Y-77019515D01*
X153169013Y-77032439D01*
X153168552Y-77033440D01*
X153160255Y-77054418D01*
X153154255Y-77072418D01*
X153149738Y-77087990D01*
X153149548Y-77088757D01*
X153146313Y-77104398D01*
X153146259Y-77104718D01*
X153144202Y-77113078D01*
X153144198Y-77113090D01*
X153143358Y-77116506D01*
X153143100Y-77118095D01*
X153143097Y-77118122D01*
X153142443Y-77126226D01*
X153142416Y-77126579D01*
X153142105Y-77130446D01*
X153141566Y-77134224D01*
X153140023Y-77148645D01*
X153139972Y-77149359D01*
X153139450Y-77164000D01*
X150444907Y-77164000D01*
X150444907Y-75466739D01*
X152749500Y-75466739D01*
X152749500Y-75833260D01*
X152759426Y-75901391D01*
X152810803Y-76006485D01*
X152893514Y-76089196D01*
X152893515Y-76089196D01*
X152893517Y-76089198D01*
X152998607Y-76140573D01*
X153032673Y-76145536D01*
X153066739Y-76150500D01*
X153066740Y-76150500D01*
X153933261Y-76150500D01*
X153955971Y-76147191D01*
X154001393Y-76140573D01*
X154106483Y-76089198D01*
X154189198Y-76006483D01*
X154240573Y-75901393D01*
X154250500Y-75833260D01*
X154250500Y-75466740D01*
X154248906Y-75455803D01*
X154244935Y-75428544D01*
X154240573Y-75398607D01*
X154189198Y-75293517D01*
X154189196Y-75293515D01*
X154189196Y-75293514D01*
X154106485Y-75210803D01*
X154001391Y-75159426D01*
X153959406Y-75153309D01*
X153895906Y-75124165D01*
X153858242Y-75065315D01*
X153857903Y-75034350D01*
X158550000Y-75034350D01*
X158550000Y-75250000D01*
X159100000Y-75250000D01*
X159600000Y-75250000D01*
X160150000Y-75250000D01*
X160150000Y-75034365D01*
X160149999Y-75034350D01*
X160147100Y-74997510D01*
X160147099Y-74997504D01*
X160101283Y-74839806D01*
X160101282Y-74839803D01*
X160017685Y-74698447D01*
X160017678Y-74698438D01*
X159901561Y-74582321D01*
X159901552Y-74582314D01*
X159760196Y-74498717D01*
X159760193Y-74498716D01*
X159602494Y-74452900D01*
X159602497Y-74452900D01*
X159600000Y-74452703D01*
X159600000Y-75250000D01*
X159100000Y-75250000D01*
X159100000Y-74452703D01*
X159097503Y-74452900D01*
X158939806Y-74498716D01*
X158939803Y-74498717D01*
X158798447Y-74582314D01*
X158798438Y-74582321D01*
X158682321Y-74698438D01*
X158682314Y-74698447D01*
X158598717Y-74839803D01*
X158598716Y-74839806D01*
X158552900Y-74997504D01*
X158552899Y-74997510D01*
X158550000Y-75034350D01*
X153857903Y-75034350D01*
X153857510Y-74998515D01*
X153890823Y-74874189D01*
X153890823Y-74742405D01*
X153856715Y-74615111D01*
X153790823Y-74500983D01*
X153697637Y-74407797D01*
X153611899Y-74358296D01*
X153583510Y-74341905D01*
X153519862Y-74324851D01*
X153456215Y-74307797D01*
X153324431Y-74307797D01*
X153197135Y-74341905D01*
X153083009Y-74407797D01*
X153083006Y-74407799D01*
X152989825Y-74500980D01*
X152989823Y-74500983D01*
X152923931Y-74615109D01*
X152918626Y-74634908D01*
X152889823Y-74742405D01*
X152889823Y-74874189D01*
X152901192Y-74916620D01*
X152923931Y-75001485D01*
X152945059Y-75038079D01*
X152961530Y-75105979D01*
X152938678Y-75172006D01*
X152901159Y-75203825D01*
X152901878Y-75204832D01*
X152893515Y-75210802D01*
X152810803Y-75293514D01*
X152759426Y-75398608D01*
X152749500Y-75466739D01*
X150444907Y-75466739D01*
X150444907Y-74358296D01*
X148934907Y-74358296D01*
X148934907Y-75358296D01*
X133790267Y-75358296D01*
X133420757Y-74988786D01*
X133480896Y-74972673D01*
X133596735Y-74905794D01*
X133691317Y-74811212D01*
X133758196Y-74695373D01*
X133774310Y-74635234D01*
X134337083Y-75198007D01*
X134364177Y-75160717D01*
X134454357Y-74983729D01*
X134515739Y-74794815D01*
X134515739Y-74794812D01*
X134546815Y-74598613D01*
X134546815Y-74399969D01*
X134535152Y-74326331D01*
X134515739Y-74203771D01*
X134515739Y-74203768D01*
X134454357Y-74014854D01*
X134364173Y-73837859D01*
X134337083Y-73800575D01*
X133774309Y-74363349D01*
X133758196Y-74303211D01*
X133691317Y-74187372D01*
X133596735Y-74092790D01*
X133480896Y-74025911D01*
X133420757Y-74009796D01*
X133983531Y-73447023D01*
X133983530Y-73447022D01*
X133946247Y-73419933D01*
X133769252Y-73329749D01*
X133580337Y-73268367D01*
X133384136Y-73237292D01*
X133185494Y-73237292D01*
X132989294Y-73268367D01*
X132989291Y-73268367D01*
X132800377Y-73329749D01*
X132623379Y-73419935D01*
X132586098Y-73447021D01*
X132586097Y-73447022D01*
X133148873Y-74009796D01*
X133088734Y-74025911D01*
X132972895Y-74092790D01*
X132878313Y-74187372D01*
X132811434Y-74303211D01*
X132795319Y-74363349D01*
X132232545Y-73800574D01*
X132232544Y-73800575D01*
X132205458Y-73837856D01*
X132125300Y-73995174D01*
X132077325Y-74045970D01*
X132009504Y-74062765D01*
X131943369Y-74040227D01*
X131904330Y-73995174D01*
X131824173Y-73837859D01*
X131797083Y-73800575D01*
X131234309Y-74363349D01*
X131218196Y-74303211D01*
X131151317Y-74187372D01*
X131056735Y-74092790D01*
X130940896Y-74025911D01*
X130880757Y-74009796D01*
X131443531Y-73447023D01*
X131443530Y-73447022D01*
X131406247Y-73419933D01*
X131229252Y-73329749D01*
X131040337Y-73268367D01*
X130844136Y-73237292D01*
X130645494Y-73237292D01*
X130449294Y-73268367D01*
X130449291Y-73268367D01*
X130260377Y-73329749D01*
X130083379Y-73419935D01*
X130046098Y-73447021D01*
X130046097Y-73447022D01*
X130608873Y-74009796D01*
X130548734Y-74025911D01*
X130432895Y-74092790D01*
X130338313Y-74187372D01*
X130271434Y-74303211D01*
X130255319Y-74363349D01*
X129692545Y-73800574D01*
X129692544Y-73800575D01*
X129665458Y-73837856D01*
X129575272Y-74014854D01*
X129513890Y-74203768D01*
X129513890Y-74203771D01*
X129482815Y-74399970D01*
X127290446Y-74399970D01*
X127406537Y-73592534D01*
X127407242Y-73588187D01*
X127428157Y-73472265D01*
X127470551Y-73237292D01*
X127593442Y-72556153D01*
X127594293Y-72551874D01*
X127743824Y-71864489D01*
X129782315Y-71864489D01*
X129782315Y-72054094D01*
X129819301Y-72240035D01*
X129819303Y-72240043D01*
X129891857Y-72415204D01*
X129997192Y-72572850D01*
X130131256Y-72706914D01*
X130236115Y-72776978D01*
X130288900Y-72812248D01*
X130464064Y-72884804D01*
X130650012Y-72921791D01*
X130650016Y-72921792D01*
X130650017Y-72921792D01*
X130839614Y-72921792D01*
X130839615Y-72921791D01*
X131025566Y-72884804D01*
X131200730Y-72812248D01*
X131358373Y-72706914D01*
X131492437Y-72572850D01*
X131597771Y-72415207D01*
X131670327Y-72240043D01*
X131707315Y-72054090D01*
X131707315Y-71864494D01*
X131707314Y-71864489D01*
X132322315Y-71864489D01*
X132322315Y-72054094D01*
X132359301Y-72240035D01*
X132359303Y-72240043D01*
X132431857Y-72415204D01*
X132537192Y-72572850D01*
X132671256Y-72706914D01*
X132776115Y-72776978D01*
X132828900Y-72812248D01*
X133004064Y-72884804D01*
X133190012Y-72921791D01*
X133190016Y-72921792D01*
X133190017Y-72921792D01*
X133379614Y-72921792D01*
X133379615Y-72921791D01*
X133565566Y-72884804D01*
X133740730Y-72812248D01*
X133898373Y-72706914D01*
X134032437Y-72572850D01*
X134137771Y-72415207D01*
X134161345Y-72358296D01*
X151434907Y-72358296D01*
X151434907Y-73358296D01*
X152934907Y-73358296D01*
X152934907Y-71434108D01*
X155499500Y-71434108D01*
X155499500Y-71565891D01*
X155533608Y-71693187D01*
X155566554Y-71750250D01*
X155599500Y-71807314D01*
X155692686Y-71900500D01*
X155806814Y-71966392D01*
X155934108Y-72000500D01*
X155934110Y-72000500D01*
X156065890Y-72000500D01*
X156065892Y-72000500D01*
X156193186Y-71966392D01*
X156307314Y-71900500D01*
X156320995Y-71886819D01*
X156382318Y-71853334D01*
X156408676Y-71850500D01*
X158591324Y-71850500D01*
X158658363Y-71870185D01*
X158679005Y-71886819D01*
X158692686Y-71900500D01*
X158806814Y-71966392D01*
X158934108Y-72000500D01*
X158934110Y-72000500D01*
X159065890Y-72000500D01*
X159065892Y-72000500D01*
X159193186Y-71966392D01*
X159307314Y-71900500D01*
X159400500Y-71807314D01*
X159466392Y-71693186D01*
X159500500Y-71565892D01*
X159500500Y-71434108D01*
X159466392Y-71306814D01*
X159400500Y-71192686D01*
X159307314Y-71099500D01*
X159250250Y-71066554D01*
X159193187Y-71033608D01*
X159129539Y-71016554D01*
X159065892Y-70999500D01*
X158934108Y-70999500D01*
X158806812Y-71033608D01*
X158692686Y-71099500D01*
X158692683Y-71099502D01*
X158679005Y-71113181D01*
X158617682Y-71146666D01*
X158591324Y-71149500D01*
X156408676Y-71149500D01*
X156341637Y-71129815D01*
X156320995Y-71113181D01*
X156307316Y-71099502D01*
X156307314Y-71099500D01*
X156250250Y-71066554D01*
X156193187Y-71033608D01*
X156129539Y-71016554D01*
X156065892Y-70999500D01*
X155934108Y-70999500D01*
X155806812Y-71033608D01*
X155692686Y-71099500D01*
X155692683Y-71099502D01*
X155599502Y-71192683D01*
X155599500Y-71192686D01*
X155533608Y-71306812D01*
X155499500Y-71434108D01*
X152934907Y-71434108D01*
X152934907Y-70858296D01*
X151934907Y-70858296D01*
X151934907Y-72234296D01*
X151915222Y-72301335D01*
X151862418Y-72347090D01*
X151810907Y-72358296D01*
X151434907Y-72358296D01*
X134161345Y-72358296D01*
X134210327Y-72240043D01*
X134247315Y-72054090D01*
X134247315Y-71864494D01*
X134210327Y-71678541D01*
X134137771Y-71503377D01*
X134091487Y-71434108D01*
X134032437Y-71345733D01*
X133898373Y-71211669D01*
X133740727Y-71106334D01*
X133565566Y-71033780D01*
X133565558Y-71033778D01*
X133379617Y-70996792D01*
X133379613Y-70996792D01*
X133190017Y-70996792D01*
X133190012Y-70996792D01*
X133004071Y-71033778D01*
X133004063Y-71033780D01*
X132828902Y-71106334D01*
X132671256Y-71211669D01*
X132537192Y-71345733D01*
X132431857Y-71503379D01*
X132359303Y-71678540D01*
X132359301Y-71678548D01*
X132322315Y-71864489D01*
X131707314Y-71864489D01*
X131670327Y-71678541D01*
X131597771Y-71503377D01*
X131551487Y-71434108D01*
X131492437Y-71345733D01*
X131358373Y-71211669D01*
X131200727Y-71106334D01*
X131025566Y-71033780D01*
X131025558Y-71033778D01*
X130839617Y-70996792D01*
X130839613Y-70996792D01*
X130650017Y-70996792D01*
X130650012Y-70996792D01*
X130464071Y-71033778D01*
X130464063Y-71033780D01*
X130288902Y-71106334D01*
X130131256Y-71211669D01*
X129997192Y-71345733D01*
X129891857Y-71503379D01*
X129819303Y-71678540D01*
X129819301Y-71678548D01*
X129782315Y-71864489D01*
X127743824Y-71864489D01*
X127817208Y-71527150D01*
X127818221Y-71522867D01*
X127840875Y-71434110D01*
X128077567Y-70506758D01*
X128078716Y-70502569D01*
X128374174Y-69496333D01*
X128375493Y-69492123D01*
X128421994Y-69352412D01*
X128432792Y-69319970D01*
X129482815Y-69319970D01*
X129482815Y-69518613D01*
X129513890Y-69714812D01*
X129513890Y-69714815D01*
X129575272Y-69903729D01*
X129665456Y-70080724D01*
X129692545Y-70118007D01*
X129692546Y-70118008D01*
X130255319Y-69555234D01*
X130271434Y-69615373D01*
X130338313Y-69731212D01*
X130432895Y-69825794D01*
X130548734Y-69892673D01*
X130608872Y-69908786D01*
X130046098Y-70471560D01*
X130046098Y-70471561D01*
X130083382Y-70498650D01*
X130260377Y-70588834D01*
X130449292Y-70650216D01*
X130645494Y-70681292D01*
X130844136Y-70681292D01*
X131040335Y-70650216D01*
X131040338Y-70650216D01*
X131229252Y-70588834D01*
X131406240Y-70498654D01*
X131443531Y-70471560D01*
X130880757Y-69908786D01*
X130940896Y-69892673D01*
X131056735Y-69825794D01*
X131151317Y-69731212D01*
X131218196Y-69615373D01*
X131234310Y-69555234D01*
X131797083Y-70118007D01*
X131824177Y-70080717D01*
X131904330Y-69923409D01*
X131952304Y-69872613D01*
X132020125Y-69855818D01*
X132086260Y-69878355D01*
X132125300Y-69923409D01*
X132205456Y-70080724D01*
X132232545Y-70118007D01*
X132232546Y-70118008D01*
X132795319Y-69555234D01*
X132811434Y-69615373D01*
X132878313Y-69731212D01*
X132972895Y-69825794D01*
X133088734Y-69892673D01*
X133148872Y-69908786D01*
X132586098Y-70471560D01*
X132586098Y-70471561D01*
X132623382Y-70498650D01*
X132800377Y-70588834D01*
X132989292Y-70650216D01*
X133185494Y-70681292D01*
X133384136Y-70681292D01*
X133580335Y-70650216D01*
X133580338Y-70650216D01*
X133769252Y-70588834D01*
X133946240Y-70498654D01*
X133983531Y-70471560D01*
X133696079Y-70184108D01*
X155499500Y-70184108D01*
X155499500Y-70315891D01*
X155533608Y-70443187D01*
X155549990Y-70471561D01*
X155599500Y-70557314D01*
X155692686Y-70650500D01*
X155806814Y-70716392D01*
X155934108Y-70750500D01*
X155934110Y-70750500D01*
X156065890Y-70750500D01*
X156065892Y-70750500D01*
X156193186Y-70716392D01*
X156307314Y-70650500D01*
X156400500Y-70557314D01*
X156466392Y-70443186D01*
X156500500Y-70315892D01*
X156500500Y-70184108D01*
X156466392Y-70056814D01*
X156400500Y-69942686D01*
X156307314Y-69849500D01*
X156250250Y-69816554D01*
X156193187Y-69783608D01*
X156129539Y-69766554D01*
X156065892Y-69749500D01*
X155934108Y-69749500D01*
X155806812Y-69783608D01*
X155692686Y-69849500D01*
X155692683Y-69849502D01*
X155599502Y-69942683D01*
X155599500Y-69942686D01*
X155533608Y-70056812D01*
X155499500Y-70184108D01*
X133696079Y-70184108D01*
X133420757Y-69908786D01*
X133480896Y-69892673D01*
X133596735Y-69825794D01*
X133691317Y-69731212D01*
X133758196Y-69615373D01*
X133774310Y-69555234D01*
X134337083Y-70118007D01*
X134347920Y-70103094D01*
X134347920Y-70103093D01*
X134364175Y-70080721D01*
X134454357Y-69903729D01*
X134515739Y-69714815D01*
X134515739Y-69714812D01*
X134546815Y-69518613D01*
X134546815Y-69319970D01*
X134515739Y-69123771D01*
X134515739Y-69123768D01*
X134454357Y-68934854D01*
X134364173Y-68757859D01*
X134337083Y-68720575D01*
X133774309Y-69283349D01*
X133758196Y-69223211D01*
X133691317Y-69107372D01*
X133596735Y-69012790D01*
X133480896Y-68945911D01*
X133420757Y-68929796D01*
X133901348Y-68449206D01*
X157070396Y-68449206D01*
X157070396Y-68580989D01*
X157104504Y-68708285D01*
X157111600Y-68720575D01*
X157170396Y-68822412D01*
X157263582Y-68915598D01*
X157377710Y-68981490D01*
X157505004Y-69015598D01*
X157505006Y-69015598D01*
X157636786Y-69015598D01*
X157636788Y-69015598D01*
X157764082Y-68981490D01*
X157878210Y-68915598D01*
X157971396Y-68822412D01*
X158037288Y-68708284D01*
X158071396Y-68580990D01*
X158071396Y-68516832D01*
X158091081Y-68449793D01*
X158143885Y-68404038D01*
X158163296Y-68397059D01*
X158276130Y-68366826D01*
X158390258Y-68300934D01*
X158483444Y-68207748D01*
X158549336Y-68093620D01*
X158583444Y-67966326D01*
X158583444Y-67834542D01*
X158549336Y-67707248D01*
X158483444Y-67593120D01*
X158390258Y-67499934D01*
X158362845Y-67484107D01*
X161499500Y-67484107D01*
X161499500Y-67615890D01*
X161533608Y-67743186D01*
X161558237Y-67785844D01*
X161599500Y-67857313D01*
X161692686Y-67950499D01*
X161806814Y-68016391D01*
X161934108Y-68050499D01*
X161934110Y-68050499D01*
X162065890Y-68050499D01*
X162065892Y-68050499D01*
X162193186Y-68016391D01*
X162307314Y-67950499D01*
X162400500Y-67857313D01*
X162466392Y-67743185D01*
X162500500Y-67615891D01*
X162500500Y-67484107D01*
X162466392Y-67356813D01*
X162400500Y-67242685D01*
X162307314Y-67149499D01*
X162250250Y-67116553D01*
X162193187Y-67083607D01*
X162127065Y-67065890D01*
X162065892Y-67049499D01*
X161934108Y-67049499D01*
X161806812Y-67083607D01*
X161692686Y-67149499D01*
X161692683Y-67149501D01*
X161599502Y-67242682D01*
X161599500Y-67242685D01*
X161533608Y-67356811D01*
X161499500Y-67484107D01*
X158362845Y-67484107D01*
X158332160Y-67466391D01*
X158276131Y-67434042D01*
X158212483Y-67416988D01*
X158148836Y-67399934D01*
X158017052Y-67399934D01*
X157889756Y-67434042D01*
X157775630Y-67499934D01*
X157775627Y-67499936D01*
X157682446Y-67593117D01*
X157682444Y-67593120D01*
X157616552Y-67707246D01*
X157582444Y-67834542D01*
X157582444Y-67898699D01*
X157562759Y-67965738D01*
X157509955Y-68011493D01*
X157490536Y-68018474D01*
X157377710Y-68048706D01*
X157377708Y-68048706D01*
X157377708Y-68048707D01*
X157263582Y-68114598D01*
X157263579Y-68114600D01*
X157170398Y-68207781D01*
X157170396Y-68207784D01*
X157104504Y-68321910D01*
X157070396Y-68449206D01*
X133901348Y-68449206D01*
X133983531Y-68367023D01*
X133983530Y-68367022D01*
X133946247Y-68339933D01*
X133769252Y-68249749D01*
X133580337Y-68188367D01*
X133384136Y-68157292D01*
X133185494Y-68157292D01*
X132989294Y-68188367D01*
X132989291Y-68188367D01*
X132800377Y-68249749D01*
X132623379Y-68339935D01*
X132586098Y-68367021D01*
X132586097Y-68367022D01*
X133148873Y-68929796D01*
X133088734Y-68945911D01*
X132972895Y-69012790D01*
X132878313Y-69107372D01*
X132811434Y-69223211D01*
X132795319Y-69283349D01*
X132232545Y-68720574D01*
X132232544Y-68720575D01*
X132205458Y-68757856D01*
X132125300Y-68915174D01*
X132077325Y-68965970D01*
X132009504Y-68982765D01*
X131943369Y-68960227D01*
X131904330Y-68915174D01*
X131824173Y-68757859D01*
X131797083Y-68720575D01*
X131234309Y-69283349D01*
X131218196Y-69223211D01*
X131151317Y-69107372D01*
X131056735Y-69012790D01*
X130940896Y-68945911D01*
X130880757Y-68929796D01*
X131443531Y-68367023D01*
X131443530Y-68367022D01*
X131406247Y-68339933D01*
X131229252Y-68249749D01*
X131040337Y-68188367D01*
X130844136Y-68157292D01*
X130645494Y-68157292D01*
X130449294Y-68188367D01*
X130449291Y-68188367D01*
X130260377Y-68249749D01*
X130083379Y-68339935D01*
X130046098Y-68367021D01*
X130046097Y-68367022D01*
X130608873Y-68929796D01*
X130548734Y-68945911D01*
X130432895Y-69012790D01*
X130338313Y-69107372D01*
X130271434Y-69223211D01*
X130255319Y-69283349D01*
X129692545Y-68720574D01*
X129692544Y-68720575D01*
X129665458Y-68757856D01*
X129575272Y-68934854D01*
X129513890Y-69123768D01*
X129513890Y-69123771D01*
X129482815Y-69319970D01*
X128432792Y-69319970D01*
X128706662Y-68497116D01*
X128708103Y-68493031D01*
X129074614Y-67510379D01*
X129076190Y-67506375D01*
X129477518Y-66537481D01*
X129479282Y-66533431D01*
X129545522Y-66388385D01*
X129591276Y-66335584D01*
X129658315Y-66315899D01*
X129725355Y-66335584D01*
X129771109Y-66388388D01*
X129782315Y-66439899D01*
X129782315Y-67661044D01*
X129793946Y-67719521D01*
X129793947Y-67719522D01*
X129838262Y-67785844D01*
X129904584Y-67830159D01*
X129904585Y-67830160D01*
X129963062Y-67841791D01*
X129963065Y-67841792D01*
X129963067Y-67841792D01*
X131526565Y-67841792D01*
X131526566Y-67841791D01*
X131541383Y-67838844D01*
X131585044Y-67830160D01*
X131585044Y-67830159D01*
X131585046Y-67830159D01*
X131651367Y-67785844D01*
X131695682Y-67719523D01*
X131695682Y-67719521D01*
X131695683Y-67719521D01*
X131707314Y-67661044D01*
X131707315Y-67661042D01*
X131707315Y-66784489D01*
X132322315Y-66784489D01*
X132322315Y-66974094D01*
X132359301Y-67160035D01*
X132359303Y-67160043D01*
X132431857Y-67335204D01*
X132537192Y-67492850D01*
X132671256Y-67626914D01*
X132776115Y-67696978D01*
X132828900Y-67732248D01*
X133004064Y-67804804D01*
X133190012Y-67841791D01*
X133190016Y-67841792D01*
X133190017Y-67841792D01*
X133379614Y-67841792D01*
X133379615Y-67841791D01*
X133565566Y-67804804D01*
X133740730Y-67732248D01*
X133898373Y-67626914D01*
X134032437Y-67492850D01*
X134137771Y-67335207D01*
X134210327Y-67160043D01*
X134247315Y-66974090D01*
X134247315Y-66934108D01*
X147871399Y-66934108D01*
X147871399Y-67065891D01*
X147905507Y-67193187D01*
X147934084Y-67242682D01*
X147971399Y-67307314D01*
X148064585Y-67400500D01*
X148178713Y-67466392D01*
X148306007Y-67500500D01*
X148306009Y-67500500D01*
X148437789Y-67500500D01*
X148437791Y-67500500D01*
X148565085Y-67466392D01*
X148679213Y-67400500D01*
X148772399Y-67307314D01*
X148838291Y-67193186D01*
X148872399Y-67065892D01*
X148872399Y-66934108D01*
X148838291Y-66806814D01*
X148772399Y-66692686D01*
X148679213Y-66599500D01*
X148622149Y-66566554D01*
X148565086Y-66533608D01*
X148501438Y-66516554D01*
X148437791Y-66499500D01*
X148306007Y-66499500D01*
X148178711Y-66533608D01*
X148064585Y-66599500D01*
X148064582Y-66599502D01*
X147971401Y-66692683D01*
X147971399Y-66692686D01*
X147905507Y-66806812D01*
X147871399Y-66934108D01*
X134247315Y-66934108D01*
X134247315Y-66784494D01*
X134210327Y-66598541D01*
X134137771Y-66423377D01*
X134102501Y-66370592D01*
X134032437Y-66265733D01*
X133898376Y-66131672D01*
X133898372Y-66131669D01*
X133744841Y-66029083D01*
X133744840Y-66029082D01*
X133740730Y-66026336D01*
X133740728Y-66026335D01*
X133565566Y-65953780D01*
X133565558Y-65953778D01*
X133466670Y-65934108D01*
X154499500Y-65934108D01*
X154499500Y-66065891D01*
X154533608Y-66193187D01*
X154566554Y-66250250D01*
X154599500Y-66307314D01*
X154692686Y-66400500D01*
X154806814Y-66466392D01*
X154934108Y-66500500D01*
X154934110Y-66500500D01*
X155065890Y-66500500D01*
X155065892Y-66500500D01*
X155193186Y-66466392D01*
X155307314Y-66400500D01*
X155400500Y-66307314D01*
X155466392Y-66193186D01*
X155500500Y-66065892D01*
X155500500Y-65934108D01*
X157999500Y-65934108D01*
X157999500Y-66065891D01*
X158033608Y-66193187D01*
X158066554Y-66250250D01*
X158099500Y-66307314D01*
X158192686Y-66400500D01*
X158306814Y-66466392D01*
X158434108Y-66500500D01*
X158434110Y-66500500D01*
X158565890Y-66500500D01*
X158565892Y-66500500D01*
X158693186Y-66466392D01*
X158807314Y-66400500D01*
X158900500Y-66307314D01*
X158966392Y-66193186D01*
X159000500Y-66065892D01*
X159000500Y-65934108D01*
X158966392Y-65806814D01*
X158900500Y-65692686D01*
X158807314Y-65599500D01*
X158750250Y-65566554D01*
X158693187Y-65533608D01*
X158629539Y-65516554D01*
X158565892Y-65499500D01*
X158434108Y-65499500D01*
X158306812Y-65533608D01*
X158192686Y-65599500D01*
X158192683Y-65599502D01*
X158099502Y-65692683D01*
X158099500Y-65692686D01*
X158033608Y-65806812D01*
X157999500Y-65934108D01*
X155500500Y-65934108D01*
X155466392Y-65806814D01*
X155400500Y-65692686D01*
X155307314Y-65599500D01*
X155250250Y-65566554D01*
X155193187Y-65533608D01*
X155129539Y-65516554D01*
X155065892Y-65499500D01*
X154934108Y-65499500D01*
X154806812Y-65533608D01*
X154692686Y-65599500D01*
X154692683Y-65599502D01*
X154599502Y-65692683D01*
X154599500Y-65692686D01*
X154533608Y-65806812D01*
X154499500Y-65934108D01*
X133466670Y-65934108D01*
X133379617Y-65916792D01*
X133379613Y-65916792D01*
X133190017Y-65916792D01*
X133190012Y-65916792D01*
X133004071Y-65953778D01*
X133004063Y-65953780D01*
X132828902Y-66026334D01*
X132671256Y-66131669D01*
X132537192Y-66265733D01*
X132431857Y-66423379D01*
X132359303Y-66598540D01*
X132359301Y-66598548D01*
X132322315Y-66784489D01*
X131707315Y-66784489D01*
X131707315Y-66097541D01*
X131707314Y-66097539D01*
X131695683Y-66039062D01*
X131695682Y-66039061D01*
X131651367Y-65972739D01*
X131585045Y-65928424D01*
X131585044Y-65928423D01*
X131526567Y-65916792D01*
X131526563Y-65916792D01*
X129963067Y-65916792D01*
X129956975Y-65916792D01*
X129956975Y-65916150D01*
X129953691Y-65917115D01*
X129925777Y-65908918D01*
X129897184Y-65903492D01*
X129892647Y-65899190D01*
X129886651Y-65897430D01*
X129867600Y-65875444D01*
X129846480Y-65855420D01*
X129844988Y-65849348D01*
X129840897Y-65844626D01*
X129836756Y-65815829D01*
X129829815Y-65787567D01*
X129831617Y-65780090D01*
X129830953Y-65775468D01*
X129840895Y-65741609D01*
X129914902Y-65579556D01*
X129916800Y-65575589D01*
X129937814Y-65533608D01*
X130373055Y-64664108D01*
X154499500Y-64664108D01*
X154499500Y-64795891D01*
X154533608Y-64923187D01*
X154566554Y-64980250D01*
X154599500Y-65037314D01*
X154692686Y-65130500D01*
X154806814Y-65196392D01*
X154934108Y-65230500D01*
X154934110Y-65230500D01*
X155065890Y-65230500D01*
X155065892Y-65230500D01*
X155193186Y-65196392D01*
X155307314Y-65130500D01*
X155400500Y-65037314D01*
X155466392Y-64923186D01*
X155500500Y-64795892D01*
X155500500Y-64664108D01*
X155466392Y-64536814D01*
X155400500Y-64422686D01*
X155307314Y-64329500D01*
X155250250Y-64296554D01*
X155193187Y-64263608D01*
X155129539Y-64246554D01*
X155065892Y-64229500D01*
X154934108Y-64229500D01*
X154806812Y-64263608D01*
X154692686Y-64329500D01*
X154692683Y-64329502D01*
X154599502Y-64422683D01*
X154599500Y-64422686D01*
X154533608Y-64536812D01*
X154499500Y-64664108D01*
X130373055Y-64664108D01*
X130386216Y-64637815D01*
X130388238Y-64633950D01*
X130890832Y-63713518D01*
X130892975Y-63709752D01*
X131428124Y-62807808D01*
X131430443Y-62804057D01*
X131874880Y-62112500D01*
X131997367Y-61921904D01*
X131999819Y-61918235D01*
X132523216Y-61164399D01*
X136455439Y-61164399D01*
X136455439Y-61512648D01*
X136494428Y-61858682D01*
X136494430Y-61858694D01*
X136571921Y-62198208D01*
X136571924Y-62198216D01*
X136686938Y-62526906D01*
X136838031Y-62840654D01*
X137023310Y-63135523D01*
X137023311Y-63135525D01*
X137240426Y-63407780D01*
X137486682Y-63654036D01*
X137758937Y-63871151D01*
X137758940Y-63871152D01*
X137758942Y-63871154D01*
X137873581Y-63943187D01*
X138053808Y-64056431D01*
X138055642Y-64057314D01*
X138367560Y-64207526D01*
X138527834Y-64263608D01*
X138696246Y-64322538D01*
X138696254Y-64322541D01*
X138696257Y-64322541D01*
X138696258Y-64322542D01*
X139035768Y-64400033D01*
X139381815Y-64439023D01*
X139381816Y-64439024D01*
X139381819Y-64439024D01*
X139730062Y-64439024D01*
X139730062Y-64439023D01*
X140076110Y-64400033D01*
X140415620Y-64322542D01*
X140744318Y-64207526D01*
X141058072Y-64056430D01*
X141352936Y-63871154D01*
X141550555Y-63713559D01*
X141587486Y-63684108D01*
X144249500Y-63684108D01*
X144249500Y-63815891D01*
X144283608Y-63943187D01*
X144316554Y-64000250D01*
X144349500Y-64057314D01*
X144442686Y-64150500D01*
X144556814Y-64216392D01*
X144684108Y-64250500D01*
X144684110Y-64250500D01*
X144815890Y-64250500D01*
X144815892Y-64250500D01*
X144943186Y-64216392D01*
X145057314Y-64150500D01*
X145150500Y-64057314D01*
X145216392Y-63943186D01*
X145250500Y-63815892D01*
X145250500Y-63684108D01*
X145216392Y-63556814D01*
X145150500Y-63442686D01*
X145057314Y-63349500D01*
X145000250Y-63316554D01*
X144943187Y-63283608D01*
X144879539Y-63266554D01*
X144815892Y-63249500D01*
X144684108Y-63249500D01*
X144556812Y-63283608D01*
X144442686Y-63349500D01*
X144442683Y-63349502D01*
X144349502Y-63442683D01*
X144349500Y-63442686D01*
X144283608Y-63556812D01*
X144249500Y-63684108D01*
X141587486Y-63684108D01*
X141625195Y-63654036D01*
X141625199Y-63654032D01*
X141625202Y-63654030D01*
X141871445Y-63407787D01*
X141917928Y-63349500D01*
X142088566Y-63135525D01*
X142088567Y-63135523D01*
X142088569Y-63135521D01*
X142273845Y-62840657D01*
X142424941Y-62526903D01*
X142539957Y-62198205D01*
X142617448Y-61858695D01*
X142636374Y-61690729D01*
X142642963Y-61632248D01*
X142656439Y-61512644D01*
X142656439Y-61164404D01*
X142617448Y-60818353D01*
X142539957Y-60478843D01*
X142449790Y-60221159D01*
X152725000Y-60221159D01*
X152725000Y-60453840D01*
X152755369Y-60684524D01*
X152815592Y-60909279D01*
X152904632Y-61124240D01*
X152904636Y-61124250D01*
X153020970Y-61325748D01*
X153080551Y-61403394D01*
X153745884Y-60738060D01*
X153746740Y-60740126D01*
X153839762Y-60879344D01*
X153958156Y-60997738D01*
X154097374Y-61090760D01*
X154099437Y-61091614D01*
X153434104Y-61756946D01*
X153434104Y-61756947D01*
X153511752Y-61816529D01*
X153713249Y-61932863D01*
X153713259Y-61932867D01*
X153928220Y-62021907D01*
X154152975Y-62082130D01*
X154383659Y-62112500D01*
X154616341Y-62112500D01*
X154847024Y-62082130D01*
X155071779Y-62021907D01*
X155286740Y-61932867D01*
X155286750Y-61932863D01*
X155488255Y-61816524D01*
X155565894Y-61756947D01*
X155565894Y-61756946D01*
X154900562Y-61091614D01*
X154902626Y-61090760D01*
X155041844Y-60997738D01*
X155160238Y-60879344D01*
X155253260Y-60740126D01*
X155254114Y-60738062D01*
X155919446Y-61403394D01*
X155919447Y-61403394D01*
X155979024Y-61325755D01*
X156095363Y-61124250D01*
X156095367Y-61124240D01*
X156184407Y-60909279D01*
X156244630Y-60684524D01*
X156275000Y-60453840D01*
X156275000Y-60221159D01*
X156244630Y-59990475D01*
X156184407Y-59765720D01*
X156095367Y-59550759D01*
X156095363Y-59550749D01*
X155979029Y-59349252D01*
X155919447Y-59271604D01*
X155919446Y-59271604D01*
X155254114Y-59936936D01*
X155253260Y-59934874D01*
X155160238Y-59795656D01*
X155041844Y-59677262D01*
X154902626Y-59584240D01*
X154900560Y-59583384D01*
X155441199Y-59042747D01*
X158024500Y-59042747D01*
X158024500Y-61632252D01*
X158036131Y-61690729D01*
X158036132Y-61690730D01*
X158080447Y-61757052D01*
X158146769Y-61801367D01*
X158146770Y-61801368D01*
X158205247Y-61812999D01*
X158205250Y-61813000D01*
X158205252Y-61813000D01*
X160794750Y-61813000D01*
X160794751Y-61812999D01*
X160809568Y-61810052D01*
X160853229Y-61801368D01*
X160853229Y-61801367D01*
X160853231Y-61801367D01*
X160919552Y-61757052D01*
X160963867Y-61690731D01*
X160963867Y-61690729D01*
X160963868Y-61690729D01*
X160975499Y-61632252D01*
X160975500Y-61632250D01*
X160975500Y-61164399D01*
X170396565Y-61164399D01*
X170396565Y-61512648D01*
X170435554Y-61858682D01*
X170435556Y-61858694D01*
X170513047Y-62198208D01*
X170513050Y-62198216D01*
X170628064Y-62526906D01*
X170779157Y-62840654D01*
X170964436Y-63135523D01*
X170964437Y-63135525D01*
X171181552Y-63407780D01*
X171427808Y-63654036D01*
X171700063Y-63871151D01*
X171700066Y-63871152D01*
X171700068Y-63871154D01*
X171814707Y-63943187D01*
X171994934Y-64056431D01*
X171996768Y-64057314D01*
X172308686Y-64207526D01*
X172468960Y-64263608D01*
X172637372Y-64322538D01*
X172637380Y-64322541D01*
X172637383Y-64322541D01*
X172637384Y-64322542D01*
X172976894Y-64400033D01*
X173322941Y-64439023D01*
X173322942Y-64439024D01*
X173322945Y-64439024D01*
X173671188Y-64439024D01*
X173671188Y-64439023D01*
X174017236Y-64400033D01*
X174356746Y-64322542D01*
X174685444Y-64207526D01*
X174999198Y-64056430D01*
X175294062Y-63871154D01*
X175491681Y-63713559D01*
X175566321Y-63654036D01*
X175566325Y-63654032D01*
X175566328Y-63654030D01*
X175812571Y-63407787D01*
X175859054Y-63349500D01*
X176029692Y-63135525D01*
X176029693Y-63135523D01*
X176029695Y-63135521D01*
X176214971Y-62840657D01*
X176366067Y-62526903D01*
X176481083Y-62198205D01*
X176558574Y-61858695D01*
X176597565Y-61512644D01*
X176597565Y-61164404D01*
X176558574Y-60818353D01*
X176481083Y-60478843D01*
X176473374Y-60456813D01*
X176431625Y-60337499D01*
X176366067Y-60150145D01*
X176214971Y-59836391D01*
X176029695Y-59541527D01*
X176029693Y-59541524D01*
X176029692Y-59541522D01*
X175812577Y-59269267D01*
X175566321Y-59023011D01*
X175294066Y-58805896D01*
X175294064Y-58805895D01*
X174999195Y-58620616D01*
X174685447Y-58469523D01*
X174356757Y-58354509D01*
X174356749Y-58354506D01*
X174102113Y-58296387D01*
X174017236Y-58277015D01*
X174017232Y-58277014D01*
X174017223Y-58277013D01*
X173671189Y-58238024D01*
X173671185Y-58238024D01*
X173322945Y-58238024D01*
X173322940Y-58238024D01*
X172976906Y-58277013D01*
X172976894Y-58277015D01*
X172637380Y-58354506D01*
X172637372Y-58354509D01*
X172308682Y-58469523D01*
X171994934Y-58620616D01*
X171700065Y-58805895D01*
X171700063Y-58805896D01*
X171427808Y-59023011D01*
X171181552Y-59269267D01*
X170964437Y-59541522D01*
X170964436Y-59541524D01*
X170779157Y-59836393D01*
X170628064Y-60150141D01*
X170513050Y-60478831D01*
X170513047Y-60478839D01*
X170435556Y-60818353D01*
X170435554Y-60818365D01*
X170396565Y-61164399D01*
X160975500Y-61164399D01*
X160975500Y-60484107D01*
X163999500Y-60484107D01*
X163999500Y-60615890D01*
X164033608Y-60743186D01*
X164066554Y-60800249D01*
X164099500Y-60857313D01*
X164192686Y-60950499D01*
X164306814Y-61016391D01*
X164434108Y-61050499D01*
X164434110Y-61050499D01*
X164565890Y-61050499D01*
X164565892Y-61050499D01*
X164693186Y-61016391D01*
X164807314Y-60950499D01*
X164900500Y-60857313D01*
X164966392Y-60743185D01*
X165000500Y-60615891D01*
X165000500Y-60584107D01*
X165849501Y-60584107D01*
X165849501Y-60715890D01*
X165883609Y-60843186D01*
X165891767Y-60857315D01*
X165949501Y-60957313D01*
X166042687Y-61050499D01*
X166156815Y-61116391D01*
X166284109Y-61150499D01*
X166284111Y-61150499D01*
X166415891Y-61150499D01*
X166415893Y-61150499D01*
X166543187Y-61116391D01*
X166657315Y-61050499D01*
X166750501Y-60957313D01*
X166816393Y-60843185D01*
X166850501Y-60715891D01*
X166850501Y-60584107D01*
X166816393Y-60456813D01*
X166750501Y-60342685D01*
X166657315Y-60249499D01*
X166600251Y-60216553D01*
X166543188Y-60183607D01*
X166479540Y-60166553D01*
X166415893Y-60149499D01*
X166284109Y-60149499D01*
X166156813Y-60183607D01*
X166042687Y-60249499D01*
X166042684Y-60249501D01*
X165949503Y-60342682D01*
X165949501Y-60342685D01*
X165883609Y-60456811D01*
X165849501Y-60584107D01*
X165000500Y-60584107D01*
X165000500Y-60484107D01*
X164966392Y-60356813D01*
X164900500Y-60242685D01*
X164807314Y-60149499D01*
X164750250Y-60116553D01*
X164693187Y-60083607D01*
X164629539Y-60066553D01*
X164565892Y-60049499D01*
X164434108Y-60049499D01*
X164306812Y-60083607D01*
X164192686Y-60149499D01*
X164192683Y-60149501D01*
X164099502Y-60242682D01*
X164099500Y-60242685D01*
X164033608Y-60356811D01*
X163999500Y-60484107D01*
X160975500Y-60484107D01*
X160975500Y-59042749D01*
X160975499Y-59042747D01*
X160963868Y-58984270D01*
X160963867Y-58984269D01*
X160919552Y-58917947D01*
X160853230Y-58873632D01*
X160853229Y-58873631D01*
X160794752Y-58862000D01*
X160794748Y-58862000D01*
X158205252Y-58862000D01*
X158205247Y-58862000D01*
X158146770Y-58873631D01*
X158146769Y-58873632D01*
X158080447Y-58917947D01*
X158036132Y-58984269D01*
X158036131Y-58984270D01*
X158024500Y-59042747D01*
X155441199Y-59042747D01*
X155534967Y-58948979D01*
X155565894Y-58918051D01*
X155488248Y-58858470D01*
X155286750Y-58742136D01*
X155286740Y-58742132D01*
X155071779Y-58653092D01*
X154847024Y-58592869D01*
X154616341Y-58562500D01*
X154383659Y-58562500D01*
X154152975Y-58592869D01*
X153928220Y-58653092D01*
X153713259Y-58742132D01*
X153713249Y-58742136D01*
X153511747Y-58858473D01*
X153434104Y-58918050D01*
X153434104Y-58918051D01*
X154099438Y-59583385D01*
X154097374Y-59584240D01*
X153958156Y-59677262D01*
X153839762Y-59795656D01*
X153746740Y-59934874D01*
X153745885Y-59936938D01*
X153080551Y-59271604D01*
X153080550Y-59271604D01*
X153020973Y-59349247D01*
X152904636Y-59550749D01*
X152904632Y-59550759D01*
X152815592Y-59765720D01*
X152755369Y-59990475D01*
X152725000Y-60221159D01*
X142449790Y-60221159D01*
X142424941Y-60150145D01*
X142273845Y-59836391D01*
X142088569Y-59541527D01*
X142088567Y-59541524D01*
X142088566Y-59541522D01*
X141871451Y-59269267D01*
X141625195Y-59023011D01*
X141352940Y-58805896D01*
X141352938Y-58805895D01*
X141058069Y-58620616D01*
X140744321Y-58469523D01*
X140415631Y-58354509D01*
X140415623Y-58354506D01*
X140389537Y-58348552D01*
X165499399Y-58348552D01*
X165537851Y-58541858D01*
X165537854Y-58541868D01*
X165613277Y-58723957D01*
X165613278Y-58723959D01*
X165722783Y-58887844D01*
X165722786Y-58887848D01*
X165862151Y-59027213D01*
X165862155Y-59027216D01*
X166026038Y-59136720D01*
X166026039Y-59136720D01*
X166026040Y-59136721D01*
X166026042Y-59136722D01*
X166208131Y-59212145D01*
X166208136Y-59212147D01*
X166208140Y-59212147D01*
X166208141Y-59212148D01*
X166401447Y-59250600D01*
X166401450Y-59250600D01*
X166598552Y-59250600D01*
X166728605Y-59224730D01*
X166791864Y-59212147D01*
X166973962Y-59136720D01*
X167137845Y-59027216D01*
X167277216Y-58887845D01*
X167386720Y-58723962D01*
X167462147Y-58541864D01*
X167499415Y-58354509D01*
X167500600Y-58348552D01*
X167500600Y-58151447D01*
X167462148Y-57958141D01*
X167462147Y-57958140D01*
X167462147Y-57958136D01*
X167407179Y-57825431D01*
X167386722Y-57776042D01*
X167386721Y-57776040D01*
X167277216Y-57612155D01*
X167277213Y-57612151D01*
X167137848Y-57472786D01*
X167137844Y-57472783D01*
X166973959Y-57363278D01*
X166973957Y-57363277D01*
X166791868Y-57287854D01*
X166791858Y-57287851D01*
X166598552Y-57249400D01*
X166598550Y-57249400D01*
X166401450Y-57249400D01*
X166401448Y-57249400D01*
X166208141Y-57287851D01*
X166208131Y-57287854D01*
X166026042Y-57363277D01*
X166026040Y-57363278D01*
X165862155Y-57472783D01*
X165862151Y-57472786D01*
X165722786Y-57612151D01*
X165722783Y-57612155D01*
X165613278Y-57776040D01*
X165613277Y-57776042D01*
X165537854Y-57958131D01*
X165537851Y-57958141D01*
X165499400Y-58151447D01*
X165499400Y-58151450D01*
X165499400Y-58348550D01*
X165499400Y-58348552D01*
X165499399Y-58348552D01*
X140389537Y-58348552D01*
X140160987Y-58296387D01*
X140076110Y-58277015D01*
X140076106Y-58277014D01*
X140076097Y-58277013D01*
X140001235Y-58268578D01*
X139730063Y-58238024D01*
X139730059Y-58238024D01*
X139381819Y-58238024D01*
X139381814Y-58238024D01*
X139035780Y-58277013D01*
X139035768Y-58277015D01*
X138696254Y-58354506D01*
X138696246Y-58354509D01*
X138367556Y-58469523D01*
X138053808Y-58620616D01*
X137758939Y-58805895D01*
X137758937Y-58805896D01*
X137486682Y-59023011D01*
X137240426Y-59269267D01*
X137023311Y-59541522D01*
X137023310Y-59541524D01*
X136838031Y-59836393D01*
X136686938Y-60150141D01*
X136571924Y-60478831D01*
X136571921Y-60478839D01*
X136494430Y-60818353D01*
X136494428Y-60818365D01*
X136455439Y-61164399D01*
X132523216Y-61164399D01*
X132597935Y-61056783D01*
X132600452Y-61053294D01*
X133228924Y-60213754D01*
X133231596Y-60210313D01*
X133889636Y-59393735D01*
X133892446Y-59390373D01*
X134579183Y-58597835D01*
X134582136Y-58594549D01*
X134631184Y-58541868D01*
X135296739Y-57827011D01*
X135299758Y-57823883D01*
X136041298Y-57082343D01*
X136044426Y-57079324D01*
X136811970Y-56364715D01*
X136815257Y-56361763D01*
X137607788Y-55675031D01*
X137611150Y-55672221D01*
X138427728Y-55014181D01*
X138431169Y-55011509D01*
X139270709Y-54383037D01*
X139274208Y-54380513D01*
X140135662Y-53782395D01*
X140139331Y-53779945D01*
X140238676Y-53716100D01*
X141021525Y-53212993D01*
X141025223Y-53210709D01*
X141927167Y-52675560D01*
X141930933Y-52673417D01*
X142574404Y-52322055D01*
X165199900Y-52322055D01*
X165199900Y-52920000D01*
X166013756Y-52920000D01*
X165991116Y-52959213D01*
X165953900Y-53098105D01*
X165953900Y-53241895D01*
X165991116Y-53380787D01*
X166013756Y-53420000D01*
X165199900Y-53420000D01*
X165199900Y-54017944D01*
X165206301Y-54077472D01*
X165206303Y-54077479D01*
X165256545Y-54212186D01*
X165256549Y-54212193D01*
X165342709Y-54327287D01*
X165342712Y-54327290D01*
X165457806Y-54413450D01*
X165457813Y-54413454D01*
X165592520Y-54463696D01*
X165592527Y-54463698D01*
X165652055Y-54470099D01*
X165652072Y-54470100D01*
X166345498Y-54470100D01*
X166412537Y-54489785D01*
X166458292Y-54542589D01*
X166468236Y-54611747D01*
X166439211Y-54675303D01*
X166380433Y-54713077D01*
X166369690Y-54715717D01*
X166208141Y-54747851D01*
X166208131Y-54747854D01*
X166026042Y-54823277D01*
X166026040Y-54823278D01*
X165862155Y-54932783D01*
X165862151Y-54932786D01*
X165722786Y-55072151D01*
X165722783Y-55072155D01*
X165613278Y-55236040D01*
X165613277Y-55236042D01*
X165537854Y-55418131D01*
X165537851Y-55418141D01*
X165499400Y-55611447D01*
X165499400Y-55611450D01*
X165499400Y-55808550D01*
X165499400Y-55808552D01*
X165499399Y-55808552D01*
X165537851Y-56001858D01*
X165537854Y-56001868D01*
X165613277Y-56183957D01*
X165613278Y-56183959D01*
X165722783Y-56347844D01*
X165722786Y-56347848D01*
X165862151Y-56487213D01*
X165862155Y-56487216D01*
X166026038Y-56596720D01*
X166026039Y-56596720D01*
X166026040Y-56596721D01*
X166026042Y-56596722D01*
X166208131Y-56672145D01*
X166208136Y-56672147D01*
X166208140Y-56672147D01*
X166208141Y-56672148D01*
X166401447Y-56710600D01*
X166401450Y-56710600D01*
X166598552Y-56710600D01*
X166728605Y-56684730D01*
X166791864Y-56672147D01*
X166973962Y-56596720D01*
X167137845Y-56487216D01*
X167277216Y-56347845D01*
X167386720Y-56183962D01*
X167462147Y-56001864D01*
X167500600Y-55808550D01*
X167500600Y-55611450D01*
X167500600Y-55611447D01*
X167462148Y-55418141D01*
X167462147Y-55418140D01*
X167462147Y-55418136D01*
X167386720Y-55236038D01*
X167277216Y-55072155D01*
X167277213Y-55072151D01*
X167137848Y-54932786D01*
X167137844Y-54932783D01*
X166973959Y-54823278D01*
X166973957Y-54823277D01*
X166791868Y-54747854D01*
X166791858Y-54747851D01*
X166630310Y-54715717D01*
X166568399Y-54683332D01*
X166533825Y-54622616D01*
X166537565Y-54552847D01*
X166578432Y-54496175D01*
X166643450Y-54470593D01*
X166654502Y-54470100D01*
X167347928Y-54470100D01*
X167347944Y-54470099D01*
X167407472Y-54463698D01*
X167407479Y-54463696D01*
X167542186Y-54413454D01*
X167542193Y-54413450D01*
X167657287Y-54327290D01*
X167657290Y-54327287D01*
X167743450Y-54212193D01*
X167743454Y-54212186D01*
X167793696Y-54077479D01*
X167793698Y-54077472D01*
X167800099Y-54017944D01*
X167800100Y-54017927D01*
X167800100Y-53420000D01*
X166986244Y-53420000D01*
X167008884Y-53380787D01*
X167046100Y-53241895D01*
X167046100Y-53098105D01*
X167008884Y-52959213D01*
X166986244Y-52920000D01*
X167800100Y-52920000D01*
X167800100Y-52322072D01*
X167800099Y-52322055D01*
X167793698Y-52262527D01*
X167793696Y-52262520D01*
X167743454Y-52127813D01*
X167743450Y-52127806D01*
X167657290Y-52012712D01*
X167657287Y-52012709D01*
X167542193Y-51926549D01*
X167542186Y-51926545D01*
X167407479Y-51876303D01*
X167407472Y-51876301D01*
X167347944Y-51869900D01*
X166750000Y-51869900D01*
X166750000Y-52683755D01*
X166710787Y-52661116D01*
X166571895Y-52623900D01*
X166428105Y-52623900D01*
X166289213Y-52661116D01*
X166250000Y-52683755D01*
X166250000Y-51869900D01*
X165652055Y-51869900D01*
X165592527Y-51876301D01*
X165592520Y-51876303D01*
X165457813Y-51926545D01*
X165457806Y-51926549D01*
X165342712Y-52012709D01*
X165342709Y-52012712D01*
X165256549Y-52127806D01*
X165256545Y-52127813D01*
X165206303Y-52262520D01*
X165206301Y-52262527D01*
X165199900Y-52322055D01*
X142574404Y-52322055D01*
X142851344Y-52170834D01*
X142855230Y-52168800D01*
X143793008Y-51699382D01*
X143796998Y-51697475D01*
X144684866Y-51291999D01*
X144750853Y-51261863D01*
X144754904Y-51260100D01*
X144766444Y-51255320D01*
X145723790Y-50858775D01*
X145727794Y-50857199D01*
X146710464Y-50490681D01*
X146714531Y-50489248D01*
X147709551Y-50158073D01*
X147713748Y-50156759D01*
X148719984Y-49861301D01*
X148724173Y-49860152D01*
X149740307Y-49600800D01*
X149744565Y-49599793D01*
X150769289Y-49376878D01*
X150773589Y-49376023D01*
X150785752Y-49373828D01*
X150800258Y-49371212D01*
X150869728Y-49378682D01*
X150924130Y-49422524D01*
X150946194Y-49488818D01*
X150928914Y-49556517D01*
X150895700Y-49591558D01*
X150896250Y-49592228D01*
X150891538Y-49596094D01*
X150758594Y-49729038D01*
X150758591Y-49729042D01*
X150654136Y-49885368D01*
X150654129Y-49885381D01*
X150582182Y-50059078D01*
X150582179Y-50059090D01*
X150545500Y-50243485D01*
X150545500Y-50431514D01*
X150582179Y-50615909D01*
X150582182Y-50615921D01*
X150654129Y-50789618D01*
X150654136Y-50789631D01*
X150758591Y-50945957D01*
X150758594Y-50945961D01*
X150891538Y-51078905D01*
X150891542Y-51078908D01*
X151047868Y-51183363D01*
X151047881Y-51183370D01*
X151221578Y-51255317D01*
X151221583Y-51255319D01*
X151405985Y-51291999D01*
X151405988Y-51292000D01*
X151405990Y-51292000D01*
X151594012Y-51292000D01*
X151594013Y-51291999D01*
X151778417Y-51255319D01*
X151952125Y-51183367D01*
X152108458Y-51078908D01*
X152241408Y-50945958D01*
X152345867Y-50789625D01*
X152417819Y-50615917D01*
X152454500Y-50431510D01*
X152454500Y-50243490D01*
X152454500Y-50243487D01*
X152454499Y-50243485D01*
X152417820Y-50059090D01*
X152417819Y-50059083D01*
X152417817Y-50059078D01*
X152345870Y-49885381D01*
X152345863Y-49885368D01*
X152241408Y-49729042D01*
X152241405Y-49729038D01*
X152108461Y-49596094D01*
X152108457Y-49596091D01*
X151952131Y-49491636D01*
X151952118Y-49491629D01*
X151790942Y-49424869D01*
X151736538Y-49381028D01*
X151714473Y-49314734D01*
X151731752Y-49247035D01*
X151782889Y-49199424D01*
X151820745Y-49187570D01*
X152847956Y-49039879D01*
X152852298Y-49039334D01*
X153895042Y-48927227D01*
X153899338Y-48926844D01*
X154945358Y-48852030D01*
X154949765Y-48851794D01*
X155997753Y-48814364D01*
X156002179Y-48814286D01*
X157050825Y-48814286D01*
X157055250Y-48814364D01*
G37*
%TD.AperFunction*%
%TD*%
M02*
