%TF.GenerationSoftware,KiCad,Pcbnew,9.0.6*%
%TF.CreationDate,2026-01-30T11:20:47+00:00*%
%TF.ProjectId,mu,6d752e6b-6963-4616-945f-706362585858,rev?*%
%TF.SameCoordinates,Original*%
%TF.FileFunction,Paste,Top*%
%TF.FilePolarity,Positive*%
%FSLAX46Y46*%
G04 Gerber Fmt 4.6, Leading zero omitted, Abs format (unit mm)*
G04 Created by KiCad (PCBNEW 9.0.6) date 2026-01-30 11:20:47*
%MOMM*%
%LPD*%
G01*
G04 APERTURE LIST*
G04 Aperture macros list*
%AMRoundRect*
0 Rectangle with rounded corners*
0 $1 Rounding radius*
0 $2 $3 $4 $5 $6 $7 $8 $9 X,Y pos of 4 corners*
0 Add a 4 corners polygon primitive as box body*
4,1,4,$2,$3,$4,$5,$6,$7,$8,$9,$2,$3,0*
0 Add four circle primitives for the rounded corners*
1,1,$1+$1,$2,$3*
1,1,$1+$1,$4,$5*
1,1,$1+$1,$6,$7*
1,1,$1+$1,$8,$9*
0 Add four rect primitives between the rounded corners*
20,1,$1+$1,$2,$3,$4,$5,0*
20,1,$1+$1,$4,$5,$6,$7,0*
20,1,$1+$1,$6,$7,$8,$9,0*
20,1,$1+$1,$8,$9,$2,$3,0*%
G04 Aperture macros list end*
%ADD10C,0.010000*%
%ADD11RoundRect,0.140000X0.170000X-0.140000X0.170000X0.140000X-0.170000X0.140000X-0.170000X-0.140000X0*%
%ADD12RoundRect,0.150000X0.150000X0.400000X-0.150000X0.400000X-0.150000X-0.400000X0.150000X-0.400000X0*%
%ADD13RoundRect,0.150000X0.400000X0.150000X-0.400000X0.150000X-0.400000X-0.150000X0.400000X-0.150000X0*%
G04 APERTURE END LIST*
D10*
%TO.C,U3*%
X154800000Y-79525000D02*
X153600000Y-79525000D01*
X153600000Y-77475000D01*
X154800000Y-77475000D01*
X154800000Y-79525000D01*
G36*
X154800000Y-79525000D02*
G01*
X153600000Y-79525000D01*
X153600000Y-77475000D01*
X154800000Y-77475000D01*
X154800000Y-79525000D01*
G37*
X157525000Y-76800000D02*
X155475000Y-76800000D01*
X155475000Y-75600000D01*
X157525000Y-75600000D01*
X157525000Y-76800000D01*
G36*
X157525000Y-76800000D02*
G01*
X155475000Y-76800000D01*
X155475000Y-75600000D01*
X157525000Y-75600000D01*
X157525000Y-76800000D01*
G37*
X157525000Y-79525000D02*
X155475000Y-79525000D01*
X155475000Y-77475000D01*
X157525000Y-77475000D01*
X157525000Y-79525000D01*
G36*
X157525000Y-79525000D02*
G01*
X155475000Y-79525000D01*
X155475000Y-77475000D01*
X157525000Y-77475000D01*
X157525000Y-79525000D01*
G37*
X157525000Y-81400000D02*
X155475000Y-81400000D01*
X155475000Y-80200000D01*
X157525000Y-80200000D01*
X157525000Y-81400000D01*
G36*
X157525000Y-81400000D02*
G01*
X155475000Y-81400000D01*
X155475000Y-80200000D01*
X157525000Y-80200000D01*
X157525000Y-81400000D01*
G37*
X159400000Y-79525000D02*
X158200000Y-79525000D01*
X158200000Y-77475000D01*
X159400000Y-77475000D01*
X159400000Y-79525000D01*
G36*
X159400000Y-79525000D02*
G01*
X158200000Y-79525000D01*
X158200000Y-77475000D01*
X159400000Y-77475000D01*
X159400000Y-79525000D01*
G37*
%TD*%
D11*
%TO.C,C1*%
X156222238Y-83748531D03*
X156222238Y-82788531D03*
%TD*%
%TO.C,C2*%
X155180631Y-83760105D03*
X155180631Y-82800105D03*
%TD*%
%TO.C,C3*%
X154139024Y-83783252D03*
X154139024Y-82823252D03*
%TD*%
D12*
%TO.C,U3*%
X159350000Y-75500000D03*
D13*
X153500000Y-75650000D03*
D12*
X153650000Y-81500000D03*
D13*
X159500000Y-81350000D03*
%TD*%
M02*
