%TF.GenerationSoftware,KiCad,Pcbnew,9.0.6*%
%TF.CreationDate,2026-01-30T11:20:47+00:00*%
%TF.ProjectId,mu,6d752e6b-6963-4616-945f-706362585858,rev?*%
%TF.SameCoordinates,Original*%
%TF.FileFunction,Soldermask,Top*%
%TF.FilePolarity,Negative*%
%FSLAX46Y46*%
G04 Gerber Fmt 4.6, Leading zero omitted, Abs format (unit mm)*
G04 Created by KiCad (PCBNEW 9.0.6) date 2026-01-30 11:20:47*
%MOMM*%
%LPD*%
G01*
G04 APERTURE LIST*
G04 Aperture macros list*
%AMRoundRect*
0 Rectangle with rounded corners*
0 $1 Rounding radius*
0 $2 $3 $4 $5 $6 $7 $8 $9 X,Y pos of 4 corners*
0 Add a 4 corners polygon primitive as box body*
4,1,4,$2,$3,$4,$5,$6,$7,$8,$9,$2,$3,0*
0 Add four circle primitives for the rounded corners*
1,1,$1+$1,$2,$3*
1,1,$1+$1,$4,$5*
1,1,$1+$1,$6,$7*
1,1,$1+$1,$8,$9*
0 Add four rect primitives between the rounded corners*
20,1,$1+$1,$2,$3,$4,$5,0*
20,1,$1+$1,$4,$5,$6,$7,0*
20,1,$1+$1,$6,$7,$8,$9,0*
20,1,$1+$1,$8,$9,$2,$3,0*%
G04 Aperture macros list end*
%ADD10C,0.000100*%
%ADD11RoundRect,0.140000X0.170000X-0.140000X0.170000X0.140000X-0.170000X0.140000X-0.170000X-0.140000X0*%
%ADD12RoundRect,0.201000X0.201000X0.451000X-0.201000X0.451000X-0.201000X-0.451000X0.201000X-0.451000X0*%
%ADD13RoundRect,0.201000X0.451000X0.201000X-0.451000X0.201000X-0.451000X-0.201000X0.451000X-0.201000X0*%
%ADD14R,1.600200X1.600200*%
%ADD15C,1.600200*%
%ADD16RoundRect,0.250000X0.600000X-0.600000X0.600000X0.600000X-0.600000X0.600000X-0.600000X-0.600000X0*%
%ADD17C,1.700000*%
%ADD18RoundRect,0.102000X0.762000X-0.762000X0.762000X0.762000X-0.762000X0.762000X-0.762000X-0.762000X0*%
%ADD19C,1.728000*%
%ADD20C,2.754000*%
%ADD21RoundRect,0.102000X1.275000X1.275000X-1.275000X1.275000X-1.275000X-1.275000X1.275000X-1.275000X0*%
%ADD22C,1.712000*%
G04 APERTURE END LIST*
D10*
%TO.C,U3*%
X157862000Y-75251000D02*
X157873000Y-75253000D01*
X157884000Y-75255000D01*
X157894000Y-75257000D01*
X157905000Y-75260000D01*
X157915000Y-75264000D01*
X157925000Y-75268000D01*
X157935000Y-75273000D01*
X157945000Y-75278000D01*
X157954000Y-75284000D01*
X157963000Y-75290000D01*
X157972000Y-75297000D01*
X157981000Y-75304000D01*
X157988000Y-75312000D01*
X157996000Y-75319000D01*
X158003000Y-75328000D01*
X158010000Y-75337000D01*
X158016000Y-75346000D01*
X158022000Y-75355000D01*
X158027000Y-75365000D01*
X158032000Y-75375000D01*
X158036000Y-75385000D01*
X158040000Y-75395000D01*
X158043000Y-75406000D01*
X158045000Y-75416000D01*
X158047000Y-75427000D01*
X158049000Y-75438000D01*
X158050000Y-75449000D01*
X158050000Y-75460000D01*
X158050000Y-76950000D01*
X159520000Y-76950000D01*
X159532000Y-76950000D01*
X159544000Y-76951000D01*
X159556000Y-76953000D01*
X159568000Y-76955000D01*
X159580000Y-76958000D01*
X159591000Y-76961000D01*
X159602000Y-76965000D01*
X159614000Y-76970000D01*
X159624000Y-76975000D01*
X159635000Y-76981000D01*
X159645000Y-76987000D01*
X159655000Y-76994000D01*
X159665000Y-77001000D01*
X159674000Y-77009000D01*
X159683000Y-77017000D01*
X159691000Y-77026000D01*
X159699000Y-77035000D01*
X159706000Y-77045000D01*
X159713000Y-77055000D01*
X159719000Y-77065000D01*
X159725000Y-77076000D01*
X159730000Y-77086000D01*
X159735000Y-77098000D01*
X159739000Y-77109000D01*
X159742000Y-77120000D01*
X159745000Y-77132000D01*
X159747000Y-77144000D01*
X159749000Y-77156000D01*
X159750000Y-77168000D01*
X159750000Y-77180000D01*
X159750000Y-79820000D01*
X159750000Y-79840000D01*
X159750000Y-79851000D01*
X159749000Y-79862000D01*
X159747000Y-79873000D01*
X159745000Y-79884000D01*
X159743000Y-79894000D01*
X159740000Y-79905000D01*
X159736000Y-79915000D01*
X159732000Y-79925000D01*
X159727000Y-79935000D01*
X159722000Y-79945000D01*
X159716000Y-79954000D01*
X159710000Y-79963000D01*
X159703000Y-79972000D01*
X159696000Y-79981000D01*
X159688000Y-79988000D01*
X159681000Y-79996000D01*
X159672000Y-80003000D01*
X159663000Y-80010000D01*
X159654000Y-80016000D01*
X159645000Y-80022000D01*
X159635000Y-80027000D01*
X159625000Y-80032000D01*
X159615000Y-80036000D01*
X159605000Y-80040000D01*
X159594000Y-80043000D01*
X159584000Y-80045000D01*
X159573000Y-80047000D01*
X159562000Y-80049000D01*
X159551000Y-80050000D01*
X159540000Y-80050000D01*
X158050000Y-80050000D01*
X158050000Y-81540000D01*
X158050000Y-81551000D01*
X158049000Y-81562000D01*
X158047000Y-81573000D01*
X158045000Y-81584000D01*
X158043000Y-81594000D01*
X158040000Y-81605000D01*
X158036000Y-81615000D01*
X158032000Y-81625000D01*
X158027000Y-81635000D01*
X158022000Y-81645000D01*
X158016000Y-81654000D01*
X158010000Y-81663000D01*
X158003000Y-81672000D01*
X157996000Y-81681000D01*
X157988000Y-81688000D01*
X157981000Y-81696000D01*
X157972000Y-81703000D01*
X157963000Y-81710000D01*
X157954000Y-81716000D01*
X157945000Y-81722000D01*
X157935000Y-81727000D01*
X157925000Y-81732000D01*
X157915000Y-81736000D01*
X157905000Y-81740000D01*
X157894000Y-81743000D01*
X157884000Y-81745000D01*
X157873000Y-81747000D01*
X157862000Y-81749000D01*
X157851000Y-81750000D01*
X157840000Y-81750000D01*
X157820000Y-81750000D01*
X155170000Y-81750000D01*
X155158000Y-81750000D01*
X155147000Y-81749000D01*
X155136000Y-81747000D01*
X155124000Y-81745000D01*
X155113000Y-81743000D01*
X155102000Y-81739000D01*
X155091000Y-81735000D01*
X155081000Y-81731000D01*
X155070000Y-81726000D01*
X155060000Y-81721000D01*
X155050000Y-81715000D01*
X155041000Y-81708000D01*
X155032000Y-81701000D01*
X155023000Y-81693000D01*
X155014000Y-81686000D01*
X155007000Y-81677000D01*
X154999000Y-81668000D01*
X154992000Y-81659000D01*
X154985000Y-81650000D01*
X154979000Y-81640000D01*
X154974000Y-81630000D01*
X154969000Y-81619000D01*
X154965000Y-81609000D01*
X154961000Y-81598000D01*
X154957000Y-81587000D01*
X154955000Y-81576000D01*
X154953000Y-81564000D01*
X154951000Y-81553000D01*
X154950000Y-81542000D01*
X154950000Y-81530000D01*
X154950000Y-80050000D01*
X153460000Y-80050000D01*
X153449000Y-80050000D01*
X153438000Y-80049000D01*
X153427000Y-80047000D01*
X153416000Y-80045000D01*
X153406000Y-80043000D01*
X153395000Y-80040000D01*
X153385000Y-80036000D01*
X153375000Y-80032000D01*
X153365000Y-80027000D01*
X153355000Y-80022000D01*
X153346000Y-80016000D01*
X153337000Y-80010000D01*
X153328000Y-80003000D01*
X153319000Y-79996000D01*
X153312000Y-79988000D01*
X153304000Y-79981000D01*
X153297000Y-79972000D01*
X153290000Y-79963000D01*
X153284000Y-79954000D01*
X153278000Y-79945000D01*
X153273000Y-79935000D01*
X153268000Y-79925000D01*
X153264000Y-79915000D01*
X153260000Y-79905000D01*
X153257000Y-79894000D01*
X153255000Y-79884000D01*
X153253000Y-79873000D01*
X153251000Y-79862000D01*
X153250000Y-79851000D01*
X153250000Y-79840000D01*
X153250000Y-79810000D01*
X153250000Y-77200000D01*
X153250000Y-77170000D01*
X153250000Y-77158000D01*
X153251000Y-77147000D01*
X153253000Y-77136000D01*
X153255000Y-77124000D01*
X153257000Y-77113000D01*
X153261000Y-77102000D01*
X153265000Y-77091000D01*
X153269000Y-77081000D01*
X153274000Y-77070000D01*
X153279000Y-77060000D01*
X153285000Y-77050000D01*
X153292000Y-77041000D01*
X153299000Y-77032000D01*
X153307000Y-77023000D01*
X153314000Y-77014000D01*
X153323000Y-77007000D01*
X153332000Y-76999000D01*
X153341000Y-76992000D01*
X153350000Y-76985000D01*
X153360000Y-76979000D01*
X153370000Y-76974000D01*
X153381000Y-76969000D01*
X153391000Y-76965000D01*
X153402000Y-76961000D01*
X153413000Y-76957000D01*
X153424000Y-76955000D01*
X153436000Y-76953000D01*
X153447000Y-76951000D01*
X153458000Y-76950000D01*
X153470000Y-76950000D01*
X154950000Y-76950000D01*
X154950000Y-75460000D01*
X154950000Y-75449000D01*
X154951000Y-75438000D01*
X154953000Y-75427000D01*
X154955000Y-75416000D01*
X154957000Y-75406000D01*
X154960000Y-75395000D01*
X154964000Y-75385000D01*
X154968000Y-75375000D01*
X154973000Y-75365000D01*
X154978000Y-75355000D01*
X154984000Y-75346000D01*
X154990000Y-75337000D01*
X154997000Y-75328000D01*
X155004000Y-75319000D01*
X155012000Y-75312000D01*
X155019000Y-75304000D01*
X155028000Y-75297000D01*
X155037000Y-75290000D01*
X155046000Y-75284000D01*
X155055000Y-75278000D01*
X155065000Y-75273000D01*
X155075000Y-75268000D01*
X155085000Y-75264000D01*
X155095000Y-75260000D01*
X155106000Y-75257000D01*
X155116000Y-75255000D01*
X155127000Y-75253000D01*
X155138000Y-75251000D01*
X155149000Y-75250000D01*
X155160000Y-75250000D01*
X155190000Y-75250000D01*
X157820000Y-75250000D01*
X157840000Y-75250000D01*
X157851000Y-75250000D01*
X157862000Y-75251000D01*
G36*
X157862000Y-75251000D02*
G01*
X157873000Y-75253000D01*
X157884000Y-75255000D01*
X157894000Y-75257000D01*
X157905000Y-75260000D01*
X157915000Y-75264000D01*
X157925000Y-75268000D01*
X157935000Y-75273000D01*
X157945000Y-75278000D01*
X157954000Y-75284000D01*
X157963000Y-75290000D01*
X157972000Y-75297000D01*
X157981000Y-75304000D01*
X157988000Y-75312000D01*
X157996000Y-75319000D01*
X158003000Y-75328000D01*
X158010000Y-75337000D01*
X158016000Y-75346000D01*
X158022000Y-75355000D01*
X158027000Y-75365000D01*
X158032000Y-75375000D01*
X158036000Y-75385000D01*
X158040000Y-75395000D01*
X158043000Y-75406000D01*
X158045000Y-75416000D01*
X158047000Y-75427000D01*
X158049000Y-75438000D01*
X158050000Y-75449000D01*
X158050000Y-75460000D01*
X158050000Y-76950000D01*
X159520000Y-76950000D01*
X159532000Y-76950000D01*
X159544000Y-76951000D01*
X159556000Y-76953000D01*
X159568000Y-76955000D01*
X159580000Y-76958000D01*
X159591000Y-76961000D01*
X159602000Y-76965000D01*
X159614000Y-76970000D01*
X159624000Y-76975000D01*
X159635000Y-76981000D01*
X159645000Y-76987000D01*
X159655000Y-76994000D01*
X159665000Y-77001000D01*
X159674000Y-77009000D01*
X159683000Y-77017000D01*
X159691000Y-77026000D01*
X159699000Y-77035000D01*
X159706000Y-77045000D01*
X159713000Y-77055000D01*
X159719000Y-77065000D01*
X159725000Y-77076000D01*
X159730000Y-77086000D01*
X159735000Y-77098000D01*
X159739000Y-77109000D01*
X159742000Y-77120000D01*
X159745000Y-77132000D01*
X159747000Y-77144000D01*
X159749000Y-77156000D01*
X159750000Y-77168000D01*
X159750000Y-77180000D01*
X159750000Y-79820000D01*
X159750000Y-79840000D01*
X159750000Y-79851000D01*
X159749000Y-79862000D01*
X159747000Y-79873000D01*
X159745000Y-79884000D01*
X159743000Y-79894000D01*
X159740000Y-79905000D01*
X159736000Y-79915000D01*
X159732000Y-79925000D01*
X159727000Y-79935000D01*
X159722000Y-79945000D01*
X159716000Y-79954000D01*
X159710000Y-79963000D01*
X159703000Y-79972000D01*
X159696000Y-79981000D01*
X159688000Y-79988000D01*
X159681000Y-79996000D01*
X159672000Y-80003000D01*
X159663000Y-80010000D01*
X159654000Y-80016000D01*
X159645000Y-80022000D01*
X159635000Y-80027000D01*
X159625000Y-80032000D01*
X159615000Y-80036000D01*
X159605000Y-80040000D01*
X159594000Y-80043000D01*
X159584000Y-80045000D01*
X159573000Y-80047000D01*
X159562000Y-80049000D01*
X159551000Y-80050000D01*
X159540000Y-80050000D01*
X158050000Y-80050000D01*
X158050000Y-81540000D01*
X158050000Y-81551000D01*
X158049000Y-81562000D01*
X158047000Y-81573000D01*
X158045000Y-81584000D01*
X158043000Y-81594000D01*
X158040000Y-81605000D01*
X158036000Y-81615000D01*
X158032000Y-81625000D01*
X158027000Y-81635000D01*
X158022000Y-81645000D01*
X158016000Y-81654000D01*
X158010000Y-81663000D01*
X158003000Y-81672000D01*
X157996000Y-81681000D01*
X157988000Y-81688000D01*
X157981000Y-81696000D01*
X157972000Y-81703000D01*
X157963000Y-81710000D01*
X157954000Y-81716000D01*
X157945000Y-81722000D01*
X157935000Y-81727000D01*
X157925000Y-81732000D01*
X157915000Y-81736000D01*
X157905000Y-81740000D01*
X157894000Y-81743000D01*
X157884000Y-81745000D01*
X157873000Y-81747000D01*
X157862000Y-81749000D01*
X157851000Y-81750000D01*
X157840000Y-81750000D01*
X157820000Y-81750000D01*
X155170000Y-81750000D01*
X155158000Y-81750000D01*
X155147000Y-81749000D01*
X155136000Y-81747000D01*
X155124000Y-81745000D01*
X155113000Y-81743000D01*
X155102000Y-81739000D01*
X155091000Y-81735000D01*
X155081000Y-81731000D01*
X155070000Y-81726000D01*
X155060000Y-81721000D01*
X155050000Y-81715000D01*
X155041000Y-81708000D01*
X155032000Y-81701000D01*
X155023000Y-81693000D01*
X155014000Y-81686000D01*
X155007000Y-81677000D01*
X154999000Y-81668000D01*
X154992000Y-81659000D01*
X154985000Y-81650000D01*
X154979000Y-81640000D01*
X154974000Y-81630000D01*
X154969000Y-81619000D01*
X154965000Y-81609000D01*
X154961000Y-81598000D01*
X154957000Y-81587000D01*
X154955000Y-81576000D01*
X154953000Y-81564000D01*
X154951000Y-81553000D01*
X154950000Y-81542000D01*
X154950000Y-81530000D01*
X154950000Y-80050000D01*
X153460000Y-80050000D01*
X153449000Y-80050000D01*
X153438000Y-80049000D01*
X153427000Y-80047000D01*
X153416000Y-80045000D01*
X153406000Y-80043000D01*
X153395000Y-80040000D01*
X153385000Y-80036000D01*
X153375000Y-80032000D01*
X153365000Y-80027000D01*
X153355000Y-80022000D01*
X153346000Y-80016000D01*
X153337000Y-80010000D01*
X153328000Y-80003000D01*
X153319000Y-79996000D01*
X153312000Y-79988000D01*
X153304000Y-79981000D01*
X153297000Y-79972000D01*
X153290000Y-79963000D01*
X153284000Y-79954000D01*
X153278000Y-79945000D01*
X153273000Y-79935000D01*
X153268000Y-79925000D01*
X153264000Y-79915000D01*
X153260000Y-79905000D01*
X153257000Y-79894000D01*
X153255000Y-79884000D01*
X153253000Y-79873000D01*
X153251000Y-79862000D01*
X153250000Y-79851000D01*
X153250000Y-79840000D01*
X153250000Y-79810000D01*
X153250000Y-77200000D01*
X153250000Y-77170000D01*
X153250000Y-77158000D01*
X153251000Y-77147000D01*
X153253000Y-77136000D01*
X153255000Y-77124000D01*
X153257000Y-77113000D01*
X153261000Y-77102000D01*
X153265000Y-77091000D01*
X153269000Y-77081000D01*
X153274000Y-77070000D01*
X153279000Y-77060000D01*
X153285000Y-77050000D01*
X153292000Y-77041000D01*
X153299000Y-77032000D01*
X153307000Y-77023000D01*
X153314000Y-77014000D01*
X153323000Y-77007000D01*
X153332000Y-76999000D01*
X153341000Y-76992000D01*
X153350000Y-76985000D01*
X153360000Y-76979000D01*
X153370000Y-76974000D01*
X153381000Y-76969000D01*
X153391000Y-76965000D01*
X153402000Y-76961000D01*
X153413000Y-76957000D01*
X153424000Y-76955000D01*
X153436000Y-76953000D01*
X153447000Y-76951000D01*
X153458000Y-76950000D01*
X153470000Y-76950000D01*
X154950000Y-76950000D01*
X154950000Y-75460000D01*
X154950000Y-75449000D01*
X154951000Y-75438000D01*
X154953000Y-75427000D01*
X154955000Y-75416000D01*
X154957000Y-75406000D01*
X154960000Y-75395000D01*
X154964000Y-75385000D01*
X154968000Y-75375000D01*
X154973000Y-75365000D01*
X154978000Y-75355000D01*
X154984000Y-75346000D01*
X154990000Y-75337000D01*
X154997000Y-75328000D01*
X155004000Y-75319000D01*
X155012000Y-75312000D01*
X155019000Y-75304000D01*
X155028000Y-75297000D01*
X155037000Y-75290000D01*
X155046000Y-75284000D01*
X155055000Y-75278000D01*
X155065000Y-75273000D01*
X155075000Y-75268000D01*
X155085000Y-75264000D01*
X155095000Y-75260000D01*
X155106000Y-75257000D01*
X155116000Y-75255000D01*
X155127000Y-75253000D01*
X155138000Y-75251000D01*
X155149000Y-75250000D01*
X155160000Y-75250000D01*
X155190000Y-75250000D01*
X157820000Y-75250000D01*
X157840000Y-75250000D01*
X157851000Y-75250000D01*
X157862000Y-75251000D01*
G37*
%TD*%
D11*
%TO.C,C1*%
X156222238Y-83748531D03*
X156222238Y-82788531D03*
%TD*%
%TO.C,C2*%
X155180631Y-83760105D03*
X155180631Y-82800105D03*
%TD*%
%TO.C,C3*%
X154139024Y-83783252D03*
X154139024Y-82823252D03*
%TD*%
D12*
%TO.C,U3*%
X159350000Y-75500000D03*
D13*
X153500000Y-75650000D03*
D12*
X153650000Y-81500000D03*
D13*
X159500000Y-81350000D03*
%TD*%
D14*
%TO.C,MOSFET1*%
X166500000Y-53170000D03*
D15*
X166500000Y-55710000D03*
X166500000Y-58250000D03*
%TD*%
D16*
%TO.C,J1*%
X161580000Y-102502736D03*
D17*
X161580000Y-99962736D03*
X159040000Y-102502736D03*
X159040000Y-99962736D03*
X156500000Y-102502736D03*
X156500000Y-99962736D03*
X153960000Y-102502736D03*
X153960000Y-99962736D03*
X151420000Y-102502736D03*
X151420000Y-99962736D03*
%TD*%
D18*
%TO.C,J5*%
X130744815Y-66879292D03*
D19*
X133284815Y-66879292D03*
X130744815Y-69419292D03*
X133284815Y-69419292D03*
X130744815Y-71959292D03*
X133284815Y-71959292D03*
X130744815Y-74499292D03*
X133284815Y-74499292D03*
X130744815Y-77039292D03*
X133284815Y-77039292D03*
X130744815Y-79579292D03*
X133284815Y-79579292D03*
X130744815Y-82119292D03*
X133284815Y-82119292D03*
X130744815Y-84659292D03*
X133284815Y-84659292D03*
X130744815Y-87199292D03*
X133284815Y-87199292D03*
X130744815Y-89739292D03*
X133284815Y-89739292D03*
%TD*%
D20*
%TO.C,J2*%
X154500000Y-60337500D03*
D21*
X159500000Y-60337500D03*
D22*
X151500000Y-50337500D03*
X162500000Y-50337500D03*
%TD*%
M02*
