%TF.GenerationSoftware,KiCad,Pcbnew,9.0.6*%
%TF.CreationDate,2026-01-16T14:34:07+00:00*%
%TF.ProjectId,mu,6d752e6b-6963-4616-945f-706362585858,rev?*%
%TF.SameCoordinates,Original*%
%TF.FileFunction,Copper,L2,Inr*%
%TF.FilePolarity,Positive*%
%FSLAX46Y46*%
G04 Gerber Fmt 4.6, Leading zero omitted, Abs format (unit mm)*
G04 Created by KiCad (PCBNEW 9.0.6) date 2026-01-16 14:34:07*
%MOMM*%
%LPD*%
G01*
G04 APERTURE LIST*
%TA.AperFunction,Conductor*%
%ADD10C,0.200000*%
%TD*%
%TA.AperFunction,HeatsinkPad*%
%ADD11O,1.000000X2.100000*%
%TD*%
%TA.AperFunction,HeatsinkPad*%
%ADD12O,1.000000X1.800000*%
%TD*%
%TA.AperFunction,ComponentPad*%
%ADD13R,0.850000X0.850000*%
%TD*%
%TA.AperFunction,ComponentPad*%
%ADD14C,0.850000*%
%TD*%
%TA.AperFunction,ComponentPad*%
%ADD15C,2.200000*%
%TD*%
%TA.AperFunction,ComponentPad*%
%ADD16R,1.524000X1.524000*%
%TD*%
%TA.AperFunction,ComponentPad*%
%ADD17C,1.524000*%
%TD*%
%TA.AperFunction,ViaPad*%
%ADD18C,0.600000*%
%TD*%
%TA.AperFunction,Conductor*%
%ADD19C,0.250000*%
%TD*%
%TA.AperFunction,Conductor*%
%ADD20C,0.400000*%
%TD*%
G04 APERTURE END LIST*
D10*
%TO.N,3.3V_Dig*%
X157500000Y-71750000D02*
X156047300Y-70250000D01*
X158500000Y-70250000D01*
X157500000Y-71750000D01*
%TA.AperFunction,Conductor*%
G36*
X157500000Y-71750000D02*
G01*
X156047300Y-70250000D01*
X158500000Y-70250000D01*
X157500000Y-71750000D01*
G37*
%TD.AperFunction*%
%TD*%
D11*
%TO.N,GND*%
%TO.C,J1*%
X152191326Y-100983399D03*
D12*
X152191326Y-105183399D03*
D11*
X160831326Y-100983399D03*
D12*
X160831326Y-105183399D03*
%TD*%
D13*
%TO.N,CAN_-*%
%TO.C,J2*%
X153000000Y-94000000D03*
D14*
%TO.N,CAN_+*%
X152000000Y-94000000D03*
%TO.N,PA-*%
X153000000Y-93000000D03*
%TO.N,PA+*%
X152000000Y-93000000D03*
%TO.N,USB_D-*%
X153000000Y-92000000D03*
%TO.N,USB_D+*%
X152000000Y-92000000D03*
%TD*%
D13*
%TO.N,NRST*%
%TO.C,J3*%
X154437712Y-88000000D03*
D14*
%TO.N,SWDIO*%
X154437712Y-89000000D03*
%TO.N,GND*%
X153437712Y-88000000D03*
%TO.N,SWCLK*%
X153437712Y-89000000D03*
%TO.N,GND*%
X152437712Y-88000000D03*
%TO.N,3.3V_Dig*%
X152437712Y-89000000D03*
%TD*%
D15*
%TO.N,VBAT_Local*%
%TO.C,J4*%
X158500001Y-50799998D03*
X158500001Y-60000000D03*
%TO.N,GND*%
X154500000Y-50799998D03*
X154500000Y-60000000D03*
%TD*%
D16*
%TO.N,GND*%
%TO.C,J5*%
X130744815Y-66879292D03*
D17*
X133284815Y-66879292D03*
%TO.N,unconnected-(J5-Pad03)*%
X130744815Y-69419292D03*
X133284815Y-69419292D03*
X130744815Y-71959292D03*
X133284815Y-71959292D03*
%TO.N,GND*%
X130744815Y-74499292D03*
X133284815Y-74499292D03*
%TO.N,unconnected-(J5-Pad09)*%
X130744815Y-77039292D03*
X133284815Y-77039292D03*
X130744815Y-79579292D03*
X133284815Y-79579292D03*
%TO.N,GND*%
X130744815Y-82119292D03*
X133284815Y-82119292D03*
%TO.N,CAN_o-*%
X130744815Y-84659292D03*
%TO.N,CAN_o+*%
X133284815Y-84659292D03*
%TO.N,GND*%
X130744815Y-87199292D03*
X133284815Y-87199292D03*
X130744815Y-89739292D03*
X133284815Y-89739292D03*
%TD*%
D18*
%TO.N,GND*%
X152000000Y-79000000D03*
X164000000Y-80000000D03*
X157285388Y-83479799D03*
%TO.N,2.5V_Ref*%
X160356358Y-74750143D03*
%TO.N,Net-(U6-NONIINVERTINGINPUT)*%
X153509908Y-74764117D03*
%TO.N,SWCLK*%
X156123529Y-90500000D03*
%TO.N,GND*%
X149585899Y-63595000D03*
X147000000Y-71000000D03*
X183000000Y-75932000D03*
X177024000Y-76452000D03*
X165299118Y-91500000D03*
X148500000Y-91000000D03*
X158500000Y-88500000D03*
X154000000Y-64500000D03*
X145000000Y-96000000D03*
X149371899Y-85596400D03*
X156331326Y-93871199D03*
X164187598Y-97500000D03*
X153500000Y-95500000D03*
X150500000Y-60000000D03*
X141000000Y-82000000D03*
X170500000Y-67000000D03*
X155000000Y-72000000D03*
X159500000Y-63000000D03*
X146575000Y-59356000D03*
X161331326Y-98683399D03*
X157600000Y-86589000D03*
X163500000Y-82500000D03*
X166000000Y-93500000D03*
X163125001Y-67549999D03*
X153640474Y-67263078D03*
X159625001Y-65549999D03*
X151831326Y-98683399D03*
X151000000Y-71500000D03*
X147000000Y-69500000D03*
X152000000Y-83000000D03*
X153500000Y-86622918D03*
X156224124Y-98579806D03*
X179500000Y-75932000D03*
X164305564Y-93596965D03*
X150000000Y-96000000D03*
X152000000Y-76000000D03*
X170500000Y-76500000D03*
X155540000Y-68750000D03*
X144600000Y-65000000D03*
X162000000Y-99000000D03*
X163125001Y-63549999D03*
X160449429Y-94364214D03*
X183500000Y-82428000D03*
X161023117Y-69998537D03*
X158385149Y-93500000D03*
X154331326Y-97683399D03*
X161023117Y-69998537D03*
X157253371Y-101598754D03*
X154500000Y-55500000D03*
X148595000Y-62336000D03*
X141000000Y-88500000D03*
X161000000Y-88500000D03*
X162805597Y-94089000D03*
X157831326Y-98683399D03*
X184000000Y-72952000D03*
X159371899Y-72500000D03*
X149500000Y-66000000D03*
X139000000Y-85450000D03*
X147000000Y-74500000D03*
X177524000Y-72952000D03*
%TO.N,3.3V_Dig*%
X161500000Y-79000000D03*
X163000000Y-99000000D03*
X147365000Y-90975598D03*
X171000000Y-82500000D03*
X161474999Y-94579000D03*
X162000000Y-67549999D03*
X156000000Y-70250000D03*
X166293225Y-91600756D03*
X159474999Y-94579000D03*
%TO.N,HV*%
X175500000Y-75000000D03*
%TO.N,5V*%
X183500000Y-79432000D03*
X164500000Y-74000000D03*
X148371899Y-67000000D03*
X156500000Y-72500000D03*
%TO.N,Latch_Out*%
X157570896Y-68515098D03*
X161784995Y-87170905D03*
%TO.N,VBAT_Local*%
X144000000Y-64000000D03*
X164500000Y-60549999D03*
%TO.N,NRST*%
X158500000Y-86500000D03*
%TO.N,VBUS_RAW*%
X156308094Y-102208399D03*
X154500000Y-84622918D03*
X154331326Y-96183399D03*
X166350001Y-60549999D03*
%TO.N,Latch_Rst*%
X160500000Y-87000000D03*
X158082944Y-67900434D03*
%TO.N,SPI_CS_FLASH*%
X169053800Y-87500000D03*
X163500000Y-86500000D03*
%TO.N,SPI_MISO*%
X164829415Y-94399782D03*
X163041065Y-92458935D03*
%TO.N,SPI_MOSI*%
X167796073Y-86899146D03*
X158500000Y-66000000D03*
%TO.N,SWDIO*%
X158000000Y-92000000D03*
%TO.N,SPI_SCK*%
X161498037Y-93432911D03*
X163750000Y-91250000D03*
X155000000Y-66000000D03*
%TO.N,SPI_CS_DAC*%
X164000000Y-85000000D03*
X155000000Y-64730000D03*
%TO.N,SPI_CS_BMP*%
X161416970Y-92637029D03*
X165500000Y-95718702D03*
%TO.N,USB_D+*%
X155500000Y-92000000D03*
%TO.N,USB_D-*%
X156789874Y-93215655D03*
%TD*%
D19*
%TO.N,3.3V_Dig*%
X161500000Y-95500000D02*
X161474999Y-95474999D01*
X161053999Y-95000000D02*
X161283714Y-95000000D01*
X161283714Y-95283714D02*
X161283714Y-95000000D01*
X161500000Y-95500000D02*
X161283714Y-95283714D01*
X161474999Y-95474999D02*
X161474999Y-95000000D01*
X160873999Y-95180000D02*
X161053999Y-95000000D01*
X161283714Y-95000000D02*
X161474999Y-95000000D01*
X161474999Y-95474999D02*
X161180000Y-95180000D01*
X161180000Y-95180000D02*
X160873999Y-95180000D01*
X161027000Y-95027000D02*
X161474999Y-94579000D01*
X161027000Y-95027000D02*
X161474999Y-95474999D01*
X163000000Y-99000000D02*
X163000000Y-97000000D01*
X163000000Y-97000000D02*
X161500000Y-95500000D01*
X161474999Y-95000000D02*
X161474999Y-94579000D01*
X166293225Y-91600756D02*
X165124573Y-92769408D01*
X165124573Y-92769408D02*
X163773132Y-92769408D01*
X163773132Y-92769408D02*
X163209111Y-93333429D01*
X163209111Y-93333429D02*
X162525637Y-93333429D01*
X162525637Y-93333429D02*
X161474999Y-94384067D01*
X161474999Y-94384067D02*
X161474999Y-94569655D01*
X152500000Y-97000000D02*
X157053999Y-97000000D01*
X160075999Y-95180000D02*
X160873999Y-95180000D01*
X157500000Y-71750000D02*
X157500000Y-75000000D01*
X166500000Y-86000000D02*
X164500000Y-84000000D01*
X160873999Y-95180000D02*
X161027000Y-95027000D01*
X164500000Y-84000000D02*
X164500000Y-82000000D01*
X156000000Y-70250000D02*
X157500000Y-71750000D01*
X170000000Y-82500000D02*
X171000000Y-82500000D01*
X166500000Y-91393981D02*
X166500000Y-87000000D01*
D10*
X161474999Y-94569655D02*
X161474999Y-94579000D01*
X166293225Y-91600756D02*
X166500000Y-91393981D01*
D19*
X147365000Y-90975598D02*
X147365000Y-91865000D01*
X159299999Y-70250000D02*
X156000000Y-70250000D01*
X166500000Y-87000000D02*
X166500000Y-86000000D01*
X166500000Y-86000000D02*
X170000000Y-82500000D01*
X157500000Y-75000000D02*
X147500000Y-85000000D01*
X157053999Y-97000000D02*
X159474999Y-94579000D01*
X147500000Y-90840598D02*
X147365000Y-90975598D01*
X162000000Y-67549999D02*
X159299999Y-70250000D01*
X159474999Y-94579000D02*
X160075999Y-95180000D01*
X147365000Y-91865000D02*
X152500000Y-97000000D01*
X147500000Y-85000000D02*
X147500000Y-90840598D01*
X164500000Y-82000000D02*
X161500000Y-79000000D01*
D10*
%TO.N,5V*%
X169932000Y-79432000D02*
X183500000Y-79432000D01*
X156000000Y-73000000D02*
X156500000Y-72500000D01*
X164500000Y-74000000D02*
X169932000Y-79432000D01*
X150500000Y-73000000D02*
X156000000Y-73000000D01*
X148371899Y-67000000D02*
X148371899Y-70871899D01*
X148371899Y-70871899D02*
X150500000Y-73000000D01*
D20*
%TO.N,VBAT_Local*%
X147000000Y-65000000D02*
X146000000Y-64000000D01*
X146000000Y-64000000D02*
X144000000Y-64000000D01*
X163950001Y-60000000D02*
X164500000Y-60549999D01*
X158500001Y-60000000D02*
X155500001Y-63000000D01*
X150500000Y-65000000D02*
X147000000Y-65000000D01*
X155500001Y-63000000D02*
X152500000Y-63000000D01*
X152500000Y-63000000D02*
X150500000Y-65000000D01*
X158500001Y-60000000D02*
X163950001Y-60000000D01*
D10*
%TO.N,VBUS_RAW*%
X155500000Y-87000000D02*
X155500000Y-90000000D01*
X154500000Y-84956001D02*
X154500000Y-81500000D01*
X154500000Y-81500000D02*
X166350001Y-69649999D01*
X155500000Y-90000000D02*
X154331326Y-91168674D01*
X166350001Y-69649999D02*
X166350001Y-60549999D01*
X154331326Y-91168674D02*
X154331326Y-96183399D01*
X154500000Y-86000000D02*
X155500000Y-87000000D01*
X154500000Y-84956001D02*
X154500000Y-86000000D01*
%TD*%
%TA.AperFunction,Conductor*%
%TO.N,GND*%
G36*
X153731546Y-87455126D02*
G01*
X153787479Y-87496998D01*
X153811896Y-87562462D01*
X153812212Y-87571308D01*
X153812212Y-87927691D01*
X153803567Y-87957128D01*
X153797044Y-87987119D01*
X153793288Y-87992135D01*
X153792527Y-87994730D01*
X153775893Y-88015373D01*
X153702169Y-88089096D01*
X153662414Y-88110802D01*
X153687712Y-88049728D01*
X153687712Y-87950272D01*
X153649652Y-87858386D01*
X153579326Y-87788060D01*
X153487440Y-87750000D01*
X153387984Y-87750000D01*
X153321671Y-87777467D01*
X153348616Y-87735542D01*
X153600531Y-87483627D01*
X153661854Y-87450142D01*
X153731546Y-87455126D01*
G37*
%TD.AperFunction*%
%TA.AperFunction,Conductor*%
G36*
X157055250Y-48814364D02*
G01*
X158103235Y-48851794D01*
X158107648Y-48852030D01*
X159153660Y-48926843D01*
X159157966Y-48927228D01*
X160200698Y-49039333D01*
X160205054Y-49039880D01*
X161243045Y-49189121D01*
X161247388Y-49189824D01*
X162279424Y-49376025D01*
X162283725Y-49376881D01*
X163308426Y-49599791D01*
X163312709Y-49600803D01*
X164328816Y-49860149D01*
X164333033Y-49861306D01*
X165208575Y-50118388D01*
X165339241Y-50156755D01*
X165343467Y-50158078D01*
X166338455Y-50489242D01*
X166342557Y-50490688D01*
X167325190Y-50857192D01*
X167329232Y-50858782D01*
X167922525Y-51104532D01*
X168298099Y-51260100D01*
X168302157Y-51261867D01*
X169256005Y-51697475D01*
X169259999Y-51699385D01*
X170197755Y-52168792D01*
X170201677Y-52170844D01*
X171122046Y-52673403D01*
X171125859Y-52675574D01*
X171579626Y-52944807D01*
X172027766Y-53210701D01*
X172031531Y-53213028D01*
X172913672Y-53779945D01*
X172917353Y-53782404D01*
X173280763Y-54034723D01*
X173778768Y-54380494D01*
X173782320Y-54383056D01*
X174475255Y-54901781D01*
X174621806Y-55011488D01*
X174625302Y-55014203D01*
X175441835Y-55672207D01*
X175445232Y-55675046D01*
X176237746Y-56361763D01*
X176241039Y-56364721D01*
X177008548Y-57079297D01*
X177011733Y-57082371D01*
X177753217Y-57823855D01*
X177756291Y-57827040D01*
X178470867Y-58594549D01*
X178473825Y-58597842D01*
X179160542Y-59390356D01*
X179163381Y-59393753D01*
X179821385Y-60210286D01*
X179824100Y-60213782D01*
X180026463Y-60484107D01*
X180450458Y-61050498D01*
X180452518Y-61053249D01*
X180455101Y-61056831D01*
X180558128Y-61205218D01*
X181053184Y-61918235D01*
X181055643Y-61921916D01*
X181622560Y-62804057D01*
X181624887Y-62807822D01*
X182160004Y-63709712D01*
X182162194Y-63713559D01*
X182664744Y-64633911D01*
X182666796Y-64637833D01*
X183136203Y-65575589D01*
X183138113Y-65579583D01*
X183573721Y-66533431D01*
X183575488Y-66537489D01*
X183828991Y-67149499D01*
X183946138Y-67432318D01*
X183976790Y-67506317D01*
X183978407Y-67510427D01*
X184328773Y-68449793D01*
X184344887Y-68492995D01*
X184346359Y-68497170D01*
X184677510Y-69492123D01*
X184678833Y-69496347D01*
X184974275Y-70502529D01*
X184975446Y-70506798D01*
X185234782Y-71522867D01*
X185235800Y-71527175D01*
X185458703Y-72551843D01*
X185459567Y-72556184D01*
X185645761Y-73588187D01*
X185646469Y-73592557D01*
X185795705Y-74630516D01*
X185796257Y-74634908D01*
X185908355Y-75677571D01*
X185908749Y-75681980D01*
X185983557Y-76727936D01*
X185983794Y-76732356D01*
X186021224Y-77780338D01*
X186021303Y-77784764D01*
X186021303Y-78833409D01*
X186021224Y-78837835D01*
X185983794Y-79885817D01*
X185983557Y-79890237D01*
X185908749Y-80936193D01*
X185908355Y-80940602D01*
X185796257Y-81983265D01*
X185795705Y-81987657D01*
X185646469Y-83025616D01*
X185645761Y-83029986D01*
X185459567Y-84061989D01*
X185458703Y-84066330D01*
X185235800Y-85090998D01*
X185234782Y-85095306D01*
X184975446Y-86111375D01*
X184974275Y-86115644D01*
X184678833Y-87121826D01*
X184677510Y-87126050D01*
X184346359Y-88121003D01*
X184344887Y-88125178D01*
X183978411Y-89107737D01*
X183976790Y-89111856D01*
X183575488Y-90080684D01*
X183573721Y-90084742D01*
X183138113Y-91038590D01*
X183136203Y-91042584D01*
X182666796Y-91980340D01*
X182664744Y-91984262D01*
X182162194Y-92904614D01*
X182160004Y-92908461D01*
X181624887Y-93810351D01*
X181622560Y-93814116D01*
X181055643Y-94696257D01*
X181053184Y-94699938D01*
X180455107Y-95561334D01*
X180452518Y-95564924D01*
X179824100Y-96404391D01*
X179821385Y-96407887D01*
X179163381Y-97224420D01*
X179160542Y-97227817D01*
X178473825Y-98020331D01*
X178470867Y-98023624D01*
X177756291Y-98791133D01*
X177753217Y-98794318D01*
X177011733Y-99535802D01*
X177008548Y-99538876D01*
X176241039Y-100253452D01*
X176237746Y-100256410D01*
X175445232Y-100943127D01*
X175441835Y-100945966D01*
X174625302Y-101603970D01*
X174621806Y-101606685D01*
X173782339Y-102235103D01*
X173778749Y-102237692D01*
X172917353Y-102835769D01*
X172913672Y-102838228D01*
X172031531Y-103405145D01*
X172027766Y-103407472D01*
X171125876Y-103942589D01*
X171122029Y-103944779D01*
X170201677Y-104447329D01*
X170197755Y-104449381D01*
X169259999Y-104918788D01*
X169256005Y-104920698D01*
X168302157Y-105356306D01*
X168298099Y-105358073D01*
X167329271Y-105759375D01*
X167325152Y-105760996D01*
X166342593Y-106127472D01*
X166338418Y-106128944D01*
X165343465Y-106460095D01*
X165339241Y-106461418D01*
X164333059Y-106756860D01*
X164328790Y-106758031D01*
X163312721Y-107017367D01*
X163308413Y-107018385D01*
X162283745Y-107241288D01*
X162279404Y-107242152D01*
X161247401Y-107428346D01*
X161243031Y-107429054D01*
X160205072Y-107578290D01*
X160200680Y-107578842D01*
X159158017Y-107690940D01*
X159153608Y-107691334D01*
X158107652Y-107766142D01*
X158103232Y-107766379D01*
X157055251Y-107803809D01*
X157050825Y-107803888D01*
X156002179Y-107803888D01*
X155997753Y-107803809D01*
X154949771Y-107766379D01*
X154945351Y-107766142D01*
X153899395Y-107691334D01*
X153894986Y-107690940D01*
X152852323Y-107578842D01*
X152847931Y-107578290D01*
X151809972Y-107429054D01*
X151805602Y-107428346D01*
X150773599Y-107242152D01*
X150769258Y-107241288D01*
X149744590Y-107018385D01*
X149740282Y-107017367D01*
X148724213Y-106758031D01*
X148719944Y-106756860D01*
X147713762Y-106461418D01*
X147709538Y-106460095D01*
X146714585Y-106128944D01*
X146710410Y-106127472D01*
X146033722Y-105875080D01*
X145727842Y-105760992D01*
X145723742Y-105759378D01*
X145564458Y-105693401D01*
X145089333Y-105496598D01*
X144754904Y-105358073D01*
X144750846Y-105356306D01*
X143796998Y-104920698D01*
X143793004Y-104918788D01*
X143535119Y-104789700D01*
X143325761Y-104684903D01*
X151191326Y-104684903D01*
X151191326Y-104933399D01*
X151891326Y-104933399D01*
X151891326Y-105433399D01*
X151191326Y-105433399D01*
X151191326Y-105681894D01*
X151229753Y-105875080D01*
X151229756Y-105875092D01*
X151305133Y-106057070D01*
X151305140Y-106057083D01*
X151414574Y-106220861D01*
X151414577Y-106220865D01*
X151553859Y-106360147D01*
X151553863Y-106360150D01*
X151717641Y-106469584D01*
X151717654Y-106469591D01*
X151899634Y-106544968D01*
X151941326Y-106553261D01*
X151941326Y-105750387D01*
X151951266Y-105767604D01*
X152007121Y-105823459D01*
X152075530Y-105862955D01*
X152151830Y-105883399D01*
X152230822Y-105883399D01*
X152307122Y-105862955D01*
X152375531Y-105823459D01*
X152431386Y-105767604D01*
X152441326Y-105750387D01*
X152441326Y-106553261D01*
X152483016Y-106544968D01*
X152483018Y-106544968D01*
X152664997Y-106469591D01*
X152665010Y-106469584D01*
X152828788Y-106360150D01*
X152828792Y-106360147D01*
X152968074Y-106220865D01*
X152968077Y-106220861D01*
X153077511Y-106057083D01*
X153077518Y-106057070D01*
X153152895Y-105875092D01*
X153152898Y-105875080D01*
X153191325Y-105681894D01*
X153191326Y-105681891D01*
X153191326Y-105433399D01*
X152491326Y-105433399D01*
X152491326Y-104933399D01*
X153191326Y-104933399D01*
X153191326Y-104684907D01*
X153191325Y-104684903D01*
X159831326Y-104684903D01*
X159831326Y-104933399D01*
X160531326Y-104933399D01*
X160531326Y-105433399D01*
X159831326Y-105433399D01*
X159831326Y-105681894D01*
X159869753Y-105875080D01*
X159869756Y-105875092D01*
X159945133Y-106057070D01*
X159945140Y-106057083D01*
X160054574Y-106220861D01*
X160054577Y-106220865D01*
X160193859Y-106360147D01*
X160193863Y-106360150D01*
X160357641Y-106469584D01*
X160357654Y-106469591D01*
X160539634Y-106544968D01*
X160581326Y-106553261D01*
X160581326Y-105750387D01*
X160591266Y-105767604D01*
X160647121Y-105823459D01*
X160715530Y-105862955D01*
X160791830Y-105883399D01*
X160870822Y-105883399D01*
X160947122Y-105862955D01*
X161015531Y-105823459D01*
X161071386Y-105767604D01*
X161081326Y-105750387D01*
X161081326Y-106553261D01*
X161123016Y-106544968D01*
X161123018Y-106544968D01*
X161304997Y-106469591D01*
X161305010Y-106469584D01*
X161468788Y-106360150D01*
X161468792Y-106360147D01*
X161608074Y-106220865D01*
X161608077Y-106220861D01*
X161717511Y-106057083D01*
X161717518Y-106057070D01*
X161792895Y-105875092D01*
X161792898Y-105875080D01*
X161831325Y-105681894D01*
X161831326Y-105681891D01*
X161831326Y-105433399D01*
X161131326Y-105433399D01*
X161131326Y-104933399D01*
X161831326Y-104933399D01*
X161831326Y-104684907D01*
X161831325Y-104684903D01*
X161792898Y-104491717D01*
X161792895Y-104491705D01*
X161717518Y-104309727D01*
X161717511Y-104309714D01*
X161608077Y-104145936D01*
X161608074Y-104145932D01*
X161468792Y-104006650D01*
X161468788Y-104006647D01*
X161305010Y-103897213D01*
X161304997Y-103897206D01*
X161123017Y-103821828D01*
X161123009Y-103821826D01*
X161081326Y-103813534D01*
X161081326Y-104616410D01*
X161071386Y-104599194D01*
X161015531Y-104543339D01*
X160947122Y-104503843D01*
X160870822Y-104483399D01*
X160791830Y-104483399D01*
X160715530Y-104503843D01*
X160647121Y-104543339D01*
X160591266Y-104599194D01*
X160581326Y-104616410D01*
X160581326Y-103813535D01*
X160581325Y-103813534D01*
X160539642Y-103821826D01*
X160539634Y-103821828D01*
X160357654Y-103897206D01*
X160357641Y-103897213D01*
X160193863Y-104006647D01*
X160193859Y-104006650D01*
X160054577Y-104145932D01*
X160054574Y-104145936D01*
X159945140Y-104309714D01*
X159945133Y-104309727D01*
X159869756Y-104491705D01*
X159869753Y-104491717D01*
X159831326Y-104684903D01*
X153191325Y-104684903D01*
X153152898Y-104491717D01*
X153152895Y-104491705D01*
X153077518Y-104309727D01*
X153077511Y-104309714D01*
X152968077Y-104145936D01*
X152968074Y-104145932D01*
X152828792Y-104006650D01*
X152828788Y-104006647D01*
X152665010Y-103897213D01*
X152664997Y-103897206D01*
X152483017Y-103821828D01*
X152483009Y-103821826D01*
X152441326Y-103813534D01*
X152441326Y-104616410D01*
X152431386Y-104599194D01*
X152375531Y-104543339D01*
X152307122Y-104503843D01*
X152230822Y-104483399D01*
X152151830Y-104483399D01*
X152075530Y-104503843D01*
X152007121Y-104543339D01*
X151951266Y-104599194D01*
X151941326Y-104616410D01*
X151941326Y-103813535D01*
X151941325Y-103813534D01*
X151899642Y-103821826D01*
X151899634Y-103821828D01*
X151717654Y-103897206D01*
X151717641Y-103897213D01*
X151553863Y-104006647D01*
X151553859Y-104006650D01*
X151414577Y-104145932D01*
X151414574Y-104145936D01*
X151305140Y-104309714D01*
X151305133Y-104309727D01*
X151229756Y-104491705D01*
X151229753Y-104491717D01*
X151191326Y-104684903D01*
X143325761Y-104684903D01*
X142855248Y-104449381D01*
X142851326Y-104447329D01*
X141930974Y-103944779D01*
X141927127Y-103942589D01*
X141025237Y-103407472D01*
X141021472Y-103405145D01*
X140139331Y-102838228D01*
X140135650Y-102835769D01*
X139274254Y-102237692D01*
X139270664Y-102235103D01*
X139146970Y-102142507D01*
X138579367Y-101717604D01*
X138431197Y-101606685D01*
X138427701Y-101603970D01*
X138023928Y-101278589D01*
X137611168Y-100945966D01*
X137607771Y-100943127D01*
X137006969Y-100422529D01*
X136905843Y-100334903D01*
X151191326Y-100334903D01*
X151191326Y-100733399D01*
X151891326Y-100733399D01*
X151891326Y-101233399D01*
X151191326Y-101233399D01*
X151191326Y-101631894D01*
X151229753Y-101825080D01*
X151229756Y-101825092D01*
X151305133Y-102007070D01*
X151305140Y-102007083D01*
X151414574Y-102170861D01*
X151414577Y-102170865D01*
X151553859Y-102310147D01*
X151553863Y-102310150D01*
X151717641Y-102419584D01*
X151717654Y-102419591D01*
X151899634Y-102494968D01*
X151941326Y-102503261D01*
X151941326Y-101700387D01*
X151951266Y-101717604D01*
X152007121Y-101773459D01*
X152075530Y-101812955D01*
X152151830Y-101833399D01*
X152230822Y-101833399D01*
X152307122Y-101812955D01*
X152375531Y-101773459D01*
X152431386Y-101717604D01*
X152441326Y-101700387D01*
X152441326Y-102503261D01*
X152483016Y-102494968D01*
X152483018Y-102494968D01*
X152664997Y-102419591D01*
X152665010Y-102419584D01*
X152828788Y-102310150D01*
X152828792Y-102310147D01*
X152968074Y-102170865D01*
X152968077Y-102170861D01*
X152987023Y-102142507D01*
X155807594Y-102142507D01*
X155807594Y-102274291D01*
X155817202Y-102310150D01*
X155841702Y-102401586D01*
X155874648Y-102458649D01*
X155907594Y-102515713D01*
X156000780Y-102608899D01*
X156114908Y-102674791D01*
X156242202Y-102708899D01*
X156242204Y-102708899D01*
X156373984Y-102708899D01*
X156373986Y-102708899D01*
X156501280Y-102674791D01*
X156615408Y-102608899D01*
X156708594Y-102515713D01*
X156774486Y-102401585D01*
X156808594Y-102274291D01*
X156808594Y-102142507D01*
X156774486Y-102015213D01*
X156708594Y-101901085D01*
X156615408Y-101807899D01*
X156555756Y-101773459D01*
X156501281Y-101742007D01*
X156437633Y-101724953D01*
X156373986Y-101707899D01*
X156242202Y-101707899D01*
X156114906Y-101742007D01*
X156000780Y-101807899D01*
X156000777Y-101807901D01*
X155907596Y-101901082D01*
X155907594Y-101901085D01*
X155841702Y-102015211D01*
X155807594Y-102142507D01*
X152987023Y-102142507D01*
X153077507Y-102007089D01*
X153080363Y-102001745D01*
X153129319Y-101951894D01*
X153197454Y-101936424D01*
X153263137Y-101960246D01*
X153265221Y-101961811D01*
X153267958Y-101963911D01*
X153267961Y-101963914D01*
X153399191Y-102039680D01*
X153545560Y-102078899D01*
X153545562Y-102078899D01*
X153697090Y-102078899D01*
X153697092Y-102078899D01*
X153843461Y-102039680D01*
X153974691Y-101963914D01*
X154081841Y-101856764D01*
X154157607Y-101725534D01*
X154196826Y-101579165D01*
X154196826Y-101427633D01*
X158825826Y-101427633D01*
X158825826Y-101579165D01*
X158832842Y-101605349D01*
X158865045Y-101725535D01*
X158902928Y-101791149D01*
X158940811Y-101856764D01*
X159047961Y-101963914D01*
X159179191Y-102039680D01*
X159325560Y-102078899D01*
X159325562Y-102078899D01*
X159477090Y-102078899D01*
X159477092Y-102078899D01*
X159623461Y-102039680D01*
X159754691Y-101963914D01*
X159754699Y-101963905D01*
X159757431Y-101961811D01*
X159760160Y-101960755D01*
X159761729Y-101959850D01*
X159761870Y-101960094D01*
X159822600Y-101936614D01*
X159891045Y-101950650D01*
X159941036Y-101999463D01*
X159942281Y-102001734D01*
X159945138Y-102007079D01*
X160054574Y-102170861D01*
X160054577Y-102170865D01*
X160193859Y-102310147D01*
X160193863Y-102310150D01*
X160357641Y-102419584D01*
X160357654Y-102419591D01*
X160539634Y-102494968D01*
X160581326Y-102503261D01*
X160581326Y-101700387D01*
X160591266Y-101717604D01*
X160647121Y-101773459D01*
X160715530Y-101812955D01*
X160791830Y-101833399D01*
X160870822Y-101833399D01*
X160947122Y-101812955D01*
X161015531Y-101773459D01*
X161071386Y-101717604D01*
X161081326Y-101700387D01*
X161081326Y-102503261D01*
X161123016Y-102494968D01*
X161123018Y-102494968D01*
X161304997Y-102419591D01*
X161305010Y-102419584D01*
X161468788Y-102310150D01*
X161468792Y-102310147D01*
X161608074Y-102170865D01*
X161608077Y-102170861D01*
X161717511Y-102007083D01*
X161717518Y-102007070D01*
X161792895Y-101825092D01*
X161792898Y-101825080D01*
X161831325Y-101631894D01*
X161831326Y-101631891D01*
X161831326Y-101233399D01*
X161131326Y-101233399D01*
X161131326Y-100733399D01*
X161831326Y-100733399D01*
X161831326Y-100334907D01*
X161831325Y-100334903D01*
X161792898Y-100141717D01*
X161792895Y-100141705D01*
X161717518Y-99959727D01*
X161717511Y-99959714D01*
X161608077Y-99795936D01*
X161608074Y-99795932D01*
X161468792Y-99656650D01*
X161468788Y-99656647D01*
X161305010Y-99547213D01*
X161304997Y-99547206D01*
X161123017Y-99471828D01*
X161123009Y-99471826D01*
X161081326Y-99463534D01*
X161081326Y-100266410D01*
X161071386Y-100249194D01*
X161015531Y-100193339D01*
X160947122Y-100153843D01*
X160870822Y-100133399D01*
X160791830Y-100133399D01*
X160715530Y-100153843D01*
X160647121Y-100193339D01*
X160591266Y-100249194D01*
X160581326Y-100266410D01*
X160581326Y-99463535D01*
X160581325Y-99463534D01*
X160539642Y-99471826D01*
X160539634Y-99471828D01*
X160357654Y-99547206D01*
X160357641Y-99547213D01*
X160193863Y-99656647D01*
X160193859Y-99656650D01*
X160054577Y-99795932D01*
X160054574Y-99795936D01*
X159945140Y-99959714D01*
X159945133Y-99959727D01*
X159869756Y-100141705D01*
X159869753Y-100141717D01*
X159831326Y-100334903D01*
X159831326Y-100733399D01*
X160531326Y-100733399D01*
X160531326Y-101233399D01*
X159981563Y-101233399D01*
X159914524Y-101213714D01*
X159874176Y-101171399D01*
X159861841Y-101150034D01*
X159754691Y-101042884D01*
X159686064Y-101003262D01*
X159623462Y-100967118D01*
X159544520Y-100945966D01*
X159477092Y-100927899D01*
X159325560Y-100927899D01*
X159179189Y-100967118D01*
X159047961Y-101042884D01*
X159047958Y-101042886D01*
X158940813Y-101150031D01*
X158940811Y-101150034D01*
X158865045Y-101281262D01*
X158825826Y-101427633D01*
X154196826Y-101427633D01*
X154157607Y-101281264D01*
X154081841Y-101150034D01*
X153974691Y-101042884D01*
X153906064Y-101003262D01*
X153843462Y-100967118D01*
X153764520Y-100945966D01*
X153697092Y-100927899D01*
X153545560Y-100927899D01*
X153399189Y-100967118D01*
X153267961Y-101042884D01*
X153267958Y-101042886D01*
X153160813Y-101150031D01*
X153160809Y-101150037D01*
X153148476Y-101171399D01*
X153097909Y-101219615D01*
X153041089Y-101233399D01*
X152491326Y-101233399D01*
X152491326Y-100733399D01*
X153191326Y-100733399D01*
X153191326Y-100334907D01*
X153191325Y-100334903D01*
X153152898Y-100141717D01*
X153152895Y-100141705D01*
X153077518Y-99959727D01*
X153077511Y-99959714D01*
X152968077Y-99795936D01*
X152968074Y-99795932D01*
X152828792Y-99656650D01*
X152828788Y-99656647D01*
X152665010Y-99547213D01*
X152664997Y-99547206D01*
X152483017Y-99471828D01*
X152483009Y-99471826D01*
X152441326Y-99463534D01*
X152441326Y-100266410D01*
X152431386Y-100249194D01*
X152375531Y-100193339D01*
X152307122Y-100153843D01*
X152230822Y-100133399D01*
X152151830Y-100133399D01*
X152075530Y-100153843D01*
X152007121Y-100193339D01*
X151951266Y-100249194D01*
X151941326Y-100266410D01*
X151941326Y-99463535D01*
X151941325Y-99463534D01*
X151899642Y-99471826D01*
X151899634Y-99471828D01*
X151717654Y-99547206D01*
X151717641Y-99547213D01*
X151553863Y-99656647D01*
X151553859Y-99656650D01*
X151414577Y-99795932D01*
X151414574Y-99795936D01*
X151305140Y-99959714D01*
X151305133Y-99959727D01*
X151229756Y-100141705D01*
X151229753Y-100141717D01*
X151191326Y-100334903D01*
X136905843Y-100334903D01*
X136815257Y-100256410D01*
X136811964Y-100253452D01*
X136044455Y-99538876D01*
X136041270Y-99535802D01*
X135299786Y-98794318D01*
X135296712Y-98791133D01*
X134582136Y-98023624D01*
X134579178Y-98020331D01*
X133892461Y-97227817D01*
X133889622Y-97224420D01*
X133231618Y-96407887D01*
X133228903Y-96404391D01*
X133208088Y-96376585D01*
X132600471Y-95564905D01*
X132597909Y-95561353D01*
X132281422Y-95105525D01*
X136455439Y-95105525D01*
X136455439Y-95453774D01*
X136494428Y-95799808D01*
X136494430Y-95799820D01*
X136571921Y-96139334D01*
X136571924Y-96139342D01*
X136686938Y-96468032D01*
X136838031Y-96781780D01*
X137023310Y-97076649D01*
X137023311Y-97076651D01*
X137240426Y-97348906D01*
X137486682Y-97595162D01*
X137758937Y-97812277D01*
X137758940Y-97812278D01*
X137758942Y-97812280D01*
X138053806Y-97997556D01*
X138367560Y-98148652D01*
X138614427Y-98235034D01*
X138696246Y-98263664D01*
X138696254Y-98263667D01*
X138696257Y-98263667D01*
X138696258Y-98263668D01*
X139035768Y-98341159D01*
X139381815Y-98380149D01*
X139381816Y-98380150D01*
X139381819Y-98380150D01*
X139730062Y-98380150D01*
X139730062Y-98380149D01*
X140076110Y-98341159D01*
X140415620Y-98263668D01*
X140744318Y-98148652D01*
X141058072Y-97997556D01*
X141352936Y-97812280D01*
X141352940Y-97812277D01*
X141625195Y-97595162D01*
X141625197Y-97595159D01*
X141625202Y-97595156D01*
X141871445Y-97348913D01*
X141890116Y-97325501D01*
X142088566Y-97076651D01*
X142088567Y-97076649D01*
X142088569Y-97076647D01*
X142273845Y-96781783D01*
X142424941Y-96468029D01*
X142539957Y-96139331D01*
X142617448Y-95799821D01*
X142656439Y-95453770D01*
X142656439Y-95105530D01*
X142617448Y-94759479D01*
X142539957Y-94419969D01*
X142521529Y-94367306D01*
X142496681Y-94296292D01*
X142424941Y-94091271D01*
X142273845Y-93777517D01*
X142088569Y-93482653D01*
X142088567Y-93482650D01*
X142088566Y-93482648D01*
X141871451Y-93210393D01*
X141625195Y-92964137D01*
X141352940Y-92747022D01*
X141352938Y-92747021D01*
X141058069Y-92561742D01*
X140744321Y-92410649D01*
X140415631Y-92295635D01*
X140415623Y-92295632D01*
X140156673Y-92236529D01*
X140076110Y-92218141D01*
X140076106Y-92218140D01*
X140076097Y-92218139D01*
X139730063Y-92179150D01*
X139730059Y-92179150D01*
X139381819Y-92179150D01*
X139381814Y-92179150D01*
X139035780Y-92218139D01*
X139035768Y-92218141D01*
X138696254Y-92295632D01*
X138696246Y-92295635D01*
X138367556Y-92410649D01*
X138053808Y-92561742D01*
X137758939Y-92747021D01*
X137758937Y-92747022D01*
X137486682Y-92964137D01*
X137240426Y-93210393D01*
X137023311Y-93482648D01*
X137023310Y-93482650D01*
X136838031Y-93777519D01*
X136686938Y-94091267D01*
X136571924Y-94419957D01*
X136571921Y-94419965D01*
X136494430Y-94759479D01*
X136494428Y-94759491D01*
X136455439Y-95105525D01*
X132281422Y-95105525D01*
X132105165Y-94851666D01*
X131999819Y-94699938D01*
X131997360Y-94696257D01*
X131430443Y-93814116D01*
X131428116Y-93810351D01*
X131202709Y-93430448D01*
X130892989Y-92908444D01*
X130890809Y-92904614D01*
X130889150Y-92901576D01*
X130496479Y-92182452D01*
X130388259Y-91984262D01*
X130386207Y-91980340D01*
X129916800Y-91042584D01*
X129914890Y-91038591D01*
X129897856Y-91001292D01*
X129876872Y-90955344D01*
X129866929Y-90886189D01*
X129895953Y-90822633D01*
X129954731Y-90784858D01*
X130024601Y-90784858D01*
X130062553Y-90803517D01*
X130083382Y-90818650D01*
X130260377Y-90908834D01*
X130449292Y-90970216D01*
X130645494Y-91001292D01*
X130844136Y-91001292D01*
X131040335Y-90970216D01*
X131040338Y-90970216D01*
X131229252Y-90908834D01*
X131406240Y-90818654D01*
X131443530Y-90791560D01*
X130880756Y-90228787D01*
X130940896Y-90212673D01*
X131056735Y-90145794D01*
X131151317Y-90051212D01*
X131218196Y-89935373D01*
X131234310Y-89875234D01*
X131797083Y-90438007D01*
X131824177Y-90400717D01*
X131904330Y-90243409D01*
X131952304Y-90192613D01*
X132020125Y-90175818D01*
X132086260Y-90198355D01*
X132125300Y-90243409D01*
X132205456Y-90400724D01*
X132232545Y-90438007D01*
X132232546Y-90438008D01*
X132795319Y-89875234D01*
X132811434Y-89935373D01*
X132878313Y-90051212D01*
X132972895Y-90145794D01*
X133088734Y-90212673D01*
X133148872Y-90228786D01*
X132586098Y-90791560D01*
X132586098Y-90791561D01*
X132623382Y-90818650D01*
X132800377Y-90908834D01*
X132989292Y-90970216D01*
X133185494Y-91001292D01*
X133384136Y-91001292D01*
X133580335Y-90970216D01*
X133580338Y-90970216D01*
X133766568Y-90909706D01*
X146864500Y-90909706D01*
X146864500Y-91041490D01*
X146868606Y-91056814D01*
X146898608Y-91168785D01*
X146931554Y-91225848D01*
X146964500Y-91282912D01*
X146964502Y-91282914D01*
X147003181Y-91321593D01*
X147036666Y-91382916D01*
X147039500Y-91409274D01*
X147039500Y-91907852D01*
X147061682Y-91990640D01*
X147078624Y-92019983D01*
X147104535Y-92064862D01*
X149671926Y-94632253D01*
X152235194Y-97195520D01*
X152235204Y-97195531D01*
X152239534Y-97199861D01*
X152239535Y-97199862D01*
X152300138Y-97260465D01*
X152300140Y-97260466D01*
X152300141Y-97260467D01*
X152374342Y-97303307D01*
X152374356Y-97303314D01*
X152374360Y-97303317D01*
X152374362Y-97303318D01*
X152457147Y-97325501D01*
X152457149Y-97325501D01*
X152550449Y-97325501D01*
X152550465Y-97325500D01*
X157096850Y-97325500D01*
X157096852Y-97325500D01*
X157179638Y-97303318D01*
X157253861Y-97260465D01*
X159387318Y-95127008D01*
X159448641Y-95093523D01*
X159518333Y-95098507D01*
X159562680Y-95127008D01*
X159815533Y-95379861D01*
X159815534Y-95379862D01*
X159876137Y-95440465D01*
X159876139Y-95440466D01*
X159876143Y-95440469D01*
X159950354Y-95483314D01*
X159950361Y-95483318D01*
X160033146Y-95505500D01*
X160118852Y-95505500D01*
X160831145Y-95505500D01*
X160831146Y-95505500D01*
X160993811Y-95505500D01*
X161060850Y-95525185D01*
X161081492Y-95541819D01*
X162638181Y-97098508D01*
X162671666Y-97159831D01*
X162674500Y-97186189D01*
X162674500Y-98566324D01*
X162654815Y-98633363D01*
X162638181Y-98654005D01*
X162599502Y-98692683D01*
X162599500Y-98692686D01*
X162533608Y-98806812D01*
X162499500Y-98934108D01*
X162499500Y-99065891D01*
X162533608Y-99193187D01*
X162566554Y-99250250D01*
X162599500Y-99307314D01*
X162692686Y-99400500D01*
X162791521Y-99457563D01*
X162801865Y-99463535D01*
X162806814Y-99466392D01*
X162934108Y-99500500D01*
X162934110Y-99500500D01*
X163065890Y-99500500D01*
X163065892Y-99500500D01*
X163193186Y-99466392D01*
X163307314Y-99400500D01*
X163400500Y-99307314D01*
X163466392Y-99193186D01*
X163500500Y-99065892D01*
X163500500Y-98934108D01*
X163466392Y-98806814D01*
X163400500Y-98692686D01*
X163361819Y-98654005D01*
X163328334Y-98592682D01*
X163325500Y-98566324D01*
X163325500Y-96957149D01*
X163325500Y-96957147D01*
X163303318Y-96874362D01*
X163293951Y-96858138D01*
X163260469Y-96800144D01*
X163260463Y-96800136D01*
X162113137Y-95652810D01*
X164999500Y-95652810D01*
X164999500Y-95784594D01*
X165003577Y-95799808D01*
X165033608Y-95911889D01*
X165058217Y-95954512D01*
X165099500Y-96026016D01*
X165192686Y-96119202D01*
X165306814Y-96185094D01*
X165434108Y-96219202D01*
X165434110Y-96219202D01*
X165565890Y-96219202D01*
X165565892Y-96219202D01*
X165693186Y-96185094D01*
X165807314Y-96119202D01*
X165900500Y-96026016D01*
X165966392Y-95911888D01*
X166000500Y-95784594D01*
X166000500Y-95652810D01*
X165966392Y-95525516D01*
X165900500Y-95411388D01*
X165807314Y-95318202D01*
X165750250Y-95285256D01*
X165693187Y-95252310D01*
X165638510Y-95237659D01*
X165565892Y-95218202D01*
X165434108Y-95218202D01*
X165306812Y-95252310D01*
X165192686Y-95318202D01*
X165192683Y-95318204D01*
X165099502Y-95411385D01*
X165099500Y-95411388D01*
X165033608Y-95525514D01*
X164999500Y-95652810D01*
X162113137Y-95652810D01*
X161836818Y-95376491D01*
X161803333Y-95315168D01*
X161800499Y-95288810D01*
X161800499Y-95105525D01*
X170396565Y-95105525D01*
X170396565Y-95453774D01*
X170435554Y-95799808D01*
X170435556Y-95799820D01*
X170513047Y-96139334D01*
X170513050Y-96139342D01*
X170628064Y-96468032D01*
X170779157Y-96781780D01*
X170964436Y-97076649D01*
X170964437Y-97076651D01*
X171181552Y-97348906D01*
X171427808Y-97595162D01*
X171700063Y-97812277D01*
X171700066Y-97812278D01*
X171700068Y-97812280D01*
X171994932Y-97997556D01*
X172308686Y-98148652D01*
X172555553Y-98235034D01*
X172637372Y-98263664D01*
X172637380Y-98263667D01*
X172637383Y-98263667D01*
X172637384Y-98263668D01*
X172976894Y-98341159D01*
X173322941Y-98380149D01*
X173322942Y-98380150D01*
X173322945Y-98380150D01*
X173671188Y-98380150D01*
X173671188Y-98380149D01*
X174017236Y-98341159D01*
X174356746Y-98263668D01*
X174685444Y-98148652D01*
X174999198Y-97997556D01*
X175294062Y-97812280D01*
X175294066Y-97812277D01*
X175566321Y-97595162D01*
X175566323Y-97595159D01*
X175566328Y-97595156D01*
X175812571Y-97348913D01*
X175831242Y-97325501D01*
X176029692Y-97076651D01*
X176029693Y-97076649D01*
X176029695Y-97076647D01*
X176214971Y-96781783D01*
X176366067Y-96468029D01*
X176481083Y-96139331D01*
X176558574Y-95799821D01*
X176597565Y-95453770D01*
X176597565Y-95105530D01*
X176558574Y-94759479D01*
X176481083Y-94419969D01*
X176462655Y-94367306D01*
X176437807Y-94296292D01*
X176366067Y-94091271D01*
X176214971Y-93777517D01*
X176029695Y-93482653D01*
X176029693Y-93482650D01*
X176029692Y-93482648D01*
X175812577Y-93210393D01*
X175566321Y-92964137D01*
X175294066Y-92747022D01*
X175294064Y-92747021D01*
X174999195Y-92561742D01*
X174685447Y-92410649D01*
X174356757Y-92295635D01*
X174356749Y-92295632D01*
X174097799Y-92236529D01*
X174017236Y-92218141D01*
X174017232Y-92218140D01*
X174017223Y-92218139D01*
X173671189Y-92179150D01*
X173671185Y-92179150D01*
X173322945Y-92179150D01*
X173322940Y-92179150D01*
X172976906Y-92218139D01*
X172976894Y-92218141D01*
X172637380Y-92295632D01*
X172637372Y-92295635D01*
X172308682Y-92410649D01*
X171994934Y-92561742D01*
X171700065Y-92747021D01*
X171700063Y-92747022D01*
X171427808Y-92964137D01*
X171181552Y-93210393D01*
X170964437Y-93482648D01*
X170964436Y-93482650D01*
X170779157Y-93777519D01*
X170628064Y-94091267D01*
X170513050Y-94419957D01*
X170513047Y-94419965D01*
X170435556Y-94759479D01*
X170435554Y-94759491D01*
X170396565Y-95105525D01*
X161800499Y-95105525D01*
X161800499Y-95012676D01*
X161820184Y-94945637D01*
X161836818Y-94924995D01*
X161875499Y-94886314D01*
X161941391Y-94772186D01*
X161975499Y-94644892D01*
X161975499Y-94513108D01*
X161958268Y-94448800D01*
X161958553Y-94436802D01*
X161954359Y-94425556D01*
X161959369Y-94402521D01*
X161959931Y-94378954D01*
X161967030Y-94367306D01*
X161969211Y-94357283D01*
X161986722Y-94333890D01*
X164328915Y-94333890D01*
X164328915Y-94465674D01*
X164338978Y-94503229D01*
X164363023Y-94592969D01*
X164393000Y-94644890D01*
X164428915Y-94707096D01*
X164522101Y-94800282D01*
X164636229Y-94866174D01*
X164763523Y-94900282D01*
X164763525Y-94900282D01*
X164895305Y-94900282D01*
X164895307Y-94900282D01*
X165022601Y-94866174D01*
X165136729Y-94800282D01*
X165229915Y-94707096D01*
X165295807Y-94592968D01*
X165329915Y-94465674D01*
X165329915Y-94333890D01*
X165295807Y-94206596D01*
X165229915Y-94092468D01*
X165136729Y-93999282D01*
X165077077Y-93964842D01*
X165022602Y-93933390D01*
X164927175Y-93907821D01*
X164895307Y-93899282D01*
X164763523Y-93899282D01*
X164636227Y-93933390D01*
X164522101Y-93999282D01*
X164522098Y-93999284D01*
X164428917Y-94092465D01*
X164428915Y-94092468D01*
X164363023Y-94206594D01*
X164354586Y-94238082D01*
X164328915Y-94333890D01*
X161986722Y-94333890D01*
X161990359Y-94329032D01*
X162624144Y-93695248D01*
X162685467Y-93661763D01*
X162711825Y-93658929D01*
X163251962Y-93658929D01*
X163251964Y-93658929D01*
X163334750Y-93636747D01*
X163408973Y-93593894D01*
X163871640Y-93131227D01*
X163932963Y-93097742D01*
X163959321Y-93094908D01*
X165167424Y-93094908D01*
X165167426Y-93094908D01*
X165250212Y-93072726D01*
X165324435Y-93029873D01*
X166216732Y-92137574D01*
X166278055Y-92104090D01*
X166304413Y-92101256D01*
X166359115Y-92101256D01*
X166359117Y-92101256D01*
X166486411Y-92067148D01*
X166600539Y-92001256D01*
X166693725Y-91908070D01*
X166759617Y-91793942D01*
X166793725Y-91666648D01*
X166793725Y-91567443D01*
X166801652Y-91527587D01*
X166801214Y-91527470D01*
X166803007Y-91520775D01*
X166803164Y-91519990D01*
X166803314Y-91519625D01*
X166803318Y-91519619D01*
X166825500Y-91436834D01*
X166825500Y-87434108D01*
X168553300Y-87434108D01*
X168553300Y-87565892D01*
X168554777Y-87571404D01*
X168587408Y-87693187D01*
X168611862Y-87735542D01*
X168653300Y-87807314D01*
X168746486Y-87900500D01*
X168860614Y-87966392D01*
X168987908Y-88000500D01*
X168987910Y-88000500D01*
X169119690Y-88000500D01*
X169119692Y-88000500D01*
X169246986Y-87966392D01*
X169361114Y-87900500D01*
X169454300Y-87807314D01*
X169520192Y-87693186D01*
X169554300Y-87565892D01*
X169554300Y-87434108D01*
X169520192Y-87306814D01*
X169454300Y-87192686D01*
X169361114Y-87099500D01*
X169302900Y-87065890D01*
X169246987Y-87033608D01*
X169183339Y-87016554D01*
X169119692Y-86999500D01*
X168987908Y-86999500D01*
X168860612Y-87033608D01*
X168746486Y-87099500D01*
X168746483Y-87099502D01*
X168653302Y-87192683D01*
X168653300Y-87192686D01*
X168587408Y-87306812D01*
X168571673Y-87365537D01*
X168553300Y-87434108D01*
X166825500Y-87434108D01*
X166825500Y-86957147D01*
X166825500Y-86833254D01*
X167295573Y-86833254D01*
X167295573Y-86965038D01*
X167298971Y-86977719D01*
X167329681Y-87092333D01*
X167352821Y-87132412D01*
X167395573Y-87206460D01*
X167488759Y-87299646D01*
X167602887Y-87365538D01*
X167730181Y-87399646D01*
X167730183Y-87399646D01*
X167861963Y-87399646D01*
X167861965Y-87399646D01*
X167989259Y-87365538D01*
X168103387Y-87299646D01*
X168196573Y-87206460D01*
X168262465Y-87092332D01*
X168296573Y-86965038D01*
X168296573Y-86833254D01*
X168262465Y-86705960D01*
X168255090Y-86693187D01*
X168241937Y-86670405D01*
X168196573Y-86591832D01*
X168103387Y-86498646D01*
X168046323Y-86465700D01*
X167989260Y-86432754D01*
X167925612Y-86415700D01*
X167861965Y-86398646D01*
X167730181Y-86398646D01*
X167602885Y-86432754D01*
X167488759Y-86498646D01*
X167488756Y-86498648D01*
X167395575Y-86591829D01*
X167395573Y-86591832D01*
X167329681Y-86705958D01*
X167302523Y-86807316D01*
X167295573Y-86833254D01*
X166825500Y-86833254D01*
X166825500Y-86186189D01*
X166845185Y-86119150D01*
X166861819Y-86098508D01*
X170098508Y-82861819D01*
X170159831Y-82828334D01*
X170186189Y-82825500D01*
X170566324Y-82825500D01*
X170633363Y-82845185D01*
X170654005Y-82861819D01*
X170692686Y-82900500D01*
X170806814Y-82966392D01*
X170934108Y-83000500D01*
X170934110Y-83000500D01*
X171065890Y-83000500D01*
X171065892Y-83000500D01*
X171193186Y-82966392D01*
X171307314Y-82900500D01*
X171400500Y-82807314D01*
X171466392Y-82693186D01*
X171500500Y-82565892D01*
X171500500Y-82434108D01*
X171466392Y-82306814D01*
X171400500Y-82192686D01*
X171307314Y-82099500D01*
X171226523Y-82052855D01*
X171193187Y-82033608D01*
X171129539Y-82016554D01*
X171065892Y-81999500D01*
X170934108Y-81999500D01*
X170806812Y-82033608D01*
X170692686Y-82099500D01*
X170692683Y-82099502D01*
X170654005Y-82138181D01*
X170592682Y-82171666D01*
X170566324Y-82174500D01*
X169957147Y-82174500D01*
X169874362Y-82196682D01*
X169874355Y-82196685D01*
X169800144Y-82239530D01*
X169800136Y-82239536D01*
X166587681Y-85451992D01*
X166526358Y-85485477D01*
X166456666Y-85480493D01*
X166412319Y-85451992D01*
X164861819Y-83901492D01*
X164828334Y-83840169D01*
X164825500Y-83813811D01*
X164825500Y-82052855D01*
X164825501Y-82052842D01*
X164825501Y-81957148D01*
X164825501Y-81957147D01*
X164803318Y-81874361D01*
X164781891Y-81837250D01*
X164760465Y-81800138D01*
X164699862Y-81739535D01*
X164699859Y-81739533D01*
X162036819Y-79076492D01*
X162003334Y-79015169D01*
X162000500Y-78988811D01*
X162000500Y-78934110D01*
X162000500Y-78934108D01*
X161966392Y-78806814D01*
X161900500Y-78692686D01*
X161807314Y-78599500D01*
X161750250Y-78566554D01*
X161693187Y-78533608D01*
X161629539Y-78516554D01*
X161565892Y-78499500D01*
X161434108Y-78499500D01*
X161306812Y-78533608D01*
X161192686Y-78599500D01*
X161192683Y-78599502D01*
X161099502Y-78692683D01*
X161099500Y-78692686D01*
X161033608Y-78806812D01*
X160999500Y-78934108D01*
X160999500Y-79065891D01*
X161033608Y-79193187D01*
X161059950Y-79238812D01*
X161099500Y-79307314D01*
X161192686Y-79400500D01*
X161306814Y-79466392D01*
X161434108Y-79500500D01*
X161488811Y-79500500D01*
X161555850Y-79520185D01*
X161576492Y-79536819D01*
X164138181Y-82098507D01*
X164171666Y-82159830D01*
X164174500Y-82186188D01*
X164174500Y-83957147D01*
X164174500Y-84042853D01*
X164180791Y-84066330D01*
X164196682Y-84125640D01*
X164218108Y-84162750D01*
X164239535Y-84199862D01*
X164239537Y-84199864D01*
X164426496Y-84386823D01*
X164459981Y-84448146D01*
X164454997Y-84517838D01*
X164413125Y-84573771D01*
X164347661Y-84598188D01*
X164279388Y-84583336D01*
X164276815Y-84581891D01*
X164193189Y-84533609D01*
X164193186Y-84533608D01*
X164065892Y-84499500D01*
X163934108Y-84499500D01*
X163806812Y-84533608D01*
X163692686Y-84599500D01*
X163692683Y-84599502D01*
X163599502Y-84692683D01*
X163599500Y-84692686D01*
X163533608Y-84806812D01*
X163515508Y-84874363D01*
X163499500Y-84934108D01*
X163499500Y-85065892D01*
X163508239Y-85098506D01*
X163533608Y-85193187D01*
X163566554Y-85250250D01*
X163599500Y-85307314D01*
X163692686Y-85400500D01*
X163806814Y-85466392D01*
X163934108Y-85500500D01*
X163934110Y-85500500D01*
X164065890Y-85500500D01*
X164065892Y-85500500D01*
X164193186Y-85466392D01*
X164307314Y-85400500D01*
X164400500Y-85307314D01*
X164466392Y-85193186D01*
X164500500Y-85065892D01*
X164500500Y-84934108D01*
X164466392Y-84806814D01*
X164418107Y-84723183D01*
X164401635Y-84655285D01*
X164424487Y-84589258D01*
X164479408Y-84546067D01*
X164548961Y-84539425D01*
X164611064Y-84571440D01*
X164613176Y-84573503D01*
X166138181Y-86098508D01*
X166171666Y-86159831D01*
X166174500Y-86186189D01*
X166174500Y-91020666D01*
X166154815Y-91087705D01*
X166106604Y-91129479D01*
X166107078Y-91130300D01*
X166102822Y-91132757D01*
X166102011Y-91133460D01*
X166100356Y-91134180D01*
X165985911Y-91200256D01*
X165985908Y-91200258D01*
X165892727Y-91293439D01*
X165892725Y-91293442D01*
X165826833Y-91407568D01*
X165792725Y-91534864D01*
X165792725Y-91589567D01*
X165773040Y-91656606D01*
X165756406Y-91677248D01*
X165026065Y-92407589D01*
X164964742Y-92441074D01*
X164938384Y-92443908D01*
X163730279Y-92443908D01*
X163686693Y-92455586D01*
X163616844Y-92453921D01*
X163558982Y-92414757D01*
X163534829Y-92367906D01*
X163507457Y-92265749D01*
X163441565Y-92151621D01*
X163348379Y-92058435D01*
X163291315Y-92025489D01*
X163234252Y-91992543D01*
X163170604Y-91975489D01*
X163106957Y-91958435D01*
X162975173Y-91958435D01*
X162847877Y-91992543D01*
X162733751Y-92058435D01*
X162733748Y-92058437D01*
X162640567Y-92151618D01*
X162640565Y-92151621D01*
X162574673Y-92265747D01*
X162540565Y-92393043D01*
X162540565Y-92524826D01*
X162574673Y-92652122D01*
X162604001Y-92702919D01*
X162640565Y-92766249D01*
X162640567Y-92766251D01*
X162670564Y-92796248D01*
X162681176Y-92815684D01*
X162695677Y-92832418D01*
X162697593Y-92845749D01*
X162704049Y-92857571D01*
X162702469Y-92879657D01*
X162705621Y-92901576D01*
X162700025Y-92913827D01*
X162699065Y-92927263D01*
X162685794Y-92944989D01*
X162676596Y-92965132D01*
X162665264Y-92972414D01*
X162657193Y-92983196D01*
X162636447Y-92990933D01*
X162617818Y-93002906D01*
X162595899Y-93006057D01*
X162591729Y-93007613D01*
X162582883Y-93007929D01*
X162576102Y-93007929D01*
X162576086Y-93007928D01*
X162568490Y-93007928D01*
X162482785Y-93007928D01*
X162410562Y-93027280D01*
X162400883Y-93029874D01*
X162400882Y-93029873D01*
X162399999Y-93030110D01*
X162399998Y-93030111D01*
X162325778Y-93072961D01*
X162325773Y-93072965D01*
X162265172Y-93133566D01*
X162265172Y-93133567D01*
X162265170Y-93133569D01*
X162188352Y-93210387D01*
X162149920Y-93248819D01*
X162088597Y-93282303D01*
X162018905Y-93277319D01*
X161962972Y-93235447D01*
X161954852Y-93223137D01*
X161931362Y-93182452D01*
X161898537Y-93125597D01*
X161898533Y-93125593D01*
X161848078Y-93075137D01*
X161814594Y-93013814D01*
X161819579Y-92944122D01*
X161828374Y-92925456D01*
X161828449Y-92925327D01*
X161883362Y-92830215D01*
X161917470Y-92702921D01*
X161917470Y-92571137D01*
X161883362Y-92443843D01*
X161817470Y-92329715D01*
X161724284Y-92236529D01*
X161630624Y-92182454D01*
X161610157Y-92170637D01*
X161539175Y-92151618D01*
X161482862Y-92136529D01*
X161351078Y-92136529D01*
X161223782Y-92170637D01*
X161109656Y-92236529D01*
X161109653Y-92236531D01*
X161016472Y-92329712D01*
X161016470Y-92329715D01*
X160950578Y-92443841D01*
X160928468Y-92526358D01*
X160916470Y-92571137D01*
X160916470Y-92702921D01*
X160928287Y-92747022D01*
X160950578Y-92830216D01*
X160966372Y-92857571D01*
X161016470Y-92944343D01*
X161016472Y-92944345D01*
X161066927Y-92994800D01*
X161100412Y-93056123D01*
X161095428Y-93125815D01*
X161086633Y-93144481D01*
X161031646Y-93239721D01*
X161031646Y-93239722D01*
X161031645Y-93239724D01*
X161031645Y-93239725D01*
X161016490Y-93296286D01*
X160997537Y-93367019D01*
X160997537Y-93498802D01*
X161031645Y-93626098D01*
X161052237Y-93661763D01*
X161097537Y-93740225D01*
X161190723Y-93833411D01*
X161278537Y-93884110D01*
X161288263Y-93889726D01*
X161305516Y-93907821D01*
X161325529Y-93922803D01*
X161329209Y-93932670D01*
X161336478Y-93940294D01*
X161341208Y-93964842D01*
X161349946Y-93988267D01*
X161347706Y-93998559D01*
X161349700Y-94008901D01*
X161340408Y-94032109D01*
X161335094Y-94056540D01*
X161325493Y-94069364D01*
X161323732Y-94073765D01*
X161313943Y-94084794D01*
X161303570Y-94095167D01*
X161277889Y-94114873D01*
X161167688Y-94178497D01*
X161167682Y-94178502D01*
X161074501Y-94271683D01*
X161074499Y-94271686D01*
X161008607Y-94385812D01*
X160974499Y-94513108D01*
X160974499Y-94567811D01*
X160965854Y-94597251D01*
X160959331Y-94627238D01*
X160955576Y-94632253D01*
X160954814Y-94634850D01*
X160938180Y-94655492D01*
X160775491Y-94818181D01*
X160714168Y-94851666D01*
X160687810Y-94854500D01*
X160262188Y-94854500D01*
X160195149Y-94834815D01*
X160174507Y-94818181D01*
X160011818Y-94655492D01*
X159978333Y-94594169D01*
X159975499Y-94567811D01*
X159975499Y-94513110D01*
X159975499Y-94513108D01*
X159941391Y-94385814D01*
X159875499Y-94271686D01*
X159782313Y-94178500D01*
X159725249Y-94145554D01*
X159668186Y-94112608D01*
X159593021Y-94092468D01*
X159540891Y-94078500D01*
X159409107Y-94078500D01*
X159281811Y-94112608D01*
X159167685Y-94178500D01*
X159167682Y-94178502D01*
X159074501Y-94271683D01*
X159074499Y-94271686D01*
X159008607Y-94385812D01*
X158974499Y-94513108D01*
X158974499Y-94567811D01*
X158954814Y-94634850D01*
X158938180Y-94655492D01*
X156955491Y-96638181D01*
X156894168Y-96671666D01*
X156867810Y-96674500D01*
X154840491Y-96674500D01*
X154773452Y-96654815D01*
X154727697Y-96602011D01*
X154717753Y-96532853D01*
X154733104Y-96488500D01*
X154797716Y-96376588D01*
X154797718Y-96376585D01*
X154831826Y-96249291D01*
X154831826Y-96117507D01*
X154797718Y-95990213D01*
X154731826Y-95876085D01*
X154668144Y-95812403D01*
X154634660Y-95751079D01*
X154631826Y-95724722D01*
X154631826Y-93149763D01*
X156289374Y-93149763D01*
X156289374Y-93281547D01*
X156293323Y-93296286D01*
X156323482Y-93408842D01*
X156356428Y-93465905D01*
X156389374Y-93522969D01*
X156482560Y-93616155D01*
X156596688Y-93682047D01*
X156723982Y-93716155D01*
X156723984Y-93716155D01*
X156855764Y-93716155D01*
X156855766Y-93716155D01*
X156983060Y-93682047D01*
X157097188Y-93616155D01*
X157190374Y-93522969D01*
X157256266Y-93408841D01*
X157290374Y-93281547D01*
X157290374Y-93149763D01*
X157256266Y-93022469D01*
X157190374Y-92908341D01*
X157097188Y-92815155D01*
X157012479Y-92766248D01*
X156983061Y-92749263D01*
X156919413Y-92732209D01*
X156855766Y-92715155D01*
X156723982Y-92715155D01*
X156596686Y-92749263D01*
X156482560Y-92815155D01*
X156482557Y-92815157D01*
X156389376Y-92908338D01*
X156389374Y-92908341D01*
X156323482Y-93022467D01*
X156304072Y-93094907D01*
X156289374Y-93149763D01*
X154631826Y-93149763D01*
X154631826Y-91934108D01*
X154999500Y-91934108D01*
X154999500Y-92065892D01*
X155008976Y-92101256D01*
X155033608Y-92193187D01*
X155058632Y-92236529D01*
X155099500Y-92307314D01*
X155192686Y-92400500D01*
X155306814Y-92466392D01*
X155434108Y-92500500D01*
X155434110Y-92500500D01*
X155565890Y-92500500D01*
X155565892Y-92500500D01*
X155693186Y-92466392D01*
X155807314Y-92400500D01*
X155900500Y-92307314D01*
X155966392Y-92193186D01*
X156000500Y-92065892D01*
X156000500Y-91934108D01*
X157499500Y-91934108D01*
X157499500Y-92065892D01*
X157508976Y-92101256D01*
X157533608Y-92193187D01*
X157558632Y-92236529D01*
X157599500Y-92307314D01*
X157692686Y-92400500D01*
X157806814Y-92466392D01*
X157934108Y-92500500D01*
X157934110Y-92500500D01*
X158065890Y-92500500D01*
X158065892Y-92500500D01*
X158193186Y-92466392D01*
X158307314Y-92400500D01*
X158400500Y-92307314D01*
X158466392Y-92193186D01*
X158500500Y-92065892D01*
X158500500Y-91934108D01*
X158466392Y-91806814D01*
X158400500Y-91692686D01*
X158307314Y-91599500D01*
X158250250Y-91566554D01*
X158193187Y-91533608D01*
X158120533Y-91514141D01*
X158065892Y-91499500D01*
X157934108Y-91499500D01*
X157806812Y-91533608D01*
X157692686Y-91599500D01*
X157692683Y-91599502D01*
X157599502Y-91692683D01*
X157599500Y-91692686D01*
X157533608Y-91806812D01*
X157506535Y-91907852D01*
X157499500Y-91934108D01*
X156000500Y-91934108D01*
X155966392Y-91806814D01*
X155900500Y-91692686D01*
X155807314Y-91599500D01*
X155750250Y-91566554D01*
X155693187Y-91533608D01*
X155620533Y-91514141D01*
X155565892Y-91499500D01*
X155434108Y-91499500D01*
X155306812Y-91533608D01*
X155192686Y-91599500D01*
X155192683Y-91599502D01*
X155099502Y-91692683D01*
X155099500Y-91692686D01*
X155033608Y-91806812D01*
X155006535Y-91907852D01*
X154999500Y-91934108D01*
X154631826Y-91934108D01*
X154631826Y-91344506D01*
X154651511Y-91277467D01*
X154668140Y-91256829D01*
X154740861Y-91184108D01*
X163249500Y-91184108D01*
X163249500Y-91315891D01*
X163283608Y-91443187D01*
X163301825Y-91474739D01*
X163349500Y-91557314D01*
X163442686Y-91650500D01*
X163556814Y-91716392D01*
X163684108Y-91750500D01*
X163684110Y-91750500D01*
X163815890Y-91750500D01*
X163815892Y-91750500D01*
X163943186Y-91716392D01*
X164057314Y-91650500D01*
X164150500Y-91557314D01*
X164216392Y-91443186D01*
X164250500Y-91315892D01*
X164250500Y-91184108D01*
X164216392Y-91056814D01*
X164150500Y-90942686D01*
X164057314Y-90849500D01*
X164000250Y-90816554D01*
X163943187Y-90783608D01*
X163879539Y-90766554D01*
X163815892Y-90749500D01*
X163684108Y-90749500D01*
X163556812Y-90783608D01*
X163442686Y-90849500D01*
X163442683Y-90849502D01*
X163349502Y-90942683D01*
X163349500Y-90942686D01*
X163283608Y-91056812D01*
X163249500Y-91184108D01*
X154740861Y-91184108D01*
X155415383Y-90509586D01*
X155476704Y-90476103D01*
X155546395Y-90481087D01*
X155602329Y-90522958D01*
X155622837Y-90565175D01*
X155623029Y-90565890D01*
X155623029Y-90565892D01*
X155657137Y-90693186D01*
X155723029Y-90807314D01*
X155816215Y-90900500D01*
X155930343Y-90966392D01*
X156057637Y-91000500D01*
X156057639Y-91000500D01*
X156189419Y-91000500D01*
X156189421Y-91000500D01*
X156316715Y-90966392D01*
X156430843Y-90900500D01*
X156524029Y-90807314D01*
X156589921Y-90693186D01*
X156624029Y-90565892D01*
X156624029Y-90434108D01*
X156589921Y-90306814D01*
X156524029Y-90192686D01*
X156430843Y-90099500D01*
X156327028Y-90039562D01*
X156316716Y-90033608D01*
X156253068Y-90016554D01*
X156189421Y-89999500D01*
X156057637Y-89999500D01*
X156057635Y-89999500D01*
X155956592Y-90026574D01*
X155886743Y-90024911D01*
X155828880Y-89985748D01*
X155801377Y-89921519D01*
X155800500Y-89906799D01*
X155800500Y-86960439D01*
X155800500Y-86960438D01*
X155791002Y-86924992D01*
X155780022Y-86884012D01*
X155740460Y-86815489D01*
X155359079Y-86434108D01*
X157999500Y-86434108D01*
X157999500Y-86565891D01*
X158033608Y-86693187D01*
X158040983Y-86705960D01*
X158099500Y-86807314D01*
X158192686Y-86900500D01*
X158306814Y-86966392D01*
X158434108Y-87000500D01*
X158434110Y-87000500D01*
X158565890Y-87000500D01*
X158565892Y-87000500D01*
X158693186Y-86966392D01*
X158749103Y-86934108D01*
X159999500Y-86934108D01*
X159999500Y-87065892D01*
X160014487Y-87121826D01*
X160033608Y-87193187D01*
X160045641Y-87214028D01*
X160099500Y-87307314D01*
X160192686Y-87400500D01*
X160306814Y-87466392D01*
X160434108Y-87500500D01*
X160434110Y-87500500D01*
X160565890Y-87500500D01*
X160565892Y-87500500D01*
X160693186Y-87466392D01*
X160807314Y-87400500D01*
X160900500Y-87307314D01*
X160966392Y-87193186D01*
X160990018Y-87105013D01*
X161284495Y-87105013D01*
X161284495Y-87236796D01*
X161318603Y-87364092D01*
X161339130Y-87399645D01*
X161384495Y-87478219D01*
X161477681Y-87571405D01*
X161591809Y-87637297D01*
X161719103Y-87671405D01*
X161719105Y-87671405D01*
X161850885Y-87671405D01*
X161850887Y-87671405D01*
X161978181Y-87637297D01*
X162092309Y-87571405D01*
X162185495Y-87478219D01*
X162251387Y-87364091D01*
X162285495Y-87236797D01*
X162285495Y-87105013D01*
X162251387Y-86977719D01*
X162185495Y-86863591D01*
X162092309Y-86770405D01*
X162035245Y-86737459D01*
X161978182Y-86704513D01*
X161914534Y-86687459D01*
X161850887Y-86670405D01*
X161719103Y-86670405D01*
X161591807Y-86704513D01*
X161477681Y-86770405D01*
X161477678Y-86770407D01*
X161384497Y-86863588D01*
X161384495Y-86863591D01*
X161318603Y-86977717D01*
X161284495Y-87105013D01*
X160990018Y-87105013D01*
X161000500Y-87065892D01*
X161000500Y-86934108D01*
X160966392Y-86806814D01*
X160900500Y-86692686D01*
X160807314Y-86599500D01*
X160693186Y-86533608D01*
X160565892Y-86499500D01*
X160434108Y-86499500D01*
X160306812Y-86533608D01*
X160192686Y-86599500D01*
X160192683Y-86599502D01*
X160099502Y-86692683D01*
X160099500Y-86692686D01*
X160033608Y-86806812D01*
X160007629Y-86903771D01*
X159999500Y-86934108D01*
X158749103Y-86934108D01*
X158807314Y-86900500D01*
X158900500Y-86807314D01*
X158966392Y-86693186D01*
X159000500Y-86565892D01*
X159000500Y-86434108D01*
X162999500Y-86434108D01*
X162999500Y-86565891D01*
X163033608Y-86693187D01*
X163040983Y-86705960D01*
X163099500Y-86807314D01*
X163192686Y-86900500D01*
X163306814Y-86966392D01*
X163434108Y-87000500D01*
X163434110Y-87000500D01*
X163565890Y-87000500D01*
X163565892Y-87000500D01*
X163693186Y-86966392D01*
X163807314Y-86900500D01*
X163900500Y-86807314D01*
X163966392Y-86693186D01*
X164000500Y-86565892D01*
X164000500Y-86434108D01*
X163966392Y-86306814D01*
X163900500Y-86192686D01*
X163807314Y-86099500D01*
X163703499Y-86039562D01*
X163693187Y-86033608D01*
X163629539Y-86016554D01*
X163565892Y-85999500D01*
X163434108Y-85999500D01*
X163306812Y-86033608D01*
X163192686Y-86099500D01*
X163192683Y-86099502D01*
X163099502Y-86192683D01*
X163099500Y-86192686D01*
X163033608Y-86306812D01*
X162999500Y-86434108D01*
X159000500Y-86434108D01*
X158966392Y-86306814D01*
X158900500Y-86192686D01*
X158807314Y-86099500D01*
X158703499Y-86039562D01*
X158693187Y-86033608D01*
X158629539Y-86016554D01*
X158565892Y-85999500D01*
X158434108Y-85999500D01*
X158306812Y-86033608D01*
X158192686Y-86099500D01*
X158192683Y-86099502D01*
X158099502Y-86192683D01*
X158099500Y-86192686D01*
X158033608Y-86306812D01*
X157999500Y-86434108D01*
X155359079Y-86434108D01*
X154836819Y-85911848D01*
X154803334Y-85850525D01*
X154800500Y-85824167D01*
X154800500Y-85081594D01*
X154820185Y-85014555D01*
X154836819Y-84993913D01*
X154900500Y-84930232D01*
X154966392Y-84816104D01*
X155000500Y-84688810D01*
X155000500Y-84557026D01*
X154966392Y-84429732D01*
X154900500Y-84315604D01*
X154836818Y-84251922D01*
X154803334Y-84190598D01*
X154800500Y-84164241D01*
X154800500Y-81675833D01*
X154820185Y-81608794D01*
X154836819Y-81588152D01*
X162490863Y-73934108D01*
X163999500Y-73934108D01*
X163999500Y-74065892D01*
X164006707Y-74092790D01*
X164033608Y-74193187D01*
X164039719Y-74203771D01*
X164099500Y-74307314D01*
X164192686Y-74400500D01*
X164306814Y-74466392D01*
X164434108Y-74500500D01*
X164434110Y-74500500D01*
X164524167Y-74500500D01*
X164591206Y-74520185D01*
X164611848Y-74536819D01*
X169691540Y-79616511D01*
X169747489Y-79672460D01*
X169747491Y-79672461D01*
X169747495Y-79672464D01*
X169816004Y-79712017D01*
X169816011Y-79712021D01*
X169892438Y-79732500D01*
X169971562Y-79732500D01*
X183041324Y-79732500D01*
X183108363Y-79752185D01*
X183129005Y-79768819D01*
X183192686Y-79832500D01*
X183306814Y-79898392D01*
X183434108Y-79932500D01*
X183434110Y-79932500D01*
X183565890Y-79932500D01*
X183565892Y-79932500D01*
X183693186Y-79898392D01*
X183807314Y-79832500D01*
X183900500Y-79739314D01*
X183966392Y-79625186D01*
X184000500Y-79497892D01*
X184000500Y-79366108D01*
X183966392Y-79238814D01*
X183900500Y-79124686D01*
X183807314Y-79031500D01*
X183733375Y-78988811D01*
X183693187Y-78965608D01*
X183629539Y-78948554D01*
X183565892Y-78931500D01*
X183434108Y-78931500D01*
X183306812Y-78965608D01*
X183192686Y-79031500D01*
X183192683Y-79031502D01*
X183129005Y-79095181D01*
X183067682Y-79128666D01*
X183041324Y-79131500D01*
X170107833Y-79131500D01*
X170040794Y-79111815D01*
X170020152Y-79095181D01*
X165859079Y-74934108D01*
X174999500Y-74934108D01*
X174999500Y-75065891D01*
X175033608Y-75193187D01*
X175055156Y-75230508D01*
X175099500Y-75307314D01*
X175192686Y-75400500D01*
X175306814Y-75466392D01*
X175434108Y-75500500D01*
X175434110Y-75500500D01*
X175565890Y-75500500D01*
X175565892Y-75500500D01*
X175693186Y-75466392D01*
X175807314Y-75400500D01*
X175900500Y-75307314D01*
X175966392Y-75193186D01*
X176000500Y-75065892D01*
X176000500Y-74934108D01*
X175966392Y-74806814D01*
X175900500Y-74692686D01*
X175807314Y-74599500D01*
X175727027Y-74553146D01*
X175693187Y-74533608D01*
X175629539Y-74516554D01*
X175565892Y-74499500D01*
X175434108Y-74499500D01*
X175306812Y-74533608D01*
X175192686Y-74599500D01*
X175192683Y-74599502D01*
X175099502Y-74692683D01*
X175099500Y-74692686D01*
X175033608Y-74806812D01*
X174999500Y-74934108D01*
X165859079Y-74934108D01*
X165036819Y-74111848D01*
X165003334Y-74050525D01*
X165000500Y-74024167D01*
X165000500Y-73934110D01*
X165000500Y-73934108D01*
X164966392Y-73806814D01*
X164900500Y-73692686D01*
X164807314Y-73599500D01*
X164750250Y-73566554D01*
X164693187Y-73533608D01*
X164629539Y-73516554D01*
X164565892Y-73499500D01*
X164434108Y-73499500D01*
X164306812Y-73533608D01*
X164192686Y-73599500D01*
X164192683Y-73599502D01*
X164099502Y-73692683D01*
X164099500Y-73692686D01*
X164033608Y-73806812D01*
X164025171Y-73838300D01*
X163999500Y-73934108D01*
X162490863Y-73934108D01*
X162586671Y-73838300D01*
X164576463Y-71848508D01*
X166590461Y-69834510D01*
X166622754Y-69778576D01*
X166630022Y-69765988D01*
X166650501Y-69689561D01*
X166650501Y-61164399D01*
X170396565Y-61164399D01*
X170396565Y-61512648D01*
X170435554Y-61858682D01*
X170435556Y-61858694D01*
X170513047Y-62198208D01*
X170513050Y-62198216D01*
X170628064Y-62526906D01*
X170779157Y-62840654D01*
X170964436Y-63135523D01*
X170964437Y-63135525D01*
X171181552Y-63407780D01*
X171427808Y-63654036D01*
X171700063Y-63871151D01*
X171700066Y-63871152D01*
X171700068Y-63871154D01*
X171994932Y-64056430D01*
X172308686Y-64207526D01*
X172468960Y-64263608D01*
X172637372Y-64322538D01*
X172637380Y-64322541D01*
X172637383Y-64322541D01*
X172637384Y-64322542D01*
X172976894Y-64400033D01*
X173322941Y-64439023D01*
X173322942Y-64439024D01*
X173322945Y-64439024D01*
X173671188Y-64439024D01*
X173671188Y-64439023D01*
X174017236Y-64400033D01*
X174356746Y-64322542D01*
X174685444Y-64207526D01*
X174999198Y-64056430D01*
X175294062Y-63871154D01*
X175491681Y-63713559D01*
X175566321Y-63654036D01*
X175566323Y-63654033D01*
X175566328Y-63654030D01*
X175812571Y-63407787D01*
X175816123Y-63403334D01*
X176029692Y-63135525D01*
X176029693Y-63135523D01*
X176029695Y-63135521D01*
X176214971Y-62840657D01*
X176366067Y-62526903D01*
X176481083Y-62198205D01*
X176558574Y-61858695D01*
X176597565Y-61512644D01*
X176597565Y-61164404D01*
X176558574Y-60818353D01*
X176481083Y-60478843D01*
X176366067Y-60150145D01*
X176214971Y-59836391D01*
X176029695Y-59541527D01*
X176029693Y-59541524D01*
X176029692Y-59541522D01*
X175812577Y-59269267D01*
X175566321Y-59023011D01*
X175294066Y-58805896D01*
X175294064Y-58805895D01*
X174999195Y-58620616D01*
X174685447Y-58469523D01*
X174356757Y-58354509D01*
X174356749Y-58354506D01*
X174102113Y-58296387D01*
X174017236Y-58277015D01*
X174017232Y-58277014D01*
X174017223Y-58277013D01*
X173671189Y-58238024D01*
X173671185Y-58238024D01*
X173322945Y-58238024D01*
X173322940Y-58238024D01*
X172976906Y-58277013D01*
X172976894Y-58277015D01*
X172637380Y-58354506D01*
X172637372Y-58354509D01*
X172308682Y-58469523D01*
X171994934Y-58620616D01*
X171700065Y-58805895D01*
X171700063Y-58805896D01*
X171427808Y-59023011D01*
X171181552Y-59269267D01*
X170964437Y-59541522D01*
X170964436Y-59541524D01*
X170779157Y-59836393D01*
X170628064Y-60150141D01*
X170513050Y-60478831D01*
X170513047Y-60478839D01*
X170435556Y-60818353D01*
X170435554Y-60818365D01*
X170396565Y-61164399D01*
X166650501Y-61164399D01*
X166650501Y-61008675D01*
X166670186Y-60941636D01*
X166686820Y-60920994D01*
X166750501Y-60857313D01*
X166816393Y-60743185D01*
X166850501Y-60615891D01*
X166850501Y-60484107D01*
X166816393Y-60356813D01*
X166750501Y-60242685D01*
X166657315Y-60149499D01*
X166600251Y-60116553D01*
X166543188Y-60083607D01*
X166447985Y-60058098D01*
X166415893Y-60049499D01*
X166284109Y-60049499D01*
X166156813Y-60083607D01*
X166042687Y-60149499D01*
X166042684Y-60149501D01*
X165949503Y-60242682D01*
X165949501Y-60242685D01*
X165883609Y-60356811D01*
X165854164Y-60466705D01*
X165849501Y-60484107D01*
X165849501Y-60615891D01*
X165862301Y-60663662D01*
X165883609Y-60743186D01*
X165916555Y-60800249D01*
X165949501Y-60857313D01*
X165949503Y-60857315D01*
X166013182Y-60920994D01*
X166046667Y-60982317D01*
X166049501Y-61008675D01*
X166049501Y-69474166D01*
X166029816Y-69541205D01*
X166013182Y-69561847D01*
X161008511Y-74566517D01*
X160947188Y-74600002D01*
X160877496Y-74595018D01*
X160821563Y-74553146D01*
X160813443Y-74540837D01*
X160809269Y-74533608D01*
X160756858Y-74442829D01*
X160663672Y-74349643D01*
X160590356Y-74307314D01*
X160549545Y-74283751D01*
X160474402Y-74263617D01*
X160422250Y-74249643D01*
X160290466Y-74249643D01*
X160163170Y-74283751D01*
X160049044Y-74349643D01*
X160049041Y-74349645D01*
X159955860Y-74442826D01*
X159955858Y-74442829D01*
X159889966Y-74556955D01*
X159855858Y-74684251D01*
X159855858Y-74816034D01*
X159889966Y-74943330D01*
X159898034Y-74957304D01*
X159955858Y-75057457D01*
X160049044Y-75150643D01*
X160147052Y-75207228D01*
X160195267Y-75257795D01*
X160208489Y-75326403D01*
X160182521Y-75391267D01*
X160172732Y-75402296D01*
X154315489Y-81259540D01*
X154259541Y-81315487D01*
X154259535Y-81315495D01*
X154219982Y-81384004D01*
X154219979Y-81384009D01*
X154199500Y-81460439D01*
X154199500Y-84164241D01*
X154179815Y-84231280D01*
X154163182Y-84251922D01*
X154099500Y-84315604D01*
X154033608Y-84429730D01*
X153999500Y-84557026D01*
X153999500Y-84688809D01*
X154033608Y-84816105D01*
X154067243Y-84874361D01*
X154099499Y-84930231D01*
X154099502Y-84930234D01*
X154163181Y-84993913D01*
X154196666Y-85055236D01*
X154199500Y-85081594D01*
X154199500Y-86039562D01*
X154213152Y-86090513D01*
X154219979Y-86115990D01*
X154219982Y-86115995D01*
X154259535Y-86184504D01*
X154259541Y-86184512D01*
X155163181Y-87088152D01*
X155177884Y-87115079D01*
X155194477Y-87140898D01*
X155195368Y-87147098D01*
X155196666Y-87149475D01*
X155199500Y-87175833D01*
X155199500Y-87326907D01*
X155179815Y-87393946D01*
X155127011Y-87439701D01*
X155057853Y-87449645D01*
X155006610Y-87430009D01*
X154940945Y-87386133D01*
X154940941Y-87386131D01*
X154882464Y-87374500D01*
X154882460Y-87374500D01*
X154009020Y-87374500D01*
X153941981Y-87354815D01*
X153896226Y-87302011D01*
X153886282Y-87232853D01*
X153894878Y-87214028D01*
X153892660Y-87191499D01*
X153875857Y-87180271D01*
X153707529Y-87110548D01*
X153707517Y-87110545D01*
X153528821Y-87075000D01*
X153346602Y-87075000D01*
X153167906Y-87110545D01*
X153167898Y-87110547D01*
X152999552Y-87180278D01*
X152996159Y-87182092D01*
X152994178Y-87182504D01*
X152993933Y-87182606D01*
X152993913Y-87182559D01*
X152927756Y-87196331D01*
X152879265Y-87182092D01*
X152875871Y-87180278D01*
X152707525Y-87110547D01*
X152707517Y-87110545D01*
X152528821Y-87075000D01*
X152346602Y-87075000D01*
X152167906Y-87110545D01*
X152167898Y-87110547D01*
X151999560Y-87180274D01*
X151982762Y-87191498D01*
X152526807Y-87735542D01*
X152548515Y-87775298D01*
X152487440Y-87750000D01*
X152387984Y-87750000D01*
X152296098Y-87788060D01*
X152225772Y-87858386D01*
X152187712Y-87950272D01*
X152187712Y-88049728D01*
X152225772Y-88141614D01*
X152296098Y-88211940D01*
X152387984Y-88250000D01*
X152487440Y-88250000D01*
X152553752Y-88222532D01*
X152549490Y-88229164D01*
X152547959Y-88236205D01*
X152526808Y-88264459D01*
X152452581Y-88338685D01*
X152391257Y-88372169D01*
X152377064Y-88374405D01*
X152376106Y-88374499D01*
X152255267Y-88398535D01*
X152255257Y-88398538D01*
X152141428Y-88445687D01*
X152141419Y-88445692D01*
X152038979Y-88514141D01*
X152038975Y-88514144D01*
X151951856Y-88601263D01*
X151951853Y-88601267D01*
X151883404Y-88703707D01*
X151883399Y-88703716D01*
X151836250Y-88817545D01*
X151836247Y-88817555D01*
X151812212Y-88938389D01*
X151812212Y-89061610D01*
X151836247Y-89182444D01*
X151836250Y-89182454D01*
X151883399Y-89296283D01*
X151883404Y-89296292D01*
X151951853Y-89398732D01*
X151951856Y-89398736D01*
X152038975Y-89485855D01*
X152038979Y-89485858D01*
X152141419Y-89554307D01*
X152141428Y-89554312D01*
X152162451Y-89563020D01*
X152255260Y-89601463D01*
X152376101Y-89625499D01*
X152376105Y-89625500D01*
X152376106Y-89625500D01*
X152499319Y-89625500D01*
X152499320Y-89625499D01*
X152620164Y-89601463D01*
X152733998Y-89554311D01*
X152836445Y-89485858D01*
X152836448Y-89485855D01*
X152850031Y-89472273D01*
X152911354Y-89438788D01*
X152981046Y-89443772D01*
X153025393Y-89472273D01*
X153038975Y-89485855D01*
X153038979Y-89485858D01*
X153141419Y-89554307D01*
X153141428Y-89554312D01*
X153162451Y-89563020D01*
X153255260Y-89601463D01*
X153376101Y-89625499D01*
X153376105Y-89625500D01*
X153376106Y-89625500D01*
X153499319Y-89625500D01*
X153499320Y-89625499D01*
X153620164Y-89601463D01*
X153733998Y-89554311D01*
X153836445Y-89485858D01*
X153836448Y-89485855D01*
X153850031Y-89472273D01*
X153911354Y-89438788D01*
X153981046Y-89443772D01*
X154025393Y-89472273D01*
X154038975Y-89485855D01*
X154038979Y-89485858D01*
X154141419Y-89554307D01*
X154141428Y-89554312D01*
X154162451Y-89563020D01*
X154255260Y-89601463D01*
X154376101Y-89625499D01*
X154376105Y-89625500D01*
X154376106Y-89625500D01*
X154499319Y-89625500D01*
X154499320Y-89625499D01*
X154620164Y-89601463D01*
X154733998Y-89554311D01*
X154836445Y-89485858D01*
X154923570Y-89398733D01*
X154972398Y-89325657D01*
X155026010Y-89280852D01*
X155095335Y-89272145D01*
X155158362Y-89302299D01*
X155195082Y-89361742D01*
X155199500Y-89394548D01*
X155199500Y-89824167D01*
X155179815Y-89891206D01*
X155163181Y-89911848D01*
X154090867Y-90984161D01*
X154090861Y-90984169D01*
X154051308Y-91052678D01*
X154051305Y-91052683D01*
X154030826Y-91129113D01*
X154030826Y-95724722D01*
X154011141Y-95791761D01*
X153994508Y-95812403D01*
X153930826Y-95876085D01*
X153864934Y-95990211D01*
X153830826Y-96117507D01*
X153830826Y-96249290D01*
X153864935Y-96376587D01*
X153864935Y-96376588D01*
X153929548Y-96488500D01*
X153946021Y-96556400D01*
X153923169Y-96622427D01*
X153868247Y-96665617D01*
X153822161Y-96674500D01*
X152686188Y-96674500D01*
X152619149Y-96654815D01*
X152598507Y-96638181D01*
X147980310Y-92019983D01*
X147898716Y-91938389D01*
X151374500Y-91938389D01*
X151374500Y-92061610D01*
X151398535Y-92182444D01*
X151398538Y-92182454D01*
X151445687Y-92296283D01*
X151445692Y-92296292D01*
X151514141Y-92398732D01*
X151514144Y-92398736D01*
X151527727Y-92412319D01*
X151561212Y-92473642D01*
X151556228Y-92543334D01*
X151527727Y-92587681D01*
X151514144Y-92601263D01*
X151514141Y-92601267D01*
X151445692Y-92703707D01*
X151445687Y-92703716D01*
X151398538Y-92817545D01*
X151398535Y-92817555D01*
X151374500Y-92938389D01*
X151374500Y-93061610D01*
X151392035Y-93149765D01*
X151398537Y-93182452D01*
X151407246Y-93203477D01*
X151445687Y-93296283D01*
X151445692Y-93296292D01*
X151514141Y-93398732D01*
X151514144Y-93398736D01*
X151527727Y-93412319D01*
X151561212Y-93473642D01*
X151556228Y-93543334D01*
X151527727Y-93587681D01*
X151514144Y-93601263D01*
X151514141Y-93601267D01*
X151445692Y-93703707D01*
X151445687Y-93703716D01*
X151398538Y-93817545D01*
X151398535Y-93817555D01*
X151374500Y-93938389D01*
X151374500Y-94061610D01*
X151398535Y-94182444D01*
X151398538Y-94182454D01*
X151445687Y-94296283D01*
X151445692Y-94296292D01*
X151514141Y-94398732D01*
X151514144Y-94398736D01*
X151601263Y-94485855D01*
X151601267Y-94485858D01*
X151703707Y-94554307D01*
X151703713Y-94554310D01*
X151703714Y-94554311D01*
X151817548Y-94601463D01*
X151938389Y-94625499D01*
X151938393Y-94625500D01*
X151938394Y-94625500D01*
X152061607Y-94625500D01*
X152061608Y-94625499D01*
X152182452Y-94601463D01*
X152296286Y-94554311D01*
X152296285Y-94554311D01*
X152301914Y-94551980D01*
X152302805Y-94554132D01*
X152361074Y-94541997D01*
X152419272Y-94564294D01*
X152420293Y-94562767D01*
X152496769Y-94613867D01*
X152496770Y-94613868D01*
X152555247Y-94625499D01*
X152555250Y-94625500D01*
X152555252Y-94625500D01*
X153444750Y-94625500D01*
X153444751Y-94625499D01*
X153459568Y-94622552D01*
X153503229Y-94613868D01*
X153503229Y-94613867D01*
X153503231Y-94613867D01*
X153569552Y-94569552D01*
X153613867Y-94503231D01*
X153613867Y-94503229D01*
X153613868Y-94503229D01*
X153625499Y-94444752D01*
X153625500Y-94444750D01*
X153625500Y-93555249D01*
X153625499Y-93555247D01*
X153613868Y-93496770D01*
X153613867Y-93496769D01*
X153562767Y-93420293D01*
X153566458Y-93417826D01*
X153544432Y-93377489D01*
X153549416Y-93307797D01*
X153552057Y-93301945D01*
X153551980Y-93301914D01*
X153562167Y-93277319D01*
X153601463Y-93182452D01*
X153625500Y-93061606D01*
X153625500Y-92938394D01*
X153601463Y-92817548D01*
X153554311Y-92703714D01*
X153554310Y-92703713D01*
X153554307Y-92703707D01*
X153485858Y-92601267D01*
X153485855Y-92601263D01*
X153472273Y-92587681D01*
X153438788Y-92526358D01*
X153443772Y-92456666D01*
X153472273Y-92412319D01*
X153485855Y-92398736D01*
X153485858Y-92398733D01*
X153554311Y-92296286D01*
X153601463Y-92182452D01*
X153625500Y-92061606D01*
X153625500Y-91938394D01*
X153601463Y-91817548D01*
X153563020Y-91724739D01*
X153554312Y-91703716D01*
X153554307Y-91703707D01*
X153485858Y-91601267D01*
X153485855Y-91601263D01*
X153398736Y-91514144D01*
X153398732Y-91514141D01*
X153296292Y-91445692D01*
X153296283Y-91445687D01*
X153182454Y-91398538D01*
X153182455Y-91398538D01*
X153182452Y-91398537D01*
X153182448Y-91398536D01*
X153182444Y-91398535D01*
X153061610Y-91374500D01*
X153061606Y-91374500D01*
X152938394Y-91374500D01*
X152938389Y-91374500D01*
X152817555Y-91398535D01*
X152817545Y-91398538D01*
X152703716Y-91445687D01*
X152703707Y-91445692D01*
X152601267Y-91514141D01*
X152601263Y-91514144D01*
X152587681Y-91527727D01*
X152526358Y-91561212D01*
X152456666Y-91556228D01*
X152412319Y-91527727D01*
X152398736Y-91514144D01*
X152398732Y-91514141D01*
X152296292Y-91445692D01*
X152296283Y-91445687D01*
X152182454Y-91398538D01*
X152182455Y-91398538D01*
X152182452Y-91398537D01*
X152182448Y-91398536D01*
X152182444Y-91398535D01*
X152061610Y-91374500D01*
X152061606Y-91374500D01*
X151938394Y-91374500D01*
X151938389Y-91374500D01*
X151817555Y-91398535D01*
X151817545Y-91398538D01*
X151703716Y-91445687D01*
X151703707Y-91445692D01*
X151601267Y-91514141D01*
X151601263Y-91514144D01*
X151514144Y-91601263D01*
X151514141Y-91601267D01*
X151445692Y-91703707D01*
X151445687Y-91703716D01*
X151398538Y-91817545D01*
X151398535Y-91817555D01*
X151374500Y-91938389D01*
X147898716Y-91938389D01*
X147726819Y-91766492D01*
X147693334Y-91705169D01*
X147690500Y-91678811D01*
X147690500Y-91409274D01*
X147710185Y-91342235D01*
X147726819Y-91321593D01*
X147732522Y-91315890D01*
X147765500Y-91282912D01*
X147831392Y-91168784D01*
X147865500Y-91041490D01*
X147865500Y-90909706D01*
X147838065Y-90807316D01*
X147829725Y-90776189D01*
X147825500Y-90744096D01*
X147825500Y-87908890D01*
X151512712Y-87908890D01*
X151512712Y-88091109D01*
X151548257Y-88269805D01*
X151548260Y-88269817D01*
X151617983Y-88438145D01*
X151629210Y-88454947D01*
X152084158Y-88000000D01*
X152084158Y-87999999D01*
X151629210Y-87545050D01*
X151617986Y-87561848D01*
X151548259Y-87730186D01*
X151548257Y-87730194D01*
X151512712Y-87908890D01*
X147825500Y-87908890D01*
X147825500Y-85186187D01*
X147845185Y-85119148D01*
X147861814Y-85098511D01*
X157689652Y-75270672D01*
X157689657Y-75270669D01*
X157699860Y-75260465D01*
X157699862Y-75260465D01*
X157760465Y-75199862D01*
X157803318Y-75125638D01*
X157817843Y-75071431D01*
X157825501Y-75042853D01*
X157825501Y-74957147D01*
X157825500Y-74957143D01*
X157825500Y-71850041D01*
X157845185Y-71783002D01*
X157846326Y-71781258D01*
X158613354Y-70630717D01*
X158666919Y-70585856D01*
X158716528Y-70575500D01*
X159342850Y-70575500D01*
X159342852Y-70575500D01*
X159425638Y-70553318D01*
X159499861Y-70510465D01*
X161923508Y-68086818D01*
X161984831Y-68053333D01*
X162011189Y-68050499D01*
X162065890Y-68050499D01*
X162065892Y-68050499D01*
X162193186Y-68016391D01*
X162307314Y-67950499D01*
X162400500Y-67857313D01*
X162466392Y-67743185D01*
X162500500Y-67615891D01*
X162500500Y-67484107D01*
X162466392Y-67356813D01*
X162400500Y-67242685D01*
X162307314Y-67149499D01*
X162250250Y-67116553D01*
X162193187Y-67083607D01*
X162127065Y-67065890D01*
X162065892Y-67049499D01*
X161934108Y-67049499D01*
X161806812Y-67083607D01*
X161692686Y-67149499D01*
X161692683Y-67149501D01*
X161599502Y-67242682D01*
X161599500Y-67242685D01*
X161533608Y-67356811D01*
X161499500Y-67484107D01*
X161499500Y-67538810D01*
X161479815Y-67605849D01*
X161463181Y-67626491D01*
X159201491Y-69888181D01*
X159140168Y-69921666D01*
X159113810Y-69924500D01*
X156433676Y-69924500D01*
X156366637Y-69904815D01*
X156345995Y-69888181D01*
X156307316Y-69849502D01*
X156307314Y-69849500D01*
X156250250Y-69816554D01*
X156193187Y-69783608D01*
X156127423Y-69765987D01*
X156065892Y-69749500D01*
X155934108Y-69749500D01*
X155806812Y-69783608D01*
X155692686Y-69849500D01*
X155692683Y-69849502D01*
X155599502Y-69942683D01*
X155599500Y-69942686D01*
X155533608Y-70056812D01*
X155499500Y-70184108D01*
X155499500Y-70315891D01*
X155533608Y-70443187D01*
X155566410Y-70500000D01*
X155599500Y-70557314D01*
X155692686Y-70650500D01*
X155806814Y-70716392D01*
X155934108Y-70750500D01*
X155988811Y-70750500D01*
X156055850Y-70770185D01*
X156076492Y-70786819D01*
X157138181Y-71848508D01*
X157171666Y-71909831D01*
X157174500Y-71936189D01*
X157174500Y-72204493D01*
X157154815Y-72271532D01*
X157102011Y-72317287D01*
X157032853Y-72327231D01*
X156969297Y-72298206D01*
X156943113Y-72266494D01*
X156900500Y-72192686D01*
X156807314Y-72099500D01*
X156728662Y-72054090D01*
X156693187Y-72033608D01*
X156629539Y-72016554D01*
X156565892Y-71999500D01*
X156434108Y-71999500D01*
X156306812Y-72033608D01*
X156192686Y-72099500D01*
X156192683Y-72099502D01*
X156099502Y-72192683D01*
X156099500Y-72192686D01*
X156033608Y-72306812D01*
X155999500Y-72434108D01*
X155999500Y-72524165D01*
X155990856Y-72553601D01*
X155984333Y-72583591D01*
X155980577Y-72588607D01*
X155979815Y-72591204D01*
X155963182Y-72611845D01*
X155911848Y-72663180D01*
X155850525Y-72696666D01*
X155824166Y-72699500D01*
X153124000Y-72699500D01*
X153056961Y-72679815D01*
X153011206Y-72627011D01*
X153000000Y-72575500D01*
X153000000Y-70500000D01*
X152000000Y-70500000D01*
X152000000Y-71876000D01*
X151980315Y-71943039D01*
X151927511Y-71988794D01*
X151876000Y-72000000D01*
X151500000Y-72000000D01*
X151500000Y-72575500D01*
X151480315Y-72642539D01*
X151427511Y-72688294D01*
X151376000Y-72699500D01*
X150675833Y-72699500D01*
X150608794Y-72679815D01*
X150588152Y-72663181D01*
X148708718Y-70783747D01*
X148675233Y-70722424D01*
X148672399Y-70696066D01*
X148672399Y-68449206D01*
X157070396Y-68449206D01*
X157070396Y-68580989D01*
X157104504Y-68708285D01*
X157137450Y-68765348D01*
X157170396Y-68822412D01*
X157263582Y-68915598D01*
X157377710Y-68981490D01*
X157505004Y-69015598D01*
X157505006Y-69015598D01*
X157636786Y-69015598D01*
X157636788Y-69015598D01*
X157764082Y-68981490D01*
X157878210Y-68915598D01*
X157971396Y-68822412D01*
X158037288Y-68708284D01*
X158071396Y-68580990D01*
X158071396Y-68516832D01*
X158091081Y-68449793D01*
X158143885Y-68404038D01*
X158163296Y-68397059D01*
X158276130Y-68366826D01*
X158390258Y-68300934D01*
X158483444Y-68207748D01*
X158549336Y-68093620D01*
X158583444Y-67966326D01*
X158583444Y-67834542D01*
X158549336Y-67707248D01*
X158483444Y-67593120D01*
X158390258Y-67499934D01*
X158318797Y-67458676D01*
X158276131Y-67434042D01*
X158165630Y-67404434D01*
X158148836Y-67399934D01*
X158017052Y-67399934D01*
X157889756Y-67434042D01*
X157775630Y-67499934D01*
X157775627Y-67499936D01*
X157682446Y-67593117D01*
X157682444Y-67593120D01*
X157616552Y-67707246D01*
X157582444Y-67834542D01*
X157582444Y-67898699D01*
X157562759Y-67965738D01*
X157509955Y-68011493D01*
X157490536Y-68018474D01*
X157377710Y-68048706D01*
X157377708Y-68048706D01*
X157377708Y-68048707D01*
X157263582Y-68114598D01*
X157263579Y-68114600D01*
X157170398Y-68207781D01*
X157170396Y-68207784D01*
X157104504Y-68321910D01*
X157070396Y-68449206D01*
X148672399Y-68449206D01*
X148672399Y-67458676D01*
X148692084Y-67391637D01*
X148708718Y-67370995D01*
X148727040Y-67352673D01*
X148772399Y-67307314D01*
X148838291Y-67193186D01*
X148872399Y-67065892D01*
X148872399Y-66934108D01*
X148838291Y-66806814D01*
X148772399Y-66692686D01*
X148679213Y-66599500D01*
X148622149Y-66566554D01*
X148565086Y-66533608D01*
X148501438Y-66516554D01*
X148437791Y-66499500D01*
X148306007Y-66499500D01*
X148178711Y-66533608D01*
X148064585Y-66599500D01*
X148064582Y-66599502D01*
X147971401Y-66692683D01*
X147971399Y-66692686D01*
X147905507Y-66806812D01*
X147904007Y-66812412D01*
X147871399Y-66934108D01*
X147871399Y-67065892D01*
X147888453Y-67129539D01*
X147905507Y-67193187D01*
X147928404Y-67232845D01*
X147971399Y-67307314D01*
X147971401Y-67307316D01*
X148035080Y-67370995D01*
X148068565Y-67432318D01*
X148071399Y-67458676D01*
X148071399Y-70911461D01*
X148091878Y-70987888D01*
X148097015Y-70996785D01*
X148097017Y-70996792D01*
X148097018Y-70996792D01*
X148131434Y-71056403D01*
X148131438Y-71056408D01*
X148131439Y-71056410D01*
X150259540Y-73184511D01*
X150315489Y-73240460D01*
X150315491Y-73240461D01*
X150315495Y-73240464D01*
X150384004Y-73280017D01*
X150384011Y-73280021D01*
X150460438Y-73300500D01*
X150460440Y-73300500D01*
X156039560Y-73300500D01*
X156039562Y-73300500D01*
X156115989Y-73280021D01*
X156184511Y-73240460D01*
X156240460Y-73184511D01*
X156388152Y-73036817D01*
X156449473Y-73003334D01*
X156475832Y-73000500D01*
X156565890Y-73000500D01*
X156565892Y-73000500D01*
X156693186Y-72966392D01*
X156807314Y-72900500D01*
X156900500Y-72807314D01*
X156943113Y-72733505D01*
X156993680Y-72685290D01*
X157062287Y-72672067D01*
X157127152Y-72698035D01*
X157167680Y-72754950D01*
X157174500Y-72795506D01*
X157174500Y-74813811D01*
X157154815Y-74880850D01*
X157138181Y-74901492D01*
X147239537Y-84800135D01*
X147239533Y-84800141D01*
X147196681Y-84874362D01*
X147196680Y-84874363D01*
X147181712Y-84930230D01*
X147181712Y-84930231D01*
X147174500Y-84957146D01*
X147174500Y-90436064D01*
X147154815Y-90503103D01*
X147112500Y-90543451D01*
X147057689Y-90575096D01*
X147057683Y-90575100D01*
X146964502Y-90668281D01*
X146964500Y-90668284D01*
X146898608Y-90782410D01*
X146866967Y-90900499D01*
X146864500Y-90909706D01*
X133766568Y-90909706D01*
X133769252Y-90908834D01*
X133946244Y-90818652D01*
X133970178Y-90801263D01*
X133970179Y-90801262D01*
X133983530Y-90791560D01*
X133420757Y-90228786D01*
X133480896Y-90212673D01*
X133596735Y-90145794D01*
X133691317Y-90051212D01*
X133758196Y-89935373D01*
X133774310Y-89875234D01*
X134337083Y-90438007D01*
X134364177Y-90400717D01*
X134454357Y-90223729D01*
X134515739Y-90034815D01*
X134515739Y-90034812D01*
X134546815Y-89838613D01*
X134546815Y-89639970D01*
X134515739Y-89443771D01*
X134515739Y-89443768D01*
X134454357Y-89254854D01*
X134364173Y-89077859D01*
X134337083Y-89040575D01*
X133774309Y-89603349D01*
X133758196Y-89543211D01*
X133691317Y-89427372D01*
X133596735Y-89332790D01*
X133480896Y-89265911D01*
X133420757Y-89249796D01*
X133983531Y-88687023D01*
X133983530Y-88687022D01*
X133946247Y-88659933D01*
X133788932Y-88579777D01*
X133738136Y-88531802D01*
X133721341Y-88463981D01*
X133743878Y-88397846D01*
X133788932Y-88358807D01*
X133946240Y-88278654D01*
X133983531Y-88251560D01*
X133420757Y-87688786D01*
X133480896Y-87672673D01*
X133596735Y-87605794D01*
X133691317Y-87511212D01*
X133758196Y-87395373D01*
X133774310Y-87335234D01*
X134337083Y-87898007D01*
X134364177Y-87860717D01*
X134454357Y-87683729D01*
X134515739Y-87494815D01*
X134515739Y-87494812D01*
X134546815Y-87298613D01*
X134546815Y-87099970D01*
X134515739Y-86903771D01*
X134515739Y-86903768D01*
X134454357Y-86714854D01*
X134364173Y-86537859D01*
X134337083Y-86500575D01*
X133774309Y-87063349D01*
X133758196Y-87003211D01*
X133691317Y-86887372D01*
X133596735Y-86792790D01*
X133480896Y-86725911D01*
X133420757Y-86709796D01*
X133983531Y-86147023D01*
X133983530Y-86147022D01*
X133946247Y-86119933D01*
X133769252Y-86029749D01*
X133580337Y-85968367D01*
X133384136Y-85937292D01*
X133185494Y-85937292D01*
X132989294Y-85968367D01*
X132989291Y-85968367D01*
X132800377Y-86029749D01*
X132623379Y-86119935D01*
X132586098Y-86147021D01*
X132586097Y-86147022D01*
X133148873Y-86709796D01*
X133088734Y-86725911D01*
X132972895Y-86792790D01*
X132878313Y-86887372D01*
X132811434Y-87003211D01*
X132795319Y-87063349D01*
X132232545Y-86500574D01*
X132232544Y-86500575D01*
X132205458Y-86537856D01*
X132125300Y-86695174D01*
X132077325Y-86745970D01*
X132009504Y-86762765D01*
X131943369Y-86740227D01*
X131904330Y-86695174D01*
X131824173Y-86537859D01*
X131797083Y-86500575D01*
X131234309Y-87063349D01*
X131218196Y-87003211D01*
X131151317Y-86887372D01*
X131056735Y-86792790D01*
X130940896Y-86725911D01*
X130880757Y-86709796D01*
X131443531Y-86147023D01*
X131443530Y-86147022D01*
X131406247Y-86119933D01*
X131229252Y-86029749D01*
X131040337Y-85968367D01*
X130844136Y-85937292D01*
X130645494Y-85937292D01*
X130449294Y-85968367D01*
X130449291Y-85968367D01*
X130260377Y-86029749D01*
X130083379Y-86119935D01*
X130046098Y-86147021D01*
X130046097Y-86147022D01*
X130608873Y-86709796D01*
X130548734Y-86725911D01*
X130432895Y-86792790D01*
X130338313Y-86887372D01*
X130271434Y-87003211D01*
X130255319Y-87063349D01*
X129692545Y-86500574D01*
X129692544Y-86500575D01*
X129665458Y-86537856D01*
X129575272Y-86714854D01*
X129513890Y-86903768D01*
X129513890Y-86903771D01*
X129482815Y-87099970D01*
X129482815Y-87298613D01*
X129513890Y-87494812D01*
X129513890Y-87494815D01*
X129575272Y-87683729D01*
X129665456Y-87860724D01*
X129692545Y-87898007D01*
X129692546Y-87898008D01*
X130255319Y-87335234D01*
X130271434Y-87395373D01*
X130338313Y-87511212D01*
X130432895Y-87605794D01*
X130548734Y-87672673D01*
X130608872Y-87688786D01*
X130046098Y-88251560D01*
X130046098Y-88251561D01*
X130083382Y-88278650D01*
X130240697Y-88358807D01*
X130291493Y-88406782D01*
X130308288Y-88474603D01*
X130285750Y-88540738D01*
X130240697Y-88579777D01*
X130083379Y-88659935D01*
X130046098Y-88687021D01*
X130046097Y-88687022D01*
X130608873Y-89249796D01*
X130548734Y-89265911D01*
X130432895Y-89332790D01*
X130338313Y-89427372D01*
X130271434Y-89543211D01*
X130255319Y-89603350D01*
X129692545Y-89040574D01*
X129692544Y-89040575D01*
X129665458Y-89077856D01*
X129575272Y-89254854D01*
X129513890Y-89443768D01*
X129513890Y-89443771D01*
X129499634Y-89533778D01*
X129469704Y-89596913D01*
X129410393Y-89633844D01*
X129340530Y-89632846D01*
X129282298Y-89594236D01*
X129262600Y-89561833D01*
X129259483Y-89554307D01*
X129076197Y-89111817D01*
X129074607Y-89107775D01*
X128708103Y-88125142D01*
X128706657Y-88121040D01*
X128478025Y-87434110D01*
X128378225Y-87134257D01*
X128378225Y-87134256D01*
X128375495Y-87126056D01*
X128374170Y-87121826D01*
X128328132Y-86965036D01*
X128078721Y-86115618D01*
X128077564Y-86111401D01*
X127818218Y-85095294D01*
X127817203Y-85090998D01*
X127815157Y-85081594D01*
X127702668Y-84564489D01*
X129782315Y-84564489D01*
X129782315Y-84754094D01*
X129819301Y-84940035D01*
X129819303Y-84940043D01*
X129891857Y-85115204D01*
X129997192Y-85272850D01*
X130131256Y-85406914D01*
X130220270Y-85466391D01*
X130288900Y-85512248D01*
X130464064Y-85584804D01*
X130650012Y-85621791D01*
X130650016Y-85621792D01*
X130650017Y-85621792D01*
X130839614Y-85621792D01*
X130839615Y-85621791D01*
X131025566Y-85584804D01*
X131200730Y-85512248D01*
X131358373Y-85406914D01*
X131492437Y-85272850D01*
X131597771Y-85115207D01*
X131670327Y-84940043D01*
X131707315Y-84754090D01*
X131707315Y-84564494D01*
X131707314Y-84564489D01*
X132322315Y-84564489D01*
X132322315Y-84754094D01*
X132359301Y-84940035D01*
X132359303Y-84940043D01*
X132431857Y-85115204D01*
X132537192Y-85272850D01*
X132671256Y-85406914D01*
X132760270Y-85466391D01*
X132828900Y-85512248D01*
X133004064Y-85584804D01*
X133190012Y-85621791D01*
X133190016Y-85621792D01*
X133190017Y-85621792D01*
X133379614Y-85621792D01*
X133379615Y-85621791D01*
X133565566Y-85584804D01*
X133740730Y-85512248D01*
X133898373Y-85406914D01*
X134032437Y-85272850D01*
X134137771Y-85115207D01*
X134210327Y-84940043D01*
X134247315Y-84754090D01*
X134247315Y-84564494D01*
X134210327Y-84378541D01*
X134137771Y-84203377D01*
X134044745Y-84064154D01*
X134032437Y-84045733D01*
X133898373Y-83911669D01*
X133740727Y-83806334D01*
X133565566Y-83733780D01*
X133565558Y-83733778D01*
X133379617Y-83696792D01*
X133379613Y-83696792D01*
X133190017Y-83696792D01*
X133190012Y-83696792D01*
X133004071Y-83733778D01*
X133004063Y-83733780D01*
X132828902Y-83806334D01*
X132671256Y-83911669D01*
X132537192Y-84045733D01*
X132431857Y-84203379D01*
X132359303Y-84378540D01*
X132359301Y-84378548D01*
X132322315Y-84564489D01*
X131707314Y-84564489D01*
X131670327Y-84378541D01*
X131597771Y-84203377D01*
X131504745Y-84064154D01*
X131492437Y-84045733D01*
X131358373Y-83911669D01*
X131200727Y-83806334D01*
X131025566Y-83733780D01*
X131025558Y-83733778D01*
X130839617Y-83696792D01*
X130839613Y-83696792D01*
X130650017Y-83696792D01*
X130650012Y-83696792D01*
X130464071Y-83733778D01*
X130464063Y-83733780D01*
X130288902Y-83806334D01*
X130131256Y-83911669D01*
X129997192Y-84045733D01*
X129891857Y-84203379D01*
X129819303Y-84378540D01*
X129819301Y-84378548D01*
X129782315Y-84564489D01*
X127702668Y-84564489D01*
X127695950Y-84533608D01*
X127662217Y-84378540D01*
X127594296Y-84066310D01*
X127593436Y-84061989D01*
X127590503Y-84045734D01*
X127407239Y-83029973D01*
X127406534Y-83025616D01*
X127376684Y-82818007D01*
X127266672Y-82052855D01*
X127263781Y-82032745D01*
X127261944Y-82019970D01*
X129482815Y-82019970D01*
X129482815Y-82218613D01*
X129513890Y-82414812D01*
X129513890Y-82414815D01*
X129575272Y-82603729D01*
X129665456Y-82780724D01*
X129692545Y-82818007D01*
X129692546Y-82818008D01*
X130255319Y-82255234D01*
X130271434Y-82315373D01*
X130338313Y-82431212D01*
X130432895Y-82525794D01*
X130548734Y-82592673D01*
X130608872Y-82608786D01*
X130046098Y-83171560D01*
X130046098Y-83171561D01*
X130083382Y-83198650D01*
X130260377Y-83288834D01*
X130449292Y-83350216D01*
X130645494Y-83381292D01*
X130844136Y-83381292D01*
X131040335Y-83350216D01*
X131040338Y-83350216D01*
X131229252Y-83288834D01*
X131406240Y-83198654D01*
X131443531Y-83171560D01*
X130880757Y-82608786D01*
X130940896Y-82592673D01*
X131056735Y-82525794D01*
X131151317Y-82431212D01*
X131218196Y-82315373D01*
X131234310Y-82255234D01*
X131797083Y-82818007D01*
X131824177Y-82780717D01*
X131904330Y-82623409D01*
X131952304Y-82572613D01*
X132020125Y-82555818D01*
X132086260Y-82578355D01*
X132125300Y-82623409D01*
X132205456Y-82780724D01*
X132232545Y-82818007D01*
X132232546Y-82818008D01*
X132795319Y-82255234D01*
X132811434Y-82315373D01*
X132878313Y-82431212D01*
X132972895Y-82525794D01*
X133088734Y-82592673D01*
X133148872Y-82608786D01*
X132586098Y-83171560D01*
X132586098Y-83171561D01*
X132623382Y-83198650D01*
X132800377Y-83288834D01*
X132989292Y-83350216D01*
X133185494Y-83381292D01*
X133384136Y-83381292D01*
X133580335Y-83350216D01*
X133580338Y-83350216D01*
X133769252Y-83288834D01*
X133946240Y-83198654D01*
X133983531Y-83171560D01*
X133420757Y-82608786D01*
X133480896Y-82592673D01*
X133596735Y-82525794D01*
X133691317Y-82431212D01*
X133758196Y-82315373D01*
X133774310Y-82255234D01*
X134337083Y-82818007D01*
X134364177Y-82780717D01*
X134454357Y-82603729D01*
X134515739Y-82414815D01*
X134515739Y-82414812D01*
X134546815Y-82218613D01*
X134546815Y-82019970D01*
X134515739Y-81823771D01*
X134515739Y-81823768D01*
X134454357Y-81634854D01*
X134364173Y-81457859D01*
X134337083Y-81420575D01*
X133774309Y-81983349D01*
X133758196Y-81923211D01*
X133691317Y-81807372D01*
X133596735Y-81712790D01*
X133480896Y-81645911D01*
X133420757Y-81629796D01*
X133983531Y-81067023D01*
X133983530Y-81067022D01*
X133946247Y-81039933D01*
X133769252Y-80949749D01*
X133580337Y-80888367D01*
X133384136Y-80857292D01*
X133185494Y-80857292D01*
X132989294Y-80888367D01*
X132989291Y-80888367D01*
X132800377Y-80949749D01*
X132623379Y-81039935D01*
X132586098Y-81067021D01*
X132586097Y-81067022D01*
X133148873Y-81629796D01*
X133088734Y-81645911D01*
X132972895Y-81712790D01*
X132878313Y-81807372D01*
X132811434Y-81923211D01*
X132795319Y-81983349D01*
X132232545Y-81420574D01*
X132232544Y-81420575D01*
X132205458Y-81457856D01*
X132125300Y-81615174D01*
X132077325Y-81665970D01*
X132009504Y-81682765D01*
X131943369Y-81660227D01*
X131904330Y-81615174D01*
X131824173Y-81457859D01*
X131797083Y-81420575D01*
X131234309Y-81983349D01*
X131218196Y-81923211D01*
X131151317Y-81807372D01*
X131056735Y-81712790D01*
X130940896Y-81645911D01*
X130880757Y-81629796D01*
X131443531Y-81067023D01*
X131443530Y-81067022D01*
X131406247Y-81039933D01*
X131229252Y-80949749D01*
X131040337Y-80888367D01*
X130844136Y-80857292D01*
X130645494Y-80857292D01*
X130449294Y-80888367D01*
X130449291Y-80888367D01*
X130260377Y-80949749D01*
X130083379Y-81039935D01*
X130046098Y-81067021D01*
X130046097Y-81067022D01*
X130608873Y-81629796D01*
X130548734Y-81645911D01*
X130432895Y-81712790D01*
X130338313Y-81807372D01*
X130271434Y-81923211D01*
X130255319Y-81983349D01*
X129692545Y-81420574D01*
X129692544Y-81420575D01*
X129665458Y-81457856D01*
X129575272Y-81634854D01*
X129513890Y-81823768D01*
X129513890Y-81823771D01*
X129482815Y-82019970D01*
X127261944Y-82019970D01*
X127257298Y-81987658D01*
X127256746Y-81983265D01*
X127239599Y-81823771D01*
X127144649Y-80940602D01*
X127144258Y-80936244D01*
X127069445Y-79890233D01*
X127069209Y-79885817D01*
X127054875Y-79484489D01*
X129782315Y-79484489D01*
X129782315Y-79674094D01*
X129819301Y-79860035D01*
X129819303Y-79860043D01*
X129891857Y-80035204D01*
X129997192Y-80192850D01*
X130131256Y-80326914D01*
X130236115Y-80396978D01*
X130288900Y-80432248D01*
X130464064Y-80504804D01*
X130650012Y-80541791D01*
X130650016Y-80541792D01*
X130650017Y-80541792D01*
X130839614Y-80541792D01*
X130839615Y-80541791D01*
X131025566Y-80504804D01*
X131200730Y-80432248D01*
X131358373Y-80326914D01*
X131492437Y-80192850D01*
X131597771Y-80035207D01*
X131670327Y-79860043D01*
X131707315Y-79674090D01*
X131707315Y-79484494D01*
X131707314Y-79484489D01*
X132322315Y-79484489D01*
X132322315Y-79674094D01*
X132359301Y-79860035D01*
X132359303Y-79860043D01*
X132431857Y-80035204D01*
X132537192Y-80192850D01*
X132671256Y-80326914D01*
X132776115Y-80396978D01*
X132828900Y-80432248D01*
X133004064Y-80504804D01*
X133190012Y-80541791D01*
X133190016Y-80541792D01*
X133190017Y-80541792D01*
X133379614Y-80541792D01*
X133379615Y-80541791D01*
X133565566Y-80504804D01*
X133740730Y-80432248D01*
X133898373Y-80326914D01*
X134032437Y-80192850D01*
X134137771Y-80035207D01*
X134210327Y-79860043D01*
X134247315Y-79674090D01*
X134247315Y-79484494D01*
X134210327Y-79298541D01*
X134137771Y-79123377D01*
X134047857Y-78988811D01*
X134032437Y-78965733D01*
X133898373Y-78831669D01*
X133740727Y-78726334D01*
X133565566Y-78653780D01*
X133565558Y-78653778D01*
X133379617Y-78616792D01*
X133379613Y-78616792D01*
X133190017Y-78616792D01*
X133190012Y-78616792D01*
X133004071Y-78653778D01*
X133004063Y-78653780D01*
X132828902Y-78726334D01*
X132671256Y-78831669D01*
X132537192Y-78965733D01*
X132431857Y-79123379D01*
X132359303Y-79298540D01*
X132359301Y-79298548D01*
X132322315Y-79484489D01*
X131707314Y-79484489D01*
X131670327Y-79298541D01*
X131597771Y-79123377D01*
X131507857Y-78988811D01*
X131492437Y-78965733D01*
X131358373Y-78831669D01*
X131200727Y-78726334D01*
X131025566Y-78653780D01*
X131025558Y-78653778D01*
X130839617Y-78616792D01*
X130839613Y-78616792D01*
X130650017Y-78616792D01*
X130650012Y-78616792D01*
X130464071Y-78653778D01*
X130464063Y-78653780D01*
X130288902Y-78726334D01*
X130131256Y-78831669D01*
X129997192Y-78965733D01*
X129891857Y-79123379D01*
X129819303Y-79298540D01*
X129819301Y-79298548D01*
X129782315Y-79484489D01*
X127054875Y-79484489D01*
X127031780Y-78837835D01*
X127031701Y-78833409D01*
X127031701Y-77784764D01*
X127031780Y-77780338D01*
X127054861Y-77134090D01*
X127061633Y-76944489D01*
X129782315Y-76944489D01*
X129782315Y-77134094D01*
X129819301Y-77320035D01*
X129819303Y-77320043D01*
X129891857Y-77495204D01*
X129997192Y-77652850D01*
X130131256Y-77786914D01*
X130236115Y-77856978D01*
X130288900Y-77892248D01*
X130464064Y-77964804D01*
X130650012Y-78001791D01*
X130650016Y-78001792D01*
X130650017Y-78001792D01*
X130839614Y-78001792D01*
X130839615Y-78001791D01*
X131025566Y-77964804D01*
X131200730Y-77892248D01*
X131358373Y-77786914D01*
X131492437Y-77652850D01*
X131597771Y-77495207D01*
X131670327Y-77320043D01*
X131707315Y-77134090D01*
X131707315Y-76944494D01*
X131707314Y-76944489D01*
X132322315Y-76944489D01*
X132322315Y-77134094D01*
X132359301Y-77320035D01*
X132359303Y-77320043D01*
X132431857Y-77495204D01*
X132537192Y-77652850D01*
X132671256Y-77786914D01*
X132776115Y-77856978D01*
X132828900Y-77892248D01*
X133004064Y-77964804D01*
X133190012Y-78001791D01*
X133190016Y-78001792D01*
X133190017Y-78001792D01*
X133379614Y-78001792D01*
X133379615Y-78001791D01*
X133565566Y-77964804D01*
X133740730Y-77892248D01*
X133898373Y-77786914D01*
X134032437Y-77652850D01*
X134137771Y-77495207D01*
X134210327Y-77320043D01*
X134247315Y-77134090D01*
X134247315Y-76944494D01*
X134210327Y-76758541D01*
X134137771Y-76583377D01*
X134102501Y-76530592D01*
X134032437Y-76425733D01*
X133898373Y-76291669D01*
X133740727Y-76186334D01*
X133565566Y-76113780D01*
X133565558Y-76113778D01*
X133379617Y-76076792D01*
X133379613Y-76076792D01*
X133190017Y-76076792D01*
X133190012Y-76076792D01*
X133004071Y-76113778D01*
X133004063Y-76113780D01*
X132828902Y-76186334D01*
X132671256Y-76291669D01*
X132537192Y-76425733D01*
X132431857Y-76583379D01*
X132359303Y-76758540D01*
X132359301Y-76758548D01*
X132322315Y-76944489D01*
X131707314Y-76944489D01*
X131670327Y-76758541D01*
X131597771Y-76583377D01*
X131562501Y-76530592D01*
X131492437Y-76425733D01*
X131358373Y-76291669D01*
X131200727Y-76186334D01*
X131025566Y-76113780D01*
X131025558Y-76113778D01*
X130839617Y-76076792D01*
X130839613Y-76076792D01*
X130650017Y-76076792D01*
X130650012Y-76076792D01*
X130464071Y-76113778D01*
X130464063Y-76113780D01*
X130288902Y-76186334D01*
X130131256Y-76291669D01*
X129997192Y-76425733D01*
X129891857Y-76583379D01*
X129819303Y-76758540D01*
X129819301Y-76758548D01*
X129782315Y-76944489D01*
X127061633Y-76944489D01*
X127069209Y-76732350D01*
X127069446Y-76727936D01*
X127144258Y-75681924D01*
X127144649Y-75677571D01*
X127158196Y-75551561D01*
X127256749Y-74634883D01*
X127257298Y-74630516D01*
X127290445Y-74399970D01*
X129482815Y-74399970D01*
X129482815Y-74598613D01*
X129513890Y-74794812D01*
X129513890Y-74794815D01*
X129575272Y-74983729D01*
X129665456Y-75160724D01*
X129692545Y-75198007D01*
X129692546Y-75198008D01*
X130255319Y-74635234D01*
X130271434Y-74695373D01*
X130338313Y-74811212D01*
X130432895Y-74905794D01*
X130548734Y-74972673D01*
X130608872Y-74988786D01*
X130046098Y-75551560D01*
X130046098Y-75551561D01*
X130083382Y-75578650D01*
X130260377Y-75668834D01*
X130449292Y-75730216D01*
X130645494Y-75761292D01*
X130844136Y-75761292D01*
X131040335Y-75730216D01*
X131040338Y-75730216D01*
X131229252Y-75668834D01*
X131406240Y-75578654D01*
X131443531Y-75551560D01*
X130880757Y-74988786D01*
X130940896Y-74972673D01*
X131056735Y-74905794D01*
X131151317Y-74811212D01*
X131218196Y-74695373D01*
X131234310Y-74635234D01*
X131797083Y-75198007D01*
X131824177Y-75160717D01*
X131904330Y-75003409D01*
X131952304Y-74952613D01*
X132020125Y-74935818D01*
X132086260Y-74958355D01*
X132125300Y-75003409D01*
X132205456Y-75160724D01*
X132232545Y-75198007D01*
X132232546Y-75198008D01*
X132795319Y-74635234D01*
X132811434Y-74695373D01*
X132878313Y-74811212D01*
X132972895Y-74905794D01*
X133088734Y-74972673D01*
X133148872Y-74988786D01*
X132586098Y-75551560D01*
X132586098Y-75551561D01*
X132623382Y-75578650D01*
X132800377Y-75668834D01*
X132989292Y-75730216D01*
X133185494Y-75761292D01*
X133384136Y-75761292D01*
X133580335Y-75730216D01*
X133580338Y-75730216D01*
X133769252Y-75668834D01*
X133946240Y-75578654D01*
X133983531Y-75551560D01*
X133420757Y-74988786D01*
X133480896Y-74972673D01*
X133596735Y-74905794D01*
X133691317Y-74811212D01*
X133758196Y-74695373D01*
X133774310Y-74635234D01*
X134337083Y-75198007D01*
X134364177Y-75160717D01*
X134446067Y-75000000D01*
X149000000Y-75000000D01*
X149376000Y-75000000D01*
X149443039Y-75019685D01*
X149488794Y-75072489D01*
X149500000Y-75124000D01*
X149500000Y-77500000D01*
X150510000Y-77500000D01*
X150510000Y-74698225D01*
X153009408Y-74698225D01*
X153009408Y-74830008D01*
X153043516Y-74957304D01*
X153058773Y-74983729D01*
X153109408Y-75071431D01*
X153202594Y-75164617D01*
X153316722Y-75230509D01*
X153444016Y-75264617D01*
X153444018Y-75264617D01*
X153575798Y-75264617D01*
X153575800Y-75264617D01*
X153703094Y-75230509D01*
X153817222Y-75164617D01*
X153910408Y-75071431D01*
X153976300Y-74957303D01*
X154010408Y-74830009D01*
X154010408Y-74698225D01*
X153976300Y-74570931D01*
X153910408Y-74456803D01*
X153817222Y-74363617D01*
X153760158Y-74330671D01*
X153703095Y-74297725D01*
X153639447Y-74280671D01*
X153575800Y-74263617D01*
X153444016Y-74263617D01*
X153316720Y-74297725D01*
X153202594Y-74363617D01*
X153202591Y-74363619D01*
X153109410Y-74456800D01*
X153109408Y-74456803D01*
X153043516Y-74570929D01*
X153009408Y-74698225D01*
X150510000Y-74698225D01*
X150510000Y-74000000D01*
X149000000Y-74000000D01*
X149000000Y-75000000D01*
X134446067Y-75000000D01*
X134454357Y-74983729D01*
X134515739Y-74794815D01*
X134515739Y-74794812D01*
X134546815Y-74598613D01*
X134546815Y-74399970D01*
X134515739Y-74203771D01*
X134515739Y-74203768D01*
X134454356Y-74014852D01*
X134454357Y-74014852D01*
X134449303Y-74004934D01*
X134449302Y-74004933D01*
X134364173Y-73837859D01*
X134337083Y-73800575D01*
X133774309Y-74363349D01*
X133758196Y-74303211D01*
X133691317Y-74187372D01*
X133596735Y-74092790D01*
X133480896Y-74025911D01*
X133420757Y-74009796D01*
X133983531Y-73447023D01*
X133983530Y-73447022D01*
X133946247Y-73419933D01*
X133769252Y-73329749D01*
X133580337Y-73268367D01*
X133384136Y-73237292D01*
X133185494Y-73237292D01*
X132989294Y-73268367D01*
X132989291Y-73268367D01*
X132800377Y-73329749D01*
X132623379Y-73419935D01*
X132586098Y-73447021D01*
X132586097Y-73447022D01*
X133148873Y-74009796D01*
X133088734Y-74025911D01*
X132972895Y-74092790D01*
X132878313Y-74187372D01*
X132811434Y-74303211D01*
X132795319Y-74363349D01*
X132232545Y-73800574D01*
X132232544Y-73800575D01*
X132205458Y-73837856D01*
X132125300Y-73995174D01*
X132077325Y-74045970D01*
X132009504Y-74062765D01*
X131943369Y-74040227D01*
X131904330Y-73995174D01*
X131824173Y-73837859D01*
X131797083Y-73800575D01*
X131234309Y-74363349D01*
X131218196Y-74303211D01*
X131151317Y-74187372D01*
X131056735Y-74092790D01*
X130940896Y-74025911D01*
X130880757Y-74009796D01*
X131443531Y-73447023D01*
X131443530Y-73447022D01*
X131406247Y-73419933D01*
X131229252Y-73329749D01*
X131040337Y-73268367D01*
X130844136Y-73237292D01*
X130645494Y-73237292D01*
X130449294Y-73268367D01*
X130449291Y-73268367D01*
X130260377Y-73329749D01*
X130083379Y-73419935D01*
X130046098Y-73447021D01*
X130046097Y-73447022D01*
X130608873Y-74009796D01*
X130548734Y-74025911D01*
X130432895Y-74092790D01*
X130338313Y-74187372D01*
X130271434Y-74303211D01*
X130255319Y-74363349D01*
X129692545Y-73800574D01*
X129692544Y-73800575D01*
X129665458Y-73837856D01*
X129575272Y-74014854D01*
X129513890Y-74203768D01*
X129513890Y-74203771D01*
X129482815Y-74399970D01*
X127290445Y-74399970D01*
X127406537Y-73592534D01*
X127407242Y-73588187D01*
X127417090Y-73533608D01*
X127593442Y-72556153D01*
X127594293Y-72551874D01*
X127743824Y-71864489D01*
X129782315Y-71864489D01*
X129782315Y-72054094D01*
X129819301Y-72240035D01*
X129819303Y-72240043D01*
X129891857Y-72415204D01*
X129997192Y-72572850D01*
X130131256Y-72706914D01*
X130236115Y-72776978D01*
X130288900Y-72812248D01*
X130464064Y-72884804D01*
X130650012Y-72921791D01*
X130650016Y-72921792D01*
X130650017Y-72921792D01*
X130839614Y-72921792D01*
X130839615Y-72921791D01*
X131025566Y-72884804D01*
X131200730Y-72812248D01*
X131358373Y-72706914D01*
X131492437Y-72572850D01*
X131597771Y-72415207D01*
X131670327Y-72240043D01*
X131707315Y-72054090D01*
X131707315Y-71864494D01*
X131707314Y-71864489D01*
X132322315Y-71864489D01*
X132322315Y-72054094D01*
X132359301Y-72240035D01*
X132359303Y-72240043D01*
X132431857Y-72415204D01*
X132537192Y-72572850D01*
X132671256Y-72706914D01*
X132776115Y-72776978D01*
X132828900Y-72812248D01*
X133004064Y-72884804D01*
X133190012Y-72921791D01*
X133190016Y-72921792D01*
X133190017Y-72921792D01*
X133379614Y-72921792D01*
X133379615Y-72921791D01*
X133565566Y-72884804D01*
X133740730Y-72812248D01*
X133898373Y-72706914D01*
X134032437Y-72572850D01*
X134137771Y-72415207D01*
X134210327Y-72240043D01*
X134247315Y-72054090D01*
X134247315Y-71864494D01*
X134210327Y-71678541D01*
X134137771Y-71503377D01*
X134102501Y-71450592D01*
X134032437Y-71345733D01*
X133898373Y-71211669D01*
X133740727Y-71106334D01*
X133565566Y-71033780D01*
X133565558Y-71033778D01*
X133379617Y-70996792D01*
X133379613Y-70996792D01*
X133190017Y-70996792D01*
X133190012Y-70996792D01*
X133004071Y-71033778D01*
X133004063Y-71033780D01*
X132828902Y-71106334D01*
X132671256Y-71211669D01*
X132537192Y-71345733D01*
X132431857Y-71503379D01*
X132359303Y-71678540D01*
X132359301Y-71678548D01*
X132322315Y-71864489D01*
X131707314Y-71864489D01*
X131670327Y-71678541D01*
X131597771Y-71503377D01*
X131562501Y-71450592D01*
X131492437Y-71345733D01*
X131358373Y-71211669D01*
X131200727Y-71106334D01*
X131025566Y-71033780D01*
X131025558Y-71033778D01*
X130839617Y-70996792D01*
X130839613Y-70996792D01*
X130650017Y-70996792D01*
X130650012Y-70996792D01*
X130464071Y-71033778D01*
X130464063Y-71033780D01*
X130288902Y-71106334D01*
X130131256Y-71211669D01*
X129997192Y-71345733D01*
X129891857Y-71503379D01*
X129819303Y-71678540D01*
X129819301Y-71678548D01*
X129782315Y-71864489D01*
X127743824Y-71864489D01*
X127817208Y-71527150D01*
X127818221Y-71522867D01*
X127823196Y-71503377D01*
X128077567Y-70506758D01*
X128078716Y-70502569D01*
X128374174Y-69496333D01*
X128375493Y-69492123D01*
X128381470Y-69474166D01*
X128431287Y-69324489D01*
X129782315Y-69324489D01*
X129782315Y-69514094D01*
X129819301Y-69700035D01*
X129819303Y-69700043D01*
X129891857Y-69875204D01*
X129997192Y-70032850D01*
X130131256Y-70166914D01*
X130236115Y-70236978D01*
X130288900Y-70272248D01*
X130464064Y-70344804D01*
X130650012Y-70381791D01*
X130650016Y-70381792D01*
X130650017Y-70381792D01*
X130839614Y-70381792D01*
X130839615Y-70381791D01*
X131025566Y-70344804D01*
X131200730Y-70272248D01*
X131358373Y-70166914D01*
X131492437Y-70032850D01*
X131597771Y-69875207D01*
X131670327Y-69700043D01*
X131707315Y-69514090D01*
X131707315Y-69324494D01*
X131707314Y-69324489D01*
X132322315Y-69324489D01*
X132322315Y-69514094D01*
X132359301Y-69700035D01*
X132359303Y-69700043D01*
X132431857Y-69875204D01*
X132537192Y-70032850D01*
X132671256Y-70166914D01*
X132776115Y-70236978D01*
X132828900Y-70272248D01*
X133004064Y-70344804D01*
X133190012Y-70381791D01*
X133190016Y-70381792D01*
X133190017Y-70381792D01*
X133379614Y-70381792D01*
X133379615Y-70381791D01*
X133565566Y-70344804D01*
X133740730Y-70272248D01*
X133898373Y-70166914D01*
X134032437Y-70032850D01*
X134137771Y-69875207D01*
X134210327Y-69700043D01*
X134247315Y-69514090D01*
X134247315Y-69324494D01*
X134210327Y-69138541D01*
X134137771Y-68963377D01*
X134102501Y-68910592D01*
X134032437Y-68805733D01*
X133898373Y-68671669D01*
X133740727Y-68566334D01*
X133565566Y-68493780D01*
X133565558Y-68493778D01*
X133379617Y-68456792D01*
X133379613Y-68456792D01*
X133190017Y-68456792D01*
X133190012Y-68456792D01*
X133004071Y-68493778D01*
X133004063Y-68493780D01*
X132828902Y-68566334D01*
X132671256Y-68671669D01*
X132537192Y-68805733D01*
X132431857Y-68963379D01*
X132359303Y-69138540D01*
X132359301Y-69138548D01*
X132322315Y-69324489D01*
X131707314Y-69324489D01*
X131670327Y-69138541D01*
X131597771Y-68963377D01*
X131562501Y-68910592D01*
X131492437Y-68805733D01*
X131358373Y-68671669D01*
X131200727Y-68566334D01*
X131025566Y-68493780D01*
X131025558Y-68493778D01*
X130839617Y-68456792D01*
X130839613Y-68456792D01*
X130650017Y-68456792D01*
X130650012Y-68456792D01*
X130464071Y-68493778D01*
X130464063Y-68493780D01*
X130288902Y-68566334D01*
X130131256Y-68671669D01*
X129997192Y-68805733D01*
X129891857Y-68963379D01*
X129819303Y-69138540D01*
X129819301Y-69138548D01*
X129782315Y-69324489D01*
X128431287Y-69324489D01*
X128706663Y-68497116D01*
X128708096Y-68493049D01*
X129074614Y-67510379D01*
X129076190Y-67506375D01*
X129244254Y-67100631D01*
X129288095Y-67046229D01*
X129354389Y-67024164D01*
X129422089Y-67041443D01*
X129469699Y-67092581D01*
X129482815Y-67148085D01*
X129482815Y-67689136D01*
X129489216Y-67748664D01*
X129489218Y-67748671D01*
X129539460Y-67883378D01*
X129539464Y-67883385D01*
X129625624Y-67998479D01*
X129625627Y-67998482D01*
X129740721Y-68084642D01*
X129740728Y-68084646D01*
X129875435Y-68134888D01*
X129875442Y-68134890D01*
X129934970Y-68141291D01*
X129934987Y-68141292D01*
X130494815Y-68141292D01*
X130494815Y-67321543D01*
X130548734Y-67352673D01*
X130677935Y-67387292D01*
X130811695Y-67387292D01*
X130940896Y-67352673D01*
X130994815Y-67321543D01*
X130994815Y-68141292D01*
X131554643Y-68141292D01*
X131554659Y-68141291D01*
X131614187Y-68134890D01*
X131614194Y-68134888D01*
X131748901Y-68084646D01*
X131748908Y-68084642D01*
X131864002Y-67998482D01*
X131864005Y-67998479D01*
X131950165Y-67883385D01*
X131950170Y-67883376D01*
X131962661Y-67849885D01*
X132009382Y-67623849D01*
X132020086Y-67603753D01*
X132026500Y-67581910D01*
X132036196Y-67573508D01*
X132042229Y-67562182D01*
X132062099Y-67551062D01*
X132079304Y-67536155D01*
X132092003Y-67534328D01*
X132103201Y-67528063D01*
X132125925Y-67529451D01*
X132148462Y-67526211D01*
X132160134Y-67531541D01*
X132172941Y-67532324D01*
X132191306Y-67545777D01*
X132212018Y-67555236D01*
X132228019Y-67572670D01*
X132229306Y-67573613D01*
X132229610Y-67574404D01*
X132231133Y-67576063D01*
X132232546Y-67578007D01*
X132795319Y-67015233D01*
X132811434Y-67075373D01*
X132878313Y-67191212D01*
X132972895Y-67285794D01*
X133088734Y-67352673D01*
X133148872Y-67368786D01*
X132586098Y-67931560D01*
X132586098Y-67931561D01*
X132623382Y-67958650D01*
X132800377Y-68048834D01*
X132989292Y-68110216D01*
X133185494Y-68141292D01*
X133384136Y-68141292D01*
X133580335Y-68110216D01*
X133580338Y-68110216D01*
X133769252Y-68048834D01*
X133946240Y-67958654D01*
X133983531Y-67931560D01*
X133420757Y-67368786D01*
X133480896Y-67352673D01*
X133596735Y-67285794D01*
X133691317Y-67191212D01*
X133758196Y-67075373D01*
X133774310Y-67015234D01*
X134337083Y-67578007D01*
X134364177Y-67540717D01*
X134454357Y-67363729D01*
X134515739Y-67174815D01*
X134515739Y-67174812D01*
X134546815Y-66978613D01*
X134546815Y-66779970D01*
X134515739Y-66583771D01*
X134515739Y-66583768D01*
X134454357Y-66394854D01*
X134364173Y-66217859D01*
X134337083Y-66180575D01*
X133774309Y-66743349D01*
X133758196Y-66683211D01*
X133691317Y-66567372D01*
X133596735Y-66472790D01*
X133480896Y-66405911D01*
X133420757Y-66389796D01*
X133876446Y-65934108D01*
X154499500Y-65934108D01*
X154499500Y-66065891D01*
X154533608Y-66193187D01*
X154566554Y-66250250D01*
X154599500Y-66307314D01*
X154692686Y-66400500D01*
X154806814Y-66466392D01*
X154934108Y-66500500D01*
X154934110Y-66500500D01*
X155065890Y-66500500D01*
X155065892Y-66500500D01*
X155193186Y-66466392D01*
X155307314Y-66400500D01*
X155400500Y-66307314D01*
X155466392Y-66193186D01*
X155500500Y-66065892D01*
X155500500Y-65934108D01*
X157999500Y-65934108D01*
X157999500Y-66065891D01*
X158033608Y-66193187D01*
X158066554Y-66250250D01*
X158099500Y-66307314D01*
X158192686Y-66400500D01*
X158306814Y-66466392D01*
X158434108Y-66500500D01*
X158434110Y-66500500D01*
X158565890Y-66500500D01*
X158565892Y-66500500D01*
X158693186Y-66466392D01*
X158807314Y-66400500D01*
X158900500Y-66307314D01*
X158966392Y-66193186D01*
X159000500Y-66065892D01*
X159000500Y-65934108D01*
X158966392Y-65806814D01*
X158900500Y-65692686D01*
X158807314Y-65599500D01*
X158750250Y-65566554D01*
X158693187Y-65533608D01*
X158629539Y-65516554D01*
X158565892Y-65499500D01*
X158434108Y-65499500D01*
X158306812Y-65533608D01*
X158192686Y-65599500D01*
X158192683Y-65599502D01*
X158099502Y-65692683D01*
X158099500Y-65692686D01*
X158033608Y-65806812D01*
X157999500Y-65934108D01*
X155500500Y-65934108D01*
X155466392Y-65806814D01*
X155400500Y-65692686D01*
X155307314Y-65599500D01*
X155250250Y-65566554D01*
X155193187Y-65533608D01*
X155129539Y-65516554D01*
X155065892Y-65499500D01*
X154934108Y-65499500D01*
X154806812Y-65533608D01*
X154692686Y-65599500D01*
X154692683Y-65599502D01*
X154599502Y-65692683D01*
X154599500Y-65692686D01*
X154533608Y-65806812D01*
X154499500Y-65934108D01*
X133876446Y-65934108D01*
X133983531Y-65827023D01*
X133983530Y-65827022D01*
X133946247Y-65799933D01*
X133769252Y-65709749D01*
X133580337Y-65648367D01*
X133384136Y-65617292D01*
X133185494Y-65617292D01*
X132989294Y-65648367D01*
X132989291Y-65648367D01*
X132800377Y-65709749D01*
X132623379Y-65799935D01*
X132586098Y-65827021D01*
X132586097Y-65827022D01*
X133148873Y-66389796D01*
X133088734Y-66405911D01*
X132972895Y-66472790D01*
X132878313Y-66567372D01*
X132811434Y-66683211D01*
X132795319Y-66743349D01*
X132232545Y-66180574D01*
X132232543Y-66180575D01*
X132231133Y-66182517D01*
X132175803Y-66225183D01*
X132106190Y-66231162D01*
X132044395Y-66198556D01*
X132010038Y-66137718D01*
X132009382Y-66134732D01*
X131962662Y-65908700D01*
X131950169Y-65875205D01*
X131950165Y-65875198D01*
X131864005Y-65760104D01*
X131864002Y-65760101D01*
X131748908Y-65673941D01*
X131748901Y-65673937D01*
X131614194Y-65623695D01*
X131614187Y-65623693D01*
X131554659Y-65617292D01*
X130994815Y-65617292D01*
X130994815Y-66437040D01*
X130940896Y-66405911D01*
X130811695Y-66371292D01*
X130677935Y-66371292D01*
X130548734Y-66405911D01*
X130494815Y-66437040D01*
X130494815Y-65617292D01*
X130096663Y-65617292D01*
X130029624Y-65597607D01*
X129983869Y-65544803D01*
X129973925Y-65475645D01*
X129985779Y-65437788D01*
X130386207Y-64637834D01*
X130388259Y-64633911D01*
X130407049Y-64599500D01*
X130890832Y-63713518D01*
X130892975Y-63709752D01*
X131428124Y-62807808D01*
X131430443Y-62804057D01*
X131585245Y-62563181D01*
X131997367Y-61921904D01*
X131999819Y-61918235D01*
X132523216Y-61164399D01*
X136455439Y-61164399D01*
X136455439Y-61512648D01*
X136494428Y-61858682D01*
X136494430Y-61858694D01*
X136571921Y-62198208D01*
X136571924Y-62198216D01*
X136686938Y-62526906D01*
X136838031Y-62840654D01*
X137023310Y-63135523D01*
X137023311Y-63135525D01*
X137240426Y-63407780D01*
X137486682Y-63654036D01*
X137758937Y-63871151D01*
X137758940Y-63871152D01*
X137758942Y-63871154D01*
X138053806Y-64056430D01*
X138367560Y-64207526D01*
X138527834Y-64263608D01*
X138696246Y-64322538D01*
X138696254Y-64322541D01*
X138696257Y-64322541D01*
X138696258Y-64322542D01*
X139035768Y-64400033D01*
X139381815Y-64439023D01*
X139381816Y-64439024D01*
X139381819Y-64439024D01*
X139730062Y-64439024D01*
X139730062Y-64439023D01*
X140076110Y-64400033D01*
X140415620Y-64322542D01*
X140744318Y-64207526D01*
X141058072Y-64056430D01*
X141252746Y-63934108D01*
X143499500Y-63934108D01*
X143499500Y-64065891D01*
X143533608Y-64193187D01*
X143541886Y-64207524D01*
X143599500Y-64307314D01*
X143692686Y-64400500D01*
X143791521Y-64457563D01*
X143806810Y-64466390D01*
X143806814Y-64466392D01*
X143934108Y-64500500D01*
X143934110Y-64500500D01*
X144065890Y-64500500D01*
X144065892Y-64500500D01*
X144193186Y-64466392D01*
X144278540Y-64417113D01*
X144340540Y-64400500D01*
X145782745Y-64400500D01*
X145849784Y-64420185D01*
X145870426Y-64436819D01*
X146675179Y-65241571D01*
X146675189Y-65241582D01*
X146679519Y-65245912D01*
X146679520Y-65245913D01*
X146754087Y-65320480D01*
X146845413Y-65373207D01*
X146947273Y-65400501D01*
X146947275Y-65400501D01*
X147060323Y-65400501D01*
X147060339Y-65400500D01*
X150552725Y-65400500D01*
X150552727Y-65400500D01*
X150654588Y-65373207D01*
X150745913Y-65320480D01*
X151402285Y-64664108D01*
X154499500Y-64664108D01*
X154499500Y-64795891D01*
X154533608Y-64923187D01*
X154566554Y-64980250D01*
X154599500Y-65037314D01*
X154692686Y-65130500D01*
X154806814Y-65196392D01*
X154934108Y-65230500D01*
X154934110Y-65230500D01*
X155065890Y-65230500D01*
X155065892Y-65230500D01*
X155193186Y-65196392D01*
X155307314Y-65130500D01*
X155400500Y-65037314D01*
X155466392Y-64923186D01*
X155500500Y-64795892D01*
X155500500Y-64664108D01*
X155466392Y-64536814D01*
X155400500Y-64422686D01*
X155307314Y-64329500D01*
X155250250Y-64296554D01*
X155193187Y-64263608D01*
X155129539Y-64246554D01*
X155065892Y-64229500D01*
X154934108Y-64229500D01*
X154806812Y-64263608D01*
X154692686Y-64329500D01*
X154692683Y-64329502D01*
X154599502Y-64422683D01*
X154599500Y-64422686D01*
X154533608Y-64536812D01*
X154499500Y-64664108D01*
X151402285Y-64664108D01*
X152629574Y-63436819D01*
X152690897Y-63403334D01*
X152717255Y-63400500D01*
X155552726Y-63400500D01*
X155552728Y-63400500D01*
X155654589Y-63373207D01*
X155745914Y-63320480D01*
X157844593Y-61221798D01*
X157905914Y-61188315D01*
X157975605Y-61193299D01*
X157988568Y-61198997D01*
X158000775Y-61205217D01*
X158000778Y-61205217D01*
X158000782Y-61205220D01*
X158135246Y-61248910D01*
X158195466Y-61268477D01*
X158296558Y-61284488D01*
X158397649Y-61300500D01*
X158397650Y-61300500D01*
X158602352Y-61300500D01*
X158602353Y-61300500D01*
X158804535Y-61268477D01*
X158999220Y-61205220D01*
X159181611Y-61112287D01*
X159324222Y-61008675D01*
X159347214Y-60991971D01*
X159347216Y-60991968D01*
X159347220Y-60991966D01*
X159491967Y-60847219D01*
X159491969Y-60847215D01*
X159491972Y-60847213D01*
X159567551Y-60743186D01*
X159612288Y-60681610D01*
X159705221Y-60499219D01*
X159709458Y-60486180D01*
X159748896Y-60428505D01*
X159813255Y-60401308D01*
X159827388Y-60400500D01*
X163732746Y-60400500D01*
X163762186Y-60409144D01*
X163792173Y-60415668D01*
X163797188Y-60419422D01*
X163799785Y-60420185D01*
X163820427Y-60436819D01*
X163976005Y-60592397D01*
X164008099Y-60647984D01*
X164033608Y-60743185D01*
X164099500Y-60857313D01*
X164192686Y-60950499D01*
X164291521Y-61007562D01*
X164293449Y-61008675D01*
X164306814Y-61016391D01*
X164434108Y-61050499D01*
X164434110Y-61050499D01*
X164565890Y-61050499D01*
X164565892Y-61050499D01*
X164693186Y-61016391D01*
X164807314Y-60950499D01*
X164900500Y-60857313D01*
X164966392Y-60743185D01*
X165000500Y-60615891D01*
X165000500Y-60484107D01*
X164966392Y-60356813D01*
X164900500Y-60242685D01*
X164807314Y-60149499D01*
X164693186Y-60083607D01*
X164597985Y-60058098D01*
X164542398Y-60026004D01*
X164195916Y-59679522D01*
X164195914Y-59679520D01*
X164136251Y-59645073D01*
X164104590Y-59626793D01*
X164053658Y-59613146D01*
X164002728Y-59599500D01*
X164002727Y-59599500D01*
X159827388Y-59599500D01*
X159760349Y-59579815D01*
X159714594Y-59527011D01*
X159709458Y-59513820D01*
X159705221Y-59500780D01*
X159650687Y-59393753D01*
X159612288Y-59318390D01*
X159604557Y-59307749D01*
X159491972Y-59152786D01*
X159347214Y-59008028D01*
X159181614Y-58887715D01*
X159181613Y-58887714D01*
X159181611Y-58887713D01*
X159107503Y-58849953D01*
X158999224Y-58794781D01*
X158804535Y-58731522D01*
X158629996Y-58703878D01*
X158602353Y-58699500D01*
X158397649Y-58699500D01*
X158373330Y-58703351D01*
X158195466Y-58731522D01*
X158000777Y-58794781D01*
X157818387Y-58887715D01*
X157652787Y-59008028D01*
X157508029Y-59152786D01*
X157387716Y-59318386D01*
X157294782Y-59500776D01*
X157231523Y-59695465D01*
X157203235Y-59874071D01*
X157199501Y-59897648D01*
X157199501Y-60102352D01*
X157206969Y-60149501D01*
X157231524Y-60304535D01*
X157231524Y-60304538D01*
X157294779Y-60499217D01*
X157301005Y-60511436D01*
X157313899Y-60580105D01*
X157287620Y-60644845D01*
X157278199Y-60655408D01*
X155370427Y-62563181D01*
X155309104Y-62596666D01*
X155282746Y-62599500D01*
X152447273Y-62599500D01*
X152345410Y-62626793D01*
X152254087Y-62679520D01*
X152254084Y-62679522D01*
X150370426Y-64563181D01*
X150309103Y-64596666D01*
X150282745Y-64599500D01*
X147217254Y-64599500D01*
X147150215Y-64579815D01*
X147129573Y-64563181D01*
X146245915Y-63679522D01*
X146245914Y-63679521D01*
X146245913Y-63679520D01*
X146200250Y-63653156D01*
X146154589Y-63626793D01*
X146103657Y-63613146D01*
X146052727Y-63599500D01*
X146052726Y-63599500D01*
X144340540Y-63599500D01*
X144278540Y-63582887D01*
X144193188Y-63533609D01*
X144193187Y-63533608D01*
X144193186Y-63533608D01*
X144065892Y-63499500D01*
X143934108Y-63499500D01*
X143806812Y-63533608D01*
X143692686Y-63599500D01*
X143692683Y-63599502D01*
X143599502Y-63692683D01*
X143599500Y-63692686D01*
X143533608Y-63806812D01*
X143499500Y-63934108D01*
X141252746Y-63934108D01*
X141352936Y-63871154D01*
X141625202Y-63654030D01*
X141871445Y-63407787D01*
X141874997Y-63403334D01*
X142088566Y-63135525D01*
X142088567Y-63135523D01*
X142088569Y-63135521D01*
X142273845Y-62840657D01*
X142424941Y-62526903D01*
X142539957Y-62198205D01*
X142617448Y-61858695D01*
X142656439Y-61512644D01*
X142656439Y-61164404D01*
X142617448Y-60818353D01*
X142539957Y-60478843D01*
X142424941Y-60150145D01*
X142291991Y-59874071D01*
X152900000Y-59874071D01*
X152900000Y-60125928D01*
X152939397Y-60374669D01*
X153017219Y-60614184D01*
X153131557Y-60838583D01*
X153205748Y-60940697D01*
X153205748Y-60940698D01*
X153822957Y-60323489D01*
X153835979Y-60354927D01*
X153917980Y-60477651D01*
X154022349Y-60582020D01*
X154145073Y-60664021D01*
X154176509Y-60677042D01*
X153559300Y-61294250D01*
X153661416Y-61368442D01*
X153885815Y-61482780D01*
X154125330Y-61560602D01*
X154374072Y-61600000D01*
X154625928Y-61600000D01*
X154874669Y-61560602D01*
X155114184Y-61482780D01*
X155338575Y-61368446D01*
X155338581Y-61368442D01*
X155440697Y-61294250D01*
X155440698Y-61294250D01*
X154823490Y-60677042D01*
X154854927Y-60664021D01*
X154977651Y-60582020D01*
X155082020Y-60477651D01*
X155164021Y-60354927D01*
X155177042Y-60323490D01*
X155794250Y-60940698D01*
X155794250Y-60940697D01*
X155868442Y-60838581D01*
X155868446Y-60838575D01*
X155982780Y-60614184D01*
X156060602Y-60374669D01*
X156100000Y-60125928D01*
X156100000Y-59874071D01*
X156060602Y-59625330D01*
X155982780Y-59385815D01*
X155868442Y-59161416D01*
X155794250Y-59059301D01*
X155794250Y-59059300D01*
X155177042Y-59676508D01*
X155164021Y-59645073D01*
X155082020Y-59522349D01*
X154977651Y-59417980D01*
X154854927Y-59335979D01*
X154823488Y-59322956D01*
X155440698Y-58705748D01*
X155338583Y-58631557D01*
X155114184Y-58517219D01*
X154874669Y-58439397D01*
X154625928Y-58400000D01*
X154374072Y-58400000D01*
X154125330Y-58439397D01*
X153885815Y-58517219D01*
X153661413Y-58631559D01*
X153559301Y-58705747D01*
X153559300Y-58705748D01*
X154176509Y-59322957D01*
X154145073Y-59335979D01*
X154022349Y-59417980D01*
X153917980Y-59522349D01*
X153835979Y-59645073D01*
X153822957Y-59676509D01*
X153205748Y-59059300D01*
X153205747Y-59059301D01*
X153131559Y-59161413D01*
X153017219Y-59385815D01*
X152939397Y-59625330D01*
X152900000Y-59874071D01*
X142291991Y-59874071D01*
X142273848Y-59836396D01*
X142088567Y-59541524D01*
X142088566Y-59541522D01*
X141871451Y-59269267D01*
X141625201Y-59023017D01*
X141408187Y-58849955D01*
X141408185Y-58849953D01*
X141352940Y-58805896D01*
X141352938Y-58805895D01*
X141058069Y-58620616D01*
X140744321Y-58469523D01*
X140415631Y-58354509D01*
X140415623Y-58354506D01*
X140160987Y-58296387D01*
X140076110Y-58277015D01*
X140076106Y-58277014D01*
X140076097Y-58277013D01*
X139730063Y-58238024D01*
X139730059Y-58238024D01*
X139381819Y-58238024D01*
X139381814Y-58238024D01*
X139035780Y-58277013D01*
X139035768Y-58277015D01*
X138696254Y-58354506D01*
X138696246Y-58354509D01*
X138367556Y-58469523D01*
X138053808Y-58620616D01*
X137758939Y-58805895D01*
X137758937Y-58805896D01*
X137486682Y-59023011D01*
X137240426Y-59269267D01*
X137023311Y-59541522D01*
X137023310Y-59541524D01*
X136838031Y-59836393D01*
X136686938Y-60150141D01*
X136571924Y-60478831D01*
X136571921Y-60478839D01*
X136494430Y-60818353D01*
X136494428Y-60818365D01*
X136455439Y-61164399D01*
X132523216Y-61164399D01*
X132597935Y-61056783D01*
X132600452Y-61053294D01*
X133228924Y-60213754D01*
X133231596Y-60210313D01*
X133889636Y-59393735D01*
X133892446Y-59390373D01*
X134579183Y-58597835D01*
X134582136Y-58594549D01*
X134654133Y-58517219D01*
X135296739Y-57827011D01*
X135299758Y-57823883D01*
X136041298Y-57082343D01*
X136044426Y-57079324D01*
X136811970Y-56364715D01*
X136815257Y-56361763D01*
X137607788Y-55675031D01*
X137611150Y-55672221D01*
X138427728Y-55014181D01*
X138431169Y-55011509D01*
X139270709Y-54383037D01*
X139274208Y-54380513D01*
X140135662Y-53782395D01*
X140139331Y-53779945D01*
X141021485Y-53213019D01*
X141025223Y-53210709D01*
X141927167Y-52675560D01*
X141930933Y-52673417D01*
X142851344Y-52170834D01*
X142855249Y-52168792D01*
X143320096Y-51936106D01*
X143320098Y-51936105D01*
X143793004Y-51699385D01*
X143796998Y-51697475D01*
X143925962Y-51638579D01*
X144750853Y-51261863D01*
X144754904Y-51260100D01*
X145723790Y-50858775D01*
X145727794Y-50857199D01*
X146218783Y-50674069D01*
X152900000Y-50674069D01*
X152900000Y-50925926D01*
X152939397Y-51174667D01*
X153017219Y-51414182D01*
X153131557Y-51638581D01*
X153205748Y-51740695D01*
X153205748Y-51740696D01*
X153822957Y-51123487D01*
X153835979Y-51154925D01*
X153917980Y-51277649D01*
X154022349Y-51382018D01*
X154145073Y-51464019D01*
X154176509Y-51477040D01*
X153559300Y-52094248D01*
X153661416Y-52168440D01*
X153885815Y-52282778D01*
X154125330Y-52360600D01*
X154374072Y-52399998D01*
X154625928Y-52399998D01*
X154874669Y-52360600D01*
X155114184Y-52282778D01*
X155338575Y-52168444D01*
X155338581Y-52168440D01*
X155440697Y-52094248D01*
X155440698Y-52094248D01*
X154823490Y-51477040D01*
X154854927Y-51464019D01*
X154977651Y-51382018D01*
X155082020Y-51277649D01*
X155164021Y-51154925D01*
X155177042Y-51123488D01*
X155794250Y-51740696D01*
X155794250Y-51740695D01*
X155868442Y-51638579D01*
X155868446Y-51638573D01*
X155982780Y-51414182D01*
X156060602Y-51174667D01*
X156100000Y-50925926D01*
X156100000Y-50697646D01*
X157199501Y-50697646D01*
X157199501Y-50902349D01*
X157231523Y-51104532D01*
X157294782Y-51299221D01*
X157387716Y-51481611D01*
X157508029Y-51647211D01*
X157652787Y-51791969D01*
X157807750Y-51904554D01*
X157818391Y-51912285D01*
X157934608Y-51971501D01*
X158000777Y-52005216D01*
X158000779Y-52005216D01*
X158000782Y-52005218D01*
X158105138Y-52039125D01*
X158195466Y-52068475D01*
X158296558Y-52084486D01*
X158397649Y-52100498D01*
X158397650Y-52100498D01*
X158602352Y-52100498D01*
X158602353Y-52100498D01*
X158804535Y-52068475D01*
X158999220Y-52005218D01*
X159181611Y-51912285D01*
X159274591Y-51844730D01*
X159347214Y-51791969D01*
X159347216Y-51791966D01*
X159347220Y-51791964D01*
X159491967Y-51647217D01*
X159491969Y-51647213D01*
X159491972Y-51647211D01*
X159584029Y-51520503D01*
X159612288Y-51481608D01*
X159705221Y-51299217D01*
X159768478Y-51104532D01*
X159800501Y-50902350D01*
X159800501Y-50697646D01*
X159768478Y-50495464D01*
X159766930Y-50490701D01*
X159739128Y-50405135D01*
X159705221Y-50300779D01*
X159705219Y-50300776D01*
X159705219Y-50300774D01*
X159663032Y-50217978D01*
X159612288Y-50118388D01*
X159604557Y-50107747D01*
X159491972Y-49952784D01*
X159347214Y-49808026D01*
X159181614Y-49687713D01*
X159181613Y-49687712D01*
X159181611Y-49687711D01*
X159124654Y-49658689D01*
X158999224Y-49594779D01*
X158804535Y-49531520D01*
X158629996Y-49503876D01*
X158602353Y-49499498D01*
X158397649Y-49499498D01*
X158373330Y-49503349D01*
X158195466Y-49531520D01*
X158000777Y-49594779D01*
X157818387Y-49687713D01*
X157652787Y-49808026D01*
X157508029Y-49952784D01*
X157387716Y-50118384D01*
X157294782Y-50300774D01*
X157231523Y-50495463D01*
X157199501Y-50697646D01*
X156100000Y-50697646D01*
X156100000Y-50674069D01*
X156060602Y-50425328D01*
X155982780Y-50185813D01*
X155868442Y-49961414D01*
X155794250Y-49859299D01*
X155794250Y-49859298D01*
X155177042Y-50476506D01*
X155164021Y-50445071D01*
X155082020Y-50322347D01*
X154977651Y-50217978D01*
X154854927Y-50135977D01*
X154823488Y-50122954D01*
X155440698Y-49505746D01*
X155338583Y-49431555D01*
X155114184Y-49317217D01*
X154874669Y-49239395D01*
X154625928Y-49199998D01*
X154374072Y-49199998D01*
X154125330Y-49239395D01*
X153885815Y-49317217D01*
X153661413Y-49431557D01*
X153559301Y-49505745D01*
X153559300Y-49505746D01*
X154176509Y-50122955D01*
X154145073Y-50135977D01*
X154022349Y-50217978D01*
X153917980Y-50322347D01*
X153835979Y-50445071D01*
X153822957Y-50476507D01*
X153205748Y-49859298D01*
X153205747Y-49859299D01*
X153131559Y-49961411D01*
X153017219Y-50185813D01*
X152939397Y-50425328D01*
X152900000Y-50674069D01*
X146218783Y-50674069D01*
X146710464Y-50490681D01*
X146714531Y-50489248D01*
X147709551Y-50158073D01*
X147713748Y-50156759D01*
X148719984Y-49861301D01*
X148724173Y-49860152D01*
X149740307Y-49600800D01*
X149744565Y-49599793D01*
X150769289Y-49376878D01*
X150773568Y-49376027D01*
X151805624Y-49189823D01*
X151809949Y-49189122D01*
X152847956Y-49039879D01*
X152852298Y-49039334D01*
X153895042Y-48927227D01*
X153899338Y-48926844D01*
X154945358Y-48852030D01*
X154949765Y-48851794D01*
X155997753Y-48814364D01*
X156002179Y-48814286D01*
X157050825Y-48814286D01*
X157055250Y-48814364D01*
G37*
%TD.AperFunction*%
%TA.AperFunction,Conductor*%
G36*
X132811434Y-87395373D02*
G01*
X132878313Y-87511212D01*
X132972895Y-87605794D01*
X133088734Y-87672673D01*
X133148872Y-87688786D01*
X132586098Y-88251560D01*
X132586098Y-88251561D01*
X132623382Y-88278650D01*
X132780697Y-88358807D01*
X132831493Y-88406782D01*
X132848288Y-88474603D01*
X132825750Y-88540738D01*
X132780697Y-88579777D01*
X132623379Y-88659935D01*
X132586098Y-88687021D01*
X132586097Y-88687022D01*
X133148873Y-89249796D01*
X133088734Y-89265911D01*
X132972895Y-89332790D01*
X132878313Y-89427372D01*
X132811434Y-89543211D01*
X132795319Y-89603349D01*
X132232545Y-89040574D01*
X132232544Y-89040575D01*
X132205458Y-89077856D01*
X132125300Y-89235174D01*
X132077325Y-89285970D01*
X132009504Y-89302765D01*
X131943369Y-89280227D01*
X131904330Y-89235174D01*
X131824173Y-89077859D01*
X131797083Y-89040575D01*
X131234309Y-89603349D01*
X131218196Y-89543211D01*
X131151317Y-89427372D01*
X131056735Y-89332790D01*
X130940896Y-89265911D01*
X130880757Y-89249796D01*
X131443531Y-88687023D01*
X131443530Y-88687022D01*
X131406247Y-88659933D01*
X131248932Y-88579777D01*
X131198136Y-88531802D01*
X131181341Y-88463981D01*
X131203878Y-88397846D01*
X131248932Y-88358807D01*
X131406240Y-88278654D01*
X131443531Y-88251560D01*
X130880757Y-87688786D01*
X130940896Y-87672673D01*
X131056735Y-87605794D01*
X131151317Y-87511212D01*
X131218196Y-87395373D01*
X131234310Y-87335234D01*
X131797083Y-87898007D01*
X131824177Y-87860717D01*
X131904330Y-87703409D01*
X131952304Y-87652613D01*
X132020125Y-87635818D01*
X132086260Y-87658355D01*
X132125300Y-87703409D01*
X132205456Y-87860724D01*
X132232545Y-87898007D01*
X132232546Y-87898008D01*
X132795319Y-87335234D01*
X132811434Y-87395373D01*
G37*
%TD.AperFunction*%
%TD*%
M02*
