%TF.GenerationSoftware,KiCad,Pcbnew,9.0.6*%
%TF.CreationDate,2026-01-30T11:20:47+00:00*%
%TF.ProjectId,mu,6d752e6b-6963-4616-945f-706362585858,rev?*%
%TF.SameCoordinates,Original*%
%TF.FileFunction,Copper,L3,Inr*%
%TF.FilePolarity,Positive*%
%FSLAX46Y46*%
G04 Gerber Fmt 4.6, Leading zero omitted, Abs format (unit mm)*
G04 Created by KiCad (PCBNEW 9.0.6) date 2026-01-30 11:20:47*
%MOMM*%
%LPD*%
G01*
G04 APERTURE LIST*
G04 Aperture macros list*
%AMRoundRect*
0 Rectangle with rounded corners*
0 $1 Rounding radius*
0 $2 $3 $4 $5 $6 $7 $8 $9 X,Y pos of 4 corners*
0 Add a 4 corners polygon primitive as box body*
4,1,4,$2,$3,$4,$5,$6,$7,$8,$9,$2,$3,0*
0 Add four circle primitives for the rounded corners*
1,1,$1+$1,$2,$3*
1,1,$1+$1,$4,$5*
1,1,$1+$1,$6,$7*
1,1,$1+$1,$8,$9*
0 Add four rect primitives between the rounded corners*
20,1,$1+$1,$2,$3,$4,$5,0*
20,1,$1+$1,$4,$5,$6,$7,0*
20,1,$1+$1,$6,$7,$8,$9,0*
20,1,$1+$1,$8,$9,$2,$3,0*%
G04 Aperture macros list end*
%TA.AperFunction,Conductor*%
%ADD10C,0.200000*%
%TD*%
%TA.AperFunction,ComponentPad*%
%ADD11R,1.600200X1.600200*%
%TD*%
%TA.AperFunction,ComponentPad*%
%ADD12C,1.600200*%
%TD*%
%TA.AperFunction,ComponentPad*%
%ADD13RoundRect,0.250000X0.600000X-0.600000X0.600000X0.600000X-0.600000X0.600000X-0.600000X-0.600000X0*%
%TD*%
%TA.AperFunction,ComponentPad*%
%ADD14C,1.700000*%
%TD*%
%TA.AperFunction,ComponentPad*%
%ADD15R,1.524000X1.524000*%
%TD*%
%TA.AperFunction,ComponentPad*%
%ADD16C,1.524000*%
%TD*%
%TA.AperFunction,ComponentPad*%
%ADD17C,2.550000*%
%TD*%
%TA.AperFunction,ComponentPad*%
%ADD18R,2.550000X2.550000*%
%TD*%
%TA.AperFunction,ComponentPad*%
%ADD19C,1.508000*%
%TD*%
%TA.AperFunction,ViaPad*%
%ADD20C,0.600000*%
%TD*%
%TA.AperFunction,Conductor*%
%ADD21C,0.100000*%
%TD*%
G04 APERTURE END LIST*
D10*
%TO.N,SPI_MOSI*%
X168500000Y-81500000D02*
X168000000Y-81000000D01*
X168500000Y-80500000D01*
X168500000Y-81500000D01*
%TA.AperFunction,Conductor*%
G36*
X168500000Y-81500000D02*
G01*
X168000000Y-81000000D01*
X168500000Y-80500000D01*
X168500000Y-81500000D01*
G37*
%TD.AperFunction*%
%TD*%
D11*
%TO.N,GND*%
%TO.C,MOSFET1*%
X166500000Y-53170000D03*
D12*
%TO.N,Net-(MOSFET1-D)*%
X166500000Y-55710000D03*
%TO.N,VBAT_Local*%
X166500000Y-58250000D03*
%TD*%
D13*
%TO.N,NRST*%
%TO.C,J1*%
X161580000Y-102502736D03*
D14*
%TO.N,SWCLK*%
X161580000Y-99962736D03*
%TO.N,unconnected-(J1-Pin_3-Pad3)*%
X159040000Y-102502736D03*
%TO.N,SWDIO*%
X159040000Y-99962736D03*
%TO.N,GND*%
X156500000Y-102502736D03*
X156500000Y-99962736D03*
%TO.N,3.3V_Dig*%
X153960000Y-102502736D03*
X153960000Y-99962736D03*
%TO.N,unconnected-(J1-Pin_9-Pad9)*%
X151420000Y-102502736D03*
%TO.N,unconnected-(J1-Pin_10-Pad10)*%
X151420000Y-99962736D03*
%TD*%
D15*
%TO.N,unconnected-(J5-Pad01)*%
%TO.C,J5*%
X130744815Y-66879292D03*
D16*
%TO.N,unconnected-(J5-Pad02)*%
X133284815Y-66879292D03*
%TO.N,GND*%
X130744815Y-69419292D03*
X133284815Y-69419292D03*
%TO.N,5V_LOGIC*%
X130744815Y-71959292D03*
X133284815Y-71959292D03*
%TO.N,GND*%
X130744815Y-74499292D03*
X133284815Y-74499292D03*
%TO.N,unconnected-(J5-Pad09)*%
X130744815Y-77039292D03*
%TO.N,unconnected-(J5-Pad10)*%
X133284815Y-77039292D03*
%TO.N,unconnected-(J5-Pad11)*%
X130744815Y-79579292D03*
%TO.N,unconnected-(J5-Pad12)*%
X133284815Y-79579292D03*
%TO.N,unconnected-(J5-Pad13)*%
X130744815Y-82119292D03*
%TO.N,GND*%
X133284815Y-82119292D03*
%TO.N,unconnected-(J5-Pad15)*%
X130744815Y-84659292D03*
%TO.N,CAN_o+*%
X133284815Y-84659292D03*
%TO.N,unconnected-(J5-Pad17)*%
X130744815Y-87199292D03*
%TO.N,CAN_o-*%
X133284815Y-87199292D03*
%TO.N,GND*%
X130744815Y-89739292D03*
X133284815Y-89739292D03*
%TD*%
D17*
%TO.N,GND*%
%TO.C,J2*%
X154500000Y-60337500D03*
D18*
%TO.N,Net-(MOSFET1-D)*%
X159500000Y-60337500D03*
D19*
%TO.N,N/C*%
X151500000Y-50337500D03*
X162500000Y-50337500D03*
%TD*%
D20*
%TO.N,GND*%
X149585899Y-63595000D03*
X147000000Y-71000000D03*
X183000000Y-76192000D03*
X177024000Y-76712000D03*
X165299118Y-91500000D03*
X148500000Y-89500000D03*
X158500000Y-88500000D03*
X153641474Y-64730000D03*
X145000000Y-96000000D03*
X149371899Y-85596400D03*
X161647918Y-76476339D03*
X154775744Y-94086411D03*
X150500000Y-59750000D03*
X141000000Y-82000000D03*
X170500000Y-67000000D03*
X154915380Y-71834620D03*
X160400000Y-79649454D03*
X159500000Y-63000000D03*
X160250298Y-82874552D03*
X146575000Y-59356000D03*
X157600000Y-86589000D03*
X163745558Y-82129442D03*
X155371962Y-85784152D03*
X143500000Y-68000000D03*
X163125001Y-67549999D03*
X153640474Y-67263078D03*
X159625001Y-65549999D03*
X168500000Y-73000000D03*
X152000000Y-94500000D03*
X151568905Y-71068905D03*
X163079459Y-83427988D03*
X147000000Y-69500000D03*
X152000000Y-81500000D03*
X148125000Y-87500000D03*
X179500000Y-76192000D03*
X171000000Y-78500000D03*
X156872053Y-94895824D03*
X152500000Y-59250000D03*
X165860966Y-80156412D03*
X165500000Y-95000000D03*
X150000000Y-96000000D03*
X152415818Y-76364183D03*
X152000000Y-79000000D03*
X170500000Y-76500000D03*
X155540000Y-68750000D03*
X144781498Y-65137344D03*
X165500000Y-75564799D03*
X163125001Y-63549999D03*
X160449429Y-94364214D03*
X183500000Y-82976000D03*
X161046890Y-69577988D03*
X160400000Y-76750000D03*
X158385149Y-93500000D03*
X153386136Y-74008305D03*
X139000000Y-89500000D03*
X158125000Y-72400000D03*
X163500000Y-76356301D03*
X154500000Y-55500000D03*
X148595000Y-62336000D03*
X143000000Y-87000000D03*
X161000000Y-88500000D03*
X167500000Y-69500000D03*
X184000000Y-73212000D03*
X160500000Y-71000000D03*
X169000000Y-57750000D03*
X149500000Y-66000000D03*
X137790223Y-85897800D03*
X144500000Y-71000000D03*
X146500000Y-75000000D03*
X148473993Y-75024668D03*
X177524000Y-73212000D03*
X154500000Y-89250000D03*
%TO.N,3.3V_Dig*%
X161750000Y-79796870D03*
X164500000Y-75856301D03*
X149000000Y-91500000D03*
X171000000Y-82500000D03*
X167500000Y-79365243D03*
X162000000Y-67549999D03*
X156000000Y-70250000D03*
X166293225Y-91600756D03*
X159474999Y-94579000D03*
%TO.N,HV*%
X175000000Y-75000000D03*
%TO.N,5V*%
X183500000Y-79980000D03*
X148371899Y-67000000D03*
X159000000Y-71500000D03*
X156000000Y-71500000D03*
%TO.N,Latch_Out*%
X157570896Y-68515098D03*
X161784995Y-87170905D03*
%TO.N,VBAT_Local*%
X144750000Y-63750000D03*
X164500000Y-60549999D03*
%TO.N,NRST*%
X157383057Y-87883057D03*
%TO.N,Latch_Rst*%
X160500000Y-87000000D03*
X158082944Y-67900434D03*
%TO.N,SPI_CS_FLASH*%
X169053800Y-87500000D03*
X163500000Y-86500000D03*
%TO.N,SPI_MOSI*%
X167796073Y-86899146D03*
X158500000Y-66000000D03*
X165000000Y-80183278D03*
%TO.N,SWDIO*%
X156100000Y-90500000D03*
%TO.N,SWCLK*%
X156000000Y-89500000D03*
%TO.N,SPI_SCK*%
X163750000Y-91250000D03*
X155000000Y-66000000D03*
%TO.N,SPI_CS_DAC*%
X163875000Y-84000000D03*
X155000000Y-64730000D03*
%TO.N,Net-(U6-NONIINVERTINGINPUT)*%
X153390323Y-74808297D03*
%TO.N,5V_LOGIC*%
X166350001Y-60649999D03*
%TO.N,SPI_CS_BMP*%
X161416970Y-92637029D03*
X163223212Y-79503979D03*
%TD*%
D10*
%TO.N,GND*%
X153437712Y-86685206D02*
X153500000Y-86622918D01*
%TO.N,Latch_Out*%
X158500000Y-69444202D02*
X158500000Y-70000000D01*
X161000000Y-72500000D02*
X161000000Y-75500000D01*
X161784995Y-83034995D02*
X161784995Y-87170905D01*
X161000000Y-75351143D02*
X161000000Y-82250000D01*
X158500000Y-70000000D02*
X161000000Y-72500000D01*
X161000000Y-82250000D02*
X161784995Y-83034995D01*
X157570896Y-68515098D02*
X158500000Y-69444202D01*
%TO.N,NRST*%
X163500000Y-100582736D02*
X161580000Y-102502736D01*
X160000000Y-90868002D02*
X160000000Y-92500000D01*
X163500000Y-96000000D02*
X163500000Y-100582736D01*
X157500000Y-88000000D02*
X157500000Y-88368002D01*
X157500000Y-88368002D02*
X160000000Y-90868002D01*
X160000000Y-92500000D02*
X163500000Y-96000000D01*
X157383057Y-87883057D02*
X157500000Y-88000000D01*
D21*
%TO.N,CAN_+*%
X152632905Y-89790404D02*
X151937501Y-89095000D01*
X151937501Y-89095000D02*
X151500000Y-89095000D01*
D10*
%TO.N,Latch_Rst*%
X156500000Y-69000000D02*
X157101000Y-69601000D01*
X157085902Y-67914098D02*
X156500000Y-68500000D01*
X157944559Y-68038819D02*
X157819839Y-67914098D01*
X157819839Y-67914098D02*
X157085902Y-67914098D01*
X157101000Y-69601000D02*
X157101000Y-81168100D01*
X156500000Y-68500000D02*
X156500000Y-69000000D01*
X158082944Y-67900434D02*
X157944559Y-68038819D01*
X160500000Y-84567100D02*
X160500000Y-87000000D01*
X157101000Y-81168100D02*
X160500000Y-84567100D01*
%TO.N,SPI_CS_FLASH*%
X163500000Y-86500000D02*
X164500146Y-87500146D01*
X168414197Y-87500146D02*
X168414343Y-87500000D01*
X168414343Y-87500000D02*
X169053800Y-87500000D01*
X164500146Y-87500146D02*
X168414197Y-87500146D01*
%TO.N,SPI_MOSI*%
X168500000Y-86195219D02*
X167796073Y-86899146D01*
X168500000Y-81000000D02*
X168500000Y-86195219D01*
X165000000Y-80183278D02*
X165816722Y-81000000D01*
X158500000Y-66000000D02*
X168500000Y-76000000D01*
X168500000Y-76000000D02*
X168500000Y-81000000D01*
X165816722Y-81000000D02*
X168500000Y-81000000D01*
%TO.N,SWDIO*%
X156100000Y-90500000D02*
X156100000Y-97022736D01*
X156100000Y-97022736D02*
X159040000Y-99962736D01*
%TO.N,SWCLK*%
X157000000Y-89500000D02*
X157634929Y-90134929D01*
X156000000Y-89500000D02*
X157000000Y-89500000D01*
X157634929Y-90134929D02*
X157634929Y-96017665D01*
X157634929Y-96017665D02*
X161580000Y-99962736D01*
%TO.N,SPI_SCK*%
X162250000Y-91250000D02*
X159500000Y-88500000D01*
X157042941Y-84042941D02*
X157000000Y-84042941D01*
X154241474Y-81284415D02*
X154241474Y-66758526D01*
X159500000Y-88500000D02*
X159500000Y-86500000D01*
X159500000Y-86500000D02*
X157042941Y-84042941D01*
X163750000Y-91250000D02*
X162250000Y-91250000D01*
X157000000Y-84042941D02*
X154241474Y-81284415D01*
X154241474Y-66758526D02*
X155000000Y-66000000D01*
%TO.N,SPI_CS_DAC*%
X162500000Y-72000000D02*
X159500000Y-69000000D01*
X156230000Y-64730000D02*
X155000000Y-64730000D01*
X163875000Y-84000000D02*
X163875000Y-83375000D01*
X163875000Y-83375000D02*
X162500000Y-82000000D01*
X159500000Y-68000000D02*
X156230000Y-64730000D01*
X159500000Y-69000000D02*
X159500000Y-68000000D01*
X162500000Y-82000000D02*
X162500000Y-72000000D01*
%TO.N,SPI_CS_BMP*%
X165000000Y-84000000D02*
X162898586Y-86101414D01*
X163223212Y-80326993D02*
X165000000Y-82103781D01*
X162898586Y-86101414D02*
X162898586Y-87398586D01*
X162898586Y-87398586D02*
X164505856Y-89005856D01*
X165000000Y-82103781D02*
X165000000Y-84000000D01*
X164505856Y-89005856D02*
X164505856Y-91695595D01*
X163223212Y-79503979D02*
X163223212Y-80326993D01*
X164505856Y-91695595D02*
X163564422Y-92637029D01*
X163564422Y-92637029D02*
X161416970Y-92637029D01*
%TD*%
%TA.AperFunction,Conductor*%
%TO.N,GND*%
G36*
X157001693Y-68525788D02*
G01*
X157057627Y-68567658D01*
X157078135Y-68609875D01*
X157104504Y-68708284D01*
X157170396Y-68822412D01*
X157263582Y-68915598D01*
X157377710Y-68981490D01*
X157505004Y-69015598D01*
X157505006Y-69015598D01*
X157595063Y-69015598D01*
X157662102Y-69035283D01*
X157682744Y-69051917D01*
X158163181Y-69532354D01*
X158196666Y-69593677D01*
X158199500Y-69620035D01*
X158199500Y-70039562D01*
X158204123Y-70056814D01*
X158219979Y-70115990D01*
X158219980Y-70115991D01*
X158259307Y-70184108D01*
X158259540Y-70184511D01*
X158259542Y-70184513D01*
X158259542Y-70184514D01*
X158892986Y-70817957D01*
X158926471Y-70879280D01*
X158921487Y-70948971D01*
X158879616Y-71004905D01*
X158837401Y-71025412D01*
X158806814Y-71033608D01*
X158806813Y-71033608D01*
X158806811Y-71033609D01*
X158692686Y-71099500D01*
X158692683Y-71099502D01*
X158599502Y-71192683D01*
X158599500Y-71192686D01*
X158533608Y-71306812D01*
X158499500Y-71434108D01*
X158499500Y-71565892D01*
X158510518Y-71607013D01*
X158533608Y-71693187D01*
X158566554Y-71750250D01*
X158599500Y-71807314D01*
X158692686Y-71900500D01*
X158806814Y-71966392D01*
X158934108Y-72000500D01*
X158934110Y-72000500D01*
X159065890Y-72000500D01*
X159065892Y-72000500D01*
X159193186Y-71966392D01*
X159307314Y-71900500D01*
X159400500Y-71807314D01*
X159466392Y-71693186D01*
X159474587Y-71662601D01*
X159510949Y-71602942D01*
X159573795Y-71572411D01*
X159643171Y-71580705D01*
X159682042Y-71607013D01*
X160663181Y-72588152D01*
X160696666Y-72649475D01*
X160699500Y-72675833D01*
X160699500Y-75311581D01*
X160699500Y-82289562D01*
X160704123Y-82306814D01*
X160719979Y-82365990D01*
X160728089Y-82380036D01*
X160730264Y-82383803D01*
X160739640Y-82400043D01*
X160759539Y-82434510D01*
X161448176Y-83123147D01*
X161481661Y-83184470D01*
X161484495Y-83210828D01*
X161484495Y-86712228D01*
X161464810Y-86779267D01*
X161448177Y-86799909D01*
X161384495Y-86863591D01*
X161318603Y-86977717D01*
X161294977Y-87065892D01*
X161284495Y-87105013D01*
X161284495Y-87236797D01*
X161288431Y-87251487D01*
X161318603Y-87364092D01*
X161329264Y-87382557D01*
X161384495Y-87478219D01*
X161477681Y-87571405D01*
X161591809Y-87637297D01*
X161719103Y-87671405D01*
X161719105Y-87671405D01*
X161850885Y-87671405D01*
X161850887Y-87671405D01*
X161978181Y-87637297D01*
X162092309Y-87571405D01*
X162185495Y-87478219D01*
X162251387Y-87364091D01*
X162285495Y-87236797D01*
X162285495Y-87105013D01*
X162251387Y-86977719D01*
X162185495Y-86863591D01*
X162121813Y-86799909D01*
X162088329Y-86738585D01*
X162085495Y-86712228D01*
X162085495Y-82995435D01*
X162085495Y-82995433D01*
X162065017Y-82919007D01*
X162025455Y-82850484D01*
X161336819Y-82161848D01*
X161303334Y-82100525D01*
X161300500Y-82074167D01*
X161300500Y-80330053D01*
X161320185Y-80263014D01*
X161372989Y-80217259D01*
X161442147Y-80207315D01*
X161486498Y-80222665D01*
X161556814Y-80263262D01*
X161684108Y-80297370D01*
X161684110Y-80297370D01*
X161815890Y-80297370D01*
X161815892Y-80297370D01*
X161943186Y-80263262D01*
X162013500Y-80222665D01*
X162081399Y-80206193D01*
X162147426Y-80229045D01*
X162190617Y-80283966D01*
X162199500Y-80330053D01*
X162199500Y-82039562D01*
X162206107Y-82064219D01*
X162219979Y-82115990D01*
X162219982Y-82115995D01*
X162259535Y-82184504D01*
X162259541Y-82184512D01*
X163533426Y-83458397D01*
X163566911Y-83519720D01*
X163561927Y-83589412D01*
X163533427Y-83633759D01*
X163474500Y-83692686D01*
X163408608Y-83806812D01*
X163396071Y-83853603D01*
X163374500Y-83934108D01*
X163374500Y-84065892D01*
X163387923Y-84115989D01*
X163408608Y-84193187D01*
X163441554Y-84250250D01*
X163474500Y-84307314D01*
X163567686Y-84400500D01*
X163681814Y-84466392D01*
X163809108Y-84500500D01*
X163809112Y-84500500D01*
X163810982Y-84501001D01*
X163870642Y-84537365D01*
X163901172Y-84600212D01*
X163892878Y-84669588D01*
X163866570Y-84708457D01*
X162714075Y-85860954D01*
X162658127Y-85916901D01*
X162658121Y-85916909D01*
X162618568Y-85985418D01*
X162618565Y-85985423D01*
X162609465Y-86019385D01*
X162598086Y-86061852D01*
X162598086Y-87438148D01*
X162605654Y-87466391D01*
X162618565Y-87514576D01*
X162618566Y-87514577D01*
X162635618Y-87544112D01*
X162658126Y-87583097D01*
X162658128Y-87583099D01*
X164169037Y-89094008D01*
X164202522Y-89155331D01*
X164205356Y-89181689D01*
X164205356Y-90720197D01*
X164185671Y-90787236D01*
X164132867Y-90832991D01*
X164063709Y-90842935D01*
X164019356Y-90827584D01*
X163943189Y-90783609D01*
X163943186Y-90783608D01*
X163815892Y-90749500D01*
X163684108Y-90749500D01*
X163556812Y-90783608D01*
X163442686Y-90849500D01*
X163442683Y-90849502D01*
X163379005Y-90913181D01*
X163317682Y-90946666D01*
X163291324Y-90949500D01*
X162425833Y-90949500D01*
X162358794Y-90929815D01*
X162338152Y-90913181D01*
X159836819Y-88411848D01*
X159803334Y-88350525D01*
X159800500Y-88324167D01*
X159800500Y-87252206D01*
X159820185Y-87185167D01*
X159872989Y-87139412D01*
X159942147Y-87129468D01*
X160005703Y-87158493D01*
X160031887Y-87190206D01*
X160099497Y-87307310D01*
X160099499Y-87307312D01*
X160099500Y-87307314D01*
X160192686Y-87400500D01*
X160306814Y-87466392D01*
X160434108Y-87500500D01*
X160434110Y-87500500D01*
X160565890Y-87500500D01*
X160565892Y-87500500D01*
X160693186Y-87466392D01*
X160807314Y-87400500D01*
X160900500Y-87307314D01*
X160966392Y-87193186D01*
X161000500Y-87065892D01*
X161000500Y-86934108D01*
X160966392Y-86806814D01*
X160900500Y-86692686D01*
X160836818Y-86629004D01*
X160803334Y-86567680D01*
X160800500Y-86541323D01*
X160800500Y-84527539D01*
X160793255Y-84500500D01*
X160780021Y-84451111D01*
X160780017Y-84451104D01*
X160740464Y-84382595D01*
X160740458Y-84382587D01*
X157437819Y-81079948D01*
X157404334Y-81018625D01*
X157401500Y-80992267D01*
X157401500Y-69561439D01*
X157401500Y-69561438D01*
X157381021Y-69485011D01*
X157343079Y-69419293D01*
X157341464Y-69416495D01*
X157341458Y-69416487D01*
X156836819Y-68911848D01*
X156803334Y-68850525D01*
X156800500Y-68824167D01*
X156800500Y-68675832D01*
X156809144Y-68646392D01*
X156815667Y-68616407D01*
X156819422Y-68611389D01*
X156820185Y-68608793D01*
X156836809Y-68588161D01*
X156870684Y-68554286D01*
X156932001Y-68520804D01*
X157001693Y-68525788D01*
G37*
%TD.AperFunction*%
%TA.AperFunction,Conductor*%
G36*
X160005703Y-67931120D02*
G01*
X160012181Y-67937152D01*
X168163181Y-76088152D01*
X168196666Y-76149475D01*
X168199500Y-76175833D01*
X168199500Y-79113036D01*
X168179815Y-79180075D01*
X168127011Y-79225830D01*
X168057853Y-79235774D01*
X167994297Y-79206749D01*
X167968113Y-79175037D01*
X167938288Y-79123379D01*
X167900500Y-79057929D01*
X167807314Y-78964743D01*
X167750250Y-78931797D01*
X167693187Y-78898851D01*
X167629539Y-78881797D01*
X167565892Y-78864743D01*
X167434108Y-78864743D01*
X167306812Y-78898851D01*
X167192686Y-78964743D01*
X167192683Y-78964745D01*
X167099502Y-79057926D01*
X167099500Y-79057929D01*
X167033608Y-79172055D01*
X167016706Y-79235137D01*
X166999500Y-79299351D01*
X166999500Y-79431135D01*
X167012459Y-79479500D01*
X167033608Y-79558430D01*
X167066554Y-79615493D01*
X167099500Y-79672557D01*
X167192686Y-79765743D01*
X167306814Y-79831635D01*
X167434108Y-79865743D01*
X167434110Y-79865743D01*
X167565890Y-79865743D01*
X167565892Y-79865743D01*
X167693186Y-79831635D01*
X167807314Y-79765743D01*
X167900500Y-79672557D01*
X167932317Y-79617449D01*
X167968113Y-79555449D01*
X168018680Y-79507233D01*
X168087287Y-79494011D01*
X168152152Y-79519979D01*
X168192680Y-79576893D01*
X168199500Y-79617449D01*
X168199500Y-80317096D01*
X168179815Y-80384135D01*
X168163181Y-80404777D01*
X167904777Y-80663181D01*
X167843454Y-80696666D01*
X167817096Y-80699500D01*
X165992555Y-80699500D01*
X165925516Y-80679815D01*
X165904874Y-80663181D01*
X165536819Y-80295126D01*
X165503334Y-80233803D01*
X165500500Y-80207445D01*
X165500500Y-80117388D01*
X165500500Y-80117386D01*
X165466392Y-79990092D01*
X165400500Y-79875964D01*
X165307314Y-79782778D01*
X165250250Y-79749832D01*
X165193187Y-79716886D01*
X165119589Y-79697166D01*
X165065892Y-79682778D01*
X164934108Y-79682778D01*
X164806812Y-79716886D01*
X164692686Y-79782778D01*
X164692683Y-79782780D01*
X164599502Y-79875961D01*
X164599500Y-79875964D01*
X164533608Y-79990090D01*
X164503037Y-80104184D01*
X164499500Y-80117386D01*
X164499500Y-80249170D01*
X164509720Y-80287313D01*
X164533608Y-80376465D01*
X164565815Y-80432248D01*
X164599500Y-80490592D01*
X164692686Y-80583778D01*
X164806814Y-80649670D01*
X164934108Y-80683778D01*
X164934110Y-80683778D01*
X165024167Y-80683778D01*
X165091206Y-80703463D01*
X165111848Y-80720097D01*
X165576262Y-81184511D01*
X165632211Y-81240460D01*
X165632213Y-81240461D01*
X165632217Y-81240464D01*
X165700726Y-81280017D01*
X165700733Y-81280021D01*
X165777160Y-81300500D01*
X167817096Y-81300500D01*
X167884135Y-81320185D01*
X167904777Y-81336819D01*
X168163181Y-81595223D01*
X168196666Y-81656546D01*
X168199500Y-81682904D01*
X168199500Y-86019385D01*
X168179815Y-86086424D01*
X168163181Y-86107066D01*
X167907920Y-86362327D01*
X167846597Y-86395812D01*
X167820239Y-86398646D01*
X167730181Y-86398646D01*
X167602885Y-86432754D01*
X167488759Y-86498646D01*
X167488756Y-86498648D01*
X167395575Y-86591829D01*
X167395573Y-86591832D01*
X167329681Y-86705958D01*
X167302356Y-86807939D01*
X167295573Y-86833254D01*
X167295573Y-86965038D01*
X167316572Y-87043407D01*
X167316611Y-87043553D01*
X167314948Y-87113403D01*
X167275785Y-87171265D01*
X167211557Y-87198769D01*
X167196836Y-87199646D01*
X164675979Y-87199646D01*
X164608940Y-87179961D01*
X164588298Y-87163327D01*
X164036819Y-86611848D01*
X164003334Y-86550525D01*
X164000500Y-86524167D01*
X164000500Y-86434110D01*
X164000500Y-86434108D01*
X163966392Y-86306814D01*
X163900500Y-86192686D01*
X163807314Y-86099500D01*
X163742106Y-86061852D01*
X163693187Y-86033608D01*
X163681204Y-86030397D01*
X163662598Y-86025412D01*
X163602939Y-85989048D01*
X163572410Y-85926201D01*
X163580705Y-85856826D01*
X163607009Y-85817960D01*
X165240460Y-84184511D01*
X165255229Y-84158930D01*
X165280021Y-84115989D01*
X165300500Y-84039562D01*
X165300500Y-82064219D01*
X165292298Y-82033608D01*
X165280022Y-81987793D01*
X165240460Y-81919270D01*
X163560031Y-80238841D01*
X163545327Y-80211913D01*
X163528735Y-80186095D01*
X163527843Y-80179894D01*
X163526546Y-80177518D01*
X163523712Y-80151160D01*
X163523712Y-79962655D01*
X163543397Y-79895616D01*
X163560031Y-79874974D01*
X163574970Y-79860035D01*
X163623712Y-79811293D01*
X163689604Y-79697165D01*
X163723712Y-79569871D01*
X163723712Y-79438087D01*
X163689604Y-79310793D01*
X163623712Y-79196665D01*
X163530526Y-79103479D01*
X163459923Y-79062716D01*
X163416399Y-79037587D01*
X163352751Y-79020533D01*
X163289104Y-79003479D01*
X163157320Y-79003479D01*
X163030026Y-79037587D01*
X163030025Y-79037587D01*
X163030023Y-79037588D01*
X163030022Y-79037588D01*
X162986500Y-79062716D01*
X162918600Y-79079189D01*
X162852573Y-79056336D01*
X162809382Y-79001415D01*
X162800500Y-78955329D01*
X162800500Y-75790409D01*
X163999500Y-75790409D01*
X163999500Y-75922193D01*
X164009747Y-75960437D01*
X164033608Y-76049488D01*
X164055931Y-76088152D01*
X164099500Y-76163615D01*
X164192686Y-76256801D01*
X164306814Y-76322693D01*
X164434108Y-76356801D01*
X164434110Y-76356801D01*
X164565890Y-76356801D01*
X164565892Y-76356801D01*
X164693186Y-76322693D01*
X164807314Y-76256801D01*
X164900500Y-76163615D01*
X164966392Y-76049487D01*
X165000500Y-75922193D01*
X165000500Y-75790409D01*
X164966392Y-75663115D01*
X164900500Y-75548987D01*
X164807314Y-75455801D01*
X164750250Y-75422855D01*
X164693187Y-75389909D01*
X164629539Y-75372855D01*
X164565892Y-75355801D01*
X164434108Y-75355801D01*
X164306812Y-75389909D01*
X164192686Y-75455801D01*
X164192683Y-75455803D01*
X164099502Y-75548984D01*
X164099500Y-75548987D01*
X164033608Y-75663113D01*
X164007302Y-75761292D01*
X163999500Y-75790409D01*
X162800500Y-75790409D01*
X162800500Y-71960440D01*
X162800500Y-71960438D01*
X162780022Y-71884012D01*
X162740460Y-71815489D01*
X159836819Y-68911848D01*
X159803334Y-68850525D01*
X159800500Y-68824167D01*
X159800500Y-68024833D01*
X159820185Y-67957794D01*
X159872989Y-67912039D01*
X159942147Y-67902095D01*
X160005703Y-67931120D01*
G37*
%TD.AperFunction*%
%TA.AperFunction,Conductor*%
G36*
X163005703Y-80534901D02*
G01*
X163012181Y-80540933D01*
X164663181Y-82191933D01*
X164696666Y-82253256D01*
X164699500Y-82279614D01*
X164699500Y-83824166D01*
X164690855Y-83853603D01*
X164684332Y-83883594D01*
X164680576Y-83888610D01*
X164679815Y-83891205D01*
X164663181Y-83911848D01*
X164583457Y-83991571D01*
X164522133Y-84025055D01*
X164452442Y-84020070D01*
X164396508Y-83978199D01*
X164376001Y-83935982D01*
X164375500Y-83934112D01*
X164375500Y-83934108D01*
X164341392Y-83806814D01*
X164275500Y-83692686D01*
X164211818Y-83629004D01*
X164178334Y-83567680D01*
X164175500Y-83541323D01*
X164175500Y-83335439D01*
X164175500Y-83335438D01*
X164170028Y-83315017D01*
X164155022Y-83259012D01*
X164115460Y-83190489D01*
X162836819Y-81911848D01*
X162803334Y-81850525D01*
X162800500Y-81824167D01*
X162800500Y-80628614D01*
X162820185Y-80561575D01*
X162872989Y-80515820D01*
X162942147Y-80505876D01*
X163005703Y-80534901D01*
G37*
%TD.AperFunction*%
%TA.AperFunction,Conductor*%
G36*
X158757801Y-67692417D02*
G01*
X158791303Y-67716274D01*
X159163181Y-68088152D01*
X159196666Y-68149475D01*
X159199500Y-68175833D01*
X159199500Y-69039562D01*
X159202811Y-69051917D01*
X159219979Y-69115990D01*
X159219980Y-69115991D01*
X159235979Y-69143702D01*
X159235980Y-69143703D01*
X159259539Y-69184509D01*
X159259541Y-69184512D01*
X162163181Y-72088152D01*
X162196666Y-72149475D01*
X162199500Y-72175833D01*
X162199500Y-79263686D01*
X162179815Y-79330725D01*
X162127011Y-79376480D01*
X162057853Y-79386424D01*
X162013500Y-79371073D01*
X161943189Y-79330479D01*
X161943186Y-79330478D01*
X161815892Y-79296370D01*
X161684108Y-79296370D01*
X161556814Y-79330478D01*
X161556813Y-79330478D01*
X161556811Y-79330479D01*
X161556810Y-79330479D01*
X161486500Y-79371073D01*
X161418600Y-79387546D01*
X161352573Y-79364693D01*
X161309382Y-79309772D01*
X161300500Y-79263686D01*
X161300500Y-72460439D01*
X161280020Y-72384009D01*
X161280017Y-72384004D01*
X161240464Y-72315495D01*
X161240458Y-72315487D01*
X158836819Y-69911848D01*
X158803334Y-69850525D01*
X158800500Y-69824167D01*
X158800500Y-69404641D01*
X158780020Y-69328211D01*
X158780017Y-69328206D01*
X158740464Y-69259697D01*
X158740458Y-69259689D01*
X158107715Y-68626946D01*
X158093011Y-68600018D01*
X158076419Y-68574200D01*
X158075527Y-68567999D01*
X158074230Y-68565623D01*
X158071396Y-68539265D01*
X158071396Y-68516832D01*
X158091081Y-68449793D01*
X158143885Y-68404038D01*
X158163296Y-68397059D01*
X158276130Y-68366826D01*
X158390258Y-68300934D01*
X158483444Y-68207748D01*
X158549336Y-68093620D01*
X158583444Y-67966326D01*
X158583444Y-67834542D01*
X158583443Y-67834540D01*
X158582383Y-67826486D01*
X158584080Y-67826262D01*
X158585509Y-67766201D01*
X158624671Y-67708338D01*
X158688898Y-67680832D01*
X158757801Y-67692417D01*
G37*
%TD.AperFunction*%
%TA.AperFunction,Conductor*%
G36*
X157055250Y-48814364D02*
G01*
X158103235Y-48851794D01*
X158107648Y-48852030D01*
X159153660Y-48926843D01*
X159157966Y-48927228D01*
X160200698Y-49039333D01*
X160205054Y-49039880D01*
X161243045Y-49189121D01*
X161247388Y-49189824D01*
X161564482Y-49247035D01*
X161931131Y-49313186D01*
X161993610Y-49344461D01*
X162029262Y-49404550D01*
X162026768Y-49474375D01*
X161986920Y-49531768D01*
X161978005Y-49538318D01*
X161891542Y-49596091D01*
X161891538Y-49596094D01*
X161758594Y-49729038D01*
X161758591Y-49729042D01*
X161654136Y-49885368D01*
X161654129Y-49885381D01*
X161582182Y-50059078D01*
X161582179Y-50059090D01*
X161545500Y-50243485D01*
X161545500Y-50431514D01*
X161582179Y-50615909D01*
X161582182Y-50615921D01*
X161654129Y-50789618D01*
X161654136Y-50789631D01*
X161758591Y-50945957D01*
X161758594Y-50945961D01*
X161891538Y-51078905D01*
X161891542Y-51078908D01*
X162047868Y-51183363D01*
X162047881Y-51183370D01*
X162221578Y-51255317D01*
X162221583Y-51255319D01*
X162405985Y-51291999D01*
X162405988Y-51292000D01*
X162405990Y-51292000D01*
X162594012Y-51292000D01*
X162594013Y-51291999D01*
X162778417Y-51255319D01*
X162952125Y-51183367D01*
X163108458Y-51078908D01*
X163241408Y-50945958D01*
X163345867Y-50789625D01*
X163417819Y-50615917D01*
X163454500Y-50431510D01*
X163454500Y-50243490D01*
X163454500Y-50243487D01*
X163454499Y-50243485D01*
X163417820Y-50059090D01*
X163417819Y-50059083D01*
X163417817Y-50059078D01*
X163345870Y-49885381D01*
X163345862Y-49885366D01*
X163303231Y-49821566D01*
X163282352Y-49754889D01*
X163300836Y-49687508D01*
X163352814Y-49640818D01*
X163421784Y-49629641D01*
X163436997Y-49632525D01*
X164328816Y-49860149D01*
X164333033Y-49861306D01*
X165300343Y-50145333D01*
X165339241Y-50156755D01*
X165343467Y-50158078D01*
X166338455Y-50489242D01*
X166342557Y-50490688D01*
X167325190Y-50857192D01*
X167329232Y-50858782D01*
X167860663Y-51078908D01*
X168298099Y-51260100D01*
X168302157Y-51261867D01*
X169256005Y-51697475D01*
X169259999Y-51699385D01*
X170197755Y-52168792D01*
X170201677Y-52170844D01*
X171122046Y-52673403D01*
X171125859Y-52675574D01*
X171394029Y-52834687D01*
X172027766Y-53210701D01*
X172031531Y-53213028D01*
X172913672Y-53779945D01*
X172917353Y-53782404D01*
X173256571Y-54017927D01*
X173778768Y-54380494D01*
X173782320Y-54383056D01*
X174621806Y-55011488D01*
X174625302Y-55014203D01*
X175441835Y-55672207D01*
X175445232Y-55675046D01*
X176237746Y-56361763D01*
X176241039Y-56364721D01*
X177008548Y-57079297D01*
X177011733Y-57082371D01*
X177753217Y-57823855D01*
X177756291Y-57827040D01*
X178470867Y-58594549D01*
X178473825Y-58597842D01*
X179160542Y-59390356D01*
X179163381Y-59393753D01*
X179821385Y-60210286D01*
X179824100Y-60213782D01*
X180026463Y-60484107D01*
X180450458Y-61050498D01*
X180452518Y-61053249D01*
X180455101Y-61056831D01*
X180545826Y-61187500D01*
X181053184Y-61918235D01*
X181055643Y-61921916D01*
X181622560Y-62804057D01*
X181624887Y-62807822D01*
X182160004Y-63709712D01*
X182162194Y-63713559D01*
X182664744Y-64633911D01*
X182666796Y-64637833D01*
X183136203Y-65575589D01*
X183138113Y-65579583D01*
X183573721Y-66533431D01*
X183575488Y-66537489D01*
X183828991Y-67149499D01*
X183974380Y-67500500D01*
X183976790Y-67506317D01*
X183978407Y-67510427D01*
X184328773Y-68449793D01*
X184344887Y-68492995D01*
X184346357Y-68497166D01*
X184365370Y-68554290D01*
X184677510Y-69492123D01*
X184678833Y-69496347D01*
X184974275Y-70502529D01*
X184975446Y-70506798D01*
X185234782Y-71522867D01*
X185235800Y-71527175D01*
X185458703Y-72551843D01*
X185459567Y-72556184D01*
X185645761Y-73588187D01*
X185646469Y-73592557D01*
X185795705Y-74630516D01*
X185796257Y-74634908D01*
X185908355Y-75677571D01*
X185908749Y-75681980D01*
X185983557Y-76727936D01*
X185983794Y-76732356D01*
X186021224Y-77780338D01*
X186021303Y-77784764D01*
X186021303Y-78833409D01*
X186021224Y-78837835D01*
X185983794Y-79885817D01*
X185983557Y-79890237D01*
X185908749Y-80936193D01*
X185908355Y-80940602D01*
X185796257Y-81983265D01*
X185795705Y-81987657D01*
X185646469Y-83025616D01*
X185645761Y-83029986D01*
X185459567Y-84061989D01*
X185458703Y-84066330D01*
X185235800Y-85090998D01*
X185234782Y-85095306D01*
X184975446Y-86111375D01*
X184974275Y-86115644D01*
X184678833Y-87121826D01*
X184677510Y-87126050D01*
X184346359Y-88121003D01*
X184344887Y-88125178D01*
X183978411Y-89107737D01*
X183976790Y-89111856D01*
X183575488Y-90080684D01*
X183573721Y-90084742D01*
X183138113Y-91038590D01*
X183136203Y-91042584D01*
X182666796Y-91980340D01*
X182664744Y-91984262D01*
X182162194Y-92904614D01*
X182160004Y-92908461D01*
X181624887Y-93810351D01*
X181622560Y-93814116D01*
X181055643Y-94696257D01*
X181053184Y-94699938D01*
X180455107Y-95561334D01*
X180452518Y-95564924D01*
X179824100Y-96404391D01*
X179821385Y-96407887D01*
X179163381Y-97224420D01*
X179160542Y-97227817D01*
X178473825Y-98020331D01*
X178470867Y-98023624D01*
X177756291Y-98791133D01*
X177753217Y-98794318D01*
X177011733Y-99535802D01*
X177008548Y-99538876D01*
X176241039Y-100253452D01*
X176237746Y-100256410D01*
X175445232Y-100943127D01*
X175441835Y-100945966D01*
X174625302Y-101603970D01*
X174621806Y-101606685D01*
X173782339Y-102235103D01*
X173778749Y-102237692D01*
X172917353Y-102835769D01*
X172913672Y-102838228D01*
X172031531Y-103405145D01*
X172027766Y-103407472D01*
X171125876Y-103942589D01*
X171122029Y-103944779D01*
X170201677Y-104447329D01*
X170197755Y-104449381D01*
X169259999Y-104918788D01*
X169256005Y-104920698D01*
X168302157Y-105356306D01*
X168298099Y-105358073D01*
X167329271Y-105759375D01*
X167325152Y-105760996D01*
X166342593Y-106127472D01*
X166338418Y-106128944D01*
X165343465Y-106460095D01*
X165339241Y-106461418D01*
X164333059Y-106756860D01*
X164328790Y-106758031D01*
X163312721Y-107017367D01*
X163308413Y-107018385D01*
X162283745Y-107241288D01*
X162279404Y-107242152D01*
X161247401Y-107428346D01*
X161243031Y-107429054D01*
X160205072Y-107578290D01*
X160200680Y-107578842D01*
X159158017Y-107690940D01*
X159153608Y-107691334D01*
X158107652Y-107766142D01*
X158103232Y-107766379D01*
X157055251Y-107803809D01*
X157050825Y-107803888D01*
X156002179Y-107803888D01*
X155997753Y-107803809D01*
X154949771Y-107766379D01*
X154945351Y-107766142D01*
X153899395Y-107691334D01*
X153894986Y-107690940D01*
X152852323Y-107578842D01*
X152847931Y-107578290D01*
X151809972Y-107429054D01*
X151805602Y-107428346D01*
X150773599Y-107242152D01*
X150769258Y-107241288D01*
X149744590Y-107018385D01*
X149740282Y-107017367D01*
X148724213Y-106758031D01*
X148719944Y-106756860D01*
X147713762Y-106461418D01*
X147709538Y-106460095D01*
X146714585Y-106128944D01*
X146710410Y-106127472D01*
X145727851Y-105760996D01*
X145723742Y-105759378D01*
X145534152Y-105680848D01*
X144754904Y-105358073D01*
X144750846Y-105356306D01*
X143796998Y-104920698D01*
X143793004Y-104918788D01*
X142855248Y-104449381D01*
X142851326Y-104447329D01*
X141930974Y-103944779D01*
X141927127Y-103942589D01*
X141025237Y-103407472D01*
X141021472Y-103405145D01*
X140139331Y-102838228D01*
X140135650Y-102835769D01*
X139644899Y-102495035D01*
X139506965Y-102399266D01*
X150369500Y-102399266D01*
X150369500Y-102606205D01*
X150409868Y-102809148D01*
X150409870Y-102809156D01*
X150475939Y-102968661D01*
X150489059Y-103000334D01*
X150502836Y-103020953D01*
X150604024Y-103172393D01*
X150750342Y-103318711D01*
X150750345Y-103318713D01*
X150922402Y-103433677D01*
X151113580Y-103512866D01*
X151302187Y-103550382D01*
X151316530Y-103553235D01*
X151316534Y-103553236D01*
X151316535Y-103553236D01*
X151523466Y-103553236D01*
X151523467Y-103553235D01*
X151726420Y-103512866D01*
X151917598Y-103433677D01*
X152089655Y-103318713D01*
X152235977Y-103172391D01*
X152350941Y-103000334D01*
X152430130Y-102809156D01*
X152470500Y-102606201D01*
X152470500Y-102399271D01*
X152430130Y-102196316D01*
X152350941Y-102005138D01*
X152235977Y-101833081D01*
X152235975Y-101833078D01*
X152089657Y-101686760D01*
X151967815Y-101605349D01*
X151917598Y-101571795D01*
X151726420Y-101492606D01*
X151726412Y-101492604D01*
X151523469Y-101452236D01*
X151523465Y-101452236D01*
X151316535Y-101452236D01*
X151316530Y-101452236D01*
X151113587Y-101492604D01*
X151113579Y-101492606D01*
X150922403Y-101571794D01*
X150750342Y-101686760D01*
X150604024Y-101833078D01*
X150489058Y-102005139D01*
X150409870Y-102196315D01*
X150409868Y-102196323D01*
X150369500Y-102399266D01*
X139506965Y-102399266D01*
X139286669Y-102246312D01*
X139274246Y-102237686D01*
X139270664Y-102235103D01*
X139262555Y-102229033D01*
X138682990Y-101795175D01*
X138431197Y-101606685D01*
X138427701Y-101603970D01*
X137611168Y-100945966D01*
X137607771Y-100943127D01*
X136815257Y-100256410D01*
X136811964Y-100253452D01*
X136479518Y-99943934D01*
X136388578Y-99859266D01*
X150369500Y-99859266D01*
X150369500Y-100066205D01*
X150409868Y-100269148D01*
X150409870Y-100269156D01*
X150475939Y-100428661D01*
X150489059Y-100460334D01*
X150502836Y-100480953D01*
X150604024Y-100632393D01*
X150750342Y-100778711D01*
X150750345Y-100778713D01*
X150922402Y-100893677D01*
X151113580Y-100972866D01*
X151316530Y-101013235D01*
X151316534Y-101013236D01*
X151316535Y-101013236D01*
X151523466Y-101013236D01*
X151523467Y-101013235D01*
X151726420Y-100972866D01*
X151917598Y-100893677D01*
X152089655Y-100778713D01*
X152235977Y-100632391D01*
X152350941Y-100460334D01*
X152430130Y-100269156D01*
X152470500Y-100066201D01*
X152470500Y-99859271D01*
X152470499Y-99859266D01*
X152909500Y-99859266D01*
X152909500Y-100066205D01*
X152949868Y-100269148D01*
X152949870Y-100269156D01*
X153015939Y-100428661D01*
X153029059Y-100460334D01*
X153042836Y-100480953D01*
X153144024Y-100632393D01*
X153290342Y-100778711D01*
X153290345Y-100778713D01*
X153462402Y-100893677D01*
X153653580Y-100972866D01*
X153856530Y-101013235D01*
X153856534Y-101013236D01*
X153856535Y-101013236D01*
X154063466Y-101013236D01*
X154063467Y-101013235D01*
X154266420Y-100972866D01*
X154457598Y-100893677D01*
X154629655Y-100778713D01*
X154775977Y-100632391D01*
X154890941Y-100460334D01*
X154959165Y-100295625D01*
X155003004Y-100241224D01*
X155069298Y-100219159D01*
X155136998Y-100236438D01*
X155184609Y-100287575D01*
X155191656Y-100304762D01*
X155248904Y-100480952D01*
X155345375Y-100670286D01*
X155384728Y-100724452D01*
X156017036Y-100092143D01*
X156034075Y-100155729D01*
X156099901Y-100269743D01*
X156192993Y-100362835D01*
X156307007Y-100428661D01*
X156370591Y-100445698D01*
X155769971Y-101046317D01*
X155848711Y-101163631D01*
X155849920Y-101167465D01*
X155852844Y-101170227D01*
X155860343Y-101200514D01*
X155869727Y-101230265D01*
X155868671Y-101234144D01*
X155869638Y-101238048D01*
X155859573Y-101267580D01*
X155851383Y-101297683D01*
X155848397Y-101300376D01*
X155847100Y-101304183D01*
X155802051Y-101343219D01*
X155792440Y-101348116D01*
X155738282Y-101387463D01*
X155738282Y-101387464D01*
X156370591Y-102019773D01*
X156307007Y-102036811D01*
X156192993Y-102102637D01*
X156099901Y-102195729D01*
X156034075Y-102309743D01*
X156017037Y-102373327D01*
X155384728Y-101741018D01*
X155384727Y-101741018D01*
X155345380Y-101795175D01*
X155248905Y-101984517D01*
X155191656Y-102160710D01*
X155152218Y-102218385D01*
X155087859Y-102245583D01*
X155019013Y-102233668D01*
X154967537Y-102186424D01*
X154959164Y-102169843D01*
X154890943Y-102005141D01*
X154775975Y-101833078D01*
X154629657Y-101686760D01*
X154507815Y-101605349D01*
X154457598Y-101571795D01*
X154266420Y-101492606D01*
X154266412Y-101492604D01*
X154063469Y-101452236D01*
X154063465Y-101452236D01*
X153856535Y-101452236D01*
X153856530Y-101452236D01*
X153653587Y-101492604D01*
X153653579Y-101492606D01*
X153462403Y-101571794D01*
X153290342Y-101686760D01*
X153144024Y-101833078D01*
X153029058Y-102005139D01*
X152949870Y-102196315D01*
X152949868Y-102196323D01*
X152909500Y-102399266D01*
X152909500Y-102606205D01*
X152949868Y-102809148D01*
X152949870Y-102809156D01*
X153015939Y-102968661D01*
X153029059Y-103000334D01*
X153042836Y-103020953D01*
X153144024Y-103172393D01*
X153290342Y-103318711D01*
X153290345Y-103318713D01*
X153462402Y-103433677D01*
X153653580Y-103512866D01*
X153842187Y-103550382D01*
X153856530Y-103553235D01*
X153856534Y-103553236D01*
X153856535Y-103553236D01*
X154063466Y-103553236D01*
X154063467Y-103553235D01*
X154266420Y-103512866D01*
X154457598Y-103433677D01*
X154629655Y-103318713D01*
X154775977Y-103172391D01*
X154890941Y-103000334D01*
X154959165Y-102835625D01*
X155003004Y-102781224D01*
X155069298Y-102759159D01*
X155136998Y-102776438D01*
X155184609Y-102827575D01*
X155191656Y-102844762D01*
X155248904Y-103020952D01*
X155345375Y-103210286D01*
X155384728Y-103264452D01*
X156017036Y-102632143D01*
X156034075Y-102695729D01*
X156099901Y-102809743D01*
X156192993Y-102902835D01*
X156307007Y-102968661D01*
X156370590Y-102985698D01*
X155738282Y-103618005D01*
X155738282Y-103618006D01*
X155792449Y-103657360D01*
X155981782Y-103753831D01*
X156183870Y-103819493D01*
X156393754Y-103852736D01*
X156606246Y-103852736D01*
X156816127Y-103819493D01*
X156816130Y-103819493D01*
X157018217Y-103753831D01*
X157207554Y-103657358D01*
X157261716Y-103618006D01*
X157261717Y-103618006D01*
X156629408Y-102985698D01*
X156692993Y-102968661D01*
X156807007Y-102902835D01*
X156900099Y-102809743D01*
X156965925Y-102695729D01*
X156982962Y-102632144D01*
X157615270Y-103264453D01*
X157615270Y-103264452D01*
X157654622Y-103210290D01*
X157751095Y-103020953D01*
X157808343Y-102844762D01*
X157847780Y-102787087D01*
X157912139Y-102759888D01*
X157980985Y-102771802D01*
X158032461Y-102819046D01*
X158040835Y-102835627D01*
X158095939Y-102968661D01*
X158109059Y-103000334D01*
X158122836Y-103020953D01*
X158224024Y-103172393D01*
X158370342Y-103318711D01*
X158370345Y-103318713D01*
X158542402Y-103433677D01*
X158733580Y-103512866D01*
X158922187Y-103550382D01*
X158936530Y-103553235D01*
X158936534Y-103553236D01*
X158936535Y-103553236D01*
X159143466Y-103553236D01*
X159143467Y-103553235D01*
X159346420Y-103512866D01*
X159537598Y-103433677D01*
X159709655Y-103318713D01*
X159855977Y-103172391D01*
X159970941Y-103000334D01*
X160050130Y-102809156D01*
X160090500Y-102606201D01*
X160090500Y-102399271D01*
X160050130Y-102196316D01*
X159970941Y-102005138D01*
X159855977Y-101833081D01*
X159855975Y-101833078D01*
X159709657Y-101686760D01*
X159587815Y-101605349D01*
X159537598Y-101571795D01*
X159346420Y-101492606D01*
X159346412Y-101492604D01*
X159143469Y-101452236D01*
X159143465Y-101452236D01*
X158936535Y-101452236D01*
X158936530Y-101452236D01*
X158733587Y-101492604D01*
X158733579Y-101492606D01*
X158542403Y-101571794D01*
X158370342Y-101686760D01*
X158224024Y-101833078D01*
X158109057Y-102005139D01*
X158040835Y-102169844D01*
X157996994Y-102224247D01*
X157930700Y-102246312D01*
X157863000Y-102229033D01*
X157815390Y-102177895D01*
X157808343Y-102160709D01*
X157751095Y-101984518D01*
X157654624Y-101795185D01*
X157615270Y-101741018D01*
X157615269Y-101741018D01*
X156982962Y-102373326D01*
X156965925Y-102309743D01*
X156900099Y-102195729D01*
X156807007Y-102102637D01*
X156692993Y-102036811D01*
X156629409Y-102019773D01*
X157261716Y-101387464D01*
X157207550Y-101348111D01*
X157197954Y-101343222D01*
X157147157Y-101295248D01*
X157130361Y-101227428D01*
X157152897Y-101161292D01*
X157197954Y-101122250D01*
X157207554Y-101117358D01*
X157261716Y-101078006D01*
X157261717Y-101078006D01*
X156629408Y-100445698D01*
X156692993Y-100428661D01*
X156807007Y-100362835D01*
X156900099Y-100269743D01*
X156965925Y-100155729D01*
X156982962Y-100092144D01*
X157615270Y-100724453D01*
X157615270Y-100724452D01*
X157654622Y-100670290D01*
X157751095Y-100480953D01*
X157808343Y-100304762D01*
X157847780Y-100247087D01*
X157912139Y-100219888D01*
X157980985Y-100231802D01*
X158032461Y-100279046D01*
X158040835Y-100295627D01*
X158095939Y-100428661D01*
X158109059Y-100460334D01*
X158122836Y-100480953D01*
X158224024Y-100632393D01*
X158370342Y-100778711D01*
X158370345Y-100778713D01*
X158542402Y-100893677D01*
X158733580Y-100972866D01*
X158936530Y-101013235D01*
X158936534Y-101013236D01*
X158936535Y-101013236D01*
X159143466Y-101013236D01*
X159143467Y-101013235D01*
X159346420Y-100972866D01*
X159537598Y-100893677D01*
X159709655Y-100778713D01*
X159855977Y-100632391D01*
X159970941Y-100460334D01*
X160050130Y-100269156D01*
X160090500Y-100066201D01*
X160090500Y-99859271D01*
X160050130Y-99656316D01*
X159970941Y-99465138D01*
X159855977Y-99293081D01*
X159855975Y-99293078D01*
X159709657Y-99146760D01*
X159542616Y-99035148D01*
X159537598Y-99031795D01*
X159485002Y-99010009D01*
X159346420Y-98952606D01*
X159346412Y-98952604D01*
X159143469Y-98912236D01*
X159143465Y-98912236D01*
X158936535Y-98912236D01*
X158936530Y-98912236D01*
X158733587Y-98952604D01*
X158733579Y-98952606D01*
X158613029Y-99002540D01*
X158543559Y-99010009D01*
X158481080Y-98978734D01*
X158477895Y-98975660D01*
X156436819Y-96934584D01*
X156403334Y-96873261D01*
X156400500Y-96846903D01*
X156400500Y-90958676D01*
X156420185Y-90891637D01*
X156436819Y-90870995D01*
X156464879Y-90842935D01*
X156500500Y-90807314D01*
X156566392Y-90693186D01*
X156600500Y-90565892D01*
X156600500Y-90434108D01*
X156566392Y-90306814D01*
X156500500Y-90192686D01*
X156407314Y-90099500D01*
X156395610Y-90092743D01*
X156357703Y-90070856D01*
X156340449Y-90052760D01*
X156320437Y-90037779D01*
X156316756Y-90027911D01*
X156309488Y-90020288D01*
X156304756Y-89995736D01*
X156296021Y-89972314D01*
X156298259Y-89962022D01*
X156296267Y-89951681D01*
X156305559Y-89928471D01*
X156310874Y-89904042D01*
X156320473Y-89891218D01*
X156322236Y-89886817D01*
X156332017Y-89875796D01*
X156370996Y-89836818D01*
X156432319Y-89803333D01*
X156458676Y-89800500D01*
X156824167Y-89800500D01*
X156891206Y-89820185D01*
X156911848Y-89836819D01*
X157298110Y-90223081D01*
X157331595Y-90284404D01*
X157334429Y-90310762D01*
X157334429Y-96057227D01*
X157342716Y-96088152D01*
X157354908Y-96133655D01*
X157354909Y-96133656D01*
X157384270Y-96184511D01*
X157394466Y-96202172D01*
X157394471Y-96202178D01*
X160592924Y-99400631D01*
X160626409Y-99461954D01*
X160621425Y-99531646D01*
X160619804Y-99535765D01*
X160569870Y-99656315D01*
X160569868Y-99656323D01*
X160529500Y-99859266D01*
X160529500Y-100066205D01*
X160569868Y-100269148D01*
X160569870Y-100269156D01*
X160635939Y-100428661D01*
X160649059Y-100460334D01*
X160662836Y-100480953D01*
X160764024Y-100632393D01*
X160910342Y-100778711D01*
X160910345Y-100778713D01*
X161082402Y-100893677D01*
X161273580Y-100972866D01*
X161476530Y-101013235D01*
X161476534Y-101013236D01*
X161476535Y-101013236D01*
X161683466Y-101013236D01*
X161683467Y-101013235D01*
X161886420Y-100972866D01*
X162077598Y-100893677D01*
X162249655Y-100778713D01*
X162395977Y-100632391D01*
X162510941Y-100460334D01*
X162590130Y-100269156D01*
X162630500Y-100066201D01*
X162630500Y-99859271D01*
X162590130Y-99656316D01*
X162510941Y-99465138D01*
X162395977Y-99293081D01*
X162395975Y-99293078D01*
X162249657Y-99146760D01*
X162082616Y-99035148D01*
X162077598Y-99031795D01*
X162025002Y-99010009D01*
X161886420Y-98952606D01*
X161886412Y-98952604D01*
X161683469Y-98912236D01*
X161683465Y-98912236D01*
X161476535Y-98912236D01*
X161476530Y-98912236D01*
X161273587Y-98952604D01*
X161273579Y-98952606D01*
X161153029Y-99002540D01*
X161083559Y-99010009D01*
X161021080Y-98978734D01*
X161017895Y-98975660D01*
X157971748Y-95929513D01*
X157938263Y-95868190D01*
X157935429Y-95841832D01*
X157935429Y-94513108D01*
X158974499Y-94513108D01*
X158974499Y-94644891D01*
X159008607Y-94772187D01*
X159041553Y-94829250D01*
X159074499Y-94886314D01*
X159167685Y-94979500D01*
X159281813Y-95045392D01*
X159409107Y-95079500D01*
X159409109Y-95079500D01*
X159540889Y-95079500D01*
X159540891Y-95079500D01*
X159668185Y-95045392D01*
X159782313Y-94979500D01*
X159875499Y-94886314D01*
X159941391Y-94772186D01*
X159975499Y-94644892D01*
X159975499Y-94513108D01*
X159941391Y-94385814D01*
X159875499Y-94271686D01*
X159782313Y-94178500D01*
X159725249Y-94145554D01*
X159668186Y-94112608D01*
X159588553Y-94091271D01*
X159540891Y-94078500D01*
X159409107Y-94078500D01*
X159281811Y-94112608D01*
X159167685Y-94178500D01*
X159167682Y-94178502D01*
X159074501Y-94271683D01*
X159074499Y-94271686D01*
X159008607Y-94385812D01*
X158974499Y-94513108D01*
X157935429Y-94513108D01*
X157935429Y-90095368D01*
X157932039Y-90082715D01*
X157914950Y-90018940D01*
X157904304Y-90000500D01*
X157875393Y-89950424D01*
X157875387Y-89950416D01*
X157184512Y-89259541D01*
X157184507Y-89259537D01*
X157161605Y-89246315D01*
X157161605Y-89246314D01*
X157161603Y-89246314D01*
X157115994Y-89219981D01*
X157115991Y-89219979D01*
X157077775Y-89209739D01*
X157039562Y-89199500D01*
X157039560Y-89199500D01*
X156458676Y-89199500D01*
X156391637Y-89179815D01*
X156370995Y-89163181D01*
X156307316Y-89099502D01*
X156307314Y-89099500D01*
X156250250Y-89066554D01*
X156193187Y-89033608D01*
X156129539Y-89016554D01*
X156065892Y-88999500D01*
X155934108Y-88999500D01*
X155806812Y-89033608D01*
X155692686Y-89099500D01*
X155692683Y-89099502D01*
X155599502Y-89192683D01*
X155599500Y-89192686D01*
X155533608Y-89306812D01*
X155499500Y-89434108D01*
X155499500Y-89565891D01*
X155533608Y-89693187D01*
X155560227Y-89739291D01*
X155599500Y-89807314D01*
X155692686Y-89900500D01*
X155698821Y-89904042D01*
X155742295Y-89929143D01*
X155790510Y-89979710D01*
X155803732Y-90048317D01*
X155777764Y-90113182D01*
X155767976Y-90124210D01*
X155699500Y-90192686D01*
X155633608Y-90306812D01*
X155599500Y-90434108D01*
X155599500Y-90565891D01*
X155633608Y-90693187D01*
X155649203Y-90720197D01*
X155699500Y-90807314D01*
X155699502Y-90807316D01*
X155763181Y-90870995D01*
X155796666Y-90932318D01*
X155799500Y-90958676D01*
X155799500Y-97062298D01*
X155803346Y-97076651D01*
X155819979Y-97138726D01*
X155833782Y-97162632D01*
X155833784Y-97162635D01*
X155859537Y-97207243D01*
X155859541Y-97207248D01*
X157169480Y-98517187D01*
X157202965Y-98578510D01*
X157197981Y-98648202D01*
X157156109Y-98704135D01*
X157090645Y-98728552D01*
X157025506Y-98715354D01*
X157018217Y-98711640D01*
X156816129Y-98645978D01*
X156606246Y-98612736D01*
X156393754Y-98612736D01*
X156183872Y-98645978D01*
X156183869Y-98645978D01*
X155981782Y-98711640D01*
X155792439Y-98808116D01*
X155738282Y-98847463D01*
X155738282Y-98847464D01*
X156370591Y-99479773D01*
X156307007Y-99496811D01*
X156192993Y-99562637D01*
X156099901Y-99655729D01*
X156034075Y-99769743D01*
X156017037Y-99833327D01*
X155384728Y-99201018D01*
X155384727Y-99201018D01*
X155345380Y-99255175D01*
X155248905Y-99444517D01*
X155191656Y-99620710D01*
X155152218Y-99678385D01*
X155087859Y-99705583D01*
X155019013Y-99693668D01*
X154967537Y-99646424D01*
X154959164Y-99629843D01*
X154890943Y-99465141D01*
X154775975Y-99293078D01*
X154629657Y-99146760D01*
X154462616Y-99035148D01*
X154457598Y-99031795D01*
X154405002Y-99010009D01*
X154266420Y-98952606D01*
X154266412Y-98952604D01*
X154063469Y-98912236D01*
X154063465Y-98912236D01*
X153856535Y-98912236D01*
X153856530Y-98912236D01*
X153653587Y-98952604D01*
X153653579Y-98952606D01*
X153462403Y-99031794D01*
X153290342Y-99146760D01*
X153144024Y-99293078D01*
X153029058Y-99465139D01*
X152949870Y-99656315D01*
X152949868Y-99656323D01*
X152909500Y-99859266D01*
X152470499Y-99859266D01*
X152430130Y-99656316D01*
X152350941Y-99465138D01*
X152235977Y-99293081D01*
X152235975Y-99293078D01*
X152089657Y-99146760D01*
X151922616Y-99035148D01*
X151917598Y-99031795D01*
X151865002Y-99010009D01*
X151726420Y-98952606D01*
X151726412Y-98952604D01*
X151523469Y-98912236D01*
X151523465Y-98912236D01*
X151316535Y-98912236D01*
X151316530Y-98912236D01*
X151113587Y-98952604D01*
X151113579Y-98952606D01*
X150922403Y-99031794D01*
X150750342Y-99146760D01*
X150604024Y-99293078D01*
X150489058Y-99465139D01*
X150409870Y-99656315D01*
X150409868Y-99656323D01*
X150369500Y-99859266D01*
X136388578Y-99859266D01*
X136044455Y-99538876D01*
X136041270Y-99535802D01*
X135299786Y-98794318D01*
X135296712Y-98791133D01*
X134582136Y-98023624D01*
X134579178Y-98020331D01*
X133892461Y-97227817D01*
X133889622Y-97224420D01*
X133231618Y-96407887D01*
X133228903Y-96404391D01*
X133064303Y-96184511D01*
X132600471Y-95564905D01*
X132597909Y-95561353D01*
X132281422Y-95105525D01*
X136455439Y-95105525D01*
X136455439Y-95453774D01*
X136494428Y-95799808D01*
X136494429Y-95799817D01*
X136494430Y-95799821D01*
X136504019Y-95841832D01*
X136571921Y-96139334D01*
X136571924Y-96139342D01*
X136686938Y-96468032D01*
X136838031Y-96781780D01*
X137023310Y-97076649D01*
X137023311Y-97076651D01*
X137240426Y-97348906D01*
X137486682Y-97595162D01*
X137758937Y-97812277D01*
X137758940Y-97812278D01*
X137758942Y-97812280D01*
X138053806Y-97997556D01*
X138367560Y-98148652D01*
X138614427Y-98235034D01*
X138696246Y-98263664D01*
X138696254Y-98263667D01*
X138696257Y-98263667D01*
X138696258Y-98263668D01*
X139035768Y-98341159D01*
X139381815Y-98380149D01*
X139381816Y-98380150D01*
X139381819Y-98380150D01*
X139730062Y-98380150D01*
X139730062Y-98380149D01*
X140076110Y-98341159D01*
X140415620Y-98263668D01*
X140744318Y-98148652D01*
X141058072Y-97997556D01*
X141352936Y-97812280D01*
X141352940Y-97812277D01*
X141625195Y-97595162D01*
X141625197Y-97595159D01*
X141625202Y-97595156D01*
X141871445Y-97348913D01*
X141968016Y-97227817D01*
X142088566Y-97076651D01*
X142088567Y-97076649D01*
X142088569Y-97076647D01*
X142273845Y-96781783D01*
X142424941Y-96468029D01*
X142539957Y-96139331D01*
X142617448Y-95799821D01*
X142656439Y-95453770D01*
X142656439Y-95105530D01*
X142617448Y-94759479D01*
X142539957Y-94419969D01*
X142424941Y-94091271D01*
X142273845Y-93777517D01*
X142088569Y-93482653D01*
X142088567Y-93482650D01*
X142088566Y-93482648D01*
X141871451Y-93210393D01*
X141625195Y-92964137D01*
X141352940Y-92747022D01*
X141352938Y-92747021D01*
X141058069Y-92561742D01*
X140744321Y-92410649D01*
X140415631Y-92295635D01*
X140415623Y-92295632D01*
X140156673Y-92236529D01*
X140076110Y-92218141D01*
X140076106Y-92218140D01*
X140076097Y-92218139D01*
X139730063Y-92179150D01*
X139730059Y-92179150D01*
X139381819Y-92179150D01*
X139381814Y-92179150D01*
X139035780Y-92218139D01*
X139035768Y-92218141D01*
X138696254Y-92295632D01*
X138696246Y-92295635D01*
X138367556Y-92410649D01*
X138053808Y-92561742D01*
X137758939Y-92747021D01*
X137758937Y-92747022D01*
X137486682Y-92964137D01*
X137240426Y-93210393D01*
X137023311Y-93482648D01*
X137023310Y-93482650D01*
X136838031Y-93777519D01*
X136686938Y-94091267D01*
X136571924Y-94419957D01*
X136571921Y-94419965D01*
X136494430Y-94759479D01*
X136494428Y-94759491D01*
X136455439Y-95105525D01*
X132281422Y-95105525D01*
X132049982Y-94772187D01*
X131999819Y-94699938D01*
X131997360Y-94696257D01*
X131430443Y-93814116D01*
X131428116Y-93810351D01*
X131154508Y-93349210D01*
X130892989Y-92908444D01*
X130890809Y-92904614D01*
X130845447Y-92821540D01*
X130471403Y-92136529D01*
X130388259Y-91984262D01*
X130386207Y-91980339D01*
X130136500Y-91481487D01*
X130136499Y-91481486D01*
X130112783Y-91434108D01*
X148499500Y-91434108D01*
X148499500Y-91565892D01*
X148500902Y-91571124D01*
X148533608Y-91693187D01*
X148547005Y-91716391D01*
X148599500Y-91807314D01*
X148692686Y-91900500D01*
X148806814Y-91966392D01*
X148934108Y-92000500D01*
X148934110Y-92000500D01*
X149065890Y-92000500D01*
X149065892Y-92000500D01*
X149193186Y-91966392D01*
X149307314Y-91900500D01*
X149400500Y-91807314D01*
X149466392Y-91693186D01*
X149500500Y-91565892D01*
X149500500Y-91434108D01*
X149466392Y-91306814D01*
X149400500Y-91192686D01*
X149307314Y-91099500D01*
X149210900Y-91043835D01*
X149193187Y-91033608D01*
X149129539Y-91016554D01*
X149065892Y-90999500D01*
X148934108Y-90999500D01*
X148806812Y-91033608D01*
X148692686Y-91099500D01*
X148692683Y-91099502D01*
X148599502Y-91192683D01*
X148599500Y-91192686D01*
X148533608Y-91306812D01*
X148506611Y-91407568D01*
X148499500Y-91434108D01*
X130112783Y-91434108D01*
X129916800Y-91042584D01*
X129914890Y-91038591D01*
X129912614Y-91033608D01*
X129876872Y-90955344D01*
X129866929Y-90886189D01*
X129895953Y-90822633D01*
X129954731Y-90784858D01*
X130024601Y-90784858D01*
X130062553Y-90803517D01*
X130083382Y-90818650D01*
X130260377Y-90908834D01*
X130449292Y-90970216D01*
X130645494Y-91001292D01*
X130844136Y-91001292D01*
X131040335Y-90970216D01*
X131040338Y-90970216D01*
X131229252Y-90908834D01*
X131406240Y-90818654D01*
X131443530Y-90791560D01*
X130880756Y-90228787D01*
X130940896Y-90212673D01*
X131056735Y-90145794D01*
X131151317Y-90051212D01*
X131218196Y-89935373D01*
X131234310Y-89875234D01*
X131797083Y-90438007D01*
X131824177Y-90400717D01*
X131904330Y-90243409D01*
X131952304Y-90192613D01*
X132020125Y-90175818D01*
X132086260Y-90198355D01*
X132125300Y-90243409D01*
X132205456Y-90400724D01*
X132232545Y-90438007D01*
X132232546Y-90438008D01*
X132795319Y-89875234D01*
X132811434Y-89935373D01*
X132878313Y-90051212D01*
X132972895Y-90145794D01*
X133088734Y-90212673D01*
X133148872Y-90228786D01*
X132586098Y-90791560D01*
X132586098Y-90791561D01*
X132623382Y-90818650D01*
X132800377Y-90908834D01*
X132989292Y-90970216D01*
X133185494Y-91001292D01*
X133384136Y-91001292D01*
X133580335Y-90970216D01*
X133580338Y-90970216D01*
X133769252Y-90908834D01*
X133946240Y-90818654D01*
X133983531Y-90791560D01*
X133420757Y-90228786D01*
X133480896Y-90212673D01*
X133596735Y-90145794D01*
X133691317Y-90051212D01*
X133758196Y-89935373D01*
X133774310Y-89875234D01*
X134337083Y-90438007D01*
X134364177Y-90400717D01*
X134454357Y-90223729D01*
X134515739Y-90034815D01*
X134515739Y-90034812D01*
X134546815Y-89838613D01*
X134546815Y-89639970D01*
X134515739Y-89443771D01*
X134515739Y-89443768D01*
X134454357Y-89254854D01*
X134369979Y-89089254D01*
X134369978Y-89089252D01*
X134364173Y-89077859D01*
X134340422Y-89045170D01*
X151249500Y-89045170D01*
X151249500Y-89045172D01*
X151249500Y-89144828D01*
X151287636Y-89236897D01*
X151358103Y-89307364D01*
X151450172Y-89345500D01*
X151782378Y-89345500D01*
X151849417Y-89365185D01*
X151870059Y-89381819D01*
X152491007Y-90002767D01*
X152491008Y-90002767D01*
X152491009Y-90002768D01*
X152583077Y-90040905D01*
X152583080Y-90040905D01*
X152682732Y-90040905D01*
X152682733Y-90040905D01*
X152774802Y-90002768D01*
X152845269Y-89932301D01*
X152883406Y-89840232D01*
X152883406Y-89740576D01*
X152845269Y-89648508D01*
X152845268Y-89648507D01*
X152845268Y-89648506D01*
X152079398Y-88882636D01*
X151987330Y-88844500D01*
X151987329Y-88844500D01*
X151450172Y-88844500D01*
X151450170Y-88844500D01*
X151358102Y-88882636D01*
X151287636Y-88953102D01*
X151249500Y-89045170D01*
X134340422Y-89045170D01*
X134337083Y-89040575D01*
X133774309Y-89603349D01*
X133758196Y-89543211D01*
X133691317Y-89427372D01*
X133596735Y-89332790D01*
X133480896Y-89265911D01*
X133420757Y-89249796D01*
X133983531Y-88687023D01*
X133983530Y-88687022D01*
X133946247Y-88659933D01*
X133769252Y-88569749D01*
X133580337Y-88508367D01*
X133384136Y-88477292D01*
X133185494Y-88477292D01*
X132989294Y-88508367D01*
X132989291Y-88508367D01*
X132800377Y-88569749D01*
X132623379Y-88659935D01*
X132586098Y-88687021D01*
X132586097Y-88687022D01*
X133148873Y-89249796D01*
X133088734Y-89265911D01*
X132972895Y-89332790D01*
X132878313Y-89427372D01*
X132811434Y-89543211D01*
X132795319Y-89603349D01*
X132232545Y-89040574D01*
X132232544Y-89040575D01*
X132205458Y-89077856D01*
X132125300Y-89235174D01*
X132077325Y-89285970D01*
X132009504Y-89302765D01*
X131943369Y-89280227D01*
X131904330Y-89235174D01*
X131824173Y-89077859D01*
X131797083Y-89040575D01*
X131234309Y-89603349D01*
X131218196Y-89543211D01*
X131151317Y-89427372D01*
X131056735Y-89332790D01*
X130940896Y-89265911D01*
X130880757Y-89249796D01*
X131443531Y-88687023D01*
X131443530Y-88687022D01*
X131406247Y-88659933D01*
X131229252Y-88569749D01*
X131040337Y-88508367D01*
X130844136Y-88477292D01*
X130645494Y-88477292D01*
X130449294Y-88508367D01*
X130449291Y-88508367D01*
X130260377Y-88569749D01*
X130083379Y-88659935D01*
X130046098Y-88687021D01*
X130046097Y-88687022D01*
X130608873Y-89249796D01*
X130548734Y-89265911D01*
X130432895Y-89332790D01*
X130338313Y-89427372D01*
X130271434Y-89543211D01*
X130255319Y-89603350D01*
X129692545Y-89040574D01*
X129692544Y-89040575D01*
X129665458Y-89077856D01*
X129575272Y-89254854D01*
X129513890Y-89443768D01*
X129513890Y-89443771D01*
X129499634Y-89533778D01*
X129469704Y-89596913D01*
X129410393Y-89633844D01*
X129340530Y-89632846D01*
X129282298Y-89594236D01*
X129262600Y-89561833D01*
X129076197Y-89111817D01*
X129074607Y-89107775D01*
X128708103Y-88125142D01*
X128706657Y-88121040D01*
X128375487Y-87126033D01*
X128374170Y-87121826D01*
X128369079Y-87104489D01*
X129782315Y-87104489D01*
X129782315Y-87294094D01*
X129819301Y-87480035D01*
X129819303Y-87480043D01*
X129891857Y-87655204D01*
X129997192Y-87812850D01*
X130131256Y-87946914D01*
X130211452Y-88000499D01*
X130288900Y-88052248D01*
X130464064Y-88124804D01*
X130646156Y-88161024D01*
X130650012Y-88161791D01*
X130650016Y-88161792D01*
X130650017Y-88161792D01*
X130839614Y-88161792D01*
X130839615Y-88161791D01*
X131025566Y-88124804D01*
X131200730Y-88052248D01*
X131358373Y-87946914D01*
X131492437Y-87812850D01*
X131597771Y-87655207D01*
X131670327Y-87480043D01*
X131707315Y-87294090D01*
X131707315Y-87104494D01*
X131707314Y-87104489D01*
X132322315Y-87104489D01*
X132322315Y-87294094D01*
X132359301Y-87480035D01*
X132359303Y-87480043D01*
X132431857Y-87655204D01*
X132537192Y-87812850D01*
X132671256Y-87946914D01*
X132751452Y-88000499D01*
X132828900Y-88052248D01*
X133004064Y-88124804D01*
X133186156Y-88161024D01*
X133190012Y-88161791D01*
X133190016Y-88161792D01*
X133190017Y-88161792D01*
X133379614Y-88161792D01*
X133379615Y-88161791D01*
X133565566Y-88124804D01*
X133740730Y-88052248D01*
X133898373Y-87946914D01*
X134032437Y-87812850D01*
X134137771Y-87655207D01*
X134210327Y-87480043D01*
X134247315Y-87294090D01*
X134247315Y-87104494D01*
X134210327Y-86918541D01*
X134152637Y-86779267D01*
X134137772Y-86743379D01*
X134032437Y-86585733D01*
X133898373Y-86451669D01*
X133740727Y-86346334D01*
X133565566Y-86273780D01*
X133565558Y-86273778D01*
X133379617Y-86236792D01*
X133379613Y-86236792D01*
X133190017Y-86236792D01*
X133190012Y-86236792D01*
X133004071Y-86273778D01*
X133004063Y-86273780D01*
X132828902Y-86346334D01*
X132671256Y-86451669D01*
X132537192Y-86585733D01*
X132431857Y-86743379D01*
X132359303Y-86918540D01*
X132359301Y-86918548D01*
X132322315Y-87104489D01*
X131707314Y-87104489D01*
X131670327Y-86918541D01*
X131612637Y-86779267D01*
X131597772Y-86743379D01*
X131492437Y-86585733D01*
X131358373Y-86451669D01*
X131200727Y-86346334D01*
X131025566Y-86273780D01*
X131025558Y-86273778D01*
X130839617Y-86236792D01*
X130839613Y-86236792D01*
X130650017Y-86236792D01*
X130650012Y-86236792D01*
X130464071Y-86273778D01*
X130464063Y-86273780D01*
X130288902Y-86346334D01*
X130131256Y-86451669D01*
X129997192Y-86585733D01*
X129891857Y-86743379D01*
X129819303Y-86918540D01*
X129819301Y-86918548D01*
X129782315Y-87104489D01*
X128369079Y-87104489D01*
X128347820Y-87032086D01*
X128078721Y-86115618D01*
X128077564Y-86111401D01*
X127818218Y-85095294D01*
X127817203Y-85090998D01*
X127707078Y-84584760D01*
X127702668Y-84564489D01*
X129782315Y-84564489D01*
X129782315Y-84754094D01*
X129819301Y-84940035D01*
X129819303Y-84940043D01*
X129891857Y-85115204D01*
X129997192Y-85272850D01*
X130131256Y-85406914D01*
X130236115Y-85476978D01*
X130288900Y-85512248D01*
X130464064Y-85584804D01*
X130650012Y-85621791D01*
X130650016Y-85621792D01*
X130650017Y-85621792D01*
X130839614Y-85621792D01*
X130839615Y-85621791D01*
X131025566Y-85584804D01*
X131200730Y-85512248D01*
X131358373Y-85406914D01*
X131492437Y-85272850D01*
X131597771Y-85115207D01*
X131670327Y-84940043D01*
X131707315Y-84754090D01*
X131707315Y-84564494D01*
X131707314Y-84564489D01*
X132322315Y-84564489D01*
X132322315Y-84754094D01*
X132359301Y-84940035D01*
X132359303Y-84940043D01*
X132431857Y-85115204D01*
X132537192Y-85272850D01*
X132671256Y-85406914D01*
X132776115Y-85476978D01*
X132828900Y-85512248D01*
X133004064Y-85584804D01*
X133190012Y-85621791D01*
X133190016Y-85621792D01*
X133190017Y-85621792D01*
X133379614Y-85621792D01*
X133379615Y-85621791D01*
X133565566Y-85584804D01*
X133740730Y-85512248D01*
X133898373Y-85406914D01*
X134032437Y-85272850D01*
X134137771Y-85115207D01*
X134210327Y-84940043D01*
X134247315Y-84754090D01*
X134247315Y-84564494D01*
X134210327Y-84378541D01*
X134137771Y-84203377D01*
X134046199Y-84066330D01*
X134032437Y-84045733D01*
X133898373Y-83911669D01*
X133740727Y-83806334D01*
X133565566Y-83733780D01*
X133565558Y-83733778D01*
X133379617Y-83696792D01*
X133379613Y-83696792D01*
X133190017Y-83696792D01*
X133190012Y-83696792D01*
X133004071Y-83733778D01*
X133004063Y-83733780D01*
X132828902Y-83806334D01*
X132671256Y-83911669D01*
X132537192Y-84045733D01*
X132431857Y-84203379D01*
X132359303Y-84378540D01*
X132359301Y-84378548D01*
X132322315Y-84564489D01*
X131707314Y-84564489D01*
X131670327Y-84378541D01*
X131597771Y-84203377D01*
X131506199Y-84066330D01*
X131492437Y-84045733D01*
X131358373Y-83911669D01*
X131200727Y-83806334D01*
X131025566Y-83733780D01*
X131025558Y-83733778D01*
X130839617Y-83696792D01*
X130839613Y-83696792D01*
X130650017Y-83696792D01*
X130650012Y-83696792D01*
X130464071Y-83733778D01*
X130464063Y-83733780D01*
X130288902Y-83806334D01*
X130131256Y-83911669D01*
X129997192Y-84045733D01*
X129891857Y-84203379D01*
X129819303Y-84378540D01*
X129819301Y-84378548D01*
X129782315Y-84564489D01*
X127702668Y-84564489D01*
X127651240Y-84328079D01*
X127594296Y-84066310D01*
X127593436Y-84061989D01*
X127590503Y-84045734D01*
X127407239Y-83029973D01*
X127406534Y-83025616D01*
X127404251Y-83009740D01*
X127262593Y-82024489D01*
X129782315Y-82024489D01*
X129782315Y-82214094D01*
X129819301Y-82400035D01*
X129819303Y-82400043D01*
X129891857Y-82575204D01*
X129997192Y-82732850D01*
X130131256Y-82866914D01*
X130209216Y-82919005D01*
X130288900Y-82972248D01*
X130464064Y-83044804D01*
X130650012Y-83081791D01*
X130650016Y-83081792D01*
X130650017Y-83081792D01*
X130839614Y-83081792D01*
X130839615Y-83081791D01*
X131025566Y-83044804D01*
X131200730Y-82972248D01*
X131358373Y-82866914D01*
X131492437Y-82732850D01*
X131597771Y-82575207D01*
X131670327Y-82400043D01*
X131707315Y-82214090D01*
X131707315Y-82024494D01*
X131707315Y-82024491D01*
X131706416Y-82019970D01*
X132022815Y-82019970D01*
X132022815Y-82218613D01*
X132053890Y-82414812D01*
X132053890Y-82414815D01*
X132115272Y-82603729D01*
X132205456Y-82780724D01*
X132232545Y-82818007D01*
X132232546Y-82818008D01*
X132795319Y-82255234D01*
X132811434Y-82315373D01*
X132878313Y-82431212D01*
X132972895Y-82525794D01*
X133088734Y-82592673D01*
X133148872Y-82608786D01*
X132586098Y-83171560D01*
X132586098Y-83171561D01*
X132623382Y-83198650D01*
X132800377Y-83288834D01*
X132989292Y-83350216D01*
X133185494Y-83381292D01*
X133384136Y-83381292D01*
X133580335Y-83350216D01*
X133580338Y-83350216D01*
X133769252Y-83288834D01*
X133946240Y-83198654D01*
X133983531Y-83171560D01*
X133420757Y-82608786D01*
X133480896Y-82592673D01*
X133596735Y-82525794D01*
X133691317Y-82431212D01*
X133758196Y-82315373D01*
X133774310Y-82255234D01*
X134337083Y-82818007D01*
X134364177Y-82780717D01*
X134454357Y-82603729D01*
X134515739Y-82414815D01*
X134515739Y-82414812D01*
X134546815Y-82218613D01*
X134546815Y-82019970D01*
X134515739Y-81823771D01*
X134515739Y-81823768D01*
X134454357Y-81634854D01*
X134364173Y-81457859D01*
X134337083Y-81420575D01*
X133774309Y-81983349D01*
X133758196Y-81923211D01*
X133691317Y-81807372D01*
X133596735Y-81712790D01*
X133480896Y-81645911D01*
X133420757Y-81629796D01*
X133983531Y-81067023D01*
X133983530Y-81067022D01*
X133946247Y-81039933D01*
X133769252Y-80949749D01*
X133580337Y-80888367D01*
X133384136Y-80857292D01*
X133185494Y-80857292D01*
X132989294Y-80888367D01*
X132989291Y-80888367D01*
X132800377Y-80949749D01*
X132623379Y-81039935D01*
X132586098Y-81067021D01*
X132586097Y-81067022D01*
X133148873Y-81629796D01*
X133088734Y-81645911D01*
X132972895Y-81712790D01*
X132878313Y-81807372D01*
X132811434Y-81923211D01*
X132795319Y-81983349D01*
X132232545Y-81420574D01*
X132232544Y-81420575D01*
X132205458Y-81457856D01*
X132115272Y-81634854D01*
X132053890Y-81823768D01*
X132053890Y-81823771D01*
X132022815Y-82019970D01*
X131706416Y-82019970D01*
X131677684Y-81875529D01*
X131670327Y-81838541D01*
X131614207Y-81703058D01*
X131597772Y-81663379D01*
X131593206Y-81656546D01*
X131514156Y-81538238D01*
X131492437Y-81505733D01*
X131358373Y-81371669D01*
X131200727Y-81266334D01*
X131110215Y-81228843D01*
X131025566Y-81193780D01*
X131025558Y-81193778D01*
X130839617Y-81156792D01*
X130839613Y-81156792D01*
X130650017Y-81156792D01*
X130650012Y-81156792D01*
X130464071Y-81193778D01*
X130464063Y-81193780D01*
X130288902Y-81266334D01*
X130131256Y-81371669D01*
X129997192Y-81505733D01*
X129891857Y-81663379D01*
X129819303Y-81838540D01*
X129819301Y-81838548D01*
X129782315Y-82024489D01*
X127262593Y-82024489D01*
X127257295Y-81987639D01*
X127256746Y-81983265D01*
X127249866Y-81919270D01*
X127144643Y-80940551D01*
X127144258Y-80936245D01*
X127069445Y-79890233D01*
X127069209Y-79885817D01*
X127068492Y-79865742D01*
X127054875Y-79484489D01*
X129782315Y-79484489D01*
X129782315Y-79674094D01*
X129819301Y-79860035D01*
X129819303Y-79860043D01*
X129891857Y-80035204D01*
X129997192Y-80192850D01*
X130131256Y-80326914D01*
X130205415Y-80376465D01*
X130288900Y-80432248D01*
X130288901Y-80432248D01*
X130288902Y-80432249D01*
X130314814Y-80442982D01*
X130464064Y-80504804D01*
X130650012Y-80541791D01*
X130650016Y-80541792D01*
X130650017Y-80541792D01*
X130839614Y-80541792D01*
X130839615Y-80541791D01*
X131025566Y-80504804D01*
X131200730Y-80432248D01*
X131358373Y-80326914D01*
X131492437Y-80192850D01*
X131597771Y-80035207D01*
X131670327Y-79860043D01*
X131707315Y-79674090D01*
X131707315Y-79484494D01*
X131707314Y-79484489D01*
X132322315Y-79484489D01*
X132322315Y-79674094D01*
X132359301Y-79860035D01*
X132359303Y-79860043D01*
X132431857Y-80035204D01*
X132537192Y-80192850D01*
X132671256Y-80326914D01*
X132745415Y-80376465D01*
X132828900Y-80432248D01*
X132828901Y-80432248D01*
X132828902Y-80432249D01*
X132854814Y-80442982D01*
X133004064Y-80504804D01*
X133190012Y-80541791D01*
X133190016Y-80541792D01*
X133190017Y-80541792D01*
X133379614Y-80541792D01*
X133379615Y-80541791D01*
X133565566Y-80504804D01*
X133740730Y-80432248D01*
X133898373Y-80326914D01*
X134032437Y-80192850D01*
X134137771Y-80035207D01*
X134210327Y-79860043D01*
X134247315Y-79674090D01*
X134247315Y-79484494D01*
X134210327Y-79298541D01*
X134137771Y-79123377D01*
X134102501Y-79070592D01*
X134032437Y-78965733D01*
X133898373Y-78831669D01*
X133740727Y-78726334D01*
X133565566Y-78653780D01*
X133565558Y-78653778D01*
X133379617Y-78616792D01*
X133379613Y-78616792D01*
X133190017Y-78616792D01*
X133190012Y-78616792D01*
X133004071Y-78653778D01*
X133004063Y-78653780D01*
X132828902Y-78726334D01*
X132671256Y-78831669D01*
X132537192Y-78965733D01*
X132431857Y-79123379D01*
X132359303Y-79298540D01*
X132359301Y-79298548D01*
X132322315Y-79484489D01*
X131707314Y-79484489D01*
X131670327Y-79298541D01*
X131597771Y-79123377D01*
X131562501Y-79070592D01*
X131492437Y-78965733D01*
X131358373Y-78831669D01*
X131200727Y-78726334D01*
X131025566Y-78653780D01*
X131025558Y-78653778D01*
X130839617Y-78616792D01*
X130839613Y-78616792D01*
X130650017Y-78616792D01*
X130650012Y-78616792D01*
X130464071Y-78653778D01*
X130464063Y-78653780D01*
X130288902Y-78726334D01*
X130131256Y-78831669D01*
X129997192Y-78965733D01*
X129891857Y-79123379D01*
X129819303Y-79298540D01*
X129819301Y-79298548D01*
X129782315Y-79484489D01*
X127054875Y-79484489D01*
X127031780Y-78837835D01*
X127031701Y-78833409D01*
X127031701Y-77784764D01*
X127031780Y-77780338D01*
X127054861Y-77134090D01*
X127061633Y-76944489D01*
X129782315Y-76944489D01*
X129782315Y-77134094D01*
X129819301Y-77320035D01*
X129819303Y-77320043D01*
X129891857Y-77495204D01*
X129997192Y-77652850D01*
X130131256Y-77786914D01*
X130236115Y-77856978D01*
X130288900Y-77892248D01*
X130464064Y-77964804D01*
X130650012Y-78001791D01*
X130650016Y-78001792D01*
X130650017Y-78001792D01*
X130839614Y-78001792D01*
X130839615Y-78001791D01*
X131025566Y-77964804D01*
X131200730Y-77892248D01*
X131358373Y-77786914D01*
X131492437Y-77652850D01*
X131597771Y-77495207D01*
X131670327Y-77320043D01*
X131707315Y-77134090D01*
X131707315Y-76944494D01*
X131707314Y-76944489D01*
X132322315Y-76944489D01*
X132322315Y-77134094D01*
X132359301Y-77320035D01*
X132359303Y-77320043D01*
X132431857Y-77495204D01*
X132537192Y-77652850D01*
X132671256Y-77786914D01*
X132776115Y-77856978D01*
X132828900Y-77892248D01*
X133004064Y-77964804D01*
X133190012Y-78001791D01*
X133190016Y-78001792D01*
X133190017Y-78001792D01*
X133379614Y-78001792D01*
X133379615Y-78001791D01*
X133565566Y-77964804D01*
X133740730Y-77892248D01*
X133898373Y-77786914D01*
X134032437Y-77652850D01*
X134137771Y-77495207D01*
X134210327Y-77320043D01*
X134247315Y-77134090D01*
X134247315Y-76944494D01*
X134210327Y-76758541D01*
X134137771Y-76583377D01*
X134102501Y-76530592D01*
X134032437Y-76425733D01*
X133898373Y-76291669D01*
X133740727Y-76186334D01*
X133565566Y-76113780D01*
X133565558Y-76113778D01*
X133379617Y-76076792D01*
X133379613Y-76076792D01*
X133190017Y-76076792D01*
X133190012Y-76076792D01*
X133004071Y-76113778D01*
X133004063Y-76113780D01*
X132828902Y-76186334D01*
X132671256Y-76291669D01*
X132537192Y-76425733D01*
X132431857Y-76583379D01*
X132359303Y-76758540D01*
X132359301Y-76758548D01*
X132322315Y-76944489D01*
X131707314Y-76944489D01*
X131670327Y-76758541D01*
X131597771Y-76583377D01*
X131562501Y-76530592D01*
X131492437Y-76425733D01*
X131358373Y-76291669D01*
X131200727Y-76186334D01*
X131025566Y-76113780D01*
X131025558Y-76113778D01*
X130839617Y-76076792D01*
X130839613Y-76076792D01*
X130650017Y-76076792D01*
X130650012Y-76076792D01*
X130464071Y-76113778D01*
X130464063Y-76113780D01*
X130288902Y-76186334D01*
X130131256Y-76291669D01*
X129997192Y-76425733D01*
X129891857Y-76583379D01*
X129819303Y-76758540D01*
X129819301Y-76758548D01*
X129782315Y-76944489D01*
X127061633Y-76944489D01*
X127069209Y-76732350D01*
X127069446Y-76727936D01*
X127144258Y-75681924D01*
X127144649Y-75677571D01*
X127158196Y-75551561D01*
X127256749Y-74634883D01*
X127257298Y-74630516D01*
X127259513Y-74615111D01*
X127290446Y-74399970D01*
X129482815Y-74399970D01*
X129482815Y-74598613D01*
X129513890Y-74794812D01*
X129513890Y-74794815D01*
X129575272Y-74983729D01*
X129665456Y-75160724D01*
X129692545Y-75198007D01*
X129692546Y-75198008D01*
X130255319Y-74635234D01*
X130271434Y-74695373D01*
X130338313Y-74811212D01*
X130432895Y-74905794D01*
X130548734Y-74972673D01*
X130608872Y-74988786D01*
X130046098Y-75551560D01*
X130046098Y-75551561D01*
X130083382Y-75578650D01*
X130260377Y-75668834D01*
X130449292Y-75730216D01*
X130645494Y-75761292D01*
X130844136Y-75761292D01*
X131040335Y-75730216D01*
X131040338Y-75730216D01*
X131229252Y-75668834D01*
X131406240Y-75578654D01*
X131443531Y-75551560D01*
X130880757Y-74988786D01*
X130940896Y-74972673D01*
X131056735Y-74905794D01*
X131151317Y-74811212D01*
X131218196Y-74695373D01*
X131234310Y-74635234D01*
X131797083Y-75198007D01*
X131824177Y-75160717D01*
X131904330Y-75003409D01*
X131952304Y-74952613D01*
X132020125Y-74935818D01*
X132086260Y-74958355D01*
X132125300Y-75003409D01*
X132205456Y-75160724D01*
X132232545Y-75198007D01*
X132232546Y-75198008D01*
X132795319Y-74635234D01*
X132811434Y-74695373D01*
X132878313Y-74811212D01*
X132972895Y-74905794D01*
X133088734Y-74972673D01*
X133148872Y-74988786D01*
X132586098Y-75551560D01*
X132586098Y-75551561D01*
X132623382Y-75578650D01*
X132800377Y-75668834D01*
X132989292Y-75730216D01*
X133185494Y-75761292D01*
X133384136Y-75761292D01*
X133580335Y-75730216D01*
X133580338Y-75730216D01*
X133769252Y-75668834D01*
X133946240Y-75578654D01*
X133983531Y-75551560D01*
X133790267Y-75358296D01*
X148934907Y-75358296D01*
X149310907Y-75358296D01*
X149377946Y-75377981D01*
X149423701Y-75430785D01*
X149434907Y-75482296D01*
X149434907Y-77858296D01*
X150444907Y-77858296D01*
X150444907Y-74742405D01*
X152889823Y-74742405D01*
X152889823Y-74874189D01*
X152905878Y-74934108D01*
X152923931Y-75001484D01*
X152956877Y-75058547D01*
X152989823Y-75115611D01*
X153083009Y-75208797D01*
X153197137Y-75274689D01*
X153324431Y-75308797D01*
X153324433Y-75308797D01*
X153456213Y-75308797D01*
X153456215Y-75308797D01*
X153583509Y-75274689D01*
X153697637Y-75208797D01*
X153729293Y-75177141D01*
X153790616Y-75143656D01*
X153860308Y-75148640D01*
X153916241Y-75190512D01*
X153940658Y-75255976D01*
X153940974Y-75264822D01*
X153940974Y-81323977D01*
X153953754Y-81371670D01*
X153961453Y-81400404D01*
X153966159Y-81408554D01*
X153966161Y-81408562D01*
X153966163Y-81408561D01*
X154001014Y-81468926D01*
X156759540Y-84227452D01*
X156815489Y-84283401D01*
X156815491Y-84283402D01*
X156815495Y-84283405D01*
X156856911Y-84307316D01*
X156884011Y-84322962D01*
X156884018Y-84322964D01*
X156885084Y-84323406D01*
X156887023Y-84324701D01*
X156891049Y-84327026D01*
X156890896Y-84327289D01*
X156925317Y-84350288D01*
X159163181Y-86588152D01*
X159196666Y-86649475D01*
X159199500Y-86675833D01*
X159199500Y-88539562D01*
X159207589Y-88569749D01*
X159219979Y-88615990D01*
X159238472Y-88648019D01*
X159238473Y-88648023D01*
X159259535Y-88684504D01*
X159259539Y-88684509D01*
X159259540Y-88684511D01*
X162009540Y-91434511D01*
X162065489Y-91490460D01*
X162065491Y-91490461D01*
X162065495Y-91490464D01*
X162134004Y-91530017D01*
X162134011Y-91530021D01*
X162210438Y-91550500D01*
X163291324Y-91550500D01*
X163358363Y-91570185D01*
X163379005Y-91586819D01*
X163442686Y-91650500D01*
X163556814Y-91716392D01*
X163684108Y-91750500D01*
X163684110Y-91750500D01*
X163726618Y-91750500D01*
X163793657Y-91770185D01*
X163839412Y-91822989D01*
X163849356Y-91892147D01*
X163820331Y-91955703D01*
X163814299Y-91962181D01*
X163476270Y-92300210D01*
X163414947Y-92333695D01*
X163388589Y-92336529D01*
X161875646Y-92336529D01*
X161808607Y-92316844D01*
X161787965Y-92300210D01*
X161724286Y-92236531D01*
X161724284Y-92236529D01*
X161667220Y-92203583D01*
X161610157Y-92170637D01*
X161546509Y-92153583D01*
X161482862Y-92136529D01*
X161351078Y-92136529D01*
X161223782Y-92170637D01*
X161109656Y-92236529D01*
X161109653Y-92236531D01*
X161016472Y-92329712D01*
X161016470Y-92329715D01*
X160950578Y-92443841D01*
X160916470Y-92571137D01*
X160916470Y-92692137D01*
X160896785Y-92759176D01*
X160843981Y-92804931D01*
X160774823Y-92814875D01*
X160711267Y-92785850D01*
X160704789Y-92779818D01*
X160336819Y-92411848D01*
X160303334Y-92350525D01*
X160300500Y-92324167D01*
X160300500Y-90828441D01*
X160300500Y-90828440D01*
X160280021Y-90752013D01*
X160246058Y-90693187D01*
X160240464Y-90683497D01*
X160240458Y-90683489D01*
X157837581Y-88280612D01*
X157804096Y-88219289D01*
X157809080Y-88149597D01*
X157817875Y-88130930D01*
X157849448Y-88076244D01*
X157849449Y-88076243D01*
X157883557Y-87948949D01*
X157883557Y-87817165D01*
X157849449Y-87689871D01*
X157783557Y-87575743D01*
X157690371Y-87482557D01*
X157606459Y-87434110D01*
X157576244Y-87416665D01*
X157512596Y-87399611D01*
X157448949Y-87382557D01*
X157317165Y-87382557D01*
X157189869Y-87416665D01*
X157075743Y-87482557D01*
X157075740Y-87482559D01*
X156982559Y-87575740D01*
X156982557Y-87575743D01*
X156916665Y-87689869D01*
X156882557Y-87817165D01*
X156882557Y-87948948D01*
X156916665Y-88076244D01*
X156942507Y-88121003D01*
X156982557Y-88190371D01*
X157075743Y-88283557D01*
X157139055Y-88320110D01*
X157187269Y-88370675D01*
X157192638Y-88382593D01*
X157199500Y-88400256D01*
X157199500Y-88407564D01*
X157219979Y-88483991D01*
X157252063Y-88539562D01*
X157256815Y-88547794D01*
X157256816Y-88547795D01*
X157259540Y-88552513D01*
X157259543Y-88552517D01*
X159663181Y-90956154D01*
X159696666Y-91017477D01*
X159699500Y-91043835D01*
X159699500Y-92539562D01*
X159705444Y-92561744D01*
X159719979Y-92615989D01*
X159754967Y-92676591D01*
X159759537Y-92684507D01*
X159759542Y-92684513D01*
X163163181Y-96088152D01*
X163196666Y-96149475D01*
X163199500Y-96175833D01*
X163199500Y-100406903D01*
X163179815Y-100473942D01*
X163163181Y-100494584D01*
X162241848Y-101415917D01*
X162180525Y-101449402D01*
X162154167Y-101452236D01*
X160925730Y-101452236D01*
X160895300Y-101455089D01*
X160895298Y-101455089D01*
X160767119Y-101499942D01*
X160767117Y-101499943D01*
X160657850Y-101580586D01*
X160577207Y-101689853D01*
X160577206Y-101689855D01*
X160532353Y-101818034D01*
X160532353Y-101818036D01*
X160529500Y-101848466D01*
X160529500Y-103157005D01*
X160532353Y-103187435D01*
X160532353Y-103187437D01*
X160577206Y-103315616D01*
X160577207Y-103315618D01*
X160657850Y-103424886D01*
X160767118Y-103505529D01*
X160788089Y-103512867D01*
X160895299Y-103550382D01*
X160925730Y-103553236D01*
X160925734Y-103553236D01*
X162234270Y-103553236D01*
X162264699Y-103550382D01*
X162264701Y-103550382D01*
X162328790Y-103527955D01*
X162392882Y-103505529D01*
X162502150Y-103424886D01*
X162582793Y-103315618D01*
X162619649Y-103210290D01*
X162627646Y-103187437D01*
X162627646Y-103187435D01*
X162630500Y-103157005D01*
X162630500Y-101928569D01*
X162650185Y-101861530D01*
X162666819Y-101840888D01*
X163203524Y-101304183D01*
X163740460Y-100767247D01*
X163771643Y-100713236D01*
X163780021Y-100698725D01*
X163800500Y-100622298D01*
X163800500Y-95960438D01*
X163780021Y-95884011D01*
X163755669Y-95841832D01*
X163740464Y-95815495D01*
X163740458Y-95815487D01*
X163030496Y-95105525D01*
X170396565Y-95105525D01*
X170396565Y-95453774D01*
X170435554Y-95799808D01*
X170435555Y-95799817D01*
X170435556Y-95799821D01*
X170445145Y-95841832D01*
X170513047Y-96139334D01*
X170513050Y-96139342D01*
X170628064Y-96468032D01*
X170779157Y-96781780D01*
X170964436Y-97076649D01*
X170964437Y-97076651D01*
X171181552Y-97348906D01*
X171427808Y-97595162D01*
X171700063Y-97812277D01*
X171700066Y-97812278D01*
X171700068Y-97812280D01*
X171994932Y-97997556D01*
X172308686Y-98148652D01*
X172555553Y-98235034D01*
X172637372Y-98263664D01*
X172637380Y-98263667D01*
X172637383Y-98263667D01*
X172637384Y-98263668D01*
X172976894Y-98341159D01*
X173322941Y-98380149D01*
X173322942Y-98380150D01*
X173322945Y-98380150D01*
X173671188Y-98380150D01*
X173671188Y-98380149D01*
X174017236Y-98341159D01*
X174356746Y-98263668D01*
X174685444Y-98148652D01*
X174999198Y-97997556D01*
X175294062Y-97812280D01*
X175294066Y-97812277D01*
X175566321Y-97595162D01*
X175566323Y-97595159D01*
X175566328Y-97595156D01*
X175812571Y-97348913D01*
X175909142Y-97227817D01*
X176029692Y-97076651D01*
X176029693Y-97076649D01*
X176029695Y-97076647D01*
X176214971Y-96781783D01*
X176366067Y-96468029D01*
X176481083Y-96139331D01*
X176558574Y-95799821D01*
X176597565Y-95453770D01*
X176597565Y-95105530D01*
X176558574Y-94759479D01*
X176481083Y-94419969D01*
X176366067Y-94091271D01*
X176214971Y-93777517D01*
X176029695Y-93482653D01*
X176029693Y-93482650D01*
X176029692Y-93482648D01*
X175812577Y-93210393D01*
X175566321Y-92964137D01*
X175294066Y-92747022D01*
X175294064Y-92747021D01*
X174999195Y-92561742D01*
X174685447Y-92410649D01*
X174356757Y-92295635D01*
X174356749Y-92295632D01*
X174097799Y-92236529D01*
X174017236Y-92218141D01*
X174017232Y-92218140D01*
X174017223Y-92218139D01*
X173671189Y-92179150D01*
X173671185Y-92179150D01*
X173322945Y-92179150D01*
X173322940Y-92179150D01*
X172976906Y-92218139D01*
X172976894Y-92218141D01*
X172637380Y-92295632D01*
X172637372Y-92295635D01*
X172308682Y-92410649D01*
X171994934Y-92561742D01*
X171700065Y-92747021D01*
X171700063Y-92747022D01*
X171427808Y-92964137D01*
X171181552Y-93210393D01*
X170964437Y-93482648D01*
X170964436Y-93482650D01*
X170779157Y-93777519D01*
X170628064Y-94091267D01*
X170513050Y-94419957D01*
X170513047Y-94419965D01*
X170435556Y-94759479D01*
X170435554Y-94759491D01*
X170396565Y-95105525D01*
X163030496Y-95105525D01*
X161274181Y-93349210D01*
X161240696Y-93287887D01*
X161245680Y-93218195D01*
X161287552Y-93162262D01*
X161353016Y-93137845D01*
X161361862Y-93137529D01*
X161482860Y-93137529D01*
X161482862Y-93137529D01*
X161610156Y-93103421D01*
X161724284Y-93037529D01*
X161787965Y-92973848D01*
X161849288Y-92940363D01*
X161875646Y-92937529D01*
X163603982Y-92937529D01*
X163603984Y-92937529D01*
X163680411Y-92917050D01*
X163748933Y-92877489D01*
X163804882Y-92821540D01*
X164746316Y-91880106D01*
X164785878Y-91811583D01*
X164806356Y-91735157D01*
X164806356Y-91656033D01*
X164806356Y-91534864D01*
X165792725Y-91534864D01*
X165792725Y-91666648D01*
X165806054Y-91716392D01*
X165826833Y-91793943D01*
X165843603Y-91822989D01*
X165892725Y-91908070D01*
X165985911Y-92001256D01*
X166100039Y-92067148D01*
X166227333Y-92101256D01*
X166227335Y-92101256D01*
X166359115Y-92101256D01*
X166359117Y-92101256D01*
X166486411Y-92067148D01*
X166600539Y-92001256D01*
X166693725Y-91908070D01*
X166759617Y-91793942D01*
X166793725Y-91666648D01*
X166793725Y-91534864D01*
X166759617Y-91407570D01*
X166693725Y-91293442D01*
X166600539Y-91200256D01*
X166543475Y-91167310D01*
X166486412Y-91134364D01*
X166422764Y-91117310D01*
X166359117Y-91100256D01*
X166227333Y-91100256D01*
X166100037Y-91134364D01*
X165985911Y-91200256D01*
X165985908Y-91200258D01*
X165892727Y-91293439D01*
X165892725Y-91293442D01*
X165826833Y-91407568D01*
X165819614Y-91434511D01*
X165792725Y-91534864D01*
X164806356Y-91534864D01*
X164806356Y-88966294D01*
X164785877Y-88889867D01*
X164781702Y-88882636D01*
X164746320Y-88821351D01*
X164746314Y-88821343D01*
X163235405Y-87310434D01*
X163220701Y-87283506D01*
X163204109Y-87257688D01*
X163203217Y-87251487D01*
X163201920Y-87249111D01*
X163199086Y-87222753D01*
X163199086Y-87099125D01*
X163218771Y-87032086D01*
X163271575Y-86986331D01*
X163340733Y-86976387D01*
X163355156Y-86979345D01*
X163434108Y-87000500D01*
X163434111Y-87000500D01*
X163524167Y-87000500D01*
X163591206Y-87020185D01*
X163611848Y-87036819D01*
X164259686Y-87684657D01*
X164315635Y-87740606D01*
X164315637Y-87740607D01*
X164315641Y-87740610D01*
X164384150Y-87780163D01*
X164384157Y-87780167D01*
X164460584Y-87800646D01*
X164460586Y-87800646D01*
X168460767Y-87800646D01*
X168462994Y-87800500D01*
X168595124Y-87800500D01*
X168662163Y-87820185D01*
X168682805Y-87836819D01*
X168746486Y-87900500D01*
X168860614Y-87966392D01*
X168987908Y-88000500D01*
X168987910Y-88000500D01*
X169119690Y-88000500D01*
X169119692Y-88000500D01*
X169246986Y-87966392D01*
X169361114Y-87900500D01*
X169454300Y-87807314D01*
X169520192Y-87693186D01*
X169554300Y-87565892D01*
X169554300Y-87434108D01*
X169520192Y-87306814D01*
X169454300Y-87192686D01*
X169361114Y-87099500D01*
X169302900Y-87065890D01*
X169246987Y-87033608D01*
X169183339Y-87016554D01*
X169119692Y-86999500D01*
X168987908Y-86999500D01*
X168860612Y-87033608D01*
X168746486Y-87099500D01*
X168746483Y-87099502D01*
X168682805Y-87163181D01*
X168655877Y-87177884D01*
X168630059Y-87194477D01*
X168623858Y-87195368D01*
X168621482Y-87196666D01*
X168595124Y-87199500D01*
X168395349Y-87199500D01*
X168328310Y-87179815D01*
X168282555Y-87127011D01*
X168272611Y-87057853D01*
X168275574Y-87043407D01*
X168296573Y-86965038D01*
X168296573Y-86874978D01*
X168316258Y-86807939D01*
X168332892Y-86787297D01*
X168511827Y-86608362D01*
X168740460Y-86379730D01*
X168742117Y-86376858D01*
X168777547Y-86315494D01*
X168777551Y-86315485D01*
X168780021Y-86311208D01*
X168800500Y-86234781D01*
X168800500Y-82434108D01*
X170499500Y-82434108D01*
X170499500Y-82565891D01*
X170533608Y-82693187D01*
X170556508Y-82732850D01*
X170599500Y-82807314D01*
X170692686Y-82900500D01*
X170806814Y-82966392D01*
X170934108Y-83000500D01*
X170934110Y-83000500D01*
X171065890Y-83000500D01*
X171065892Y-83000500D01*
X171193186Y-82966392D01*
X171307314Y-82900500D01*
X171400500Y-82807314D01*
X171466392Y-82693186D01*
X171500500Y-82565892D01*
X171500500Y-82434108D01*
X171466392Y-82306814D01*
X171400500Y-82192686D01*
X171307314Y-82099500D01*
X171246202Y-82064217D01*
X171193187Y-82033608D01*
X171129539Y-82016554D01*
X171065892Y-81999500D01*
X170934108Y-81999500D01*
X170806812Y-82033608D01*
X170692686Y-82099500D01*
X170692683Y-82099502D01*
X170599502Y-82192683D01*
X170599500Y-82192686D01*
X170533608Y-82306812D01*
X170499500Y-82434108D01*
X168800500Y-82434108D01*
X168800500Y-81538238D01*
X168802611Y-81515453D01*
X168805500Y-81499998D01*
X168805500Y-80499997D01*
X168802194Y-80452382D01*
X168800500Y-80435173D01*
X168800500Y-79914108D01*
X182999500Y-79914108D01*
X182999500Y-80045891D01*
X183033608Y-80173187D01*
X183062175Y-80222666D01*
X183099500Y-80287314D01*
X183192686Y-80380500D01*
X183306814Y-80446392D01*
X183434108Y-80480500D01*
X183434110Y-80480500D01*
X183565890Y-80480500D01*
X183565892Y-80480500D01*
X183693186Y-80446392D01*
X183807314Y-80380500D01*
X183900500Y-80287314D01*
X183966392Y-80173186D01*
X184000500Y-80045892D01*
X184000500Y-79914108D01*
X183966392Y-79786814D01*
X183900500Y-79672686D01*
X183807314Y-79579500D01*
X183750250Y-79546554D01*
X183693187Y-79513608D01*
X183620048Y-79494011D01*
X183565892Y-79479500D01*
X183434108Y-79479500D01*
X183306812Y-79513608D01*
X183192686Y-79579500D01*
X183192683Y-79579502D01*
X183099502Y-79672683D01*
X183099500Y-79672686D01*
X183033608Y-79786812D01*
X182999500Y-79914108D01*
X168800500Y-79914108D01*
X168800500Y-75960439D01*
X168800500Y-75960438D01*
X168790252Y-75922193D01*
X168780022Y-75884012D01*
X168740460Y-75815489D01*
X167859079Y-74934108D01*
X174499500Y-74934108D01*
X174499500Y-75065891D01*
X174533608Y-75193187D01*
X174542619Y-75208794D01*
X174599500Y-75307314D01*
X174692686Y-75400500D01*
X174806814Y-75466392D01*
X174934108Y-75500500D01*
X174934110Y-75500500D01*
X175065890Y-75500500D01*
X175065892Y-75500500D01*
X175193186Y-75466392D01*
X175307314Y-75400500D01*
X175400500Y-75307314D01*
X175466392Y-75193186D01*
X175500500Y-75065892D01*
X175500500Y-74934108D01*
X175466392Y-74806814D01*
X175400500Y-74692686D01*
X175307314Y-74599500D01*
X175249588Y-74566172D01*
X175193187Y-74533608D01*
X175129539Y-74516554D01*
X175065892Y-74499500D01*
X174934108Y-74499500D01*
X174806812Y-74533608D01*
X174692686Y-74599500D01*
X174692683Y-74599502D01*
X174599502Y-74692683D01*
X174599500Y-74692686D01*
X174533608Y-74806812D01*
X174499500Y-74934108D01*
X167859079Y-74934108D01*
X160409078Y-67484107D01*
X161499500Y-67484107D01*
X161499500Y-67615890D01*
X161533608Y-67743186D01*
X161546896Y-67766201D01*
X161599500Y-67857313D01*
X161692686Y-67950499D01*
X161806814Y-68016391D01*
X161934108Y-68050499D01*
X161934110Y-68050499D01*
X162065890Y-68050499D01*
X162065892Y-68050499D01*
X162193186Y-68016391D01*
X162307314Y-67950499D01*
X162400500Y-67857313D01*
X162466392Y-67743185D01*
X162500500Y-67615891D01*
X162500500Y-67484107D01*
X162466392Y-67356813D01*
X162400500Y-67242685D01*
X162307314Y-67149499D01*
X162250250Y-67116553D01*
X162193187Y-67083607D01*
X162127065Y-67065890D01*
X162065892Y-67049499D01*
X161934108Y-67049499D01*
X161806812Y-67083607D01*
X161692686Y-67149499D01*
X161692683Y-67149501D01*
X161599502Y-67242682D01*
X161599500Y-67242685D01*
X161533608Y-67356811D01*
X161499500Y-67484107D01*
X160409078Y-67484107D01*
X159036818Y-66111847D01*
X159003334Y-66050525D01*
X159000500Y-66024167D01*
X159000500Y-65934110D01*
X159000500Y-65934108D01*
X158966392Y-65806814D01*
X158900500Y-65692686D01*
X158807314Y-65599500D01*
X158750250Y-65566554D01*
X158693187Y-65533608D01*
X158629539Y-65516554D01*
X158565892Y-65499500D01*
X158434108Y-65499500D01*
X158306812Y-65533608D01*
X158192686Y-65599500D01*
X158192683Y-65599502D01*
X158099502Y-65692683D01*
X158099500Y-65692686D01*
X158033609Y-65806811D01*
X158033609Y-65806812D01*
X158033608Y-65806814D01*
X158031193Y-65815829D01*
X158025413Y-65837400D01*
X157989047Y-65897060D01*
X157926200Y-65927588D01*
X157856824Y-65919293D01*
X157817957Y-65892986D01*
X156414512Y-64489541D01*
X156414507Y-64489537D01*
X156405065Y-64484086D01*
X156405064Y-64484086D01*
X156345991Y-64449980D01*
X156345990Y-64449979D01*
X156305105Y-64439024D01*
X156269562Y-64429500D01*
X156269560Y-64429500D01*
X155458676Y-64429500D01*
X155391637Y-64409815D01*
X155370995Y-64393181D01*
X155307316Y-64329502D01*
X155307314Y-64329500D01*
X155250250Y-64296554D01*
X155193187Y-64263608D01*
X155129539Y-64246554D01*
X155065892Y-64229500D01*
X154934108Y-64229500D01*
X154806812Y-64263608D01*
X154692686Y-64329500D01*
X154692683Y-64329502D01*
X154599502Y-64422683D01*
X154599500Y-64422686D01*
X154533608Y-64536812D01*
X154499500Y-64664108D01*
X154499500Y-64795891D01*
X154533608Y-64923187D01*
X154566554Y-64980250D01*
X154599500Y-65037314D01*
X154692686Y-65130500D01*
X154806814Y-65196392D01*
X154934108Y-65230500D01*
X154934110Y-65230500D01*
X155065890Y-65230500D01*
X155065892Y-65230500D01*
X155193186Y-65196392D01*
X155307314Y-65130500D01*
X155370995Y-65066819D01*
X155432318Y-65033334D01*
X155458676Y-65030500D01*
X156054167Y-65030500D01*
X156121206Y-65050185D01*
X156141848Y-65066819D01*
X158267103Y-67192074D01*
X158300588Y-67253397D01*
X158295604Y-67323089D01*
X158253732Y-67379022D01*
X158188268Y-67403439D01*
X158156963Y-67400451D01*
X158156892Y-67400995D01*
X158148837Y-67399934D01*
X158148836Y-67399934D01*
X158017052Y-67399934D01*
X157889756Y-67434042D01*
X157775630Y-67499934D01*
X157775627Y-67499936D01*
X157698285Y-67577279D01*
X157636962Y-67610764D01*
X157610604Y-67613598D01*
X157046340Y-67613598D01*
X156969912Y-67634076D01*
X156901391Y-67673638D01*
X156901388Y-67673640D01*
X156259541Y-68315487D01*
X156259535Y-68315495D01*
X156219982Y-68384004D01*
X156219979Y-68384009D01*
X156206326Y-68434962D01*
X156199500Y-68460438D01*
X156199500Y-69039562D01*
X156202811Y-69051917D01*
X156219979Y-69115990D01*
X156219980Y-69115991D01*
X156235979Y-69143702D01*
X156235980Y-69143703D01*
X156259539Y-69184509D01*
X156259541Y-69184512D01*
X156764181Y-69689152D01*
X156797666Y-69750475D01*
X156800500Y-69776833D01*
X156800500Y-81207662D01*
X156810739Y-81245875D01*
X156820979Y-81284091D01*
X156820980Y-81284092D01*
X156830451Y-81300496D01*
X156830455Y-81300501D01*
X156860539Y-81352610D01*
X160163181Y-84655252D01*
X160196666Y-84716575D01*
X160199500Y-84742933D01*
X160199500Y-86541323D01*
X160179815Y-86608362D01*
X160163182Y-86629004D01*
X160099500Y-86692686D01*
X160031887Y-86809794D01*
X159981319Y-86858009D01*
X159912712Y-86871231D01*
X159847848Y-86845263D01*
X159807320Y-86788349D01*
X159800500Y-86747793D01*
X159800500Y-86460439D01*
X159800500Y-86460438D01*
X159780021Y-86384011D01*
X159767502Y-86362327D01*
X159740464Y-86315495D01*
X159740458Y-86315487D01*
X157227451Y-83802480D01*
X157202369Y-83787999D01*
X157158930Y-83762920D01*
X157158927Y-83762919D01*
X157157843Y-83762470D01*
X157155897Y-83761170D01*
X157151893Y-83758858D01*
X157152044Y-83758595D01*
X157117623Y-83735593D01*
X154578293Y-81196263D01*
X154544808Y-81134940D01*
X154541974Y-81108582D01*
X154541974Y-71434108D01*
X155499500Y-71434108D01*
X155499500Y-71565892D01*
X155510518Y-71607013D01*
X155533608Y-71693187D01*
X155566554Y-71750250D01*
X155599500Y-71807314D01*
X155692686Y-71900500D01*
X155806814Y-71966392D01*
X155934108Y-72000500D01*
X155934110Y-72000500D01*
X156065890Y-72000500D01*
X156065892Y-72000500D01*
X156193186Y-71966392D01*
X156307314Y-71900500D01*
X156400500Y-71807314D01*
X156466392Y-71693186D01*
X156500500Y-71565892D01*
X156500500Y-71434108D01*
X156466392Y-71306814D01*
X156400500Y-71192686D01*
X156307314Y-71099500D01*
X156250250Y-71066554D01*
X156193187Y-71033608D01*
X156129539Y-71016554D01*
X156065892Y-70999500D01*
X155934108Y-70999500D01*
X155806812Y-71033608D01*
X155692686Y-71099500D01*
X155692683Y-71099502D01*
X155599502Y-71192683D01*
X155599500Y-71192686D01*
X155533608Y-71306812D01*
X155499500Y-71434108D01*
X154541974Y-71434108D01*
X154541974Y-70184108D01*
X155499500Y-70184108D01*
X155499500Y-70315891D01*
X155533608Y-70443187D01*
X155549990Y-70471561D01*
X155599500Y-70557314D01*
X155692686Y-70650500D01*
X155806814Y-70716392D01*
X155934108Y-70750500D01*
X155934110Y-70750500D01*
X156065890Y-70750500D01*
X156065892Y-70750500D01*
X156193186Y-70716392D01*
X156307314Y-70650500D01*
X156400500Y-70557314D01*
X156466392Y-70443186D01*
X156500500Y-70315892D01*
X156500500Y-70184108D01*
X156466392Y-70056814D01*
X156400500Y-69942686D01*
X156307314Y-69849500D01*
X156250250Y-69816554D01*
X156193187Y-69783608D01*
X156129539Y-69766554D01*
X156065892Y-69749500D01*
X155934108Y-69749500D01*
X155806812Y-69783608D01*
X155692686Y-69849500D01*
X155692683Y-69849502D01*
X155599502Y-69942683D01*
X155599500Y-69942686D01*
X155533608Y-70056812D01*
X155499500Y-70184108D01*
X154541974Y-70184108D01*
X154541974Y-66934358D01*
X154561659Y-66867319D01*
X154578289Y-66846681D01*
X154888151Y-66536818D01*
X154949474Y-66503334D01*
X154975832Y-66500500D01*
X155065890Y-66500500D01*
X155065892Y-66500500D01*
X155193186Y-66466392D01*
X155307314Y-66400500D01*
X155400500Y-66307314D01*
X155466392Y-66193186D01*
X155500500Y-66065892D01*
X155500500Y-65934108D01*
X155466392Y-65806814D01*
X155400500Y-65692686D01*
X155307314Y-65599500D01*
X155250250Y-65566554D01*
X155193187Y-65533608D01*
X155129539Y-65516554D01*
X155065892Y-65499500D01*
X154934108Y-65499500D01*
X154806812Y-65533608D01*
X154692686Y-65599500D01*
X154692683Y-65599502D01*
X154599502Y-65692683D01*
X154599500Y-65692686D01*
X154533608Y-65806812D01*
X154499500Y-65934108D01*
X154499500Y-66024166D01*
X154479815Y-66091205D01*
X154463181Y-66111847D01*
X154056963Y-66518066D01*
X154001015Y-66574013D01*
X154001009Y-66574021D01*
X153961456Y-66642530D01*
X153961453Y-66642535D01*
X153940974Y-66718965D01*
X153940974Y-74351772D01*
X153921289Y-74418811D01*
X153868485Y-74464566D01*
X153799327Y-74474510D01*
X153735771Y-74445485D01*
X153729293Y-74439453D01*
X153697639Y-74407799D01*
X153697637Y-74407797D01*
X153611899Y-74358296D01*
X153583510Y-74341905D01*
X153519862Y-74324851D01*
X153456215Y-74307797D01*
X153324431Y-74307797D01*
X153197135Y-74341905D01*
X153083009Y-74407797D01*
X153083006Y-74407799D01*
X152989825Y-74500980D01*
X152989823Y-74500983D01*
X152923931Y-74615109D01*
X152918626Y-74634908D01*
X152889823Y-74742405D01*
X150444907Y-74742405D01*
X150444907Y-74358296D01*
X148934907Y-74358296D01*
X148934907Y-75358296D01*
X133790267Y-75358296D01*
X133420757Y-74988786D01*
X133480896Y-74972673D01*
X133596735Y-74905794D01*
X133691317Y-74811212D01*
X133758196Y-74695373D01*
X133774310Y-74635234D01*
X134337083Y-75198007D01*
X134364177Y-75160717D01*
X134454357Y-74983729D01*
X134515739Y-74794815D01*
X134515739Y-74794812D01*
X134546815Y-74598613D01*
X134546815Y-74399969D01*
X134535152Y-74326331D01*
X134515739Y-74203771D01*
X134515739Y-74203768D01*
X134454357Y-74014854D01*
X134364173Y-73837859D01*
X134337083Y-73800575D01*
X133774309Y-74363349D01*
X133758196Y-74303211D01*
X133691317Y-74187372D01*
X133596735Y-74092790D01*
X133480896Y-74025911D01*
X133420757Y-74009796D01*
X133983531Y-73447023D01*
X133983530Y-73447022D01*
X133946247Y-73419933D01*
X133769252Y-73329749D01*
X133580337Y-73268367D01*
X133384136Y-73237292D01*
X133185494Y-73237292D01*
X132989294Y-73268367D01*
X132989291Y-73268367D01*
X132800377Y-73329749D01*
X132623379Y-73419935D01*
X132586098Y-73447021D01*
X132586097Y-73447022D01*
X133148873Y-74009796D01*
X133088734Y-74025911D01*
X132972895Y-74092790D01*
X132878313Y-74187372D01*
X132811434Y-74303211D01*
X132795319Y-74363349D01*
X132232545Y-73800574D01*
X132232544Y-73800575D01*
X132205458Y-73837856D01*
X132125300Y-73995174D01*
X132077325Y-74045970D01*
X132009504Y-74062765D01*
X131943369Y-74040227D01*
X131904330Y-73995174D01*
X131824173Y-73837859D01*
X131797083Y-73800575D01*
X131234309Y-74363349D01*
X131218196Y-74303211D01*
X131151317Y-74187372D01*
X131056735Y-74092790D01*
X130940896Y-74025911D01*
X130880757Y-74009796D01*
X131443531Y-73447023D01*
X131443530Y-73447022D01*
X131406247Y-73419933D01*
X131229252Y-73329749D01*
X131040337Y-73268367D01*
X130844136Y-73237292D01*
X130645494Y-73237292D01*
X130449294Y-73268367D01*
X130449291Y-73268367D01*
X130260377Y-73329749D01*
X130083379Y-73419935D01*
X130046098Y-73447021D01*
X130046097Y-73447022D01*
X130608873Y-74009796D01*
X130548734Y-74025911D01*
X130432895Y-74092790D01*
X130338313Y-74187372D01*
X130271434Y-74303211D01*
X130255319Y-74363349D01*
X129692545Y-73800574D01*
X129692544Y-73800575D01*
X129665458Y-73837856D01*
X129575272Y-74014854D01*
X129513890Y-74203768D01*
X129513890Y-74203771D01*
X129482815Y-74399970D01*
X127290446Y-74399970D01*
X127406537Y-73592534D01*
X127407242Y-73588187D01*
X127428157Y-73472265D01*
X127470551Y-73237292D01*
X127593442Y-72556153D01*
X127594293Y-72551874D01*
X127743824Y-71864489D01*
X129782315Y-71864489D01*
X129782315Y-72054094D01*
X129819301Y-72240035D01*
X129819303Y-72240043D01*
X129891857Y-72415204D01*
X129997192Y-72572850D01*
X130131256Y-72706914D01*
X130236115Y-72776978D01*
X130288900Y-72812248D01*
X130464064Y-72884804D01*
X130650012Y-72921791D01*
X130650016Y-72921792D01*
X130650017Y-72921792D01*
X130839614Y-72921792D01*
X130839615Y-72921791D01*
X131025566Y-72884804D01*
X131200730Y-72812248D01*
X131358373Y-72706914D01*
X131492437Y-72572850D01*
X131597771Y-72415207D01*
X131670327Y-72240043D01*
X131707315Y-72054090D01*
X131707315Y-71864494D01*
X131707314Y-71864489D01*
X132322315Y-71864489D01*
X132322315Y-72054094D01*
X132359301Y-72240035D01*
X132359303Y-72240043D01*
X132431857Y-72415204D01*
X132537192Y-72572850D01*
X132671256Y-72706914D01*
X132776115Y-72776978D01*
X132828900Y-72812248D01*
X133004064Y-72884804D01*
X133190012Y-72921791D01*
X133190016Y-72921792D01*
X133190017Y-72921792D01*
X133379614Y-72921792D01*
X133379615Y-72921791D01*
X133565566Y-72884804D01*
X133740730Y-72812248D01*
X133898373Y-72706914D01*
X134032437Y-72572850D01*
X134137771Y-72415207D01*
X134161345Y-72358296D01*
X151434907Y-72358296D01*
X151434907Y-73358296D01*
X152934907Y-73358296D01*
X152934907Y-70858296D01*
X151934907Y-70858296D01*
X151934907Y-72234296D01*
X151915222Y-72301335D01*
X151862418Y-72347090D01*
X151810907Y-72358296D01*
X151434907Y-72358296D01*
X134161345Y-72358296D01*
X134210327Y-72240043D01*
X134247315Y-72054090D01*
X134247315Y-71864494D01*
X134210327Y-71678541D01*
X134137771Y-71503377D01*
X134083603Y-71422309D01*
X134032437Y-71345733D01*
X133898373Y-71211669D01*
X133740727Y-71106334D01*
X133565566Y-71033780D01*
X133565558Y-71033778D01*
X133379617Y-70996792D01*
X133379613Y-70996792D01*
X133190017Y-70996792D01*
X133190012Y-70996792D01*
X133004071Y-71033778D01*
X133004063Y-71033780D01*
X132828902Y-71106334D01*
X132671256Y-71211669D01*
X132537192Y-71345733D01*
X132431857Y-71503379D01*
X132359303Y-71678540D01*
X132359301Y-71678548D01*
X132322315Y-71864489D01*
X131707314Y-71864489D01*
X131670327Y-71678541D01*
X131597771Y-71503377D01*
X131543603Y-71422309D01*
X131492437Y-71345733D01*
X131358373Y-71211669D01*
X131200727Y-71106334D01*
X131025566Y-71033780D01*
X131025558Y-71033778D01*
X130839617Y-70996792D01*
X130839613Y-70996792D01*
X130650017Y-70996792D01*
X130650012Y-70996792D01*
X130464071Y-71033778D01*
X130464063Y-71033780D01*
X130288902Y-71106334D01*
X130131256Y-71211669D01*
X129997192Y-71345733D01*
X129891857Y-71503379D01*
X129819303Y-71678540D01*
X129819301Y-71678548D01*
X129782315Y-71864489D01*
X127743824Y-71864489D01*
X127817208Y-71527150D01*
X127818221Y-71522867D01*
X127840875Y-71434110D01*
X128077567Y-70506758D01*
X128078716Y-70502569D01*
X128374174Y-69496333D01*
X128375493Y-69492123D01*
X128377863Y-69485004D01*
X128432791Y-69319970D01*
X129482815Y-69319970D01*
X129482815Y-69518613D01*
X129513890Y-69714812D01*
X129513890Y-69714815D01*
X129575272Y-69903729D01*
X129665456Y-70080724D01*
X129692545Y-70118007D01*
X129692546Y-70118008D01*
X130255319Y-69555234D01*
X130271434Y-69615373D01*
X130338313Y-69731212D01*
X130432895Y-69825794D01*
X130548734Y-69892673D01*
X130608872Y-69908786D01*
X130046098Y-70471560D01*
X130046098Y-70471561D01*
X130083382Y-70498650D01*
X130260377Y-70588834D01*
X130449292Y-70650216D01*
X130645494Y-70681292D01*
X130844136Y-70681292D01*
X131040335Y-70650216D01*
X131040338Y-70650216D01*
X131229252Y-70588834D01*
X131406240Y-70498654D01*
X131443531Y-70471560D01*
X130880757Y-69908786D01*
X130940896Y-69892673D01*
X131056735Y-69825794D01*
X131151317Y-69731212D01*
X131218196Y-69615373D01*
X131234310Y-69555234D01*
X131797083Y-70118007D01*
X131824177Y-70080717D01*
X131904330Y-69923409D01*
X131952304Y-69872613D01*
X132020125Y-69855818D01*
X132086260Y-69878355D01*
X132125300Y-69923409D01*
X132205456Y-70080724D01*
X132232545Y-70118007D01*
X132232546Y-70118008D01*
X132795319Y-69555234D01*
X132811434Y-69615373D01*
X132878313Y-69731212D01*
X132972895Y-69825794D01*
X133088734Y-69892673D01*
X133148872Y-69908786D01*
X132586098Y-70471560D01*
X132586098Y-70471561D01*
X132623382Y-70498650D01*
X132800377Y-70588834D01*
X132989292Y-70650216D01*
X133185494Y-70681292D01*
X133384136Y-70681292D01*
X133580335Y-70650216D01*
X133580338Y-70650216D01*
X133769252Y-70588834D01*
X133946240Y-70498654D01*
X133983531Y-70471560D01*
X133420757Y-69908786D01*
X133480896Y-69892673D01*
X133596735Y-69825794D01*
X133691317Y-69731212D01*
X133758196Y-69615373D01*
X133774310Y-69555234D01*
X134337083Y-70118007D01*
X134364177Y-70080717D01*
X134454357Y-69903729D01*
X134515739Y-69714815D01*
X134515739Y-69714812D01*
X134546815Y-69518613D01*
X134546815Y-69319970D01*
X134515739Y-69123771D01*
X134515739Y-69123768D01*
X134454357Y-68934854D01*
X134364173Y-68757859D01*
X134337083Y-68720575D01*
X133774309Y-69283349D01*
X133758196Y-69223211D01*
X133691317Y-69107372D01*
X133596735Y-69012790D01*
X133480896Y-68945911D01*
X133420757Y-68929796D01*
X133983531Y-68367023D01*
X133983530Y-68367022D01*
X133946247Y-68339933D01*
X133769252Y-68249749D01*
X133580337Y-68188367D01*
X133384136Y-68157292D01*
X133185494Y-68157292D01*
X132989294Y-68188367D01*
X132989291Y-68188367D01*
X132800377Y-68249749D01*
X132623379Y-68339935D01*
X132586098Y-68367021D01*
X132586097Y-68367022D01*
X133148873Y-68929796D01*
X133088734Y-68945911D01*
X132972895Y-69012790D01*
X132878313Y-69107372D01*
X132811434Y-69223211D01*
X132795319Y-69283349D01*
X132232545Y-68720574D01*
X132232544Y-68720575D01*
X132205458Y-68757856D01*
X132125300Y-68915174D01*
X132077325Y-68965970D01*
X132009504Y-68982765D01*
X131943369Y-68960227D01*
X131904330Y-68915174D01*
X131824173Y-68757859D01*
X131797083Y-68720575D01*
X131234309Y-69283349D01*
X131218196Y-69223211D01*
X131151317Y-69107372D01*
X131056735Y-69012790D01*
X130940896Y-68945911D01*
X130880757Y-68929796D01*
X131443531Y-68367023D01*
X131443530Y-68367022D01*
X131406247Y-68339933D01*
X131229252Y-68249749D01*
X131040337Y-68188367D01*
X130844136Y-68157292D01*
X130645494Y-68157292D01*
X130449294Y-68188367D01*
X130449291Y-68188367D01*
X130260377Y-68249749D01*
X130083379Y-68339935D01*
X130046098Y-68367021D01*
X130046097Y-68367022D01*
X130608873Y-68929796D01*
X130548734Y-68945911D01*
X130432895Y-69012790D01*
X130338313Y-69107372D01*
X130271434Y-69223211D01*
X130255319Y-69283349D01*
X129692545Y-68720574D01*
X129692544Y-68720575D01*
X129665458Y-68757856D01*
X129575272Y-68934854D01*
X129513890Y-69123768D01*
X129513890Y-69123771D01*
X129482815Y-69319970D01*
X128432791Y-69319970D01*
X128706662Y-68497116D01*
X128708103Y-68493031D01*
X129074614Y-67510379D01*
X129076190Y-67506375D01*
X129477518Y-66537481D01*
X129479282Y-66533431D01*
X129545522Y-66388385D01*
X129591276Y-66335584D01*
X129658315Y-66315899D01*
X129725355Y-66335584D01*
X129771109Y-66388388D01*
X129782315Y-66439899D01*
X129782315Y-67661044D01*
X129793946Y-67719521D01*
X129793947Y-67719522D01*
X129838262Y-67785844D01*
X129904584Y-67830159D01*
X129904585Y-67830160D01*
X129963062Y-67841791D01*
X129963065Y-67841792D01*
X129963067Y-67841792D01*
X131526565Y-67841792D01*
X131526566Y-67841791D01*
X131541383Y-67838844D01*
X131585044Y-67830160D01*
X131585044Y-67830159D01*
X131585046Y-67830159D01*
X131651367Y-67785844D01*
X131695682Y-67719523D01*
X131695682Y-67719521D01*
X131695683Y-67719521D01*
X131707314Y-67661044D01*
X131707315Y-67661042D01*
X131707315Y-66784489D01*
X132322315Y-66784489D01*
X132322315Y-66974094D01*
X132359301Y-67160035D01*
X132359303Y-67160043D01*
X132431857Y-67335204D01*
X132537192Y-67492850D01*
X132671256Y-67626914D01*
X132741184Y-67673638D01*
X132828900Y-67732248D01*
X133004064Y-67804804D01*
X133190012Y-67841791D01*
X133190016Y-67841792D01*
X133190017Y-67841792D01*
X133379614Y-67841792D01*
X133379615Y-67841791D01*
X133565566Y-67804804D01*
X133740730Y-67732248D01*
X133898373Y-67626914D01*
X134032437Y-67492850D01*
X134137771Y-67335207D01*
X134210327Y-67160043D01*
X134247315Y-66974090D01*
X134247315Y-66934108D01*
X147871399Y-66934108D01*
X147871399Y-67065891D01*
X147905507Y-67193187D01*
X147934084Y-67242682D01*
X147971399Y-67307314D01*
X148064585Y-67400500D01*
X148178713Y-67466392D01*
X148306007Y-67500500D01*
X148306009Y-67500500D01*
X148437789Y-67500500D01*
X148437791Y-67500500D01*
X148565085Y-67466392D01*
X148679213Y-67400500D01*
X148772399Y-67307314D01*
X148838291Y-67193186D01*
X148872399Y-67065892D01*
X148872399Y-66934108D01*
X148838291Y-66806814D01*
X148772399Y-66692686D01*
X148679213Y-66599500D01*
X148622149Y-66566554D01*
X148565086Y-66533608D01*
X148501438Y-66516554D01*
X148437791Y-66499500D01*
X148306007Y-66499500D01*
X148178711Y-66533608D01*
X148064585Y-66599500D01*
X148064582Y-66599502D01*
X147971401Y-66692683D01*
X147971399Y-66692686D01*
X147905507Y-66806812D01*
X147871399Y-66934108D01*
X134247315Y-66934108D01*
X134247315Y-66784494D01*
X134210327Y-66598541D01*
X134137771Y-66423377D01*
X134102501Y-66370592D01*
X134032437Y-66265733D01*
X133898373Y-66131669D01*
X133740727Y-66026334D01*
X133565566Y-65953780D01*
X133565558Y-65953778D01*
X133379617Y-65916792D01*
X133379613Y-65916792D01*
X133190017Y-65916792D01*
X133190012Y-65916792D01*
X133004071Y-65953778D01*
X133004063Y-65953780D01*
X132828902Y-66026334D01*
X132671256Y-66131669D01*
X132537192Y-66265733D01*
X132431857Y-66423379D01*
X132359303Y-66598540D01*
X132359301Y-66598548D01*
X132322315Y-66784489D01*
X131707315Y-66784489D01*
X131707315Y-66097541D01*
X131707314Y-66097539D01*
X131695683Y-66039062D01*
X131695682Y-66039061D01*
X131651367Y-65972739D01*
X131585045Y-65928424D01*
X131585044Y-65928423D01*
X131526567Y-65916792D01*
X131526563Y-65916792D01*
X129963067Y-65916792D01*
X129956975Y-65916792D01*
X129956975Y-65916150D01*
X129953691Y-65917115D01*
X129925777Y-65908918D01*
X129897184Y-65903492D01*
X129892647Y-65899190D01*
X129886651Y-65897430D01*
X129867600Y-65875444D01*
X129846480Y-65855420D01*
X129844988Y-65849348D01*
X129840897Y-65844626D01*
X129836756Y-65815829D01*
X129829815Y-65787567D01*
X129831617Y-65780090D01*
X129830953Y-65775468D01*
X129840895Y-65741609D01*
X129914902Y-65579556D01*
X129916800Y-65575589D01*
X129937814Y-65533608D01*
X130386215Y-64637815D01*
X130388259Y-64633911D01*
X130441278Y-64536814D01*
X130890832Y-63713518D01*
X130892975Y-63709752D01*
X131428124Y-62807808D01*
X131430443Y-62804057D01*
X131874880Y-62112500D01*
X131997367Y-61921904D01*
X131999819Y-61918235D01*
X132523216Y-61164399D01*
X136455439Y-61164399D01*
X136455439Y-61512648D01*
X136494428Y-61858682D01*
X136494430Y-61858694D01*
X136571921Y-62198208D01*
X136571924Y-62198216D01*
X136686938Y-62526906D01*
X136838031Y-62840654D01*
X137023310Y-63135523D01*
X137023311Y-63135525D01*
X137240426Y-63407780D01*
X137486682Y-63654036D01*
X137758937Y-63871151D01*
X137758940Y-63871152D01*
X137758942Y-63871154D01*
X137873581Y-63943187D01*
X138053808Y-64056431D01*
X138055642Y-64057314D01*
X138367560Y-64207526D01*
X138527834Y-64263608D01*
X138696246Y-64322538D01*
X138696254Y-64322541D01*
X138696257Y-64322541D01*
X138696258Y-64322542D01*
X139035768Y-64400033D01*
X139381815Y-64439023D01*
X139381816Y-64439024D01*
X139381819Y-64439024D01*
X139730062Y-64439024D01*
X139730062Y-64439023D01*
X140076110Y-64400033D01*
X140415620Y-64322542D01*
X140744318Y-64207526D01*
X141058072Y-64056430D01*
X141352936Y-63871154D01*
X141550555Y-63713559D01*
X141587486Y-63684108D01*
X144249500Y-63684108D01*
X144249500Y-63815891D01*
X144283608Y-63943187D01*
X144316554Y-64000250D01*
X144349500Y-64057314D01*
X144442686Y-64150500D01*
X144556814Y-64216392D01*
X144684108Y-64250500D01*
X144684110Y-64250500D01*
X144815890Y-64250500D01*
X144815892Y-64250500D01*
X144943186Y-64216392D01*
X145057314Y-64150500D01*
X145150500Y-64057314D01*
X145216392Y-63943186D01*
X145250500Y-63815892D01*
X145250500Y-63684108D01*
X145216392Y-63556814D01*
X145150500Y-63442686D01*
X145057314Y-63349500D01*
X145000250Y-63316554D01*
X144943187Y-63283608D01*
X144879539Y-63266554D01*
X144815892Y-63249500D01*
X144684108Y-63249500D01*
X144556812Y-63283608D01*
X144442686Y-63349500D01*
X144442683Y-63349502D01*
X144349502Y-63442683D01*
X144349500Y-63442686D01*
X144283608Y-63556812D01*
X144249500Y-63684108D01*
X141587486Y-63684108D01*
X141625195Y-63654036D01*
X141625199Y-63654032D01*
X141625202Y-63654030D01*
X141871445Y-63407787D01*
X141917928Y-63349500D01*
X142088566Y-63135525D01*
X142088567Y-63135523D01*
X142088569Y-63135521D01*
X142273845Y-62840657D01*
X142424941Y-62526903D01*
X142539957Y-62198205D01*
X142617448Y-61858695D01*
X142636374Y-61690729D01*
X142642963Y-61632248D01*
X142656439Y-61512644D01*
X142656439Y-61164404D01*
X142617448Y-60818353D01*
X142539957Y-60478843D01*
X142449790Y-60221159D01*
X152725000Y-60221159D01*
X152725000Y-60453840D01*
X152755369Y-60684524D01*
X152815592Y-60909279D01*
X152904632Y-61124240D01*
X152904636Y-61124250D01*
X153020970Y-61325748D01*
X153080551Y-61403394D01*
X153745884Y-60738060D01*
X153746740Y-60740126D01*
X153839762Y-60879344D01*
X153958156Y-60997738D01*
X154097374Y-61090760D01*
X154099437Y-61091614D01*
X153434104Y-61756946D01*
X153434104Y-61756947D01*
X153511752Y-61816529D01*
X153713249Y-61932863D01*
X153713259Y-61932867D01*
X153928220Y-62021907D01*
X154152975Y-62082130D01*
X154383659Y-62112500D01*
X154616341Y-62112500D01*
X154847024Y-62082130D01*
X155071779Y-62021907D01*
X155286740Y-61932867D01*
X155286750Y-61932863D01*
X155488255Y-61816524D01*
X155565894Y-61756947D01*
X155565894Y-61756946D01*
X154900562Y-61091614D01*
X154902626Y-61090760D01*
X155041844Y-60997738D01*
X155160238Y-60879344D01*
X155253260Y-60740126D01*
X155254114Y-60738062D01*
X155919446Y-61403394D01*
X155919447Y-61403394D01*
X155979024Y-61325755D01*
X156095363Y-61124250D01*
X156095367Y-61124240D01*
X156184407Y-60909279D01*
X156244630Y-60684524D01*
X156275000Y-60453840D01*
X156275000Y-60221159D01*
X156244630Y-59990475D01*
X156184407Y-59765720D01*
X156095367Y-59550759D01*
X156095363Y-59550749D01*
X155979029Y-59349252D01*
X155919447Y-59271604D01*
X155919446Y-59271604D01*
X155254114Y-59936936D01*
X155253260Y-59934874D01*
X155160238Y-59795656D01*
X155041844Y-59677262D01*
X154902626Y-59584240D01*
X154900560Y-59583384D01*
X155441199Y-59042747D01*
X158024500Y-59042747D01*
X158024500Y-61632252D01*
X158036131Y-61690729D01*
X158036132Y-61690730D01*
X158080447Y-61757052D01*
X158146769Y-61801367D01*
X158146770Y-61801368D01*
X158205247Y-61812999D01*
X158205250Y-61813000D01*
X158205252Y-61813000D01*
X160794750Y-61813000D01*
X160794751Y-61812999D01*
X160809568Y-61810052D01*
X160853229Y-61801368D01*
X160853229Y-61801367D01*
X160853231Y-61801367D01*
X160919552Y-61757052D01*
X160963867Y-61690731D01*
X160963867Y-61690729D01*
X160963868Y-61690729D01*
X160975499Y-61632252D01*
X160975500Y-61632250D01*
X160975500Y-61164399D01*
X170396565Y-61164399D01*
X170396565Y-61512648D01*
X170435554Y-61858682D01*
X170435556Y-61858694D01*
X170513047Y-62198208D01*
X170513050Y-62198216D01*
X170628064Y-62526906D01*
X170779157Y-62840654D01*
X170964436Y-63135523D01*
X170964437Y-63135525D01*
X171181552Y-63407780D01*
X171427808Y-63654036D01*
X171700063Y-63871151D01*
X171700066Y-63871152D01*
X171700068Y-63871154D01*
X171814707Y-63943187D01*
X171994934Y-64056431D01*
X171996768Y-64057314D01*
X172308686Y-64207526D01*
X172468960Y-64263608D01*
X172637372Y-64322538D01*
X172637380Y-64322541D01*
X172637383Y-64322541D01*
X172637384Y-64322542D01*
X172976894Y-64400033D01*
X173322941Y-64439023D01*
X173322942Y-64439024D01*
X173322945Y-64439024D01*
X173671188Y-64439024D01*
X173671188Y-64439023D01*
X174017236Y-64400033D01*
X174356746Y-64322542D01*
X174685444Y-64207526D01*
X174999198Y-64056430D01*
X175294062Y-63871154D01*
X175491681Y-63713559D01*
X175566321Y-63654036D01*
X175566325Y-63654032D01*
X175566328Y-63654030D01*
X175812571Y-63407787D01*
X175859054Y-63349500D01*
X176029692Y-63135525D01*
X176029693Y-63135523D01*
X176029695Y-63135521D01*
X176214971Y-62840657D01*
X176366067Y-62526903D01*
X176481083Y-62198205D01*
X176558574Y-61858695D01*
X176597565Y-61512644D01*
X176597565Y-61164404D01*
X176558574Y-60818353D01*
X176481083Y-60478843D01*
X176473374Y-60456813D01*
X176431625Y-60337499D01*
X176366067Y-60150145D01*
X176214971Y-59836391D01*
X176029695Y-59541527D01*
X176029693Y-59541524D01*
X176029692Y-59541522D01*
X175812577Y-59269267D01*
X175566321Y-59023011D01*
X175294066Y-58805896D01*
X175294064Y-58805895D01*
X174999195Y-58620616D01*
X174685447Y-58469523D01*
X174356757Y-58354509D01*
X174356749Y-58354506D01*
X174102113Y-58296387D01*
X174017236Y-58277015D01*
X174017232Y-58277014D01*
X174017223Y-58277013D01*
X173671189Y-58238024D01*
X173671185Y-58238024D01*
X173322945Y-58238024D01*
X173322940Y-58238024D01*
X172976906Y-58277013D01*
X172976894Y-58277015D01*
X172637380Y-58354506D01*
X172637372Y-58354509D01*
X172308682Y-58469523D01*
X171994934Y-58620616D01*
X171700065Y-58805895D01*
X171700063Y-58805896D01*
X171427808Y-59023011D01*
X171181552Y-59269267D01*
X170964437Y-59541522D01*
X170964436Y-59541524D01*
X170779157Y-59836393D01*
X170628064Y-60150141D01*
X170513050Y-60478831D01*
X170513047Y-60478839D01*
X170435556Y-60818353D01*
X170435554Y-60818365D01*
X170396565Y-61164399D01*
X160975500Y-61164399D01*
X160975500Y-60484107D01*
X163999500Y-60484107D01*
X163999500Y-60615890D01*
X164033608Y-60743186D01*
X164066554Y-60800249D01*
X164099500Y-60857313D01*
X164192686Y-60950499D01*
X164306814Y-61016391D01*
X164434108Y-61050499D01*
X164434110Y-61050499D01*
X164565890Y-61050499D01*
X164565892Y-61050499D01*
X164693186Y-61016391D01*
X164807314Y-60950499D01*
X164900500Y-60857313D01*
X164966392Y-60743185D01*
X165000500Y-60615891D01*
X165000500Y-60584107D01*
X165849501Y-60584107D01*
X165849501Y-60715890D01*
X165883609Y-60843186D01*
X165891767Y-60857315D01*
X165949501Y-60957313D01*
X166042687Y-61050499D01*
X166156815Y-61116391D01*
X166284109Y-61150499D01*
X166284111Y-61150499D01*
X166415891Y-61150499D01*
X166415893Y-61150499D01*
X166543187Y-61116391D01*
X166657315Y-61050499D01*
X166750501Y-60957313D01*
X166816393Y-60843185D01*
X166850501Y-60715891D01*
X166850501Y-60584107D01*
X166816393Y-60456813D01*
X166750501Y-60342685D01*
X166657315Y-60249499D01*
X166600251Y-60216553D01*
X166543188Y-60183607D01*
X166479540Y-60166553D01*
X166415893Y-60149499D01*
X166284109Y-60149499D01*
X166156813Y-60183607D01*
X166042687Y-60249499D01*
X166042684Y-60249501D01*
X165949503Y-60342682D01*
X165949501Y-60342685D01*
X165883609Y-60456811D01*
X165849501Y-60584107D01*
X165000500Y-60584107D01*
X165000500Y-60484107D01*
X164966392Y-60356813D01*
X164900500Y-60242685D01*
X164807314Y-60149499D01*
X164750250Y-60116553D01*
X164693187Y-60083607D01*
X164629539Y-60066553D01*
X164565892Y-60049499D01*
X164434108Y-60049499D01*
X164306812Y-60083607D01*
X164192686Y-60149499D01*
X164192683Y-60149501D01*
X164099502Y-60242682D01*
X164099500Y-60242685D01*
X164033608Y-60356811D01*
X163999500Y-60484107D01*
X160975500Y-60484107D01*
X160975500Y-59042749D01*
X160975499Y-59042747D01*
X160963868Y-58984270D01*
X160963867Y-58984269D01*
X160919552Y-58917947D01*
X160853230Y-58873632D01*
X160853229Y-58873631D01*
X160794752Y-58862000D01*
X160794748Y-58862000D01*
X158205252Y-58862000D01*
X158205247Y-58862000D01*
X158146770Y-58873631D01*
X158146769Y-58873632D01*
X158080447Y-58917947D01*
X158036132Y-58984269D01*
X158036131Y-58984270D01*
X158024500Y-59042747D01*
X155441199Y-59042747D01*
X155534967Y-58948979D01*
X155565894Y-58918051D01*
X155488248Y-58858470D01*
X155286750Y-58742136D01*
X155286740Y-58742132D01*
X155071779Y-58653092D01*
X154847024Y-58592869D01*
X154616341Y-58562500D01*
X154383659Y-58562500D01*
X154152975Y-58592869D01*
X153928220Y-58653092D01*
X153713259Y-58742132D01*
X153713249Y-58742136D01*
X153511747Y-58858473D01*
X153434104Y-58918050D01*
X153434104Y-58918051D01*
X154099438Y-59583385D01*
X154097374Y-59584240D01*
X153958156Y-59677262D01*
X153839762Y-59795656D01*
X153746740Y-59934874D01*
X153745885Y-59936938D01*
X153080551Y-59271604D01*
X153080550Y-59271604D01*
X153020973Y-59349247D01*
X152904636Y-59550749D01*
X152904632Y-59550759D01*
X152815592Y-59765720D01*
X152755369Y-59990475D01*
X152725000Y-60221159D01*
X142449790Y-60221159D01*
X142424941Y-60150145D01*
X142273845Y-59836391D01*
X142088569Y-59541527D01*
X142088567Y-59541524D01*
X142088566Y-59541522D01*
X141871451Y-59269267D01*
X141625195Y-59023011D01*
X141352940Y-58805896D01*
X141352938Y-58805895D01*
X141058069Y-58620616D01*
X140744321Y-58469523D01*
X140415631Y-58354509D01*
X140415623Y-58354506D01*
X140389537Y-58348552D01*
X165499399Y-58348552D01*
X165537851Y-58541858D01*
X165537854Y-58541868D01*
X165613277Y-58723957D01*
X165613278Y-58723959D01*
X165722783Y-58887844D01*
X165722786Y-58887848D01*
X165862151Y-59027213D01*
X165862155Y-59027216D01*
X166026038Y-59136720D01*
X166026039Y-59136720D01*
X166026040Y-59136721D01*
X166026042Y-59136722D01*
X166208131Y-59212145D01*
X166208136Y-59212147D01*
X166208140Y-59212147D01*
X166208141Y-59212148D01*
X166401447Y-59250600D01*
X166401450Y-59250600D01*
X166598552Y-59250600D01*
X166728605Y-59224730D01*
X166791864Y-59212147D01*
X166973962Y-59136720D01*
X167137845Y-59027216D01*
X167277216Y-58887845D01*
X167386720Y-58723962D01*
X167462147Y-58541864D01*
X167499415Y-58354509D01*
X167500600Y-58348552D01*
X167500600Y-58151447D01*
X167462148Y-57958141D01*
X167462147Y-57958140D01*
X167462147Y-57958136D01*
X167407179Y-57825431D01*
X167386722Y-57776042D01*
X167386721Y-57776040D01*
X167277216Y-57612155D01*
X167277213Y-57612151D01*
X167137848Y-57472786D01*
X167137844Y-57472783D01*
X166973959Y-57363278D01*
X166973957Y-57363277D01*
X166791868Y-57287854D01*
X166791858Y-57287851D01*
X166598552Y-57249400D01*
X166598550Y-57249400D01*
X166401450Y-57249400D01*
X166401448Y-57249400D01*
X166208141Y-57287851D01*
X166208131Y-57287854D01*
X166026042Y-57363277D01*
X166026040Y-57363278D01*
X165862155Y-57472783D01*
X165862151Y-57472786D01*
X165722786Y-57612151D01*
X165722783Y-57612155D01*
X165613278Y-57776040D01*
X165613277Y-57776042D01*
X165537854Y-57958131D01*
X165537851Y-57958141D01*
X165499400Y-58151447D01*
X165499400Y-58151450D01*
X165499400Y-58348550D01*
X165499400Y-58348552D01*
X165499399Y-58348552D01*
X140389537Y-58348552D01*
X140160987Y-58296387D01*
X140076110Y-58277015D01*
X140076106Y-58277014D01*
X140076097Y-58277013D01*
X140001235Y-58268578D01*
X139730063Y-58238024D01*
X139730059Y-58238024D01*
X139381819Y-58238024D01*
X139381814Y-58238024D01*
X139035780Y-58277013D01*
X139035768Y-58277015D01*
X138696254Y-58354506D01*
X138696246Y-58354509D01*
X138367556Y-58469523D01*
X138053808Y-58620616D01*
X137758939Y-58805895D01*
X137758937Y-58805896D01*
X137486682Y-59023011D01*
X137240426Y-59269267D01*
X137023311Y-59541522D01*
X137023310Y-59541524D01*
X136838031Y-59836393D01*
X136686938Y-60150141D01*
X136571924Y-60478831D01*
X136571921Y-60478839D01*
X136494430Y-60818353D01*
X136494428Y-60818365D01*
X136455439Y-61164399D01*
X132523216Y-61164399D01*
X132597935Y-61056783D01*
X132600452Y-61053294D01*
X133228924Y-60213754D01*
X133231596Y-60210313D01*
X133889636Y-59393735D01*
X133892446Y-59390373D01*
X134579183Y-58597835D01*
X134582136Y-58594549D01*
X134631184Y-58541868D01*
X135296739Y-57827011D01*
X135299758Y-57823883D01*
X136041298Y-57082343D01*
X136044426Y-57079324D01*
X136811970Y-56364715D01*
X136815257Y-56361763D01*
X137607788Y-55675031D01*
X137611150Y-55672221D01*
X138427728Y-55014181D01*
X138431169Y-55011509D01*
X139270709Y-54383037D01*
X139274208Y-54380513D01*
X140135662Y-53782395D01*
X140139331Y-53779945D01*
X140238676Y-53716100D01*
X141021525Y-53212993D01*
X141025223Y-53210709D01*
X141927167Y-52675560D01*
X141930933Y-52673417D01*
X142574404Y-52322055D01*
X165199900Y-52322055D01*
X165199900Y-52920000D01*
X166013756Y-52920000D01*
X165991116Y-52959213D01*
X165953900Y-53098105D01*
X165953900Y-53241895D01*
X165991116Y-53380787D01*
X166013756Y-53420000D01*
X165199900Y-53420000D01*
X165199900Y-54017944D01*
X165206301Y-54077472D01*
X165206303Y-54077479D01*
X165256545Y-54212186D01*
X165256549Y-54212193D01*
X165342709Y-54327287D01*
X165342712Y-54327290D01*
X165457806Y-54413450D01*
X165457813Y-54413454D01*
X165592520Y-54463696D01*
X165592527Y-54463698D01*
X165652055Y-54470099D01*
X165652072Y-54470100D01*
X166345498Y-54470100D01*
X166412537Y-54489785D01*
X166458292Y-54542589D01*
X166468236Y-54611747D01*
X166439211Y-54675303D01*
X166380433Y-54713077D01*
X166369690Y-54715717D01*
X166208141Y-54747851D01*
X166208131Y-54747854D01*
X166026042Y-54823277D01*
X166026040Y-54823278D01*
X165862155Y-54932783D01*
X165862151Y-54932786D01*
X165722786Y-55072151D01*
X165722783Y-55072155D01*
X165613278Y-55236040D01*
X165613277Y-55236042D01*
X165537854Y-55418131D01*
X165537851Y-55418141D01*
X165499400Y-55611447D01*
X165499400Y-55611450D01*
X165499400Y-55808550D01*
X165499400Y-55808552D01*
X165499399Y-55808552D01*
X165537851Y-56001858D01*
X165537854Y-56001868D01*
X165613277Y-56183957D01*
X165613278Y-56183959D01*
X165722783Y-56347844D01*
X165722786Y-56347848D01*
X165862151Y-56487213D01*
X165862155Y-56487216D01*
X166026038Y-56596720D01*
X166026039Y-56596720D01*
X166026040Y-56596721D01*
X166026042Y-56596722D01*
X166208131Y-56672145D01*
X166208136Y-56672147D01*
X166208140Y-56672147D01*
X166208141Y-56672148D01*
X166401447Y-56710600D01*
X166401450Y-56710600D01*
X166598552Y-56710600D01*
X166728605Y-56684730D01*
X166791864Y-56672147D01*
X166973962Y-56596720D01*
X167137845Y-56487216D01*
X167277216Y-56347845D01*
X167386720Y-56183962D01*
X167462147Y-56001864D01*
X167500600Y-55808550D01*
X167500600Y-55611450D01*
X167500600Y-55611447D01*
X167462148Y-55418141D01*
X167462147Y-55418140D01*
X167462147Y-55418136D01*
X167386720Y-55236038D01*
X167277216Y-55072155D01*
X167277213Y-55072151D01*
X167137848Y-54932786D01*
X167137844Y-54932783D01*
X166973959Y-54823278D01*
X166973957Y-54823277D01*
X166791868Y-54747854D01*
X166791858Y-54747851D01*
X166630310Y-54715717D01*
X166568399Y-54683332D01*
X166533825Y-54622616D01*
X166537565Y-54552847D01*
X166578432Y-54496175D01*
X166643450Y-54470593D01*
X166654502Y-54470100D01*
X167347928Y-54470100D01*
X167347944Y-54470099D01*
X167407472Y-54463698D01*
X167407479Y-54463696D01*
X167542186Y-54413454D01*
X167542193Y-54413450D01*
X167657287Y-54327290D01*
X167657290Y-54327287D01*
X167743450Y-54212193D01*
X167743454Y-54212186D01*
X167793696Y-54077479D01*
X167793698Y-54077472D01*
X167800099Y-54017944D01*
X167800100Y-54017927D01*
X167800100Y-53420000D01*
X166986244Y-53420000D01*
X167008884Y-53380787D01*
X167046100Y-53241895D01*
X167046100Y-53098105D01*
X167008884Y-52959213D01*
X166986244Y-52920000D01*
X167800100Y-52920000D01*
X167800100Y-52322072D01*
X167800099Y-52322055D01*
X167793698Y-52262527D01*
X167793696Y-52262520D01*
X167743454Y-52127813D01*
X167743450Y-52127806D01*
X167657290Y-52012712D01*
X167657287Y-52012709D01*
X167542193Y-51926549D01*
X167542186Y-51926545D01*
X167407479Y-51876303D01*
X167407472Y-51876301D01*
X167347944Y-51869900D01*
X166750000Y-51869900D01*
X166750000Y-52683755D01*
X166710787Y-52661116D01*
X166571895Y-52623900D01*
X166428105Y-52623900D01*
X166289213Y-52661116D01*
X166250000Y-52683755D01*
X166250000Y-51869900D01*
X165652055Y-51869900D01*
X165592527Y-51876301D01*
X165592520Y-51876303D01*
X165457813Y-51926545D01*
X165457806Y-51926549D01*
X165342712Y-52012709D01*
X165342709Y-52012712D01*
X165256549Y-52127806D01*
X165256545Y-52127813D01*
X165206303Y-52262520D01*
X165206301Y-52262527D01*
X165199900Y-52322055D01*
X142574404Y-52322055D01*
X142851344Y-52170834D01*
X142855230Y-52168800D01*
X143793008Y-51699382D01*
X143796998Y-51697475D01*
X144684866Y-51291999D01*
X144750853Y-51261863D01*
X144754904Y-51260100D01*
X144766444Y-51255320D01*
X145723790Y-50858775D01*
X145727794Y-50857199D01*
X146710464Y-50490681D01*
X146714531Y-50489248D01*
X147709551Y-50158073D01*
X147713748Y-50156759D01*
X148719984Y-49861301D01*
X148724173Y-49860152D01*
X149740307Y-49600800D01*
X149744565Y-49599793D01*
X150769289Y-49376878D01*
X150773589Y-49376023D01*
X150785752Y-49373828D01*
X150800258Y-49371212D01*
X150869728Y-49378682D01*
X150924130Y-49422524D01*
X150946194Y-49488818D01*
X150928914Y-49556517D01*
X150895700Y-49591558D01*
X150896250Y-49592228D01*
X150891538Y-49596094D01*
X150758594Y-49729038D01*
X150758591Y-49729042D01*
X150654136Y-49885368D01*
X150654129Y-49885381D01*
X150582182Y-50059078D01*
X150582179Y-50059090D01*
X150545500Y-50243485D01*
X150545500Y-50431514D01*
X150582179Y-50615909D01*
X150582182Y-50615921D01*
X150654129Y-50789618D01*
X150654136Y-50789631D01*
X150758591Y-50945957D01*
X150758594Y-50945961D01*
X150891538Y-51078905D01*
X150891542Y-51078908D01*
X151047868Y-51183363D01*
X151047881Y-51183370D01*
X151221578Y-51255317D01*
X151221583Y-51255319D01*
X151405985Y-51291999D01*
X151405988Y-51292000D01*
X151405990Y-51292000D01*
X151594012Y-51292000D01*
X151594013Y-51291999D01*
X151778417Y-51255319D01*
X151952125Y-51183367D01*
X152108458Y-51078908D01*
X152241408Y-50945958D01*
X152345867Y-50789625D01*
X152417819Y-50615917D01*
X152454500Y-50431510D01*
X152454500Y-50243490D01*
X152454500Y-50243487D01*
X152454499Y-50243485D01*
X152417820Y-50059090D01*
X152417819Y-50059083D01*
X152417817Y-50059078D01*
X152345870Y-49885381D01*
X152345863Y-49885368D01*
X152241408Y-49729042D01*
X152241405Y-49729038D01*
X152108461Y-49596094D01*
X152108457Y-49596091D01*
X151952131Y-49491636D01*
X151952118Y-49491629D01*
X151790942Y-49424869D01*
X151736538Y-49381028D01*
X151714473Y-49314734D01*
X151731752Y-49247035D01*
X151782889Y-49199424D01*
X151820745Y-49187570D01*
X152847956Y-49039879D01*
X152852298Y-49039334D01*
X153895042Y-48927227D01*
X153899338Y-48926844D01*
X154945358Y-48852030D01*
X154949765Y-48851794D01*
X155997753Y-48814364D01*
X156002179Y-48814286D01*
X157050825Y-48814286D01*
X157055250Y-48814364D01*
G37*
%TD.AperFunction*%
%TD*%
M02*
