%TF.GenerationSoftware,KiCad,Pcbnew,9.0.6*%
%TF.CreationDate,2026-01-16T15:37:09+00:00*%
%TF.ProjectId,mu,6d752e6b-6963-4616-945f-706362585858,rev?*%
%TF.SameCoordinates,Original*%
%TF.FileFunction,Copper,L3,Inr*%
%TF.FilePolarity,Positive*%
%FSLAX46Y46*%
G04 Gerber Fmt 4.6, Leading zero omitted, Abs format (unit mm)*
G04 Created by KiCad (PCBNEW 9.0.6) date 2026-01-16 15:37:09*
%MOMM*%
%LPD*%
G01*
G04 APERTURE LIST*
%TA.AperFunction,ComponentPad*%
%ADD10R,0.850000X0.850000*%
%TD*%
%TA.AperFunction,ComponentPad*%
%ADD11C,0.850000*%
%TD*%
%TA.AperFunction,ComponentPad*%
%ADD12C,2.200000*%
%TD*%
%TA.AperFunction,HeatsinkPad*%
%ADD13O,1.000000X1.800000*%
%TD*%
%TA.AperFunction,HeatsinkPad*%
%ADD14O,1.000000X2.100000*%
%TD*%
%TA.AperFunction,ComponentPad*%
%ADD15R,1.524000X1.524000*%
%TD*%
%TA.AperFunction,ComponentPad*%
%ADD16C,1.524000*%
%TD*%
%TA.AperFunction,ViaPad*%
%ADD17C,0.600000*%
%TD*%
%TA.AperFunction,Conductor*%
%ADD18C,0.400000*%
%TD*%
%TA.AperFunction,Conductor*%
%ADD19C,0.200000*%
%TD*%
%TA.AperFunction,Conductor*%
%ADD20C,0.300000*%
%TD*%
G04 APERTURE END LIST*
D10*
%TO.N,CAN_-*%
%TO.C,J2*%
X153000000Y-94000000D03*
D11*
%TO.N,CAN_+*%
X152000000Y-94000000D03*
%TO.N,PA-*%
X153000000Y-93000000D03*
%TO.N,PA+*%
X152000000Y-93000000D03*
%TO.N,USB_D-*%
X153000000Y-92000000D03*
%TO.N,USB_D+*%
X152000000Y-92000000D03*
%TD*%
D10*
%TO.N,NRST*%
%TO.C,J3*%
X154437712Y-88000000D03*
D11*
%TO.N,SWDIO*%
X154437712Y-89000000D03*
%TO.N,GND*%
X153437712Y-88000000D03*
%TO.N,SWCLK*%
X153437712Y-89000000D03*
%TO.N,GND*%
X152437712Y-88000000D03*
%TO.N,3.3V_Dig*%
X152437712Y-89000000D03*
%TD*%
D12*
%TO.N,VBAT_Local*%
%TO.C,J4*%
X158500001Y-50799998D03*
X158500001Y-60000000D03*
%TO.N,GND*%
X154500000Y-50799998D03*
X154500000Y-60000000D03*
%TD*%
D13*
%TO.N,GND*%
%TO.C,J1*%
X160831326Y-105183399D03*
D14*
X160831326Y-100983399D03*
D13*
X152191326Y-105183399D03*
D14*
X152191326Y-100983399D03*
%TD*%
D15*
%TO.N,GND*%
%TO.C,J5*%
X130744815Y-66879292D03*
D16*
X133284815Y-66879292D03*
%TO.N,unconnected-(J5-Pad03)*%
X130744815Y-69419292D03*
X133284815Y-69419292D03*
X130744815Y-71959292D03*
X133284815Y-71959292D03*
%TO.N,GND*%
X130744815Y-74499292D03*
X133284815Y-74499292D03*
%TO.N,unconnected-(J5-Pad09)*%
X130744815Y-77039292D03*
X133284815Y-77039292D03*
X130744815Y-79579292D03*
X133284815Y-79579292D03*
%TO.N,GND*%
X130744815Y-82119292D03*
X133284815Y-82119292D03*
%TO.N,CAN_o-*%
X130744815Y-84659292D03*
%TO.N,CAN_o+*%
X133284815Y-84659292D03*
%TO.N,GND*%
X130744815Y-87199292D03*
X133284815Y-87199292D03*
X130744815Y-89739292D03*
X133284815Y-89739292D03*
%TD*%
D17*
%TO.N,HV*%
X175000000Y-75000000D03*
%TO.N,GND*%
X149585899Y-63595000D03*
X147000000Y-71000000D03*
X183000000Y-76192000D03*
X177024000Y-76712000D03*
X165299118Y-91500000D03*
X148500000Y-91000000D03*
X158500000Y-88500000D03*
X154000000Y-64500000D03*
X145000000Y-96000000D03*
X149371899Y-85596400D03*
X156331326Y-93871199D03*
X164187598Y-97500000D03*
X153500000Y-95500000D03*
X150500000Y-60000000D03*
X141000000Y-82000000D03*
X170500000Y-67000000D03*
X155000000Y-72000000D03*
X159500000Y-63000000D03*
X146575000Y-59356000D03*
X161331326Y-98683399D03*
X157600000Y-86589000D03*
X163500000Y-82500000D03*
X166000000Y-93500000D03*
X157285388Y-83479799D03*
X163125001Y-67549999D03*
X153640474Y-67263078D03*
X159625001Y-65549999D03*
X151831326Y-98683399D03*
X151000000Y-71500000D03*
X147000000Y-69500000D03*
X152000000Y-83000000D03*
X153500000Y-86622918D03*
X156224124Y-98579806D03*
X179500000Y-76192000D03*
X164000000Y-80000000D03*
X164305564Y-93596965D03*
X150000000Y-96000000D03*
X152000000Y-76000000D03*
X152000000Y-79000000D03*
X170500000Y-76500000D03*
X155540000Y-68750000D03*
X144600000Y-65000000D03*
X162000000Y-99000000D03*
X163125001Y-63549999D03*
X160449429Y-94364214D03*
X183500000Y-82688000D03*
X161023117Y-69998537D03*
X158385149Y-93500000D03*
X154331326Y-97683399D03*
X161023117Y-69998537D03*
X157253371Y-101598754D03*
X154500000Y-55500000D03*
X148595000Y-62336000D03*
X141000000Y-88500000D03*
X161000000Y-88500000D03*
X162805597Y-94089000D03*
X157831326Y-98683399D03*
X184000000Y-73212000D03*
X159371899Y-72500000D03*
X149500000Y-66000000D03*
X139000000Y-85450000D03*
X147000000Y-74500000D03*
X177524000Y-73212000D03*
%TO.N,3.3V_Dig*%
X161500000Y-79000000D03*
X163000000Y-99000000D03*
X147365000Y-90975598D03*
X171000000Y-82500000D03*
X161474999Y-94579000D03*
X162000000Y-67549999D03*
X156000000Y-70250000D03*
X166293225Y-91600756D03*
X159474999Y-94579000D03*
%TO.N,2.5V_Ref*%
X160356358Y-74750143D03*
%TO.N,5V*%
X183500000Y-79692000D03*
X164500000Y-74000000D03*
X148371899Y-67000000D03*
X156500000Y-72500000D03*
%TO.N,Latch_Out*%
X157570896Y-68515098D03*
X161784995Y-87170905D03*
%TO.N,VBAT_Local*%
X144000000Y-64000000D03*
X164500000Y-60549999D03*
%TO.N,NRST*%
X158500000Y-86500000D03*
%TO.N,VBUS_RAW*%
X156308094Y-102208399D03*
X153500000Y-85500000D03*
X154331326Y-96183399D03*
X166350001Y-60549999D03*
%TO.N,Latch_Rst*%
X160500000Y-87000000D03*
X158082944Y-67900434D03*
%TO.N,SPI_CS_FLASH*%
X169053800Y-87500000D03*
X163500000Y-86500000D03*
%TO.N,SPI_MISO*%
X164829415Y-94399782D03*
X163041065Y-92458935D03*
%TO.N,SPI_MOSI*%
X167796073Y-86899146D03*
X158500000Y-66000000D03*
%TO.N,SWDIO*%
X158000000Y-92000000D03*
%TO.N,SWCLK*%
X156123529Y-90500000D03*
%TO.N,SPI_SCK*%
X161498037Y-93432911D03*
X163750000Y-91250000D03*
X155000000Y-66000000D03*
%TO.N,SPI_CS_DAC*%
X164000000Y-85000000D03*
X155000000Y-64730000D03*
%TO.N,Net-(U6-NONIINVERTINGINPUT)*%
X153509908Y-74764117D03*
%TO.N,SPI_CS_BMP*%
X161416970Y-92637029D03*
X165500000Y-95718702D03*
%TO.N,USB_D+*%
X155500000Y-92000000D03*
%TO.N,USB_D-*%
X156789874Y-93215655D03*
%TD*%
D18*
%TO.N,GND*%
X153437712Y-88000000D02*
X153437712Y-86685206D01*
D19*
X153437712Y-86685206D02*
X153500000Y-86622918D01*
%TO.N,3.3V_Dig*%
X147365000Y-90975598D02*
X149340598Y-89000000D01*
X149340598Y-89000000D02*
X152437712Y-89000000D01*
%TO.N,Latch_Out*%
X157571896Y-81071896D02*
X161784995Y-85284995D01*
X157571896Y-68516098D02*
X157571896Y-81071896D01*
X161784995Y-85284995D02*
X161784995Y-87170905D01*
X157570896Y-68515098D02*
X157571896Y-68516098D01*
%TO.N,NRST*%
X157038943Y-88000000D02*
X154437712Y-88000000D01*
X158500000Y-86538943D02*
X157038943Y-88000000D01*
X158500000Y-86500000D02*
X158500000Y-86538943D01*
D20*
%TO.N,VBUS_RAW*%
X155260379Y-98334291D02*
X155260379Y-101160684D01*
X155262416Y-97114489D02*
X155262416Y-98332254D01*
D19*
X155262416Y-98332254D02*
X155260379Y-98334291D01*
D20*
X154331326Y-96183399D02*
X155262416Y-97114489D01*
X155260379Y-101160684D02*
X156308094Y-102208399D01*
D19*
%TO.N,Latch_Rst*%
X157944559Y-68038819D02*
X157819839Y-67914098D01*
X157101000Y-68895145D02*
X156969896Y-68764041D01*
X158082944Y-67900434D02*
X157944559Y-68038819D01*
X157101000Y-68895145D02*
X157101000Y-81168100D01*
X157101000Y-81168100D02*
X160500000Y-84567100D01*
X156969896Y-68266155D02*
X156969896Y-68764041D01*
X160500000Y-84567100D02*
X160500000Y-87000000D01*
X157819839Y-67914098D02*
X157321953Y-67914098D01*
X157321953Y-67914098D02*
X156969896Y-68266155D01*
%TO.N,SPI_CS_FLASH*%
X163500000Y-86500000D02*
X164500146Y-87500146D01*
X168414197Y-87500146D02*
X168414343Y-87500000D01*
X168414343Y-87500000D02*
X169053800Y-87500000D01*
X164500146Y-87500146D02*
X168414197Y-87500146D01*
%TO.N,SPI_MISO*%
X163041065Y-91108992D02*
X163501057Y-90649000D01*
X164500000Y-91150057D02*
X164500000Y-92754058D01*
X163501057Y-90649000D02*
X163998943Y-90649000D01*
X165075999Y-94153198D02*
X164829415Y-94399782D01*
X164500000Y-92754058D02*
X165075999Y-93330057D01*
X163041065Y-92458935D02*
X163041065Y-91108992D01*
X165075999Y-93330057D02*
X165075999Y-94153198D01*
X163998943Y-90649000D02*
X164500000Y-91150057D01*
%TO.N,SPI_MOSI*%
X158500000Y-66432900D02*
X167796073Y-75728973D01*
X158500000Y-66000000D02*
X158500000Y-66432900D01*
X167796073Y-75728973D02*
X167796073Y-86899146D01*
%TO.N,SWDIO*%
X158000000Y-90500000D02*
X156500000Y-89000000D01*
X158000000Y-92000000D02*
X158000000Y-90500000D01*
X156500000Y-89000000D02*
X154437712Y-89000000D01*
%TO.N,SWCLK*%
X154577909Y-90500000D02*
X153437712Y-89359803D01*
X153437712Y-89359803D02*
X153437712Y-89000000D01*
X156123529Y-90500000D02*
X154577909Y-90500000D01*
%TO.N,SPI_SCK*%
X163442065Y-91557935D02*
X163442065Y-92009992D01*
X163642065Y-92209992D02*
X163642065Y-92707878D01*
X154241474Y-66758526D02*
X155000000Y-66000000D01*
X160954911Y-93432911D02*
X160000000Y-92478000D01*
X154241474Y-81284415D02*
X154241474Y-66758526D01*
X163750000Y-91250000D02*
X163442065Y-91557935D01*
X160000000Y-88000000D02*
X159500000Y-87500000D01*
X161498037Y-93432911D02*
X160954911Y-93432911D01*
X159500000Y-86500000D02*
X157042941Y-84042941D01*
X163642065Y-92707878D02*
X163290008Y-93059935D01*
X163442065Y-92009992D02*
X163642065Y-92209992D01*
X159500000Y-87500000D02*
X159500000Y-86500000D01*
X160000000Y-92478000D02*
X160000000Y-88000000D01*
X157042941Y-84042941D02*
X157000000Y-84042941D01*
X157000000Y-84042941D02*
X154241474Y-81284415D01*
X163290008Y-93059935D02*
X161871013Y-93059935D01*
X161871013Y-93059935D02*
X161498037Y-93432911D01*
%TO.N,SPI_CS_DAC*%
X159500000Y-68000000D02*
X159500000Y-69500000D01*
X159500000Y-69500000D02*
X162899000Y-72899000D01*
X162899000Y-83899000D02*
X164000000Y-85000000D01*
X155000000Y-64730000D02*
X156230000Y-64730000D01*
X162899000Y-72899000D02*
X162899000Y-83899000D01*
X156230000Y-64730000D02*
X159500000Y-68000000D01*
%TO.N,SPI_CS_BMP*%
X167500000Y-91500000D02*
X167500000Y-93718702D01*
X161416970Y-92637029D02*
X161862971Y-92637029D01*
X161862971Y-92637029D02*
X162640065Y-91859935D01*
X162640065Y-90942892D02*
X163483957Y-90099000D01*
X162640065Y-91859935D02*
X162640065Y-90942892D01*
X163483957Y-90099000D02*
X164380480Y-90099000D01*
X166099000Y-90099000D02*
X167500000Y-91500000D01*
X164380480Y-90099000D02*
X164390740Y-90109260D01*
X167500000Y-93718702D02*
X165500000Y-95718702D01*
X164401000Y-90099000D02*
X166099000Y-90099000D01*
X164390740Y-90109260D02*
X164401000Y-90099000D01*
%TO.N,USB_D+*%
X153200875Y-90799125D02*
X152726000Y-91274000D01*
X152274000Y-91699280D02*
X152274000Y-91726000D01*
X152726000Y-91274000D02*
X152699280Y-91274000D01*
X152274000Y-91726000D02*
X152000000Y-92000000D01*
X152699280Y-91274000D02*
X152274000Y-91699280D01*
X155500000Y-92000000D02*
X155000000Y-92000000D01*
X153799125Y-90799125D02*
X153200875Y-90799125D01*
X155000000Y-92000000D02*
X153799125Y-90799125D01*
%TO.N,USB_D-*%
X154535335Y-92185469D02*
X153648991Y-91299125D01*
X155221489Y-92871623D02*
X155221489Y-92892232D01*
X154535335Y-92185469D02*
X154981489Y-92631623D01*
X156061489Y-92631623D02*
X156181489Y-92631623D01*
X156565002Y-92990783D02*
X156789874Y-93215655D01*
X156205842Y-92631623D02*
X156565002Y-92990783D01*
X153000000Y-91636397D02*
X153000000Y-92000000D01*
X155461489Y-93132232D02*
X155581489Y-93132232D01*
X156181489Y-92631623D02*
X156205842Y-92631623D01*
X153648991Y-91299125D02*
X153337272Y-91299125D01*
X155821489Y-92892232D02*
X155821489Y-92871623D01*
X153337272Y-91299125D02*
X153000000Y-91636397D01*
X155581489Y-93132232D02*
G75*
G03*
X155821532Y-92892232I11J240032D01*
G01*
X155221489Y-92892232D02*
G75*
G03*
X155461489Y-93132211I240011J32D01*
G01*
X154981489Y-92631623D02*
G75*
G02*
X155221477Y-92871623I11J-239977D01*
G01*
X155821489Y-92871623D02*
G75*
G02*
X156061489Y-92631589I240011J23D01*
G01*
%TD*%
%TA.AperFunction,Conductor*%
%TO.N,GND*%
G36*
X153731546Y-87455126D02*
G01*
X153787479Y-87496998D01*
X153811896Y-87562462D01*
X153812212Y-87571308D01*
X153812212Y-87927691D01*
X153803567Y-87957128D01*
X153797044Y-87987119D01*
X153793288Y-87992135D01*
X153792527Y-87994730D01*
X153775893Y-88015373D01*
X153702169Y-88089096D01*
X153662414Y-88110802D01*
X153687712Y-88049728D01*
X153687712Y-87950272D01*
X153649652Y-87858386D01*
X153579326Y-87788060D01*
X153487440Y-87750000D01*
X153387984Y-87750000D01*
X153321671Y-87777467D01*
X153348616Y-87735542D01*
X153600531Y-87483627D01*
X153661854Y-87450142D01*
X153731546Y-87455126D01*
G37*
%TD.AperFunction*%
%TA.AperFunction,Conductor*%
G36*
X157055250Y-48814364D02*
G01*
X158103235Y-48851794D01*
X158107648Y-48852030D01*
X159153660Y-48926843D01*
X159157966Y-48927228D01*
X160200698Y-49039333D01*
X160205054Y-49039880D01*
X161243045Y-49189121D01*
X161247388Y-49189824D01*
X162279424Y-49376025D01*
X162283725Y-49376881D01*
X163308426Y-49599791D01*
X163312709Y-49600803D01*
X164328816Y-49860149D01*
X164333033Y-49861306D01*
X165208575Y-50118388D01*
X165339241Y-50156755D01*
X165343467Y-50158078D01*
X166338455Y-50489242D01*
X166342557Y-50490688D01*
X167325190Y-50857192D01*
X167329232Y-50858782D01*
X167922525Y-51104532D01*
X168298099Y-51260100D01*
X168302157Y-51261867D01*
X169256005Y-51697475D01*
X169259999Y-51699385D01*
X170197755Y-52168792D01*
X170201677Y-52170844D01*
X171122046Y-52673403D01*
X171125859Y-52675574D01*
X171579626Y-52944807D01*
X172027766Y-53210701D01*
X172031531Y-53213028D01*
X172913672Y-53779945D01*
X172917353Y-53782404D01*
X173280763Y-54034723D01*
X173778768Y-54380494D01*
X173782320Y-54383056D01*
X174475255Y-54901781D01*
X174621806Y-55011488D01*
X174625302Y-55014203D01*
X175441835Y-55672207D01*
X175445232Y-55675046D01*
X176237746Y-56361763D01*
X176241039Y-56364721D01*
X177008548Y-57079297D01*
X177011733Y-57082371D01*
X177753217Y-57823855D01*
X177756291Y-57827040D01*
X178470867Y-58594549D01*
X178473825Y-58597842D01*
X179160542Y-59390356D01*
X179163381Y-59393753D01*
X179821385Y-60210286D01*
X179824100Y-60213782D01*
X180026463Y-60484107D01*
X180450458Y-61050498D01*
X180452518Y-61053249D01*
X180455101Y-61056831D01*
X180555345Y-61201210D01*
X181053184Y-61918235D01*
X181055643Y-61921916D01*
X181622560Y-62804057D01*
X181624887Y-62807822D01*
X182160004Y-63709712D01*
X182162194Y-63713559D01*
X182664744Y-64633911D01*
X182666796Y-64637833D01*
X183136203Y-65575589D01*
X183138113Y-65579583D01*
X183573721Y-66533431D01*
X183575488Y-66537489D01*
X183828991Y-67149499D01*
X183974380Y-67500500D01*
X183976790Y-67506317D01*
X183978407Y-67510427D01*
X184328773Y-68449793D01*
X184344887Y-68492995D01*
X184346359Y-68497170D01*
X184677510Y-69492123D01*
X184678833Y-69496347D01*
X184974275Y-70502529D01*
X184975446Y-70506798D01*
X185234782Y-71522867D01*
X185235800Y-71527175D01*
X185458703Y-72551843D01*
X185459567Y-72556184D01*
X185645761Y-73588187D01*
X185646469Y-73592557D01*
X185795705Y-74630516D01*
X185796257Y-74634908D01*
X185908355Y-75677571D01*
X185908749Y-75681980D01*
X185983557Y-76727936D01*
X185983794Y-76732356D01*
X186021224Y-77780338D01*
X186021303Y-77784764D01*
X186021303Y-78833409D01*
X186021224Y-78837835D01*
X185983794Y-79885817D01*
X185983557Y-79890237D01*
X185908749Y-80936193D01*
X185908355Y-80940602D01*
X185796257Y-81983265D01*
X185795705Y-81987657D01*
X185646469Y-83025616D01*
X185645761Y-83029986D01*
X185459567Y-84061989D01*
X185458703Y-84066330D01*
X185235800Y-85090998D01*
X185234782Y-85095306D01*
X184975446Y-86111375D01*
X184974275Y-86115644D01*
X184678833Y-87121826D01*
X184677510Y-87126050D01*
X184346359Y-88121003D01*
X184344887Y-88125178D01*
X183978411Y-89107737D01*
X183976790Y-89111856D01*
X183575488Y-90080684D01*
X183573721Y-90084742D01*
X183138113Y-91038590D01*
X183136203Y-91042584D01*
X182666796Y-91980340D01*
X182664744Y-91984262D01*
X182162194Y-92904614D01*
X182160004Y-92908461D01*
X181624887Y-93810351D01*
X181622560Y-93814116D01*
X181055643Y-94696257D01*
X181053184Y-94699938D01*
X180455107Y-95561334D01*
X180452518Y-95564924D01*
X179824100Y-96404391D01*
X179821385Y-96407887D01*
X179163381Y-97224420D01*
X179160542Y-97227817D01*
X178473825Y-98020331D01*
X178470867Y-98023624D01*
X177756291Y-98791133D01*
X177753217Y-98794318D01*
X177011733Y-99535802D01*
X177008548Y-99538876D01*
X176241039Y-100253452D01*
X176237746Y-100256410D01*
X175445232Y-100943127D01*
X175441835Y-100945966D01*
X174625302Y-101603970D01*
X174621806Y-101606685D01*
X173782339Y-102235103D01*
X173778749Y-102237692D01*
X172917353Y-102835769D01*
X172913672Y-102838228D01*
X172031531Y-103405145D01*
X172027766Y-103407472D01*
X171125876Y-103942589D01*
X171122029Y-103944779D01*
X170201677Y-104447329D01*
X170197755Y-104449381D01*
X169259999Y-104918788D01*
X169256005Y-104920698D01*
X168302157Y-105356306D01*
X168298099Y-105358073D01*
X167329271Y-105759375D01*
X167325152Y-105760996D01*
X166342593Y-106127472D01*
X166338418Y-106128944D01*
X165343465Y-106460095D01*
X165339241Y-106461418D01*
X164333059Y-106756860D01*
X164328790Y-106758031D01*
X163312721Y-107017367D01*
X163308413Y-107018385D01*
X162283745Y-107241288D01*
X162279404Y-107242152D01*
X161247401Y-107428346D01*
X161243031Y-107429054D01*
X160205072Y-107578290D01*
X160200680Y-107578842D01*
X159158017Y-107690940D01*
X159153608Y-107691334D01*
X158107652Y-107766142D01*
X158103232Y-107766379D01*
X157055251Y-107803809D01*
X157050825Y-107803888D01*
X156002179Y-107803888D01*
X155997753Y-107803809D01*
X154949771Y-107766379D01*
X154945351Y-107766142D01*
X153899395Y-107691334D01*
X153894986Y-107690940D01*
X152852323Y-107578842D01*
X152847931Y-107578290D01*
X151809972Y-107429054D01*
X151805602Y-107428346D01*
X150773599Y-107242152D01*
X150769258Y-107241288D01*
X149744590Y-107018385D01*
X149740282Y-107017367D01*
X148724213Y-106758031D01*
X148719944Y-106756860D01*
X147713762Y-106461418D01*
X147709538Y-106460095D01*
X146714585Y-106128944D01*
X146710410Y-106127472D01*
X146033722Y-105875080D01*
X145727842Y-105760992D01*
X145723742Y-105759378D01*
X145564458Y-105693401D01*
X145089333Y-105496598D01*
X144754904Y-105358073D01*
X144750846Y-105356306D01*
X143796998Y-104920698D01*
X143793004Y-104918788D01*
X143535119Y-104789700D01*
X143325761Y-104684903D01*
X151191326Y-104684903D01*
X151191326Y-104933399D01*
X151891326Y-104933399D01*
X151891326Y-105433399D01*
X151191326Y-105433399D01*
X151191326Y-105681894D01*
X151229753Y-105875080D01*
X151229756Y-105875092D01*
X151305133Y-106057070D01*
X151305140Y-106057083D01*
X151414574Y-106220861D01*
X151414577Y-106220865D01*
X151553859Y-106360147D01*
X151553863Y-106360150D01*
X151717641Y-106469584D01*
X151717654Y-106469591D01*
X151899634Y-106544968D01*
X151941326Y-106553261D01*
X151941326Y-105750387D01*
X151951266Y-105767604D01*
X152007121Y-105823459D01*
X152075530Y-105862955D01*
X152151830Y-105883399D01*
X152230822Y-105883399D01*
X152307122Y-105862955D01*
X152375531Y-105823459D01*
X152431386Y-105767604D01*
X152441326Y-105750387D01*
X152441326Y-106553261D01*
X152483016Y-106544968D01*
X152483018Y-106544968D01*
X152664997Y-106469591D01*
X152665010Y-106469584D01*
X152828788Y-106360150D01*
X152828792Y-106360147D01*
X152968074Y-106220865D01*
X152968077Y-106220861D01*
X153077511Y-106057083D01*
X153077518Y-106057070D01*
X153152895Y-105875092D01*
X153152898Y-105875080D01*
X153191325Y-105681894D01*
X153191326Y-105681891D01*
X153191326Y-105433399D01*
X152491326Y-105433399D01*
X152491326Y-104933399D01*
X153191326Y-104933399D01*
X153191326Y-104684907D01*
X153191325Y-104684903D01*
X159831326Y-104684903D01*
X159831326Y-104933399D01*
X160531326Y-104933399D01*
X160531326Y-105433399D01*
X159831326Y-105433399D01*
X159831326Y-105681894D01*
X159869753Y-105875080D01*
X159869756Y-105875092D01*
X159945133Y-106057070D01*
X159945140Y-106057083D01*
X160054574Y-106220861D01*
X160054577Y-106220865D01*
X160193859Y-106360147D01*
X160193863Y-106360150D01*
X160357641Y-106469584D01*
X160357654Y-106469591D01*
X160539634Y-106544968D01*
X160581326Y-106553261D01*
X160581326Y-105750387D01*
X160591266Y-105767604D01*
X160647121Y-105823459D01*
X160715530Y-105862955D01*
X160791830Y-105883399D01*
X160870822Y-105883399D01*
X160947122Y-105862955D01*
X161015531Y-105823459D01*
X161071386Y-105767604D01*
X161081326Y-105750387D01*
X161081326Y-106553261D01*
X161123016Y-106544968D01*
X161123018Y-106544968D01*
X161304997Y-106469591D01*
X161305010Y-106469584D01*
X161468788Y-106360150D01*
X161468792Y-106360147D01*
X161608074Y-106220865D01*
X161608077Y-106220861D01*
X161717511Y-106057083D01*
X161717518Y-106057070D01*
X161792895Y-105875092D01*
X161792898Y-105875080D01*
X161831325Y-105681894D01*
X161831326Y-105681891D01*
X161831326Y-105433399D01*
X161131326Y-105433399D01*
X161131326Y-104933399D01*
X161831326Y-104933399D01*
X161831326Y-104684907D01*
X161831325Y-104684903D01*
X161792898Y-104491717D01*
X161792895Y-104491705D01*
X161717518Y-104309727D01*
X161717511Y-104309714D01*
X161608077Y-104145936D01*
X161608074Y-104145932D01*
X161468792Y-104006650D01*
X161468788Y-104006647D01*
X161305010Y-103897213D01*
X161304997Y-103897206D01*
X161123017Y-103821828D01*
X161123009Y-103821826D01*
X161081326Y-103813534D01*
X161081326Y-104616410D01*
X161071386Y-104599194D01*
X161015531Y-104543339D01*
X160947122Y-104503843D01*
X160870822Y-104483399D01*
X160791830Y-104483399D01*
X160715530Y-104503843D01*
X160647121Y-104543339D01*
X160591266Y-104599194D01*
X160581326Y-104616410D01*
X160581326Y-103813535D01*
X160581325Y-103813534D01*
X160539642Y-103821826D01*
X160539634Y-103821828D01*
X160357654Y-103897206D01*
X160357641Y-103897213D01*
X160193863Y-104006647D01*
X160193859Y-104006650D01*
X160054577Y-104145932D01*
X160054574Y-104145936D01*
X159945140Y-104309714D01*
X159945133Y-104309727D01*
X159869756Y-104491705D01*
X159869753Y-104491717D01*
X159831326Y-104684903D01*
X153191325Y-104684903D01*
X153152898Y-104491717D01*
X153152895Y-104491705D01*
X153077518Y-104309727D01*
X153077511Y-104309714D01*
X152968077Y-104145936D01*
X152968074Y-104145932D01*
X152828792Y-104006650D01*
X152828788Y-104006647D01*
X152665010Y-103897213D01*
X152664997Y-103897206D01*
X152483017Y-103821828D01*
X152483009Y-103821826D01*
X152441326Y-103813534D01*
X152441326Y-104616410D01*
X152431386Y-104599194D01*
X152375531Y-104543339D01*
X152307122Y-104503843D01*
X152230822Y-104483399D01*
X152151830Y-104483399D01*
X152075530Y-104503843D01*
X152007121Y-104543339D01*
X151951266Y-104599194D01*
X151941326Y-104616410D01*
X151941326Y-103813535D01*
X151941325Y-103813534D01*
X151899642Y-103821826D01*
X151899634Y-103821828D01*
X151717654Y-103897206D01*
X151717641Y-103897213D01*
X151553863Y-104006647D01*
X151553859Y-104006650D01*
X151414577Y-104145932D01*
X151414574Y-104145936D01*
X151305140Y-104309714D01*
X151305133Y-104309727D01*
X151229756Y-104491705D01*
X151229753Y-104491717D01*
X151191326Y-104684903D01*
X143325761Y-104684903D01*
X142855248Y-104449381D01*
X142851326Y-104447329D01*
X141930974Y-103944779D01*
X141927127Y-103942589D01*
X141025237Y-103407472D01*
X141021472Y-103405145D01*
X140139331Y-102838228D01*
X140135650Y-102835769D01*
X139274254Y-102237692D01*
X139270664Y-102235103D01*
X139146970Y-102142507D01*
X138579367Y-101717604D01*
X138431197Y-101606685D01*
X138427701Y-101603970D01*
X138023928Y-101278589D01*
X137611168Y-100945966D01*
X137607771Y-100943127D01*
X137006969Y-100422529D01*
X136905843Y-100334903D01*
X151191326Y-100334903D01*
X151191326Y-100733399D01*
X151891326Y-100733399D01*
X151891326Y-101233399D01*
X151191326Y-101233399D01*
X151191326Y-101631894D01*
X151229753Y-101825080D01*
X151229756Y-101825092D01*
X151305133Y-102007070D01*
X151305140Y-102007083D01*
X151414574Y-102170861D01*
X151414577Y-102170865D01*
X151553859Y-102310147D01*
X151553863Y-102310150D01*
X151717641Y-102419584D01*
X151717654Y-102419591D01*
X151899634Y-102494968D01*
X151941326Y-102503261D01*
X151941326Y-101700387D01*
X151951266Y-101717604D01*
X152007121Y-101773459D01*
X152075530Y-101812955D01*
X152151830Y-101833399D01*
X152230822Y-101833399D01*
X152307122Y-101812955D01*
X152375531Y-101773459D01*
X152431386Y-101717604D01*
X152441326Y-101700387D01*
X152441326Y-102503261D01*
X152483016Y-102494968D01*
X152483018Y-102494968D01*
X152664997Y-102419591D01*
X152665010Y-102419584D01*
X152828788Y-102310150D01*
X152828792Y-102310147D01*
X152968074Y-102170865D01*
X152968077Y-102170861D01*
X153077507Y-102007089D01*
X153080363Y-102001745D01*
X153129319Y-101951894D01*
X153197454Y-101936424D01*
X153263137Y-101960246D01*
X153265221Y-101961811D01*
X153267958Y-101963911D01*
X153267961Y-101963914D01*
X153399191Y-102039680D01*
X153545560Y-102078899D01*
X153545562Y-102078899D01*
X153697090Y-102078899D01*
X153697092Y-102078899D01*
X153843461Y-102039680D01*
X153974691Y-101963914D01*
X154081841Y-101856764D01*
X154157607Y-101725534D01*
X154196826Y-101579165D01*
X154196826Y-101427633D01*
X154157607Y-101281264D01*
X154081841Y-101150034D01*
X153974691Y-101042884D01*
X153906064Y-101003262D01*
X153843462Y-100967118D01*
X153764520Y-100945966D01*
X153697092Y-100927899D01*
X153545560Y-100927899D01*
X153399189Y-100967118D01*
X153267961Y-101042884D01*
X153267958Y-101042886D01*
X153160813Y-101150031D01*
X153160809Y-101150037D01*
X153148476Y-101171399D01*
X153097909Y-101219615D01*
X153041089Y-101233399D01*
X152491326Y-101233399D01*
X152491326Y-100733399D01*
X153191326Y-100733399D01*
X153191326Y-100334907D01*
X153191325Y-100334903D01*
X153152898Y-100141717D01*
X153152895Y-100141705D01*
X153077518Y-99959727D01*
X153077511Y-99959714D01*
X152968077Y-99795936D01*
X152968074Y-99795932D01*
X152828792Y-99656650D01*
X152828788Y-99656647D01*
X152665010Y-99547213D01*
X152664997Y-99547206D01*
X152483017Y-99471828D01*
X152483009Y-99471826D01*
X152441326Y-99463534D01*
X152441326Y-100266410D01*
X152431386Y-100249194D01*
X152375531Y-100193339D01*
X152307122Y-100153843D01*
X152230822Y-100133399D01*
X152151830Y-100133399D01*
X152075530Y-100153843D01*
X152007121Y-100193339D01*
X151951266Y-100249194D01*
X151941326Y-100266410D01*
X151941326Y-99463535D01*
X151941325Y-99463534D01*
X151899642Y-99471826D01*
X151899634Y-99471828D01*
X151717654Y-99547206D01*
X151717641Y-99547213D01*
X151553863Y-99656647D01*
X151553859Y-99656650D01*
X151414577Y-99795932D01*
X151414574Y-99795936D01*
X151305140Y-99959714D01*
X151305133Y-99959727D01*
X151229756Y-100141705D01*
X151229753Y-100141717D01*
X151191326Y-100334903D01*
X136905843Y-100334903D01*
X136815257Y-100256410D01*
X136811964Y-100253452D01*
X136044455Y-99538876D01*
X136041270Y-99535802D01*
X135299786Y-98794318D01*
X135296712Y-98791133D01*
X134582136Y-98023624D01*
X134579178Y-98020331D01*
X133892461Y-97227817D01*
X133889622Y-97224420D01*
X133231618Y-96407887D01*
X133228903Y-96404391D01*
X133208088Y-96376585D01*
X132600471Y-95564905D01*
X132597909Y-95561353D01*
X132281422Y-95105525D01*
X136455439Y-95105525D01*
X136455439Y-95453774D01*
X136494428Y-95799808D01*
X136494430Y-95799820D01*
X136571921Y-96139334D01*
X136571924Y-96139342D01*
X136686938Y-96468032D01*
X136838031Y-96781780D01*
X137023310Y-97076649D01*
X137023311Y-97076651D01*
X137240426Y-97348906D01*
X137486682Y-97595162D01*
X137758937Y-97812277D01*
X137758940Y-97812278D01*
X137758942Y-97812280D01*
X138053806Y-97997556D01*
X138367560Y-98148652D01*
X138614427Y-98235034D01*
X138696246Y-98263664D01*
X138696254Y-98263667D01*
X138696257Y-98263667D01*
X138696258Y-98263668D01*
X139035768Y-98341159D01*
X139381815Y-98380149D01*
X139381816Y-98380150D01*
X139381819Y-98380150D01*
X139730062Y-98380150D01*
X139730062Y-98380149D01*
X140076110Y-98341159D01*
X140415620Y-98263668D01*
X140744318Y-98148652D01*
X141058072Y-97997556D01*
X141352936Y-97812280D01*
X141352940Y-97812277D01*
X141625195Y-97595162D01*
X141625197Y-97595159D01*
X141625202Y-97595156D01*
X141871445Y-97348913D01*
X141901654Y-97311033D01*
X142088566Y-97076651D01*
X142088567Y-97076649D01*
X142088569Y-97076647D01*
X142273845Y-96781783D01*
X142424941Y-96468029D01*
X142539957Y-96139331D01*
X142544938Y-96117507D01*
X153830826Y-96117507D01*
X153830826Y-96249290D01*
X153864934Y-96376586D01*
X153880988Y-96404391D01*
X153930826Y-96490713D01*
X154024012Y-96583899D01*
X154138140Y-96649791D01*
X154265434Y-96683899D01*
X154284782Y-96683899D01*
X154351821Y-96703584D01*
X154372463Y-96720218D01*
X154875597Y-97223352D01*
X154909082Y-97284675D01*
X154911916Y-97311033D01*
X154911916Y-98264544D01*
X154910856Y-98280726D01*
X154909879Y-98288148D01*
X154909879Y-101206827D01*
X154929823Y-101281261D01*
X154933764Y-101295970D01*
X154933766Y-101295974D01*
X154979906Y-101375892D01*
X154979910Y-101375897D01*
X155771275Y-102167262D01*
X155804760Y-102228585D01*
X155807594Y-102254943D01*
X155807594Y-102274291D01*
X155817202Y-102310150D01*
X155841702Y-102401586D01*
X155874648Y-102458649D01*
X155907594Y-102515713D01*
X156000780Y-102608899D01*
X156114908Y-102674791D01*
X156242202Y-102708899D01*
X156242204Y-102708899D01*
X156373984Y-102708899D01*
X156373986Y-102708899D01*
X156501280Y-102674791D01*
X156615408Y-102608899D01*
X156708594Y-102515713D01*
X156774486Y-102401585D01*
X156808594Y-102274291D01*
X156808594Y-102142507D01*
X156774486Y-102015213D01*
X156708594Y-101901085D01*
X156615408Y-101807899D01*
X156555756Y-101773459D01*
X156501281Y-101742007D01*
X156437633Y-101724953D01*
X156373986Y-101707899D01*
X156373985Y-101707899D01*
X156354638Y-101707899D01*
X156325197Y-101699254D01*
X156295211Y-101692731D01*
X156290195Y-101688976D01*
X156287599Y-101688214D01*
X156266957Y-101671580D01*
X156023010Y-101427633D01*
X158825826Y-101427633D01*
X158825826Y-101579165D01*
X158832842Y-101605349D01*
X158865045Y-101725535D01*
X158902928Y-101791149D01*
X158940811Y-101856764D01*
X159047961Y-101963914D01*
X159179191Y-102039680D01*
X159325560Y-102078899D01*
X159325562Y-102078899D01*
X159477090Y-102078899D01*
X159477092Y-102078899D01*
X159623461Y-102039680D01*
X159754691Y-101963914D01*
X159754699Y-101963905D01*
X159757431Y-101961811D01*
X159760160Y-101960755D01*
X159761729Y-101959850D01*
X159761870Y-101960094D01*
X159822600Y-101936614D01*
X159891045Y-101950650D01*
X159941036Y-101999463D01*
X159942281Y-102001734D01*
X159945138Y-102007079D01*
X160054574Y-102170861D01*
X160054577Y-102170865D01*
X160193859Y-102310147D01*
X160193863Y-102310150D01*
X160357641Y-102419584D01*
X160357654Y-102419591D01*
X160539634Y-102494968D01*
X160581326Y-102503261D01*
X160581326Y-101700387D01*
X160591266Y-101717604D01*
X160647121Y-101773459D01*
X160715530Y-101812955D01*
X160791830Y-101833399D01*
X160870822Y-101833399D01*
X160947122Y-101812955D01*
X161015531Y-101773459D01*
X161071386Y-101717604D01*
X161081326Y-101700387D01*
X161081326Y-102503261D01*
X161123016Y-102494968D01*
X161123018Y-102494968D01*
X161304997Y-102419591D01*
X161305010Y-102419584D01*
X161468788Y-102310150D01*
X161468792Y-102310147D01*
X161608074Y-102170865D01*
X161608077Y-102170861D01*
X161717511Y-102007083D01*
X161717518Y-102007070D01*
X161792895Y-101825092D01*
X161792898Y-101825080D01*
X161831325Y-101631894D01*
X161831326Y-101631891D01*
X161831326Y-101233399D01*
X161131326Y-101233399D01*
X161131326Y-100733399D01*
X161831326Y-100733399D01*
X161831326Y-100334907D01*
X161831325Y-100334903D01*
X161792898Y-100141717D01*
X161792895Y-100141705D01*
X161717518Y-99959727D01*
X161717511Y-99959714D01*
X161608077Y-99795936D01*
X161608074Y-99795932D01*
X161468792Y-99656650D01*
X161468788Y-99656647D01*
X161305010Y-99547213D01*
X161304997Y-99547206D01*
X161123017Y-99471828D01*
X161123009Y-99471826D01*
X161081326Y-99463534D01*
X161081326Y-100266410D01*
X161071386Y-100249194D01*
X161015531Y-100193339D01*
X160947122Y-100153843D01*
X160870822Y-100133399D01*
X160791830Y-100133399D01*
X160715530Y-100153843D01*
X160647121Y-100193339D01*
X160591266Y-100249194D01*
X160581326Y-100266410D01*
X160581326Y-99463535D01*
X160581325Y-99463534D01*
X160539642Y-99471826D01*
X160539634Y-99471828D01*
X160357654Y-99547206D01*
X160357641Y-99547213D01*
X160193863Y-99656647D01*
X160193859Y-99656650D01*
X160054577Y-99795932D01*
X160054574Y-99795936D01*
X159945140Y-99959714D01*
X159945133Y-99959727D01*
X159869756Y-100141705D01*
X159869753Y-100141717D01*
X159831326Y-100334903D01*
X159831326Y-100733399D01*
X160531326Y-100733399D01*
X160531326Y-101233399D01*
X159981563Y-101233399D01*
X159914524Y-101213714D01*
X159874176Y-101171399D01*
X159861841Y-101150034D01*
X159754691Y-101042884D01*
X159686064Y-101003262D01*
X159623462Y-100967118D01*
X159544520Y-100945966D01*
X159477092Y-100927899D01*
X159325560Y-100927899D01*
X159179189Y-100967118D01*
X159047961Y-101042884D01*
X159047958Y-101042886D01*
X158940813Y-101150031D01*
X158940811Y-101150034D01*
X158865045Y-101281262D01*
X158839690Y-101375892D01*
X158825826Y-101427633D01*
X156023010Y-101427633D01*
X155647198Y-101051821D01*
X155613713Y-100990498D01*
X155610879Y-100964140D01*
X155610879Y-98934108D01*
X162499500Y-98934108D01*
X162499500Y-99065891D01*
X162533608Y-99193187D01*
X162566554Y-99250250D01*
X162599500Y-99307314D01*
X162692686Y-99400500D01*
X162791521Y-99457563D01*
X162801865Y-99463535D01*
X162806814Y-99466392D01*
X162934108Y-99500500D01*
X162934110Y-99500500D01*
X163065890Y-99500500D01*
X163065892Y-99500500D01*
X163193186Y-99466392D01*
X163307314Y-99400500D01*
X163400500Y-99307314D01*
X163466392Y-99193186D01*
X163500500Y-99065892D01*
X163500500Y-98934108D01*
X163466392Y-98806814D01*
X163400500Y-98692686D01*
X163307314Y-98599500D01*
X163250250Y-98566554D01*
X163193187Y-98533608D01*
X163129539Y-98516554D01*
X163065892Y-98499500D01*
X162934108Y-98499500D01*
X162806812Y-98533608D01*
X162692686Y-98599500D01*
X162692683Y-98599502D01*
X162599502Y-98692683D01*
X162599500Y-98692686D01*
X162533608Y-98806812D01*
X162499500Y-98934108D01*
X155610879Y-98934108D01*
X155610879Y-98401996D01*
X155611940Y-98385808D01*
X155612916Y-98378395D01*
X155612916Y-97068347D01*
X155612916Y-97068345D01*
X155589030Y-96979201D01*
X155542886Y-96899277D01*
X154868145Y-96224536D01*
X154834660Y-96163213D01*
X154831826Y-96136855D01*
X154831826Y-96117509D01*
X154831826Y-96117507D01*
X154797718Y-95990213D01*
X154731826Y-95876085D01*
X154638640Y-95782899D01*
X154581576Y-95749953D01*
X154524513Y-95717007D01*
X154440641Y-95694534D01*
X154397218Y-95682899D01*
X154265434Y-95682899D01*
X154138138Y-95717007D01*
X154024012Y-95782899D01*
X154024009Y-95782901D01*
X153930828Y-95876082D01*
X153930826Y-95876085D01*
X153864934Y-95990211D01*
X153830826Y-96117507D01*
X142544938Y-96117507D01*
X142617448Y-95799821D01*
X142656439Y-95453770D01*
X142656439Y-95105530D01*
X142617448Y-94759479D01*
X142539957Y-94419969D01*
X142424941Y-94091271D01*
X142273845Y-93777517D01*
X142088569Y-93482653D01*
X142088567Y-93482650D01*
X142088566Y-93482648D01*
X141871451Y-93210393D01*
X141625195Y-92964137D01*
X141352940Y-92747022D01*
X141352938Y-92747021D01*
X141058069Y-92561742D01*
X140744321Y-92410649D01*
X140415631Y-92295635D01*
X140415623Y-92295632D01*
X140131397Y-92230760D01*
X140076110Y-92218141D01*
X140076106Y-92218140D01*
X140076097Y-92218139D01*
X139730063Y-92179150D01*
X139730059Y-92179150D01*
X139381819Y-92179150D01*
X139381814Y-92179150D01*
X139035780Y-92218139D01*
X139035768Y-92218141D01*
X138696254Y-92295632D01*
X138696246Y-92295635D01*
X138367556Y-92410649D01*
X138053808Y-92561742D01*
X137758939Y-92747021D01*
X137758937Y-92747022D01*
X137486682Y-92964137D01*
X137240426Y-93210393D01*
X137023311Y-93482648D01*
X137023310Y-93482650D01*
X136838031Y-93777519D01*
X136686938Y-94091267D01*
X136571924Y-94419957D01*
X136571921Y-94419965D01*
X136494430Y-94759479D01*
X136494428Y-94759491D01*
X136455439Y-95105525D01*
X132281422Y-95105525D01*
X132049982Y-94772187D01*
X131999819Y-94699938D01*
X131997360Y-94696257D01*
X131430443Y-93814116D01*
X131428116Y-93810351D01*
X131204065Y-93432734D01*
X130892989Y-92908444D01*
X130890809Y-92904614D01*
X130881631Y-92887806D01*
X130496479Y-92182452D01*
X130388259Y-91984262D01*
X130386207Y-91980340D01*
X129916800Y-91042584D01*
X129914890Y-91038591D01*
X129912582Y-91033538D01*
X129876872Y-90955344D01*
X129866929Y-90886189D01*
X129895953Y-90822633D01*
X129954731Y-90784858D01*
X130024601Y-90784858D01*
X130062553Y-90803517D01*
X130083382Y-90818650D01*
X130260377Y-90908834D01*
X130449292Y-90970216D01*
X130645494Y-91001292D01*
X130844136Y-91001292D01*
X131040335Y-90970216D01*
X131040338Y-90970216D01*
X131229252Y-90908834D01*
X131406240Y-90818654D01*
X131443530Y-90791560D01*
X130880756Y-90228787D01*
X130940896Y-90212673D01*
X131056735Y-90145794D01*
X131151317Y-90051212D01*
X131218196Y-89935373D01*
X131234310Y-89875234D01*
X131797083Y-90438007D01*
X131824177Y-90400717D01*
X131904330Y-90243409D01*
X131952304Y-90192613D01*
X132020125Y-90175818D01*
X132086260Y-90198355D01*
X132125300Y-90243409D01*
X132205456Y-90400724D01*
X132232545Y-90438007D01*
X132232546Y-90438008D01*
X132795319Y-89875234D01*
X132811434Y-89935373D01*
X132878313Y-90051212D01*
X132972895Y-90145794D01*
X133088734Y-90212673D01*
X133148872Y-90228786D01*
X132586098Y-90791560D01*
X132586098Y-90791561D01*
X132623382Y-90818650D01*
X132800377Y-90908834D01*
X132989292Y-90970216D01*
X133185494Y-91001292D01*
X133384136Y-91001292D01*
X133580335Y-90970216D01*
X133580338Y-90970216D01*
X133766568Y-90909706D01*
X146864500Y-90909706D01*
X146864500Y-91041489D01*
X146898608Y-91168785D01*
X146931554Y-91225848D01*
X146964500Y-91282912D01*
X147057686Y-91376098D01*
X147171814Y-91441990D01*
X147299108Y-91476098D01*
X147299110Y-91476098D01*
X147430890Y-91476098D01*
X147430892Y-91476098D01*
X147558186Y-91441990D01*
X147672314Y-91376098D01*
X147765500Y-91282912D01*
X147831392Y-91168784D01*
X147865500Y-91041490D01*
X147865500Y-90951430D01*
X147885185Y-90884391D01*
X147901819Y-90863749D01*
X149428750Y-89336819D01*
X149490073Y-89303334D01*
X149516431Y-89300500D01*
X151819937Y-89300500D01*
X151886976Y-89320185D01*
X151923039Y-89355609D01*
X151951853Y-89398732D01*
X151951856Y-89398736D01*
X152038975Y-89485855D01*
X152038979Y-89485858D01*
X152141419Y-89554307D01*
X152141428Y-89554312D01*
X152162451Y-89563020D01*
X152255260Y-89601463D01*
X152376101Y-89625499D01*
X152376105Y-89625500D01*
X152376106Y-89625500D01*
X152499319Y-89625500D01*
X152499320Y-89625499D01*
X152620164Y-89601463D01*
X152733998Y-89554311D01*
X152836445Y-89485858D01*
X152836448Y-89485855D01*
X152850031Y-89472273D01*
X152911354Y-89438788D01*
X152981046Y-89443772D01*
X153025393Y-89472273D01*
X153038975Y-89485855D01*
X153038979Y-89485858D01*
X153141419Y-89554307D01*
X153141432Y-89554314D01*
X153231005Y-89591416D01*
X153271234Y-89618296D01*
X153940698Y-90287760D01*
X153974183Y-90349083D01*
X153969199Y-90418775D01*
X153927327Y-90474708D01*
X153861863Y-90499125D01*
X153845048Y-90498625D01*
X153838687Y-90498625D01*
X153240437Y-90498625D01*
X153161313Y-90498625D01*
X153084885Y-90519103D01*
X153016364Y-90558665D01*
X153016361Y-90558667D01*
X152589531Y-90985496D01*
X152563852Y-91005201D01*
X152514772Y-91033538D01*
X152514770Y-91033539D01*
X152202059Y-91346249D01*
X152140736Y-91379733D01*
X152090189Y-91380185D01*
X152061606Y-91374500D01*
X151938394Y-91374500D01*
X151938389Y-91374500D01*
X151817555Y-91398535D01*
X151817545Y-91398538D01*
X151703716Y-91445687D01*
X151703707Y-91445692D01*
X151601267Y-91514141D01*
X151601263Y-91514144D01*
X151514144Y-91601263D01*
X151514141Y-91601267D01*
X151445692Y-91703707D01*
X151445687Y-91703716D01*
X151398538Y-91817545D01*
X151398535Y-91817555D01*
X151374500Y-91938389D01*
X151374500Y-92061610D01*
X151398535Y-92182444D01*
X151398538Y-92182454D01*
X151445687Y-92296283D01*
X151445692Y-92296292D01*
X151514141Y-92398732D01*
X151514144Y-92398736D01*
X151527727Y-92412319D01*
X151561212Y-92473642D01*
X151556228Y-92543334D01*
X151527727Y-92587681D01*
X151514144Y-92601263D01*
X151514141Y-92601267D01*
X151445692Y-92703707D01*
X151445687Y-92703716D01*
X151398538Y-92817545D01*
X151398535Y-92817555D01*
X151374500Y-92938389D01*
X151374500Y-93061610D01*
X151398535Y-93182444D01*
X151398537Y-93182452D01*
X151407246Y-93203477D01*
X151445687Y-93296283D01*
X151445692Y-93296292D01*
X151514141Y-93398732D01*
X151514144Y-93398736D01*
X151527727Y-93412319D01*
X151561212Y-93473642D01*
X151556228Y-93543334D01*
X151527727Y-93587681D01*
X151514144Y-93601263D01*
X151514141Y-93601267D01*
X151445692Y-93703707D01*
X151445687Y-93703716D01*
X151398538Y-93817545D01*
X151398535Y-93817555D01*
X151374500Y-93938389D01*
X151374500Y-94061610D01*
X151398535Y-94182444D01*
X151398538Y-94182454D01*
X151445687Y-94296283D01*
X151445692Y-94296292D01*
X151514141Y-94398732D01*
X151514144Y-94398736D01*
X151601263Y-94485855D01*
X151601267Y-94485858D01*
X151703707Y-94554307D01*
X151703713Y-94554310D01*
X151703714Y-94554311D01*
X151817548Y-94601463D01*
X151938389Y-94625499D01*
X151938393Y-94625500D01*
X151938394Y-94625500D01*
X152061607Y-94625500D01*
X152061608Y-94625499D01*
X152182452Y-94601463D01*
X152296286Y-94554311D01*
X152296285Y-94554311D01*
X152301914Y-94551980D01*
X152302805Y-94554132D01*
X152361074Y-94541997D01*
X152419272Y-94564294D01*
X152420293Y-94562767D01*
X152496769Y-94613867D01*
X152496770Y-94613868D01*
X152555247Y-94625499D01*
X152555250Y-94625500D01*
X152555252Y-94625500D01*
X153444750Y-94625500D01*
X153444751Y-94625499D01*
X153459568Y-94622552D01*
X153503229Y-94613868D01*
X153503229Y-94613867D01*
X153503231Y-94613867D01*
X153569552Y-94569552D01*
X153607267Y-94513108D01*
X158974499Y-94513108D01*
X158974499Y-94644891D01*
X159008607Y-94772187D01*
X159024828Y-94800282D01*
X159074499Y-94886314D01*
X159167685Y-94979500D01*
X159281813Y-95045392D01*
X159409107Y-95079500D01*
X159409109Y-95079500D01*
X159540889Y-95079500D01*
X159540891Y-95079500D01*
X159668185Y-95045392D01*
X159782313Y-94979500D01*
X159875499Y-94886314D01*
X159941391Y-94772186D01*
X159975499Y-94644892D01*
X159975499Y-94513108D01*
X159941391Y-94385814D01*
X159875499Y-94271686D01*
X159782313Y-94178500D01*
X159725249Y-94145554D01*
X159668186Y-94112608D01*
X159593021Y-94092468D01*
X159540891Y-94078500D01*
X159409107Y-94078500D01*
X159281811Y-94112608D01*
X159167685Y-94178500D01*
X159167682Y-94178502D01*
X159074501Y-94271683D01*
X159074499Y-94271686D01*
X159008607Y-94385812D01*
X158974499Y-94513108D01*
X153607267Y-94513108D01*
X153613867Y-94503231D01*
X153617323Y-94485858D01*
X153618332Y-94480788D01*
X153625500Y-94444747D01*
X153625500Y-93555249D01*
X153625499Y-93555247D01*
X153613868Y-93496770D01*
X153613867Y-93496769D01*
X153562767Y-93420293D01*
X153566458Y-93417826D01*
X153544432Y-93377489D01*
X153549416Y-93307797D01*
X153552057Y-93301945D01*
X153551980Y-93301914D01*
X153562363Y-93276846D01*
X153601463Y-93182452D01*
X153625500Y-93061606D01*
X153625500Y-92938394D01*
X153601463Y-92817548D01*
X153554311Y-92703714D01*
X153554310Y-92703713D01*
X153554307Y-92703707D01*
X153485858Y-92601267D01*
X153485855Y-92601263D01*
X153472273Y-92587681D01*
X153438788Y-92526358D01*
X153443772Y-92456666D01*
X153472273Y-92412319D01*
X153485855Y-92398736D01*
X153485858Y-92398733D01*
X153554311Y-92296286D01*
X153601463Y-92182452D01*
X153625500Y-92061606D01*
X153625500Y-91999967D01*
X153645185Y-91932928D01*
X153697989Y-91887173D01*
X153767147Y-91877229D01*
X153830703Y-91906254D01*
X153837181Y-91912286D01*
X154294875Y-92369980D01*
X154752283Y-92827388D01*
X154766364Y-92846767D01*
X154785729Y-92860835D01*
X154792637Y-92867743D01*
X154796977Y-92872083D01*
X154811971Y-92880739D01*
X154822854Y-92887806D01*
X154843375Y-92902714D01*
X154843376Y-92902714D01*
X154843377Y-92902715D01*
X154846204Y-92903633D01*
X154869902Y-92914184D01*
X154871639Y-92915187D01*
X154919851Y-92965757D01*
X154930520Y-92994965D01*
X154948088Y-93071900D01*
X154948089Y-93071901D01*
X154948090Y-93071905D01*
X155000943Y-93181632D01*
X155076885Y-93276849D01*
X155108317Y-93301914D01*
X155172108Y-93352783D01*
X155281835Y-93405624D01*
X155281836Y-93405624D01*
X155281840Y-93405626D01*
X155400579Y-93432730D01*
X155410091Y-93432730D01*
X155421923Y-93432730D01*
X155421927Y-93432732D01*
X155461475Y-93432732D01*
X155509070Y-93432734D01*
X155509073Y-93432732D01*
X155519049Y-93432733D01*
X155519074Y-93432732D01*
X155629081Y-93432732D01*
X155629680Y-93432690D01*
X155642370Y-93432692D01*
X155761109Y-93405598D01*
X155870842Y-93352763D01*
X155966067Y-93276836D01*
X156042011Y-93181624D01*
X156053660Y-93157440D01*
X156100488Y-93105587D01*
X156167917Y-93087281D01*
X156234539Y-93108336D01*
X156279201Y-93162068D01*
X156289374Y-93211255D01*
X156289374Y-93281547D01*
X156306428Y-93345194D01*
X156323482Y-93408842D01*
X156349859Y-93454528D01*
X156389374Y-93522969D01*
X156482560Y-93616155D01*
X156596688Y-93682047D01*
X156723982Y-93716155D01*
X156723984Y-93716155D01*
X156855764Y-93716155D01*
X156855766Y-93716155D01*
X156983060Y-93682047D01*
X157097188Y-93616155D01*
X157190374Y-93522969D01*
X157256266Y-93408841D01*
X157290374Y-93281547D01*
X157290374Y-93149763D01*
X157256266Y-93022469D01*
X157190374Y-92908341D01*
X157097188Y-92815155D01*
X157040124Y-92782209D01*
X156983061Y-92749263D01*
X156919413Y-92732209D01*
X156855766Y-92715155D01*
X156765707Y-92715155D01*
X156698668Y-92695470D01*
X156678026Y-92678836D01*
X156390355Y-92391165D01*
X156390350Y-92391161D01*
X156390263Y-92391111D01*
X156388075Y-92389848D01*
X156352009Y-92369025D01*
X156321833Y-92351603D01*
X156321832Y-92351602D01*
X156296355Y-92344775D01*
X156245404Y-92331123D01*
X156245402Y-92331123D01*
X156119034Y-92331123D01*
X156112828Y-92331121D01*
X156112708Y-92331086D01*
X156091047Y-92331087D01*
X156024006Y-92311406D01*
X155978249Y-92258604D01*
X155968302Y-92189446D01*
X155971266Y-92174994D01*
X156000500Y-92065892D01*
X156000500Y-91934108D01*
X155966392Y-91806814D01*
X155900500Y-91692686D01*
X155807314Y-91599500D01*
X155734246Y-91557314D01*
X155693187Y-91533608D01*
X155620533Y-91514141D01*
X155565892Y-91499500D01*
X155434108Y-91499500D01*
X155306813Y-91533608D01*
X155265754Y-91557314D01*
X155192686Y-91599500D01*
X155192685Y-91599500D01*
X155192678Y-91599505D01*
X155186231Y-91604452D01*
X155184587Y-91602309D01*
X155134879Y-91629422D01*
X155065190Y-91624406D01*
X155020896Y-91595925D01*
X154436335Y-91011364D01*
X154402850Y-90950041D01*
X154407834Y-90880349D01*
X154449706Y-90824416D01*
X154515170Y-90799999D01*
X154531985Y-90800500D01*
X154538347Y-90800500D01*
X155664853Y-90800500D01*
X155731892Y-90820185D01*
X155752534Y-90836819D01*
X155816215Y-90900500D01*
X155904054Y-90951214D01*
X155928877Y-90965546D01*
X155930343Y-90966392D01*
X156057637Y-91000500D01*
X156057639Y-91000500D01*
X156189419Y-91000500D01*
X156189421Y-91000500D01*
X156316715Y-90966392D01*
X156430843Y-90900500D01*
X156524029Y-90807314D01*
X156589921Y-90693186D01*
X156624029Y-90565892D01*
X156624029Y-90434108D01*
X156589921Y-90306814D01*
X156524029Y-90192686D01*
X156430843Y-90099500D01*
X156347206Y-90051212D01*
X156316716Y-90033608D01*
X156253068Y-90016554D01*
X156189421Y-89999500D01*
X156057637Y-89999500D01*
X155930341Y-90033608D01*
X155816215Y-90099500D01*
X155816212Y-90099502D01*
X155752534Y-90163181D01*
X155691211Y-90196666D01*
X155664853Y-90199500D01*
X154753742Y-90199500D01*
X154686703Y-90179815D01*
X154666061Y-90163181D01*
X154340061Y-89837181D01*
X154306576Y-89775858D01*
X154311560Y-89706166D01*
X154353432Y-89650233D01*
X154418896Y-89625816D01*
X154427742Y-89625500D01*
X154499319Y-89625500D01*
X154499320Y-89625499D01*
X154620164Y-89601463D01*
X154733998Y-89554311D01*
X154836445Y-89485858D01*
X154923570Y-89398733D01*
X154939391Y-89375054D01*
X154952385Y-89355609D01*
X155005997Y-89310804D01*
X155055487Y-89300500D01*
X156324167Y-89300500D01*
X156391206Y-89320185D01*
X156411848Y-89336819D01*
X157663181Y-90588152D01*
X157696666Y-90649475D01*
X157699500Y-90675833D01*
X157699500Y-91541323D01*
X157679815Y-91608362D01*
X157663182Y-91629004D01*
X157599500Y-91692686D01*
X157533608Y-91806812D01*
X157512638Y-91885074D01*
X157499500Y-91934108D01*
X157499500Y-92065892D01*
X157508976Y-92101256D01*
X157533608Y-92193187D01*
X157555301Y-92230760D01*
X157599500Y-92307314D01*
X157692686Y-92400500D01*
X157806814Y-92466392D01*
X157934108Y-92500500D01*
X157934110Y-92500500D01*
X158065890Y-92500500D01*
X158065892Y-92500500D01*
X158193186Y-92466392D01*
X158307314Y-92400500D01*
X158400500Y-92307314D01*
X158466392Y-92193186D01*
X158500500Y-92065892D01*
X158500500Y-91934108D01*
X158466392Y-91806814D01*
X158400500Y-91692686D01*
X158336818Y-91629004D01*
X158303334Y-91567680D01*
X158300500Y-91541323D01*
X158300500Y-90460439D01*
X158300500Y-90460438D01*
X158280021Y-90384011D01*
X158280017Y-90384004D01*
X158240464Y-90315495D01*
X158240458Y-90315487D01*
X156684512Y-88759541D01*
X156684504Y-88759535D01*
X156615995Y-88719982D01*
X156615990Y-88719979D01*
X156590513Y-88713152D01*
X156539562Y-88699500D01*
X156539560Y-88699500D01*
X155152424Y-88699500D01*
X155085385Y-88679815D01*
X155039630Y-88627011D01*
X155029686Y-88557853D01*
X155031589Y-88547662D01*
X155036692Y-88525509D01*
X155051579Y-88503231D01*
X155063212Y-88444748D01*
X155063212Y-88410399D01*
X155066377Y-88396662D01*
X155076866Y-88377998D01*
X155082897Y-88357461D01*
X155093642Y-88348149D01*
X155100610Y-88335753D01*
X155119524Y-88325723D01*
X155135701Y-88311706D01*
X155153092Y-88307922D01*
X155162338Y-88303020D01*
X155171931Y-88303824D01*
X155187212Y-88300500D01*
X157078503Y-88300500D01*
X157078505Y-88300500D01*
X157154932Y-88280021D01*
X157223454Y-88240460D01*
X157279403Y-88184511D01*
X158427095Y-87036819D01*
X158488418Y-87003334D01*
X158514776Y-87000500D01*
X158565890Y-87000500D01*
X158565892Y-87000500D01*
X158693186Y-86966392D01*
X158807314Y-86900500D01*
X158900500Y-86807314D01*
X158959018Y-86705958D01*
X158968113Y-86690206D01*
X159018680Y-86641990D01*
X159087287Y-86628768D01*
X159152152Y-86654736D01*
X159192680Y-86711650D01*
X159199500Y-86752206D01*
X159199500Y-87539562D01*
X159209130Y-87575500D01*
X159219979Y-87615990D01*
X159219982Y-87615995D01*
X159251973Y-87671406D01*
X159251974Y-87671406D01*
X159259540Y-87684511D01*
X159259542Y-87684514D01*
X159663181Y-88088152D01*
X159696666Y-88149475D01*
X159699500Y-88175833D01*
X159699500Y-92517562D01*
X159701447Y-92524827D01*
X159719979Y-92593990D01*
X159719980Y-92593991D01*
X159745429Y-92638070D01*
X159759540Y-92662511D01*
X160714451Y-93617422D01*
X160770400Y-93673371D01*
X160770402Y-93673372D01*
X160770406Y-93673375D01*
X160822956Y-93703714D01*
X160838922Y-93712932D01*
X160915349Y-93733411D01*
X161039361Y-93733411D01*
X161106400Y-93753096D01*
X161113354Y-93757907D01*
X161120628Y-93763316D01*
X161190723Y-93833411D01*
X161298810Y-93895815D01*
X161304579Y-93900105D01*
X161321454Y-93922497D01*
X161340802Y-93942789D01*
X161342195Y-93950021D01*
X161346629Y-93955904D01*
X161348718Y-93983868D01*
X161354024Y-94011396D01*
X161351286Y-94018232D01*
X161351836Y-94025580D01*
X161338474Y-94050236D01*
X161328056Y-94076261D01*
X161321803Y-94081001D01*
X161318547Y-94087010D01*
X161301518Y-94096379D01*
X161287822Y-94106761D01*
X161288852Y-94108544D01*
X161167685Y-94178500D01*
X161167682Y-94178502D01*
X161074501Y-94271683D01*
X161074499Y-94271686D01*
X161008607Y-94385812D01*
X160974499Y-94513108D01*
X160974499Y-94644891D01*
X161008607Y-94772187D01*
X161024828Y-94800282D01*
X161074499Y-94886314D01*
X161167685Y-94979500D01*
X161281813Y-95045392D01*
X161409107Y-95079500D01*
X161409109Y-95079500D01*
X161540889Y-95079500D01*
X161540891Y-95079500D01*
X161668185Y-95045392D01*
X161782313Y-94979500D01*
X161875499Y-94886314D01*
X161941391Y-94772186D01*
X161975499Y-94644892D01*
X161975499Y-94513108D01*
X161941391Y-94385814D01*
X161875499Y-94271686D01*
X161782313Y-94178500D01*
X161680448Y-94119688D01*
X161632233Y-94069120D01*
X161619011Y-94000513D01*
X161644979Y-93935649D01*
X161685216Y-93905155D01*
X161684184Y-93903367D01*
X161691259Y-93899282D01*
X161805351Y-93833411D01*
X161898537Y-93740225D01*
X161964429Y-93626097D01*
X161998537Y-93498803D01*
X161998537Y-93484435D01*
X162018222Y-93417396D01*
X162071026Y-93371641D01*
X162122537Y-93360435D01*
X163329568Y-93360435D01*
X163329570Y-93360435D01*
X163405997Y-93339956D01*
X163474519Y-93300395D01*
X163530468Y-93244446D01*
X163882525Y-92892389D01*
X163922087Y-92823866D01*
X163942565Y-92747440D01*
X163942565Y-92668316D01*
X163942565Y-92170430D01*
X163935994Y-92145907D01*
X163922087Y-92094004D01*
X163882525Y-92025481D01*
X163803441Y-91946397D01*
X163769956Y-91885074D01*
X163774940Y-91815382D01*
X163816812Y-91759449D01*
X163859026Y-91738942D01*
X163943186Y-91716392D01*
X164013500Y-91675795D01*
X164081399Y-91659323D01*
X164147426Y-91682175D01*
X164190617Y-91737096D01*
X164199500Y-91783183D01*
X164199500Y-92793620D01*
X164207605Y-92823866D01*
X164219979Y-92870048D01*
X164219980Y-92870049D01*
X164246040Y-92915187D01*
X164255818Y-92932122D01*
X164255819Y-92932124D01*
X164259541Y-92938571D01*
X164739180Y-93418209D01*
X164772665Y-93479532D01*
X164775499Y-93505890D01*
X164775499Y-93800924D01*
X164755814Y-93867963D01*
X164703010Y-93913718D01*
X164683593Y-93920699D01*
X164636227Y-93933390D01*
X164522101Y-93999282D01*
X164522098Y-93999284D01*
X164428917Y-94092465D01*
X164428915Y-94092468D01*
X164363023Y-94206594D01*
X164346252Y-94269186D01*
X164328915Y-94333890D01*
X164328915Y-94465674D01*
X164338978Y-94503230D01*
X164363023Y-94592969D01*
X164381805Y-94625499D01*
X164428915Y-94707096D01*
X164522101Y-94800282D01*
X164636229Y-94866174D01*
X164763523Y-94900282D01*
X164763525Y-94900282D01*
X164895305Y-94900282D01*
X164895307Y-94900282D01*
X165022601Y-94866174D01*
X165136729Y-94800282D01*
X165229915Y-94707096D01*
X165295807Y-94592968D01*
X165329915Y-94465674D01*
X165329915Y-94347626D01*
X165346529Y-94285625D01*
X165356020Y-94269187D01*
X165376499Y-94192760D01*
X165376499Y-93290495D01*
X165373238Y-93278324D01*
X165356021Y-93214069D01*
X165316459Y-93145546D01*
X164836819Y-92665906D01*
X164803334Y-92604583D01*
X164800500Y-92578225D01*
X164800500Y-91110497D01*
X164800500Y-91110495D01*
X164780022Y-91034069D01*
X164779715Y-91033538D01*
X164761098Y-91001292D01*
X164740460Y-90965546D01*
X164388449Y-90613535D01*
X164385537Y-90608202D01*
X164380505Y-90604796D01*
X164368986Y-90577892D01*
X164354964Y-90552212D01*
X164355397Y-90546151D01*
X164353006Y-90540566D01*
X164357860Y-90511712D01*
X164359948Y-90482520D01*
X164363590Y-90477654D01*
X164364598Y-90471664D01*
X164384282Y-90450013D01*
X164401820Y-90426587D01*
X164408557Y-90423314D01*
X164411600Y-90419968D01*
X164444044Y-90406077D01*
X164446555Y-90405404D01*
X164452834Y-90403723D01*
X164484918Y-90399500D01*
X165923167Y-90399500D01*
X165990206Y-90419185D01*
X166010848Y-90435819D01*
X166464920Y-90889891D01*
X166498405Y-90951214D01*
X166493421Y-91020906D01*
X166451549Y-91076839D01*
X166386085Y-91101256D01*
X166361052Y-91100511D01*
X166359118Y-91100256D01*
X166359117Y-91100256D01*
X166227333Y-91100256D01*
X166100037Y-91134364D01*
X165985911Y-91200256D01*
X165985908Y-91200258D01*
X165892727Y-91293439D01*
X165892725Y-91293442D01*
X165826833Y-91407568D01*
X165816619Y-91445689D01*
X165792725Y-91534864D01*
X165792725Y-91666648D01*
X165806054Y-91716392D01*
X165826833Y-91793943D01*
X165839211Y-91815382D01*
X165892725Y-91908070D01*
X165985911Y-92001256D01*
X166084746Y-92058319D01*
X166097863Y-92065892D01*
X166100039Y-92067148D01*
X166227333Y-92101256D01*
X166227335Y-92101256D01*
X166359115Y-92101256D01*
X166359117Y-92101256D01*
X166486411Y-92067148D01*
X166600539Y-92001256D01*
X166693725Y-91908070D01*
X166759617Y-91793942D01*
X166793725Y-91666648D01*
X166793725Y-91534864D01*
X166793722Y-91534855D01*
X166793470Y-91532938D01*
X166793725Y-91531301D01*
X166793725Y-91526737D01*
X166794436Y-91526737D01*
X166804229Y-91463902D01*
X166850604Y-91411642D01*
X166917871Y-91392750D01*
X166984674Y-91413224D01*
X167004089Y-91429060D01*
X167163181Y-91588152D01*
X167196666Y-91649475D01*
X167199500Y-91675833D01*
X167199500Y-93542868D01*
X167179815Y-93609907D01*
X167163181Y-93630549D01*
X165611847Y-95181883D01*
X165550524Y-95215368D01*
X165524166Y-95218202D01*
X165434108Y-95218202D01*
X165306812Y-95252310D01*
X165192686Y-95318202D01*
X165192683Y-95318204D01*
X165099502Y-95411385D01*
X165099500Y-95411388D01*
X165033608Y-95525514D01*
X164999500Y-95652810D01*
X164999500Y-95784593D01*
X165033608Y-95911889D01*
X165058217Y-95954512D01*
X165099500Y-96026016D01*
X165192686Y-96119202D01*
X165306814Y-96185094D01*
X165434108Y-96219202D01*
X165434110Y-96219202D01*
X165565890Y-96219202D01*
X165565892Y-96219202D01*
X165693186Y-96185094D01*
X165807314Y-96119202D01*
X165900500Y-96026016D01*
X165966392Y-95911888D01*
X166000500Y-95784594D01*
X166000500Y-95694534D01*
X166020185Y-95627495D01*
X166036819Y-95606853D01*
X166538147Y-95105525D01*
X170396565Y-95105525D01*
X170396565Y-95453774D01*
X170435554Y-95799808D01*
X170435556Y-95799820D01*
X170513047Y-96139334D01*
X170513050Y-96139342D01*
X170628064Y-96468032D01*
X170779157Y-96781780D01*
X170964436Y-97076649D01*
X170964437Y-97076651D01*
X171181552Y-97348906D01*
X171427808Y-97595162D01*
X171700063Y-97812277D01*
X171700066Y-97812278D01*
X171700068Y-97812280D01*
X171994932Y-97997556D01*
X172308686Y-98148652D01*
X172555553Y-98235034D01*
X172637372Y-98263664D01*
X172637380Y-98263667D01*
X172637383Y-98263667D01*
X172637384Y-98263668D01*
X172976894Y-98341159D01*
X173322941Y-98380149D01*
X173322942Y-98380150D01*
X173322945Y-98380150D01*
X173671188Y-98380150D01*
X173671188Y-98380149D01*
X174017236Y-98341159D01*
X174356746Y-98263668D01*
X174685444Y-98148652D01*
X174999198Y-97997556D01*
X175294062Y-97812280D01*
X175294066Y-97812277D01*
X175566321Y-97595162D01*
X175566323Y-97595159D01*
X175566328Y-97595156D01*
X175812571Y-97348913D01*
X175842780Y-97311033D01*
X176029692Y-97076651D01*
X176029693Y-97076649D01*
X176029695Y-97076647D01*
X176214971Y-96781783D01*
X176366067Y-96468029D01*
X176481083Y-96139331D01*
X176558574Y-95799821D01*
X176597565Y-95453770D01*
X176597565Y-95105530D01*
X176558574Y-94759479D01*
X176481083Y-94419969D01*
X176366067Y-94091271D01*
X176214971Y-93777517D01*
X176029695Y-93482653D01*
X176029693Y-93482650D01*
X176029692Y-93482648D01*
X175812577Y-93210393D01*
X175566321Y-92964137D01*
X175294066Y-92747022D01*
X175294064Y-92747021D01*
X174999195Y-92561742D01*
X174685447Y-92410649D01*
X174356757Y-92295635D01*
X174356749Y-92295632D01*
X174072523Y-92230760D01*
X174017236Y-92218141D01*
X174017232Y-92218140D01*
X174017223Y-92218139D01*
X173671189Y-92179150D01*
X173671185Y-92179150D01*
X173322945Y-92179150D01*
X173322940Y-92179150D01*
X172976906Y-92218139D01*
X172976894Y-92218141D01*
X172637380Y-92295632D01*
X172637372Y-92295635D01*
X172308682Y-92410649D01*
X171994934Y-92561742D01*
X171700065Y-92747021D01*
X171700063Y-92747022D01*
X171427808Y-92964137D01*
X171181552Y-93210393D01*
X170964437Y-93482648D01*
X170964436Y-93482650D01*
X170779157Y-93777519D01*
X170628064Y-94091267D01*
X170513050Y-94419957D01*
X170513047Y-94419965D01*
X170435556Y-94759479D01*
X170435554Y-94759491D01*
X170396565Y-95105525D01*
X166538147Y-95105525D01*
X166843393Y-94800279D01*
X167740460Y-93903213D01*
X167757801Y-93873177D01*
X167780021Y-93834691D01*
X167800500Y-93758264D01*
X167800500Y-91460438D01*
X167780021Y-91384011D01*
X167777551Y-91379733D01*
X167740464Y-91315495D01*
X167740458Y-91315487D01*
X166283512Y-89858541D01*
X166283504Y-89858535D01*
X166214995Y-89818982D01*
X166214990Y-89818979D01*
X166189513Y-89812152D01*
X166138562Y-89798500D01*
X164420042Y-89798500D01*
X163523519Y-89798500D01*
X163444395Y-89798500D01*
X163367967Y-89818978D01*
X163299446Y-89858540D01*
X163299443Y-89858542D01*
X162399606Y-90758379D01*
X162399600Y-90758387D01*
X162360047Y-90826896D01*
X162360044Y-90826901D01*
X162357387Y-90836819D01*
X162340324Y-90900500D01*
X162339565Y-90903331D01*
X162339565Y-91684102D01*
X162319880Y-91751141D01*
X162303246Y-91771783D01*
X161863974Y-92211054D01*
X161802651Y-92244539D01*
X161732959Y-92239555D01*
X161714293Y-92230760D01*
X161610159Y-92170638D01*
X161610156Y-92170637D01*
X161482862Y-92136529D01*
X161351078Y-92136529D01*
X161223782Y-92170637D01*
X161109656Y-92236529D01*
X161109653Y-92236531D01*
X161016472Y-92329712D01*
X161016470Y-92329715D01*
X160950578Y-92443841D01*
X160916470Y-92571137D01*
X160916470Y-92670137D01*
X160896785Y-92737176D01*
X160843981Y-92782931D01*
X160774823Y-92792875D01*
X160711267Y-92763850D01*
X160704789Y-92757818D01*
X160336819Y-92389848D01*
X160303334Y-92328525D01*
X160300500Y-92302167D01*
X160300500Y-87960440D01*
X160300499Y-87960436D01*
X160293445Y-87934108D01*
X160280022Y-87884012D01*
X160240460Y-87815489D01*
X159836819Y-87411848D01*
X159803334Y-87350525D01*
X159800500Y-87324167D01*
X159800500Y-87252206D01*
X159820185Y-87185167D01*
X159872989Y-87139412D01*
X159942147Y-87129468D01*
X160005703Y-87158493D01*
X160031887Y-87190206D01*
X160099497Y-87307310D01*
X160099499Y-87307312D01*
X160099500Y-87307314D01*
X160192686Y-87400500D01*
X160306814Y-87466392D01*
X160434108Y-87500500D01*
X160434110Y-87500500D01*
X160565890Y-87500500D01*
X160565892Y-87500500D01*
X160693186Y-87466392D01*
X160807314Y-87400500D01*
X160900500Y-87307314D01*
X160966392Y-87193186D01*
X161000500Y-87065892D01*
X161000500Y-86934108D01*
X160966392Y-86806814D01*
X160900500Y-86692686D01*
X160836818Y-86629004D01*
X160803334Y-86567680D01*
X160800500Y-86541323D01*
X160800500Y-85024833D01*
X160820185Y-84957794D01*
X160872989Y-84912039D01*
X160942147Y-84902095D01*
X161005703Y-84931120D01*
X161012181Y-84937152D01*
X161448176Y-85373147D01*
X161481661Y-85434470D01*
X161484495Y-85460828D01*
X161484495Y-86712228D01*
X161464810Y-86779267D01*
X161448177Y-86799909D01*
X161384495Y-86863591D01*
X161318603Y-86977717D01*
X161284495Y-87105013D01*
X161284495Y-87236796D01*
X161318603Y-87364092D01*
X161351549Y-87421155D01*
X161384495Y-87478219D01*
X161477681Y-87571405D01*
X161591809Y-87637297D01*
X161719103Y-87671405D01*
X161719105Y-87671405D01*
X161850885Y-87671405D01*
X161850887Y-87671405D01*
X161978181Y-87637297D01*
X162092309Y-87571405D01*
X162185495Y-87478219D01*
X162251387Y-87364091D01*
X162285495Y-87236797D01*
X162285495Y-87105013D01*
X162251387Y-86977719D01*
X162185495Y-86863591D01*
X162121813Y-86799909D01*
X162088329Y-86738585D01*
X162085495Y-86712228D01*
X162085495Y-85245435D01*
X162085495Y-85245433D01*
X162065017Y-85169007D01*
X162025455Y-85100484D01*
X157908715Y-80983744D01*
X157875230Y-80922421D01*
X157872396Y-80896063D01*
X157872396Y-78934108D01*
X160999500Y-78934108D01*
X160999500Y-79065891D01*
X161033608Y-79193187D01*
X161052327Y-79225608D01*
X161099500Y-79307314D01*
X161192686Y-79400500D01*
X161306814Y-79466392D01*
X161434108Y-79500500D01*
X161434110Y-79500500D01*
X161565890Y-79500500D01*
X161565892Y-79500500D01*
X161693186Y-79466392D01*
X161807314Y-79400500D01*
X161900500Y-79307314D01*
X161966392Y-79193186D01*
X162000500Y-79065892D01*
X162000500Y-78934108D01*
X161966392Y-78806814D01*
X161900500Y-78692686D01*
X161807314Y-78599500D01*
X161750250Y-78566554D01*
X161693187Y-78533608D01*
X161629539Y-78516554D01*
X161565892Y-78499500D01*
X161434108Y-78499500D01*
X161306812Y-78533608D01*
X161192686Y-78599500D01*
X161192683Y-78599502D01*
X161099502Y-78692683D01*
X161099500Y-78692686D01*
X161033608Y-78806812D01*
X160999500Y-78934108D01*
X157872396Y-78934108D01*
X157872396Y-74684251D01*
X159855858Y-74684251D01*
X159855858Y-74816034D01*
X159889966Y-74943330D01*
X159898034Y-74957304D01*
X159955858Y-75057457D01*
X160049044Y-75150643D01*
X160163172Y-75216535D01*
X160290466Y-75250643D01*
X160290468Y-75250643D01*
X160422248Y-75250643D01*
X160422250Y-75250643D01*
X160549544Y-75216535D01*
X160663672Y-75150643D01*
X160756858Y-75057457D01*
X160822750Y-74943329D01*
X160856858Y-74816035D01*
X160856858Y-74684251D01*
X160822750Y-74556957D01*
X160756858Y-74442829D01*
X160663672Y-74349643D01*
X160590356Y-74307314D01*
X160549545Y-74283751D01*
X160474402Y-74263617D01*
X160422250Y-74249643D01*
X160290466Y-74249643D01*
X160163170Y-74283751D01*
X160049044Y-74349643D01*
X160049041Y-74349645D01*
X159955860Y-74442826D01*
X159955858Y-74442829D01*
X159889966Y-74556955D01*
X159855858Y-74684251D01*
X157872396Y-74684251D01*
X157872396Y-68972774D01*
X157892081Y-68905735D01*
X157908715Y-68885093D01*
X157913781Y-68880027D01*
X157971396Y-68822412D01*
X158037288Y-68708284D01*
X158071396Y-68580990D01*
X158071396Y-68516832D01*
X158091081Y-68449793D01*
X158143885Y-68404038D01*
X158163296Y-68397059D01*
X158276130Y-68366826D01*
X158390258Y-68300934D01*
X158483444Y-68207748D01*
X158549336Y-68093620D01*
X158583444Y-67966326D01*
X158583444Y-67834542D01*
X158583443Y-67834540D01*
X158582383Y-67826486D01*
X158584080Y-67826262D01*
X158585509Y-67766201D01*
X158624671Y-67708338D01*
X158688898Y-67680832D01*
X158757801Y-67692417D01*
X158791303Y-67716274D01*
X159163181Y-68088152D01*
X159196666Y-68149475D01*
X159199500Y-68175833D01*
X159199500Y-69539562D01*
X159213152Y-69590513D01*
X159219979Y-69615990D01*
X159219982Y-69615995D01*
X159259535Y-69684504D01*
X159259541Y-69684512D01*
X162562181Y-72987152D01*
X162595666Y-73048475D01*
X162598500Y-73074833D01*
X162598500Y-83938562D01*
X162609474Y-83979518D01*
X162618978Y-84014987D01*
X162636731Y-84045736D01*
X162658539Y-84083509D01*
X162658541Y-84083512D01*
X163463181Y-84888152D01*
X163496666Y-84949475D01*
X163499500Y-84975833D01*
X163499500Y-85065892D01*
X163508505Y-85099500D01*
X163533608Y-85193187D01*
X163563773Y-85245433D01*
X163599500Y-85307314D01*
X163692686Y-85400500D01*
X163806814Y-85466392D01*
X163934108Y-85500500D01*
X163934110Y-85500500D01*
X164065890Y-85500500D01*
X164065892Y-85500500D01*
X164193186Y-85466392D01*
X164307314Y-85400500D01*
X164400500Y-85307314D01*
X164466392Y-85193186D01*
X164500500Y-85065892D01*
X164500500Y-84934108D01*
X164466392Y-84806814D01*
X164400500Y-84692686D01*
X164307314Y-84599500D01*
X164246673Y-84564489D01*
X164193187Y-84533608D01*
X164129539Y-84516554D01*
X164065892Y-84499500D01*
X163975833Y-84499500D01*
X163908794Y-84479815D01*
X163888152Y-84463181D01*
X163235819Y-83810848D01*
X163202334Y-83749525D01*
X163199500Y-83723167D01*
X163199500Y-73934108D01*
X163999500Y-73934108D01*
X163999500Y-74065891D01*
X164033608Y-74193187D01*
X164066204Y-74249643D01*
X164099500Y-74307314D01*
X164192686Y-74400500D01*
X164306814Y-74466392D01*
X164434108Y-74500500D01*
X164434110Y-74500500D01*
X164565890Y-74500500D01*
X164565892Y-74500500D01*
X164693186Y-74466392D01*
X164807314Y-74400500D01*
X164900500Y-74307314D01*
X164966392Y-74193186D01*
X165000500Y-74065892D01*
X165000500Y-73934108D01*
X164966392Y-73806814D01*
X164900500Y-73692686D01*
X164807314Y-73599500D01*
X164750250Y-73566554D01*
X164693187Y-73533608D01*
X164629539Y-73516554D01*
X164565892Y-73499500D01*
X164434108Y-73499500D01*
X164306812Y-73533608D01*
X164192686Y-73599500D01*
X164192683Y-73599502D01*
X164099502Y-73692683D01*
X164099500Y-73692686D01*
X164033608Y-73806812D01*
X163999500Y-73934108D01*
X163199500Y-73934108D01*
X163199500Y-72859439D01*
X163186855Y-72812248D01*
X163179021Y-72783011D01*
X163179017Y-72783004D01*
X163139464Y-72714495D01*
X163139458Y-72714487D01*
X159836819Y-69411848D01*
X159803334Y-69350525D01*
X159800500Y-69324167D01*
X159800500Y-68457733D01*
X159820185Y-68390694D01*
X159872989Y-68344939D01*
X159942147Y-68334995D01*
X160005703Y-68364020D01*
X160012181Y-68370052D01*
X167459254Y-75817125D01*
X167492739Y-75878448D01*
X167495573Y-75904806D01*
X167495573Y-86440469D01*
X167475888Y-86507508D01*
X167459255Y-86528150D01*
X167395573Y-86591832D01*
X167329681Y-86705958D01*
X167302523Y-86807316D01*
X167295573Y-86833254D01*
X167295573Y-86965038D01*
X167316572Y-87043407D01*
X167316611Y-87043553D01*
X167314948Y-87113403D01*
X167275785Y-87171265D01*
X167211557Y-87198769D01*
X167196836Y-87199646D01*
X164675979Y-87199646D01*
X164608940Y-87179961D01*
X164588298Y-87163327D01*
X164036819Y-86611848D01*
X164003334Y-86550525D01*
X164000500Y-86524167D01*
X164000500Y-86434110D01*
X164000500Y-86434108D01*
X163966392Y-86306814D01*
X163900500Y-86192686D01*
X163807314Y-86099500D01*
X163750250Y-86066554D01*
X163693187Y-86033608D01*
X163629539Y-86016554D01*
X163565892Y-85999500D01*
X163434108Y-85999500D01*
X163306812Y-86033608D01*
X163192686Y-86099500D01*
X163192683Y-86099502D01*
X163099502Y-86192683D01*
X163099500Y-86192686D01*
X163033608Y-86306812D01*
X162999500Y-86434108D01*
X162999500Y-86565892D01*
X163006451Y-86591832D01*
X163033608Y-86693187D01*
X163040983Y-86705960D01*
X163099500Y-86807314D01*
X163192686Y-86900500D01*
X163306814Y-86966392D01*
X163434108Y-87000500D01*
X163434110Y-87000500D01*
X163524167Y-87000500D01*
X163591206Y-87020185D01*
X163611848Y-87036819D01*
X164259686Y-87684657D01*
X164315635Y-87740606D01*
X164315637Y-87740607D01*
X164315641Y-87740610D01*
X164383675Y-87779889D01*
X164384157Y-87780167D01*
X164460584Y-87800646D01*
X164460586Y-87800646D01*
X168460767Y-87800646D01*
X168462994Y-87800500D01*
X168595124Y-87800500D01*
X168662163Y-87820185D01*
X168682805Y-87836819D01*
X168746486Y-87900500D01*
X168860614Y-87966392D01*
X168987908Y-88000500D01*
X168987910Y-88000500D01*
X169119690Y-88000500D01*
X169119692Y-88000500D01*
X169246986Y-87966392D01*
X169361114Y-87900500D01*
X169454300Y-87807314D01*
X169520192Y-87693186D01*
X169554300Y-87565892D01*
X169554300Y-87434108D01*
X169520192Y-87306814D01*
X169454300Y-87192686D01*
X169361114Y-87099500D01*
X169302900Y-87065890D01*
X169246987Y-87033608D01*
X169183339Y-87016554D01*
X169119692Y-86999500D01*
X168987908Y-86999500D01*
X168860612Y-87033608D01*
X168746486Y-87099500D01*
X168746483Y-87099502D01*
X168682805Y-87163181D01*
X168655877Y-87177884D01*
X168630059Y-87194477D01*
X168623858Y-87195368D01*
X168621482Y-87196666D01*
X168595124Y-87199500D01*
X168395349Y-87199500D01*
X168328310Y-87179815D01*
X168282555Y-87127011D01*
X168272611Y-87057853D01*
X168275574Y-87043407D01*
X168296573Y-86965038D01*
X168296573Y-86833254D01*
X168262465Y-86705960D01*
X168255090Y-86693187D01*
X168253369Y-86690206D01*
X168196573Y-86591832D01*
X168132891Y-86528150D01*
X168099407Y-86466826D01*
X168096573Y-86440469D01*
X168096573Y-82434108D01*
X170499500Y-82434108D01*
X170499500Y-82565892D01*
X170515952Y-82627292D01*
X170533608Y-82693187D01*
X170566554Y-82750250D01*
X170599500Y-82807314D01*
X170692686Y-82900500D01*
X170806814Y-82966392D01*
X170934108Y-83000500D01*
X170934110Y-83000500D01*
X171065890Y-83000500D01*
X171065892Y-83000500D01*
X171193186Y-82966392D01*
X171307314Y-82900500D01*
X171400500Y-82807314D01*
X171466392Y-82693186D01*
X171500500Y-82565892D01*
X171500500Y-82434108D01*
X171466392Y-82306814D01*
X171400500Y-82192686D01*
X171307314Y-82099500D01*
X171250250Y-82066554D01*
X171193187Y-82033608D01*
X171129539Y-82016554D01*
X171065892Y-81999500D01*
X170934108Y-81999500D01*
X170806812Y-82033608D01*
X170692686Y-82099500D01*
X170692683Y-82099502D01*
X170599502Y-82192683D01*
X170599500Y-82192686D01*
X170533608Y-82306812D01*
X170504670Y-82414812D01*
X170499500Y-82434108D01*
X168096573Y-82434108D01*
X168096573Y-79626108D01*
X182999500Y-79626108D01*
X182999500Y-79757891D01*
X183033608Y-79885187D01*
X183033972Y-79885817D01*
X183099500Y-79999314D01*
X183192686Y-80092500D01*
X183306814Y-80158392D01*
X183434108Y-80192500D01*
X183434110Y-80192500D01*
X183565890Y-80192500D01*
X183565892Y-80192500D01*
X183693186Y-80158392D01*
X183807314Y-80092500D01*
X183900500Y-79999314D01*
X183966392Y-79885186D01*
X184000500Y-79757892D01*
X184000500Y-79626108D01*
X183966392Y-79498814D01*
X183900500Y-79384686D01*
X183807314Y-79291500D01*
X183750250Y-79258554D01*
X183693187Y-79225608D01*
X183629539Y-79208554D01*
X183565892Y-79191500D01*
X183434108Y-79191500D01*
X183306812Y-79225608D01*
X183192686Y-79291500D01*
X183192683Y-79291502D01*
X183099502Y-79384683D01*
X183099500Y-79384686D01*
X183033608Y-79498812D01*
X182999500Y-79626108D01*
X168096573Y-79626108D01*
X168096573Y-75689411D01*
X168093986Y-75679757D01*
X168076095Y-75612985D01*
X168036533Y-75544462D01*
X167426179Y-74934108D01*
X174499500Y-74934108D01*
X174499500Y-75065891D01*
X174533608Y-75193187D01*
X174555156Y-75230508D01*
X174599500Y-75307314D01*
X174692686Y-75400500D01*
X174806814Y-75466392D01*
X174934108Y-75500500D01*
X174934110Y-75500500D01*
X175065890Y-75500500D01*
X175065892Y-75500500D01*
X175193186Y-75466392D01*
X175307314Y-75400500D01*
X175400500Y-75307314D01*
X175466392Y-75193186D01*
X175500500Y-75065892D01*
X175500500Y-74934108D01*
X175466392Y-74806814D01*
X175400500Y-74692686D01*
X175307314Y-74599500D01*
X175233624Y-74556955D01*
X175193187Y-74533608D01*
X175104123Y-74509744D01*
X175065892Y-74499500D01*
X174934108Y-74499500D01*
X174806812Y-74533608D01*
X174692686Y-74599500D01*
X174692683Y-74599502D01*
X174599502Y-74692683D01*
X174599500Y-74692686D01*
X174533608Y-74806812D01*
X174499500Y-74934108D01*
X167426179Y-74934108D01*
X159976178Y-67484107D01*
X161499500Y-67484107D01*
X161499500Y-67615891D01*
X161504373Y-67634076D01*
X161533608Y-67743186D01*
X161536771Y-67748664D01*
X161599500Y-67857313D01*
X161692686Y-67950499D01*
X161806814Y-68016391D01*
X161934108Y-68050499D01*
X161934110Y-68050499D01*
X162065890Y-68050499D01*
X162065892Y-68050499D01*
X162193186Y-68016391D01*
X162307314Y-67950499D01*
X162400500Y-67857313D01*
X162466392Y-67743185D01*
X162500500Y-67615891D01*
X162500500Y-67484107D01*
X162466392Y-67356813D01*
X162400500Y-67242685D01*
X162307314Y-67149499D01*
X162250250Y-67116553D01*
X162193187Y-67083607D01*
X162127065Y-67065890D01*
X162065892Y-67049499D01*
X161934108Y-67049499D01*
X161806812Y-67083607D01*
X161692686Y-67149499D01*
X161692683Y-67149501D01*
X161599502Y-67242682D01*
X161599500Y-67242685D01*
X161533608Y-67356811D01*
X161512915Y-67434042D01*
X161499500Y-67484107D01*
X159976178Y-67484107D01*
X158930769Y-66438698D01*
X158897284Y-66377375D01*
X158902268Y-66307683D01*
X158911064Y-66289016D01*
X158963292Y-66198556D01*
X158966392Y-66193186D01*
X159000500Y-66065892D01*
X159000500Y-65934108D01*
X158966392Y-65806814D01*
X158900500Y-65692686D01*
X158807314Y-65599500D01*
X158750250Y-65566554D01*
X158693187Y-65533608D01*
X158629539Y-65516554D01*
X158565892Y-65499500D01*
X158434108Y-65499500D01*
X158306812Y-65533608D01*
X158192686Y-65599500D01*
X158192683Y-65599502D01*
X158099502Y-65692683D01*
X158099500Y-65692686D01*
X158033609Y-65806811D01*
X158033609Y-65806812D01*
X158033608Y-65806814D01*
X158028194Y-65827022D01*
X158025413Y-65837400D01*
X157989047Y-65897060D01*
X157926200Y-65927588D01*
X157856824Y-65919293D01*
X157817957Y-65892986D01*
X156414512Y-64489541D01*
X156414507Y-64489537D01*
X156389637Y-64475179D01*
X156374417Y-64466392D01*
X156374415Y-64466390D01*
X156374415Y-64466391D01*
X156374413Y-64466390D01*
X156368407Y-64462922D01*
X156345990Y-64449979D01*
X156345991Y-64449979D01*
X156305105Y-64439024D01*
X156269562Y-64429500D01*
X156269560Y-64429500D01*
X155458676Y-64429500D01*
X155391637Y-64409815D01*
X155370995Y-64393181D01*
X155307316Y-64329502D01*
X155307314Y-64329500D01*
X155250250Y-64296554D01*
X155193187Y-64263608D01*
X155129539Y-64246554D01*
X155065892Y-64229500D01*
X154934108Y-64229500D01*
X154806812Y-64263608D01*
X154692686Y-64329500D01*
X154692683Y-64329502D01*
X154599502Y-64422683D01*
X154599500Y-64422686D01*
X154533608Y-64536812D01*
X154499500Y-64664108D01*
X154499500Y-64795891D01*
X154533608Y-64923187D01*
X154566554Y-64980250D01*
X154599500Y-65037314D01*
X154692686Y-65130500D01*
X154806814Y-65196392D01*
X154934108Y-65230500D01*
X154934110Y-65230500D01*
X155065890Y-65230500D01*
X155065892Y-65230500D01*
X155193186Y-65196392D01*
X155307314Y-65130500D01*
X155370995Y-65066819D01*
X155432318Y-65033334D01*
X155458676Y-65030500D01*
X156054167Y-65030500D01*
X156121206Y-65050185D01*
X156141848Y-65066819D01*
X158267103Y-67192074D01*
X158300588Y-67253397D01*
X158295604Y-67323089D01*
X158253732Y-67379022D01*
X158188268Y-67403439D01*
X158156963Y-67400451D01*
X158156892Y-67400995D01*
X158148837Y-67399934D01*
X158148836Y-67399934D01*
X158017052Y-67399934D01*
X157889756Y-67434042D01*
X157775630Y-67499934D01*
X157775627Y-67499936D01*
X157698285Y-67577279D01*
X157636962Y-67610764D01*
X157610604Y-67613598D01*
X157282391Y-67613598D01*
X157205963Y-67634076D01*
X157137442Y-67673638D01*
X157137439Y-67673640D01*
X156729437Y-68081642D01*
X156729431Y-68081650D01*
X156689878Y-68150159D01*
X156689875Y-68150164D01*
X156682997Y-68175833D01*
X156669396Y-68226593D01*
X156669396Y-68803603D01*
X156689875Y-68880030D01*
X156694653Y-68888305D01*
X156729436Y-68948552D01*
X156770712Y-68989828D01*
X156776202Y-68997252D01*
X156785170Y-69021737D01*
X156797666Y-69044620D01*
X156799374Y-69060513D01*
X156800234Y-69062859D01*
X156799824Y-69064691D01*
X156800500Y-69070978D01*
X156800500Y-71900763D01*
X156780815Y-71967802D01*
X156728011Y-72013557D01*
X156658853Y-72023501D01*
X156644409Y-72020538D01*
X156565892Y-71999500D01*
X156434108Y-71999500D01*
X156306812Y-72033608D01*
X156192686Y-72099500D01*
X156192683Y-72099502D01*
X156099502Y-72192683D01*
X156099500Y-72192686D01*
X156033608Y-72306812D01*
X156019950Y-72357786D01*
X155999500Y-72434108D01*
X155999500Y-72565892D01*
X156016554Y-72629539D01*
X156033608Y-72693187D01*
X156066554Y-72750250D01*
X156099500Y-72807314D01*
X156192686Y-72900500D01*
X156306814Y-72966392D01*
X156434108Y-73000500D01*
X156434110Y-73000500D01*
X156565889Y-73000500D01*
X156565892Y-73000500D01*
X156644410Y-72979461D01*
X156714256Y-72981124D01*
X156772118Y-73020286D01*
X156799623Y-73084514D01*
X156800500Y-73099236D01*
X156800500Y-81207662D01*
X156810739Y-81245875D01*
X156820979Y-81284091D01*
X156820981Y-81284094D01*
X156837298Y-81312355D01*
X156837300Y-81312357D01*
X156860539Y-81352610D01*
X160163181Y-84655252D01*
X160196666Y-84716575D01*
X160199500Y-84742933D01*
X160199500Y-86541323D01*
X160179815Y-86608362D01*
X160163182Y-86629004D01*
X160099500Y-86692686D01*
X160031887Y-86809794D01*
X159981319Y-86858009D01*
X159912712Y-86871231D01*
X159847848Y-86845263D01*
X159807320Y-86788349D01*
X159800500Y-86747793D01*
X159800500Y-86460439D01*
X159793445Y-86434110D01*
X159780021Y-86384011D01*
X159777495Y-86379636D01*
X159740464Y-86315495D01*
X159740458Y-86315487D01*
X157227451Y-83802480D01*
X157179037Y-83774529D01*
X157158930Y-83762920D01*
X157158927Y-83762919D01*
X157157843Y-83762470D01*
X157155897Y-83761170D01*
X157151893Y-83758858D01*
X157152044Y-83758595D01*
X157117623Y-83735593D01*
X154578293Y-81196263D01*
X154544808Y-81134940D01*
X154541974Y-81108582D01*
X154541974Y-70184108D01*
X155499500Y-70184108D01*
X155499500Y-70315891D01*
X155533608Y-70443187D01*
X155566410Y-70500000D01*
X155599500Y-70557314D01*
X155692686Y-70650500D01*
X155806814Y-70716392D01*
X155934108Y-70750500D01*
X155934110Y-70750500D01*
X156065890Y-70750500D01*
X156065892Y-70750500D01*
X156193186Y-70716392D01*
X156307314Y-70650500D01*
X156400500Y-70557314D01*
X156466392Y-70443186D01*
X156500500Y-70315892D01*
X156500500Y-70184108D01*
X156466392Y-70056814D01*
X156400500Y-69942686D01*
X156307314Y-69849500D01*
X156250250Y-69816554D01*
X156193187Y-69783608D01*
X156129539Y-69766554D01*
X156065892Y-69749500D01*
X155934108Y-69749500D01*
X155806812Y-69783608D01*
X155692686Y-69849500D01*
X155692683Y-69849502D01*
X155599502Y-69942683D01*
X155599500Y-69942686D01*
X155533608Y-70056812D01*
X155499500Y-70184108D01*
X154541974Y-70184108D01*
X154541974Y-66934358D01*
X154561659Y-66867319D01*
X154578289Y-66846681D01*
X154888151Y-66536818D01*
X154949474Y-66503334D01*
X154975832Y-66500500D01*
X155065890Y-66500500D01*
X155065892Y-66500500D01*
X155193186Y-66466392D01*
X155307314Y-66400500D01*
X155400500Y-66307314D01*
X155466392Y-66193186D01*
X155500500Y-66065892D01*
X155500500Y-65934108D01*
X155466392Y-65806814D01*
X155400500Y-65692686D01*
X155307314Y-65599500D01*
X155250250Y-65566554D01*
X155193187Y-65533608D01*
X155129539Y-65516554D01*
X155065892Y-65499500D01*
X154934108Y-65499500D01*
X154806812Y-65533608D01*
X154692686Y-65599500D01*
X154692683Y-65599502D01*
X154599502Y-65692683D01*
X154599500Y-65692686D01*
X154533608Y-65806812D01*
X154499500Y-65934108D01*
X154499500Y-66024166D01*
X154479815Y-66091205D01*
X154463181Y-66111847D01*
X154056963Y-66518066D01*
X154001015Y-66574013D01*
X154001009Y-66574021D01*
X153961456Y-66642530D01*
X153961453Y-66642535D01*
X153940974Y-66718965D01*
X153940974Y-74220290D01*
X153921289Y-74287329D01*
X153868485Y-74333084D01*
X153799327Y-74343028D01*
X153754974Y-74327677D01*
X153703097Y-74297726D01*
X153703094Y-74297725D01*
X153575800Y-74263617D01*
X153444016Y-74263617D01*
X153316720Y-74297725D01*
X153202594Y-74363617D01*
X153202591Y-74363619D01*
X153109410Y-74456800D01*
X153109408Y-74456803D01*
X153043516Y-74570929D01*
X153009408Y-74698225D01*
X153009408Y-74830008D01*
X153043516Y-74957304D01*
X153058773Y-74983729D01*
X153109408Y-75071431D01*
X153202594Y-75164617D01*
X153316722Y-75230509D01*
X153444016Y-75264617D01*
X153444018Y-75264617D01*
X153575798Y-75264617D01*
X153575800Y-75264617D01*
X153703094Y-75230509D01*
X153754974Y-75200555D01*
X153822873Y-75184083D01*
X153888900Y-75206935D01*
X153932091Y-75261856D01*
X153940974Y-75307943D01*
X153940974Y-81323977D01*
X153948647Y-81352611D01*
X153961453Y-81400404D01*
X153966159Y-81408554D01*
X153966161Y-81408562D01*
X153966163Y-81408561D01*
X154001014Y-81468926D01*
X156759540Y-84227452D01*
X156815489Y-84283401D01*
X156815491Y-84283402D01*
X156815495Y-84283405D01*
X156884004Y-84322958D01*
X156884011Y-84322962D01*
X156884018Y-84322964D01*
X156885084Y-84323406D01*
X156887023Y-84324701D01*
X156891049Y-84327026D01*
X156890896Y-84327289D01*
X156925317Y-84350288D01*
X158392986Y-85817957D01*
X158426471Y-85879280D01*
X158421487Y-85948972D01*
X158379615Y-86004905D01*
X158337401Y-86025412D01*
X158306814Y-86033608D01*
X158306813Y-86033608D01*
X158306811Y-86033609D01*
X158192686Y-86099500D01*
X158192683Y-86099502D01*
X158099502Y-86192683D01*
X158099500Y-86192686D01*
X158033608Y-86306812D01*
X157999500Y-86434108D01*
X157999500Y-86563109D01*
X157979815Y-86630148D01*
X157963181Y-86650790D01*
X156950791Y-87663181D01*
X156889468Y-87696666D01*
X156863110Y-87699500D01*
X155187212Y-87699500D01*
X155120173Y-87679815D01*
X155074418Y-87627011D01*
X155063212Y-87575500D01*
X155063212Y-87555249D01*
X155063211Y-87555247D01*
X155051580Y-87496770D01*
X155051579Y-87496769D01*
X155007264Y-87430447D01*
X154940942Y-87386132D01*
X154940941Y-87386131D01*
X154882464Y-87374500D01*
X154882460Y-87374500D01*
X154009020Y-87374500D01*
X153941981Y-87354815D01*
X153896226Y-87302011D01*
X153886282Y-87232853D01*
X153894878Y-87214028D01*
X153892660Y-87191499D01*
X153875857Y-87180271D01*
X153707529Y-87110548D01*
X153707517Y-87110545D01*
X153528821Y-87075000D01*
X153346602Y-87075000D01*
X153167906Y-87110545D01*
X153167898Y-87110547D01*
X152999552Y-87180278D01*
X152996159Y-87182092D01*
X152994178Y-87182504D01*
X152993933Y-87182606D01*
X152993913Y-87182559D01*
X152927756Y-87196331D01*
X152879265Y-87182092D01*
X152875871Y-87180278D01*
X152707525Y-87110547D01*
X152707517Y-87110545D01*
X152528821Y-87075000D01*
X152346602Y-87075000D01*
X152167906Y-87110545D01*
X152167898Y-87110547D01*
X151999560Y-87180274D01*
X151982762Y-87191498D01*
X152526807Y-87735542D01*
X152548515Y-87775298D01*
X152487440Y-87750000D01*
X152387984Y-87750000D01*
X152296098Y-87788060D01*
X152225772Y-87858386D01*
X152187712Y-87950272D01*
X152187712Y-88049728D01*
X152215178Y-88116039D01*
X152173254Y-88089095D01*
X151629210Y-87545050D01*
X151617986Y-87561848D01*
X151548259Y-87730186D01*
X151548257Y-87730194D01*
X151512712Y-87908890D01*
X151512712Y-88091109D01*
X151548257Y-88269805D01*
X151548260Y-88269817D01*
X151617983Y-88438145D01*
X151617990Y-88438158D01*
X151663728Y-88506609D01*
X151684606Y-88573287D01*
X151666122Y-88640667D01*
X151614143Y-88687357D01*
X151560626Y-88699500D01*
X149301036Y-88699500D01*
X149262822Y-88709739D01*
X149224607Y-88719979D01*
X149224602Y-88719982D01*
X149156093Y-88759535D01*
X149156085Y-88759541D01*
X147476847Y-90438779D01*
X147415524Y-90472264D01*
X147389166Y-90475098D01*
X147299108Y-90475098D01*
X147171812Y-90509206D01*
X147057686Y-90575098D01*
X147057683Y-90575100D01*
X146964502Y-90668281D01*
X146964500Y-90668284D01*
X146898608Y-90782410D01*
X146864500Y-90909706D01*
X133766568Y-90909706D01*
X133769252Y-90908834D01*
X133946244Y-90818652D01*
X133970178Y-90801263D01*
X133970179Y-90801262D01*
X133983530Y-90791560D01*
X133420757Y-90228786D01*
X133480896Y-90212673D01*
X133596735Y-90145794D01*
X133691317Y-90051212D01*
X133758196Y-89935373D01*
X133774310Y-89875234D01*
X134337083Y-90438007D01*
X134364177Y-90400717D01*
X134454357Y-90223729D01*
X134515739Y-90034815D01*
X134515739Y-90034812D01*
X134546815Y-89838613D01*
X134546815Y-89639970D01*
X134515739Y-89443771D01*
X134515739Y-89443768D01*
X134454357Y-89254854D01*
X134364173Y-89077859D01*
X134337083Y-89040575D01*
X133774309Y-89603349D01*
X133758196Y-89543211D01*
X133691317Y-89427372D01*
X133596735Y-89332790D01*
X133480896Y-89265911D01*
X133420757Y-89249796D01*
X133983531Y-88687023D01*
X133983530Y-88687022D01*
X133946247Y-88659933D01*
X133788932Y-88579777D01*
X133738136Y-88531802D01*
X133721341Y-88463981D01*
X133743878Y-88397846D01*
X133788932Y-88358807D01*
X133946240Y-88278654D01*
X133983531Y-88251560D01*
X133420757Y-87688786D01*
X133480896Y-87672673D01*
X133596735Y-87605794D01*
X133691317Y-87511212D01*
X133758196Y-87395373D01*
X133774310Y-87335234D01*
X134337083Y-87898007D01*
X134364177Y-87860717D01*
X134454357Y-87683729D01*
X134515739Y-87494815D01*
X134515739Y-87494812D01*
X134546815Y-87298613D01*
X134546815Y-87099970D01*
X134515739Y-86903771D01*
X134515739Y-86903768D01*
X134454357Y-86714854D01*
X134364173Y-86537859D01*
X134337083Y-86500575D01*
X133774309Y-87063349D01*
X133758196Y-87003211D01*
X133691317Y-86887372D01*
X133596735Y-86792790D01*
X133480896Y-86725911D01*
X133420757Y-86709796D01*
X133983531Y-86147023D01*
X133983530Y-86147022D01*
X133946247Y-86119933D01*
X133769252Y-86029749D01*
X133580337Y-85968367D01*
X133384136Y-85937292D01*
X133185494Y-85937292D01*
X132989294Y-85968367D01*
X132989291Y-85968367D01*
X132800377Y-86029749D01*
X132623379Y-86119935D01*
X132586098Y-86147021D01*
X132586097Y-86147022D01*
X133148873Y-86709796D01*
X133088734Y-86725911D01*
X132972895Y-86792790D01*
X132878313Y-86887372D01*
X132811434Y-87003211D01*
X132795319Y-87063349D01*
X132232545Y-86500574D01*
X132232544Y-86500575D01*
X132205458Y-86537856D01*
X132125300Y-86695174D01*
X132077325Y-86745970D01*
X132009504Y-86762765D01*
X131943369Y-86740227D01*
X131904330Y-86695174D01*
X131824173Y-86537859D01*
X131797083Y-86500575D01*
X131234309Y-87063349D01*
X131218196Y-87003211D01*
X131151317Y-86887372D01*
X131056735Y-86792790D01*
X130940896Y-86725911D01*
X130880757Y-86709796D01*
X131443531Y-86147023D01*
X131443530Y-86147022D01*
X131406247Y-86119933D01*
X131229252Y-86029749D01*
X131040337Y-85968367D01*
X130844136Y-85937292D01*
X130645494Y-85937292D01*
X130449294Y-85968367D01*
X130449291Y-85968367D01*
X130260377Y-86029749D01*
X130083379Y-86119935D01*
X130046098Y-86147021D01*
X130046097Y-86147022D01*
X130608873Y-86709796D01*
X130548734Y-86725911D01*
X130432895Y-86792790D01*
X130338313Y-86887372D01*
X130271434Y-87003211D01*
X130255319Y-87063349D01*
X129692545Y-86500574D01*
X129692544Y-86500575D01*
X129665458Y-86537856D01*
X129575272Y-86714854D01*
X129513890Y-86903768D01*
X129513890Y-86903771D01*
X129482815Y-87099970D01*
X129482815Y-87298613D01*
X129513890Y-87494812D01*
X129513890Y-87494815D01*
X129575272Y-87683729D01*
X129665456Y-87860724D01*
X129692545Y-87898007D01*
X129692546Y-87898008D01*
X130255319Y-87335234D01*
X130271434Y-87395373D01*
X130338313Y-87511212D01*
X130432895Y-87605794D01*
X130548734Y-87672673D01*
X130608872Y-87688786D01*
X130046098Y-88251560D01*
X130046098Y-88251561D01*
X130083382Y-88278650D01*
X130240697Y-88358807D01*
X130291493Y-88406782D01*
X130308288Y-88474603D01*
X130285750Y-88540738D01*
X130240697Y-88579777D01*
X130083379Y-88659935D01*
X130046098Y-88687021D01*
X130046097Y-88687022D01*
X130608873Y-89249796D01*
X130548734Y-89265911D01*
X130432895Y-89332790D01*
X130338313Y-89427372D01*
X130271434Y-89543211D01*
X130255319Y-89603350D01*
X129692545Y-89040574D01*
X129692544Y-89040575D01*
X129665458Y-89077856D01*
X129575272Y-89254854D01*
X129513890Y-89443768D01*
X129513890Y-89443771D01*
X129499634Y-89533778D01*
X129469704Y-89596913D01*
X129410393Y-89633844D01*
X129340530Y-89632846D01*
X129282298Y-89594236D01*
X129262600Y-89561833D01*
X129259483Y-89554307D01*
X129076197Y-89111817D01*
X129074607Y-89107775D01*
X128708103Y-88125142D01*
X128706657Y-88121040D01*
X128478025Y-87434110D01*
X128378225Y-87134257D01*
X128378225Y-87134256D01*
X128375495Y-87126056D01*
X128374170Y-87121826D01*
X128348267Y-87033608D01*
X128078721Y-86115618D01*
X128077564Y-86111401D01*
X127818218Y-85095294D01*
X127817203Y-85090998D01*
X127811741Y-85065891D01*
X127702668Y-84564489D01*
X129782315Y-84564489D01*
X129782315Y-84754094D01*
X129819301Y-84940035D01*
X129819303Y-84940043D01*
X129891857Y-85115204D01*
X129997192Y-85272850D01*
X130131256Y-85406914D01*
X130172497Y-85434470D01*
X130288900Y-85512248D01*
X130464064Y-85584804D01*
X130650012Y-85621791D01*
X130650016Y-85621792D01*
X130650017Y-85621792D01*
X130839614Y-85621792D01*
X130839615Y-85621791D01*
X131025566Y-85584804D01*
X131200730Y-85512248D01*
X131358373Y-85406914D01*
X131492437Y-85272850D01*
X131597771Y-85115207D01*
X131670327Y-84940043D01*
X131707315Y-84754090D01*
X131707315Y-84564494D01*
X131707314Y-84564489D01*
X132322315Y-84564489D01*
X132322315Y-84754094D01*
X132359301Y-84940035D01*
X132359303Y-84940043D01*
X132431857Y-85115204D01*
X132537192Y-85272850D01*
X132671256Y-85406914D01*
X132712497Y-85434470D01*
X132828900Y-85512248D01*
X133004064Y-85584804D01*
X133190012Y-85621791D01*
X133190016Y-85621792D01*
X133190017Y-85621792D01*
X133379614Y-85621792D01*
X133379615Y-85621791D01*
X133565566Y-85584804D01*
X133740730Y-85512248D01*
X133857674Y-85434108D01*
X152999500Y-85434108D01*
X152999500Y-85565892D01*
X153004568Y-85584805D01*
X153033608Y-85693187D01*
X153066554Y-85750250D01*
X153099500Y-85807314D01*
X153192686Y-85900500D01*
X153306814Y-85966392D01*
X153434108Y-86000500D01*
X153434110Y-86000500D01*
X153565890Y-86000500D01*
X153565892Y-86000500D01*
X153693186Y-85966392D01*
X153807314Y-85900500D01*
X153900500Y-85807314D01*
X153966392Y-85693186D01*
X154000500Y-85565892D01*
X154000500Y-85434108D01*
X153966392Y-85306814D01*
X153900500Y-85192686D01*
X153807314Y-85099500D01*
X153749100Y-85065890D01*
X153693187Y-85033608D01*
X153629539Y-85016554D01*
X153565892Y-84999500D01*
X153434108Y-84999500D01*
X153306812Y-85033608D01*
X153192686Y-85099500D01*
X153192683Y-85099502D01*
X153099502Y-85192683D01*
X153099500Y-85192686D01*
X153033608Y-85306812D01*
X153006103Y-85409466D01*
X152999500Y-85434108D01*
X133857674Y-85434108D01*
X133898373Y-85406914D01*
X133932140Y-85373147D01*
X133966988Y-85338300D01*
X134032434Y-85272853D01*
X134032437Y-85272850D01*
X134050755Y-85245435D01*
X134137771Y-85115207D01*
X134210327Y-84940043D01*
X134247315Y-84754090D01*
X134247315Y-84564494D01*
X134210327Y-84378541D01*
X134137771Y-84203377D01*
X134044745Y-84064154D01*
X134032437Y-84045733D01*
X133898373Y-83911669D01*
X133740727Y-83806334D01*
X133565566Y-83733780D01*
X133565558Y-83733778D01*
X133379617Y-83696792D01*
X133379613Y-83696792D01*
X133190017Y-83696792D01*
X133190012Y-83696792D01*
X133004071Y-83733778D01*
X133004063Y-83733780D01*
X132828902Y-83806334D01*
X132671256Y-83911669D01*
X132537192Y-84045733D01*
X132431857Y-84203379D01*
X132359303Y-84378540D01*
X132359301Y-84378548D01*
X132322315Y-84564489D01*
X131707314Y-84564489D01*
X131670327Y-84378541D01*
X131597771Y-84203377D01*
X131504745Y-84064154D01*
X131492437Y-84045733D01*
X131358373Y-83911669D01*
X131200727Y-83806334D01*
X131025566Y-83733780D01*
X131025558Y-83733778D01*
X130839617Y-83696792D01*
X130839613Y-83696792D01*
X130650017Y-83696792D01*
X130650012Y-83696792D01*
X130464071Y-83733778D01*
X130464063Y-83733780D01*
X130288902Y-83806334D01*
X130131256Y-83911669D01*
X129997192Y-84045733D01*
X129891857Y-84203379D01*
X129819303Y-84378540D01*
X129819301Y-84378548D01*
X129782315Y-84564489D01*
X127702668Y-84564489D01*
X127695950Y-84533608D01*
X127651240Y-84328079D01*
X127594296Y-84066310D01*
X127593436Y-84061989D01*
X127590503Y-84045734D01*
X127407239Y-83029973D01*
X127406534Y-83025616D01*
X127376684Y-82818007D01*
X127261944Y-82019970D01*
X129482815Y-82019970D01*
X129482815Y-82218613D01*
X129513890Y-82414812D01*
X129513890Y-82414815D01*
X129575272Y-82603729D01*
X129665456Y-82780724D01*
X129692545Y-82818007D01*
X129692546Y-82818008D01*
X130255319Y-82255234D01*
X130271434Y-82315373D01*
X130338313Y-82431212D01*
X130432895Y-82525794D01*
X130548734Y-82592673D01*
X130608872Y-82608786D01*
X130046098Y-83171560D01*
X130046098Y-83171561D01*
X130083382Y-83198650D01*
X130260377Y-83288834D01*
X130449292Y-83350216D01*
X130645494Y-83381292D01*
X130844136Y-83381292D01*
X131040335Y-83350216D01*
X131040338Y-83350216D01*
X131229252Y-83288834D01*
X131406240Y-83198654D01*
X131443531Y-83171560D01*
X130880757Y-82608786D01*
X130940896Y-82592673D01*
X131056735Y-82525794D01*
X131151317Y-82431212D01*
X131218196Y-82315373D01*
X131234310Y-82255234D01*
X131797083Y-82818007D01*
X131824177Y-82780717D01*
X131904330Y-82623409D01*
X131952304Y-82572613D01*
X132020125Y-82555818D01*
X132086260Y-82578355D01*
X132125300Y-82623409D01*
X132205456Y-82780724D01*
X132232545Y-82818007D01*
X132232546Y-82818008D01*
X132795319Y-82255234D01*
X132811434Y-82315373D01*
X132878313Y-82431212D01*
X132972895Y-82525794D01*
X133088734Y-82592673D01*
X133148872Y-82608786D01*
X132586098Y-83171560D01*
X132586098Y-83171561D01*
X132623382Y-83198650D01*
X132800377Y-83288834D01*
X132989292Y-83350216D01*
X133185494Y-83381292D01*
X133384136Y-83381292D01*
X133580335Y-83350216D01*
X133580338Y-83350216D01*
X133769252Y-83288834D01*
X133946240Y-83198654D01*
X133983531Y-83171560D01*
X133420757Y-82608786D01*
X133480896Y-82592673D01*
X133596735Y-82525794D01*
X133691317Y-82431212D01*
X133758196Y-82315373D01*
X133774310Y-82255234D01*
X134337083Y-82818007D01*
X134364177Y-82780717D01*
X134454357Y-82603729D01*
X134515739Y-82414815D01*
X134515739Y-82414812D01*
X134546815Y-82218613D01*
X134546815Y-82019970D01*
X134515739Y-81823771D01*
X134515739Y-81823768D01*
X134454357Y-81634854D01*
X134364173Y-81457859D01*
X134337083Y-81420575D01*
X133774309Y-81983349D01*
X133758196Y-81923211D01*
X133691317Y-81807372D01*
X133596735Y-81712790D01*
X133480896Y-81645911D01*
X133420757Y-81629796D01*
X133983531Y-81067023D01*
X133983530Y-81067022D01*
X133946247Y-81039933D01*
X133769252Y-80949749D01*
X133580337Y-80888367D01*
X133384136Y-80857292D01*
X133185494Y-80857292D01*
X132989294Y-80888367D01*
X132989291Y-80888367D01*
X132800377Y-80949749D01*
X132623379Y-81039935D01*
X132586098Y-81067021D01*
X132586097Y-81067022D01*
X133148873Y-81629796D01*
X133088734Y-81645911D01*
X132972895Y-81712790D01*
X132878313Y-81807372D01*
X132811434Y-81923211D01*
X132795319Y-81983349D01*
X132232545Y-81420574D01*
X132232544Y-81420575D01*
X132205458Y-81457856D01*
X132125300Y-81615174D01*
X132077325Y-81665970D01*
X132009504Y-81682765D01*
X131943369Y-81660227D01*
X131904330Y-81615174D01*
X131824173Y-81457859D01*
X131797083Y-81420575D01*
X131234309Y-81983349D01*
X131218196Y-81923211D01*
X131151317Y-81807372D01*
X131056735Y-81712790D01*
X130940896Y-81645911D01*
X130880757Y-81629796D01*
X131443531Y-81067023D01*
X131443530Y-81067022D01*
X131406247Y-81039933D01*
X131229252Y-80949749D01*
X131040337Y-80888367D01*
X130844136Y-80857292D01*
X130645494Y-80857292D01*
X130449294Y-80888367D01*
X130449291Y-80888367D01*
X130260377Y-80949749D01*
X130083379Y-81039935D01*
X130046098Y-81067021D01*
X130046097Y-81067022D01*
X130608873Y-81629796D01*
X130548734Y-81645911D01*
X130432895Y-81712790D01*
X130338313Y-81807372D01*
X130271434Y-81923211D01*
X130255319Y-81983349D01*
X129692545Y-81420574D01*
X129692544Y-81420575D01*
X129665458Y-81457856D01*
X129575272Y-81634854D01*
X129513890Y-81823768D01*
X129513890Y-81823771D01*
X129482815Y-82019970D01*
X127261944Y-82019970D01*
X127257294Y-81987632D01*
X127256746Y-81983265D01*
X127239599Y-81823771D01*
X127145632Y-80949749D01*
X127144649Y-80940602D01*
X127144258Y-80936244D01*
X127069445Y-79890233D01*
X127069209Y-79885817D01*
X127054875Y-79484489D01*
X129782315Y-79484489D01*
X129782315Y-79674094D01*
X129819301Y-79860035D01*
X129819303Y-79860043D01*
X129891857Y-80035204D01*
X129997192Y-80192850D01*
X130131256Y-80326914D01*
X130236115Y-80396978D01*
X130288900Y-80432248D01*
X130464064Y-80504804D01*
X130650012Y-80541791D01*
X130650016Y-80541792D01*
X130650017Y-80541792D01*
X130839614Y-80541792D01*
X130839615Y-80541791D01*
X131025566Y-80504804D01*
X131200730Y-80432248D01*
X131358373Y-80326914D01*
X131492437Y-80192850D01*
X131597771Y-80035207D01*
X131670327Y-79860043D01*
X131707315Y-79674090D01*
X131707315Y-79484494D01*
X131707314Y-79484489D01*
X132322315Y-79484489D01*
X132322315Y-79674094D01*
X132359301Y-79860035D01*
X132359303Y-79860043D01*
X132431857Y-80035204D01*
X132537192Y-80192850D01*
X132671256Y-80326914D01*
X132776115Y-80396978D01*
X132828900Y-80432248D01*
X133004064Y-80504804D01*
X133190012Y-80541791D01*
X133190016Y-80541792D01*
X133190017Y-80541792D01*
X133379614Y-80541792D01*
X133379615Y-80541791D01*
X133565566Y-80504804D01*
X133740730Y-80432248D01*
X133898373Y-80326914D01*
X134032437Y-80192850D01*
X134137771Y-80035207D01*
X134210327Y-79860043D01*
X134247315Y-79674090D01*
X134247315Y-79484494D01*
X134210327Y-79298541D01*
X134137771Y-79123377D01*
X134099359Y-79065890D01*
X134032437Y-78965733D01*
X133898373Y-78831669D01*
X133740727Y-78726334D01*
X133565566Y-78653780D01*
X133565558Y-78653778D01*
X133379617Y-78616792D01*
X133379613Y-78616792D01*
X133190017Y-78616792D01*
X133190012Y-78616792D01*
X133004071Y-78653778D01*
X133004063Y-78653780D01*
X132828902Y-78726334D01*
X132671256Y-78831669D01*
X132537192Y-78965733D01*
X132431857Y-79123379D01*
X132359303Y-79298540D01*
X132359301Y-79298548D01*
X132322315Y-79484489D01*
X131707314Y-79484489D01*
X131670327Y-79298541D01*
X131597771Y-79123377D01*
X131559359Y-79065890D01*
X131492437Y-78965733D01*
X131358373Y-78831669D01*
X131200727Y-78726334D01*
X131025566Y-78653780D01*
X131025558Y-78653778D01*
X130839617Y-78616792D01*
X130839613Y-78616792D01*
X130650017Y-78616792D01*
X130650012Y-78616792D01*
X130464071Y-78653778D01*
X130464063Y-78653780D01*
X130288902Y-78726334D01*
X130131256Y-78831669D01*
X129997192Y-78965733D01*
X129891857Y-79123379D01*
X129819303Y-79298540D01*
X129819301Y-79298548D01*
X129782315Y-79484489D01*
X127054875Y-79484489D01*
X127031780Y-78837835D01*
X127031701Y-78833409D01*
X127031701Y-77784764D01*
X127031780Y-77780338D01*
X127054861Y-77134090D01*
X127061633Y-76944489D01*
X129782315Y-76944489D01*
X129782315Y-77134094D01*
X129819301Y-77320035D01*
X129819303Y-77320043D01*
X129891857Y-77495204D01*
X129997192Y-77652850D01*
X130131256Y-77786914D01*
X130236115Y-77856978D01*
X130288900Y-77892248D01*
X130464064Y-77964804D01*
X130650012Y-78001791D01*
X130650016Y-78001792D01*
X130650017Y-78001792D01*
X130839614Y-78001792D01*
X130839615Y-78001791D01*
X131025566Y-77964804D01*
X131200730Y-77892248D01*
X131358373Y-77786914D01*
X131492437Y-77652850D01*
X131597771Y-77495207D01*
X131670327Y-77320043D01*
X131707315Y-77134090D01*
X131707315Y-76944494D01*
X131707314Y-76944489D01*
X132322315Y-76944489D01*
X132322315Y-77134094D01*
X132359301Y-77320035D01*
X132359303Y-77320043D01*
X132431857Y-77495204D01*
X132537192Y-77652850D01*
X132671256Y-77786914D01*
X132776115Y-77856978D01*
X132828900Y-77892248D01*
X133004064Y-77964804D01*
X133190012Y-78001791D01*
X133190016Y-78001792D01*
X133190017Y-78001792D01*
X133379614Y-78001792D01*
X133379615Y-78001791D01*
X133565566Y-77964804D01*
X133740730Y-77892248D01*
X133898373Y-77786914D01*
X134032437Y-77652850D01*
X134137771Y-77495207D01*
X134210327Y-77320043D01*
X134247315Y-77134090D01*
X134247315Y-76944494D01*
X134210327Y-76758541D01*
X134137771Y-76583377D01*
X134102501Y-76530592D01*
X134032437Y-76425733D01*
X133898373Y-76291669D01*
X133740727Y-76186334D01*
X133565566Y-76113780D01*
X133565558Y-76113778D01*
X133379617Y-76076792D01*
X133379613Y-76076792D01*
X133190017Y-76076792D01*
X133190012Y-76076792D01*
X133004071Y-76113778D01*
X133004063Y-76113780D01*
X132828902Y-76186334D01*
X132671256Y-76291669D01*
X132537192Y-76425733D01*
X132431857Y-76583379D01*
X132359303Y-76758540D01*
X132359301Y-76758548D01*
X132322315Y-76944489D01*
X131707314Y-76944489D01*
X131670327Y-76758541D01*
X131597771Y-76583377D01*
X131562501Y-76530592D01*
X131492437Y-76425733D01*
X131358373Y-76291669D01*
X131200727Y-76186334D01*
X131025566Y-76113780D01*
X131025558Y-76113778D01*
X130839617Y-76076792D01*
X130839613Y-76076792D01*
X130650017Y-76076792D01*
X130650012Y-76076792D01*
X130464071Y-76113778D01*
X130464063Y-76113780D01*
X130288902Y-76186334D01*
X130131256Y-76291669D01*
X129997192Y-76425733D01*
X129891857Y-76583379D01*
X129819303Y-76758540D01*
X129819301Y-76758548D01*
X129782315Y-76944489D01*
X127061633Y-76944489D01*
X127069209Y-76732350D01*
X127069446Y-76727936D01*
X127144258Y-75681924D01*
X127144649Y-75677571D01*
X127158196Y-75551561D01*
X127256749Y-74634883D01*
X127257298Y-74630516D01*
X127290445Y-74399970D01*
X129482815Y-74399970D01*
X129482815Y-74598613D01*
X129513890Y-74794812D01*
X129513890Y-74794815D01*
X129575272Y-74983729D01*
X129665456Y-75160724D01*
X129692545Y-75198007D01*
X129692546Y-75198008D01*
X130255319Y-74635234D01*
X130271434Y-74695373D01*
X130338313Y-74811212D01*
X130432895Y-74905794D01*
X130548734Y-74972673D01*
X130608872Y-74988786D01*
X130046098Y-75551560D01*
X130046098Y-75551561D01*
X130083382Y-75578650D01*
X130260377Y-75668834D01*
X130449292Y-75730216D01*
X130645494Y-75761292D01*
X130844136Y-75761292D01*
X131040335Y-75730216D01*
X131040338Y-75730216D01*
X131229252Y-75668834D01*
X131406240Y-75578654D01*
X131443531Y-75551560D01*
X130880757Y-74988786D01*
X130940896Y-74972673D01*
X131056735Y-74905794D01*
X131151317Y-74811212D01*
X131218196Y-74695373D01*
X131234310Y-74635234D01*
X131797083Y-75198007D01*
X131824177Y-75160717D01*
X131904330Y-75003409D01*
X131952304Y-74952613D01*
X132020125Y-74935818D01*
X132086260Y-74958355D01*
X132125300Y-75003409D01*
X132205456Y-75160724D01*
X132232545Y-75198007D01*
X132232546Y-75198008D01*
X132795319Y-74635234D01*
X132811434Y-74695373D01*
X132878313Y-74811212D01*
X132972895Y-74905794D01*
X133088734Y-74972673D01*
X133148872Y-74988786D01*
X132586098Y-75551560D01*
X132586098Y-75551561D01*
X132623382Y-75578650D01*
X132800377Y-75668834D01*
X132989292Y-75730216D01*
X133185494Y-75761292D01*
X133384136Y-75761292D01*
X133580335Y-75730216D01*
X133580338Y-75730216D01*
X133769252Y-75668834D01*
X133946240Y-75578654D01*
X133983531Y-75551560D01*
X133420757Y-74988786D01*
X133480896Y-74972673D01*
X133596735Y-74905794D01*
X133691317Y-74811212D01*
X133758196Y-74695373D01*
X133774310Y-74635234D01*
X134337083Y-75198007D01*
X134364177Y-75160717D01*
X134446067Y-75000000D01*
X149000000Y-75000000D01*
X149376000Y-75000000D01*
X149443039Y-75019685D01*
X149488794Y-75072489D01*
X149500000Y-75124000D01*
X149500000Y-77500000D01*
X150510000Y-77500000D01*
X150510000Y-74000000D01*
X149000000Y-74000000D01*
X149000000Y-75000000D01*
X134446067Y-75000000D01*
X134454357Y-74983729D01*
X134515739Y-74794815D01*
X134515739Y-74794812D01*
X134546815Y-74598613D01*
X134546815Y-74399970D01*
X134515739Y-74203771D01*
X134515739Y-74203768D01*
X134454356Y-74014852D01*
X134454357Y-74014852D01*
X134449303Y-74004934D01*
X134449302Y-74004933D01*
X134364173Y-73837859D01*
X134337083Y-73800575D01*
X133774309Y-74363349D01*
X133758196Y-74303211D01*
X133691317Y-74187372D01*
X133596735Y-74092790D01*
X133480896Y-74025911D01*
X133420757Y-74009796D01*
X133983531Y-73447023D01*
X133983530Y-73447022D01*
X133946247Y-73419933D01*
X133769252Y-73329749D01*
X133580337Y-73268367D01*
X133384136Y-73237292D01*
X133185494Y-73237292D01*
X132989294Y-73268367D01*
X132989291Y-73268367D01*
X132800377Y-73329749D01*
X132623379Y-73419935D01*
X132586098Y-73447021D01*
X132586097Y-73447022D01*
X133148873Y-74009796D01*
X133088734Y-74025911D01*
X132972895Y-74092790D01*
X132878313Y-74187372D01*
X132811434Y-74303211D01*
X132795319Y-74363349D01*
X132232545Y-73800574D01*
X132232544Y-73800575D01*
X132205458Y-73837856D01*
X132125300Y-73995174D01*
X132077325Y-74045970D01*
X132009504Y-74062765D01*
X131943369Y-74040227D01*
X131904330Y-73995174D01*
X131824173Y-73837859D01*
X131797083Y-73800575D01*
X131234309Y-74363349D01*
X131218196Y-74303211D01*
X131151317Y-74187372D01*
X131056735Y-74092790D01*
X130940896Y-74025911D01*
X130880757Y-74009796D01*
X131443531Y-73447023D01*
X131443530Y-73447022D01*
X131406247Y-73419933D01*
X131229252Y-73329749D01*
X131040337Y-73268367D01*
X130844136Y-73237292D01*
X130645494Y-73237292D01*
X130449294Y-73268367D01*
X130449291Y-73268367D01*
X130260377Y-73329749D01*
X130083379Y-73419935D01*
X130046098Y-73447021D01*
X130046097Y-73447022D01*
X130608873Y-74009796D01*
X130548734Y-74025911D01*
X130432895Y-74092790D01*
X130338313Y-74187372D01*
X130271434Y-74303211D01*
X130255319Y-74363349D01*
X129692545Y-73800574D01*
X129692544Y-73800575D01*
X129665458Y-73837856D01*
X129575272Y-74014854D01*
X129513890Y-74203768D01*
X129513890Y-74203771D01*
X129482815Y-74399970D01*
X127290445Y-74399970D01*
X127406537Y-73592534D01*
X127407242Y-73588187D01*
X127417090Y-73533608D01*
X127593442Y-72556153D01*
X127594293Y-72551874D01*
X127743824Y-71864489D01*
X129782315Y-71864489D01*
X129782315Y-72054094D01*
X129819301Y-72240035D01*
X129819303Y-72240043D01*
X129891857Y-72415204D01*
X129997192Y-72572850D01*
X130131256Y-72706914D01*
X130236115Y-72776978D01*
X130288900Y-72812248D01*
X130464064Y-72884804D01*
X130650012Y-72921791D01*
X130650016Y-72921792D01*
X130650017Y-72921792D01*
X130839614Y-72921792D01*
X130839615Y-72921791D01*
X131025566Y-72884804D01*
X131200730Y-72812248D01*
X131358373Y-72706914D01*
X131492437Y-72572850D01*
X131597771Y-72415207D01*
X131670327Y-72240043D01*
X131707315Y-72054090D01*
X131707315Y-71864494D01*
X131707314Y-71864489D01*
X132322315Y-71864489D01*
X132322315Y-72054094D01*
X132359301Y-72240035D01*
X132359303Y-72240043D01*
X132431857Y-72415204D01*
X132537192Y-72572850D01*
X132671256Y-72706914D01*
X132776115Y-72776978D01*
X132828900Y-72812248D01*
X133004064Y-72884804D01*
X133190012Y-72921791D01*
X133190016Y-72921792D01*
X133190017Y-72921792D01*
X133379614Y-72921792D01*
X133379615Y-72921791D01*
X133565566Y-72884804D01*
X133740730Y-72812248D01*
X133898373Y-72706914D01*
X134032437Y-72572850D01*
X134137771Y-72415207D01*
X134210327Y-72240043D01*
X134247315Y-72054090D01*
X134247315Y-72000000D01*
X151500000Y-72000000D01*
X151500000Y-73000000D01*
X153000000Y-73000000D01*
X153000000Y-70500000D01*
X152000000Y-70500000D01*
X152000000Y-71876000D01*
X151980315Y-71943039D01*
X151927511Y-71988794D01*
X151876000Y-72000000D01*
X151500000Y-72000000D01*
X134247315Y-72000000D01*
X134247315Y-71864494D01*
X134210327Y-71678541D01*
X134137771Y-71503377D01*
X134102501Y-71450592D01*
X134032437Y-71345733D01*
X133898373Y-71211669D01*
X133740727Y-71106334D01*
X133565566Y-71033780D01*
X133565558Y-71033778D01*
X133379617Y-70996792D01*
X133379613Y-70996792D01*
X133190017Y-70996792D01*
X133190012Y-70996792D01*
X133004071Y-71033778D01*
X133004063Y-71033780D01*
X132828902Y-71106334D01*
X132671256Y-71211669D01*
X132537192Y-71345733D01*
X132431857Y-71503379D01*
X132359303Y-71678540D01*
X132359301Y-71678548D01*
X132322315Y-71864489D01*
X131707314Y-71864489D01*
X131670327Y-71678541D01*
X131597771Y-71503377D01*
X131562501Y-71450592D01*
X131492437Y-71345733D01*
X131358373Y-71211669D01*
X131200727Y-71106334D01*
X131025566Y-71033780D01*
X131025558Y-71033778D01*
X130839617Y-70996792D01*
X130839613Y-70996792D01*
X130650017Y-70996792D01*
X130650012Y-70996792D01*
X130464071Y-71033778D01*
X130464063Y-71033780D01*
X130288902Y-71106334D01*
X130131256Y-71211669D01*
X129997192Y-71345733D01*
X129891857Y-71503379D01*
X129819303Y-71678540D01*
X129819301Y-71678548D01*
X129782315Y-71864489D01*
X127743824Y-71864489D01*
X127817208Y-71527150D01*
X127818221Y-71522867D01*
X127823196Y-71503377D01*
X128077567Y-70506758D01*
X128078716Y-70502569D01*
X128374174Y-69496333D01*
X128375493Y-69492123D01*
X128414299Y-69375529D01*
X128431287Y-69324489D01*
X129782315Y-69324489D01*
X129782315Y-69514094D01*
X129819301Y-69700035D01*
X129819303Y-69700043D01*
X129891857Y-69875204D01*
X129997192Y-70032850D01*
X130131256Y-70166914D01*
X130236115Y-70236978D01*
X130288900Y-70272248D01*
X130464064Y-70344804D01*
X130650012Y-70381791D01*
X130650016Y-70381792D01*
X130650017Y-70381792D01*
X130839614Y-70381792D01*
X130839615Y-70381791D01*
X131025566Y-70344804D01*
X131200730Y-70272248D01*
X131358373Y-70166914D01*
X131492437Y-70032850D01*
X131597771Y-69875207D01*
X131670327Y-69700043D01*
X131707315Y-69514090D01*
X131707315Y-69324494D01*
X131707314Y-69324489D01*
X132322315Y-69324489D01*
X132322315Y-69514094D01*
X132359301Y-69700035D01*
X132359303Y-69700043D01*
X132431857Y-69875204D01*
X132537192Y-70032850D01*
X132671256Y-70166914D01*
X132776115Y-70236978D01*
X132828900Y-70272248D01*
X133004064Y-70344804D01*
X133190012Y-70381791D01*
X133190016Y-70381792D01*
X133190017Y-70381792D01*
X133379614Y-70381792D01*
X133379615Y-70381791D01*
X133565566Y-70344804D01*
X133740730Y-70272248D01*
X133898373Y-70166914D01*
X134032437Y-70032850D01*
X134137771Y-69875207D01*
X134210327Y-69700043D01*
X134247315Y-69514090D01*
X134247315Y-69324494D01*
X134210327Y-69138541D01*
X134151803Y-68997252D01*
X134137772Y-68963379D01*
X134032437Y-68805733D01*
X133898373Y-68671669D01*
X133740727Y-68566334D01*
X133565566Y-68493780D01*
X133565558Y-68493778D01*
X133379617Y-68456792D01*
X133379613Y-68456792D01*
X133190017Y-68456792D01*
X133190012Y-68456792D01*
X133004071Y-68493778D01*
X133004063Y-68493780D01*
X132828902Y-68566334D01*
X132671256Y-68671669D01*
X132537192Y-68805733D01*
X132431857Y-68963379D01*
X132359303Y-69138540D01*
X132359301Y-69138548D01*
X132322315Y-69324489D01*
X131707314Y-69324489D01*
X131670327Y-69138541D01*
X131611803Y-68997252D01*
X131597772Y-68963379D01*
X131492437Y-68805733D01*
X131358373Y-68671669D01*
X131200727Y-68566334D01*
X131025566Y-68493780D01*
X131025558Y-68493778D01*
X130839617Y-68456792D01*
X130839613Y-68456792D01*
X130650017Y-68456792D01*
X130650012Y-68456792D01*
X130464071Y-68493778D01*
X130464063Y-68493780D01*
X130288902Y-68566334D01*
X130131256Y-68671669D01*
X129997192Y-68805733D01*
X129891857Y-68963379D01*
X129819303Y-69138540D01*
X129819301Y-69138548D01*
X129782315Y-69324489D01*
X128431287Y-69324489D01*
X128706663Y-68497116D01*
X128708096Y-68493049D01*
X129074614Y-67510379D01*
X129076190Y-67506375D01*
X129244254Y-67100631D01*
X129288095Y-67046229D01*
X129354389Y-67024164D01*
X129422089Y-67041443D01*
X129469699Y-67092581D01*
X129482815Y-67148085D01*
X129482815Y-67689136D01*
X129489216Y-67748664D01*
X129489218Y-67748671D01*
X129539460Y-67883378D01*
X129539464Y-67883385D01*
X129625624Y-67998479D01*
X129625627Y-67998482D01*
X129740721Y-68084642D01*
X129740728Y-68084646D01*
X129875435Y-68134888D01*
X129875442Y-68134890D01*
X129934970Y-68141291D01*
X129934987Y-68141292D01*
X130494815Y-68141292D01*
X130494815Y-67321543D01*
X130548734Y-67352673D01*
X130677935Y-67387292D01*
X130811695Y-67387292D01*
X130940896Y-67352673D01*
X130994815Y-67321543D01*
X130994815Y-68141292D01*
X131554643Y-68141292D01*
X131554659Y-68141291D01*
X131614187Y-68134890D01*
X131614194Y-68134888D01*
X131748901Y-68084646D01*
X131748908Y-68084642D01*
X131864002Y-67998482D01*
X131864005Y-67998479D01*
X131950165Y-67883385D01*
X131950170Y-67883376D01*
X131962661Y-67849885D01*
X132009382Y-67623849D01*
X132020086Y-67603753D01*
X132026500Y-67581910D01*
X132036196Y-67573508D01*
X132042229Y-67562182D01*
X132062099Y-67551062D01*
X132079304Y-67536155D01*
X132092003Y-67534328D01*
X132103201Y-67528063D01*
X132125925Y-67529451D01*
X132148462Y-67526211D01*
X132160134Y-67531541D01*
X132172941Y-67532324D01*
X132191306Y-67545777D01*
X132212018Y-67555236D01*
X132228019Y-67572670D01*
X132229306Y-67573613D01*
X132229610Y-67574404D01*
X132231133Y-67576063D01*
X132232546Y-67578007D01*
X132795319Y-67015233D01*
X132811434Y-67075373D01*
X132878313Y-67191212D01*
X132972895Y-67285794D01*
X133088734Y-67352673D01*
X133148872Y-67368786D01*
X132586098Y-67931560D01*
X132586098Y-67931561D01*
X132623382Y-67958650D01*
X132800377Y-68048834D01*
X132989292Y-68110216D01*
X133185494Y-68141292D01*
X133384136Y-68141292D01*
X133580335Y-68110216D01*
X133580338Y-68110216D01*
X133769252Y-68048834D01*
X133946240Y-67958654D01*
X133983531Y-67931560D01*
X133420757Y-67368786D01*
X133480896Y-67352673D01*
X133596735Y-67285794D01*
X133691317Y-67191212D01*
X133758196Y-67075373D01*
X133774310Y-67015234D01*
X134337083Y-67578007D01*
X134364177Y-67540717D01*
X134454357Y-67363729D01*
X134515739Y-67174815D01*
X134515739Y-67174812D01*
X134546815Y-66978613D01*
X134546815Y-66934108D01*
X147871399Y-66934108D01*
X147871399Y-67065892D01*
X147888453Y-67129539D01*
X147905507Y-67193187D01*
X147928404Y-67232845D01*
X147971399Y-67307314D01*
X148064585Y-67400500D01*
X148178713Y-67466392D01*
X148306007Y-67500500D01*
X148306009Y-67500500D01*
X148437789Y-67500500D01*
X148437791Y-67500500D01*
X148565085Y-67466392D01*
X148679213Y-67400500D01*
X148772399Y-67307314D01*
X148838291Y-67193186D01*
X148872399Y-67065892D01*
X148872399Y-66934108D01*
X148838291Y-66806814D01*
X148772399Y-66692686D01*
X148679213Y-66599500D01*
X148622149Y-66566554D01*
X148565086Y-66533608D01*
X148501438Y-66516554D01*
X148437791Y-66499500D01*
X148306007Y-66499500D01*
X148178711Y-66533608D01*
X148064585Y-66599500D01*
X148064582Y-66599502D01*
X147971401Y-66692683D01*
X147971399Y-66692686D01*
X147905507Y-66806812D01*
X147889295Y-66867319D01*
X147871399Y-66934108D01*
X134546815Y-66934108D01*
X134546815Y-66779970D01*
X134515739Y-66583771D01*
X134515739Y-66583768D01*
X134454357Y-66394854D01*
X134364173Y-66217859D01*
X134337083Y-66180575D01*
X133774309Y-66743349D01*
X133758196Y-66683211D01*
X133691317Y-66567372D01*
X133596735Y-66472790D01*
X133480896Y-66405911D01*
X133420757Y-66389796D01*
X133983531Y-65827023D01*
X133983530Y-65827022D01*
X133946247Y-65799933D01*
X133769252Y-65709749D01*
X133580337Y-65648367D01*
X133384136Y-65617292D01*
X133185494Y-65617292D01*
X132989294Y-65648367D01*
X132989291Y-65648367D01*
X132800377Y-65709749D01*
X132623379Y-65799935D01*
X132586098Y-65827021D01*
X132586097Y-65827022D01*
X133148873Y-66389796D01*
X133088734Y-66405911D01*
X132972895Y-66472790D01*
X132878313Y-66567372D01*
X132811434Y-66683211D01*
X132795319Y-66743349D01*
X132232545Y-66180574D01*
X132232543Y-66180575D01*
X132231133Y-66182517D01*
X132175803Y-66225183D01*
X132106190Y-66231162D01*
X132044395Y-66198556D01*
X132010038Y-66137718D01*
X132009382Y-66134732D01*
X131962662Y-65908700D01*
X131950169Y-65875205D01*
X131950165Y-65875198D01*
X131864005Y-65760104D01*
X131864002Y-65760101D01*
X131748908Y-65673941D01*
X131748901Y-65673937D01*
X131614194Y-65623695D01*
X131614187Y-65623693D01*
X131554659Y-65617292D01*
X130994815Y-65617292D01*
X130994815Y-66437040D01*
X130940896Y-66405911D01*
X130811695Y-66371292D01*
X130677935Y-66371292D01*
X130548734Y-66405911D01*
X130494815Y-66437040D01*
X130494815Y-65617292D01*
X130096663Y-65617292D01*
X130029624Y-65597607D01*
X129983869Y-65544803D01*
X129973925Y-65475645D01*
X129985779Y-65437788D01*
X130386207Y-64637834D01*
X130388259Y-64633911D01*
X130441278Y-64536814D01*
X130890832Y-63713518D01*
X130892975Y-63709752D01*
X131428124Y-62807808D01*
X131430443Y-62804057D01*
X131997360Y-61921916D01*
X131999819Y-61918235D01*
X132523216Y-61164399D01*
X136455439Y-61164399D01*
X136455439Y-61512648D01*
X136494428Y-61858682D01*
X136494430Y-61858694D01*
X136571921Y-62198208D01*
X136571924Y-62198216D01*
X136686938Y-62526906D01*
X136838031Y-62840654D01*
X137023310Y-63135523D01*
X137023311Y-63135525D01*
X137240426Y-63407780D01*
X137486682Y-63654036D01*
X137758937Y-63871151D01*
X137758940Y-63871152D01*
X137758942Y-63871154D01*
X138053806Y-64056430D01*
X138367560Y-64207526D01*
X138527834Y-64263608D01*
X138696246Y-64322538D01*
X138696254Y-64322541D01*
X138696257Y-64322541D01*
X138696258Y-64322542D01*
X139035768Y-64400033D01*
X139381815Y-64439023D01*
X139381816Y-64439024D01*
X139381819Y-64439024D01*
X139730062Y-64439024D01*
X139730062Y-64439023D01*
X140076110Y-64400033D01*
X140415620Y-64322542D01*
X140744318Y-64207526D01*
X141058072Y-64056430D01*
X141252746Y-63934108D01*
X143499500Y-63934108D01*
X143499500Y-64065891D01*
X143533608Y-64193187D01*
X143541886Y-64207524D01*
X143599500Y-64307314D01*
X143692686Y-64400500D01*
X143778386Y-64449979D01*
X143806810Y-64466390D01*
X143806814Y-64466392D01*
X143934108Y-64500500D01*
X143934110Y-64500500D01*
X144065890Y-64500500D01*
X144065892Y-64500500D01*
X144193186Y-64466392D01*
X144307314Y-64400500D01*
X144400500Y-64307314D01*
X144466392Y-64193186D01*
X144500500Y-64065892D01*
X144500500Y-63934108D01*
X144466392Y-63806814D01*
X144400500Y-63692686D01*
X144307314Y-63599500D01*
X144250250Y-63566554D01*
X144193187Y-63533608D01*
X144129539Y-63516554D01*
X144065892Y-63499500D01*
X143934108Y-63499500D01*
X143806812Y-63533608D01*
X143692686Y-63599500D01*
X143692683Y-63599502D01*
X143599502Y-63692683D01*
X143599500Y-63692686D01*
X143533608Y-63806812D01*
X143499500Y-63934108D01*
X141252746Y-63934108D01*
X141352936Y-63871154D01*
X141625202Y-63654030D01*
X141871445Y-63407787D01*
X142088569Y-63135521D01*
X142273845Y-62840657D01*
X142424941Y-62526903D01*
X142539957Y-62198205D01*
X142617448Y-61858695D01*
X142656439Y-61512644D01*
X142656439Y-61164404D01*
X142617448Y-60818353D01*
X142539957Y-60478843D01*
X142424941Y-60150145D01*
X142291991Y-59874071D01*
X152900000Y-59874071D01*
X152900000Y-60125928D01*
X152939397Y-60374669D01*
X153017219Y-60614184D01*
X153131557Y-60838583D01*
X153205748Y-60940697D01*
X153205748Y-60940698D01*
X153822957Y-60323489D01*
X153835979Y-60354927D01*
X153917980Y-60477651D01*
X154022349Y-60582020D01*
X154145073Y-60664021D01*
X154176509Y-60677042D01*
X153559300Y-61294250D01*
X153661416Y-61368442D01*
X153885815Y-61482780D01*
X154125330Y-61560602D01*
X154374072Y-61600000D01*
X154625928Y-61600000D01*
X154874669Y-61560602D01*
X155114184Y-61482780D01*
X155338575Y-61368446D01*
X155338581Y-61368442D01*
X155440697Y-61294250D01*
X155440698Y-61294250D01*
X154823490Y-60677042D01*
X154854927Y-60664021D01*
X154977651Y-60582020D01*
X155082020Y-60477651D01*
X155164021Y-60354927D01*
X155177042Y-60323490D01*
X155794250Y-60940698D01*
X155794250Y-60940697D01*
X155868442Y-60838581D01*
X155868446Y-60838575D01*
X155982780Y-60614184D01*
X156060602Y-60374669D01*
X156100000Y-60125928D01*
X156100000Y-59897648D01*
X157199501Y-59897648D01*
X157199501Y-60102351D01*
X157231523Y-60304534D01*
X157294782Y-60499223D01*
X157387716Y-60681613D01*
X157508029Y-60847213D01*
X157652787Y-60991971D01*
X157787997Y-61090205D01*
X157818391Y-61112287D01*
X157920676Y-61164404D01*
X158000777Y-61205218D01*
X158000779Y-61205218D01*
X158000782Y-61205220D01*
X158105138Y-61239127D01*
X158195466Y-61268477D01*
X158296558Y-61284488D01*
X158397649Y-61300500D01*
X158397650Y-61300500D01*
X158602352Y-61300500D01*
X158602353Y-61300500D01*
X158804535Y-61268477D01*
X158999220Y-61205220D01*
X159079336Y-61164399D01*
X170396565Y-61164399D01*
X170396565Y-61512648D01*
X170435554Y-61858682D01*
X170435556Y-61858694D01*
X170513047Y-62198208D01*
X170513050Y-62198216D01*
X170628064Y-62526906D01*
X170779157Y-62840654D01*
X170964436Y-63135523D01*
X170964437Y-63135525D01*
X171181552Y-63407780D01*
X171427808Y-63654036D01*
X171700063Y-63871151D01*
X171700066Y-63871152D01*
X171700068Y-63871154D01*
X171994932Y-64056430D01*
X172308686Y-64207526D01*
X172468960Y-64263608D01*
X172637372Y-64322538D01*
X172637380Y-64322541D01*
X172637383Y-64322541D01*
X172637384Y-64322542D01*
X172976894Y-64400033D01*
X173322941Y-64439023D01*
X173322942Y-64439024D01*
X173322945Y-64439024D01*
X173671188Y-64439024D01*
X173671188Y-64439023D01*
X174017236Y-64400033D01*
X174356746Y-64322542D01*
X174685444Y-64207526D01*
X174999198Y-64056430D01*
X175294062Y-63871154D01*
X175491681Y-63713559D01*
X175566321Y-63654036D01*
X175566323Y-63654033D01*
X175566328Y-63654030D01*
X175812571Y-63407787D01*
X176029695Y-63135521D01*
X176214971Y-62840657D01*
X176366067Y-62526903D01*
X176481083Y-62198205D01*
X176558574Y-61858695D01*
X176597565Y-61512644D01*
X176597565Y-61164404D01*
X176558574Y-60818353D01*
X176481083Y-60478843D01*
X176366067Y-60150145D01*
X176214971Y-59836391D01*
X176029695Y-59541527D01*
X176029693Y-59541524D01*
X176029692Y-59541522D01*
X175812577Y-59269267D01*
X175566321Y-59023011D01*
X175294066Y-58805896D01*
X175294064Y-58805895D01*
X174999195Y-58620616D01*
X174685447Y-58469523D01*
X174356757Y-58354509D01*
X174356749Y-58354506D01*
X174102113Y-58296387D01*
X174017236Y-58277015D01*
X174017232Y-58277014D01*
X174017223Y-58277013D01*
X173671189Y-58238024D01*
X173671185Y-58238024D01*
X173322945Y-58238024D01*
X173322940Y-58238024D01*
X172976906Y-58277013D01*
X172976894Y-58277015D01*
X172637380Y-58354506D01*
X172637372Y-58354509D01*
X172308682Y-58469523D01*
X171994934Y-58620616D01*
X171700065Y-58805895D01*
X171700063Y-58805896D01*
X171427808Y-59023011D01*
X171181552Y-59269267D01*
X170964437Y-59541522D01*
X170964436Y-59541524D01*
X170779157Y-59836393D01*
X170628064Y-60150141D01*
X170513050Y-60478831D01*
X170513047Y-60478839D01*
X170435556Y-60818353D01*
X170435554Y-60818365D01*
X170396565Y-61164399D01*
X159079336Y-61164399D01*
X159181611Y-61112287D01*
X159274591Y-61044732D01*
X159347214Y-60991971D01*
X159347216Y-60991968D01*
X159347220Y-60991966D01*
X159491967Y-60847219D01*
X159491969Y-60847215D01*
X159491972Y-60847213D01*
X159567551Y-60743186D01*
X159612288Y-60681610D01*
X159705221Y-60499219D01*
X159710131Y-60484107D01*
X163999500Y-60484107D01*
X163999500Y-60615890D01*
X164033608Y-60743186D01*
X164066554Y-60800249D01*
X164099500Y-60857313D01*
X164192686Y-60950499D01*
X164306814Y-61016391D01*
X164434108Y-61050499D01*
X164434110Y-61050499D01*
X164565890Y-61050499D01*
X164565892Y-61050499D01*
X164693186Y-61016391D01*
X164807314Y-60950499D01*
X164900500Y-60857313D01*
X164966392Y-60743185D01*
X165000500Y-60615891D01*
X165000500Y-60484107D01*
X165849501Y-60484107D01*
X165849501Y-60615890D01*
X165883609Y-60743186D01*
X165916555Y-60800249D01*
X165949501Y-60857313D01*
X166042687Y-60950499D01*
X166156815Y-61016391D01*
X166284109Y-61050499D01*
X166284111Y-61050499D01*
X166415891Y-61050499D01*
X166415893Y-61050499D01*
X166543187Y-61016391D01*
X166657315Y-60950499D01*
X166750501Y-60857313D01*
X166816393Y-60743185D01*
X166850501Y-60615891D01*
X166850501Y-60484107D01*
X166816393Y-60356813D01*
X166750501Y-60242685D01*
X166657315Y-60149499D01*
X166600251Y-60116553D01*
X166543188Y-60083607D01*
X166479540Y-60066553D01*
X166415893Y-60049499D01*
X166284109Y-60049499D01*
X166156813Y-60083607D01*
X166042687Y-60149499D01*
X166042684Y-60149501D01*
X165949503Y-60242682D01*
X165949501Y-60242685D01*
X165883609Y-60356811D01*
X165849501Y-60484107D01*
X165000500Y-60484107D01*
X164966392Y-60356813D01*
X164900500Y-60242685D01*
X164807314Y-60149499D01*
X164750250Y-60116553D01*
X164693187Y-60083607D01*
X164629539Y-60066553D01*
X164565892Y-60049499D01*
X164434108Y-60049499D01*
X164306812Y-60083607D01*
X164192686Y-60149499D01*
X164192683Y-60149501D01*
X164099502Y-60242682D01*
X164099500Y-60242685D01*
X164033608Y-60356811D01*
X163999500Y-60484107D01*
X159710131Y-60484107D01*
X159768478Y-60304534D01*
X159800501Y-60102352D01*
X159800501Y-59897648D01*
X159796767Y-59874071D01*
X159768478Y-59695465D01*
X159718459Y-59541524D01*
X159705221Y-59500781D01*
X159705219Y-59500778D01*
X159705219Y-59500776D01*
X159650687Y-59393753D01*
X159612288Y-59318390D01*
X159604557Y-59307749D01*
X159491972Y-59152786D01*
X159347214Y-59008028D01*
X159181614Y-58887715D01*
X159181613Y-58887714D01*
X159181611Y-58887713D01*
X159107503Y-58849953D01*
X158999224Y-58794781D01*
X158804535Y-58731522D01*
X158629996Y-58703878D01*
X158602353Y-58699500D01*
X158397649Y-58699500D01*
X158373330Y-58703351D01*
X158195466Y-58731522D01*
X158000777Y-58794781D01*
X157818387Y-58887715D01*
X157652787Y-59008028D01*
X157508029Y-59152786D01*
X157387716Y-59318386D01*
X157294782Y-59500776D01*
X157231523Y-59695465D01*
X157199501Y-59897648D01*
X156100000Y-59897648D01*
X156100000Y-59874071D01*
X156060602Y-59625330D01*
X155982780Y-59385815D01*
X155868442Y-59161416D01*
X155794250Y-59059301D01*
X155794250Y-59059300D01*
X155177042Y-59676508D01*
X155164021Y-59645073D01*
X155082020Y-59522349D01*
X154977651Y-59417980D01*
X154854927Y-59335979D01*
X154823488Y-59322956D01*
X155440698Y-58705748D01*
X155338583Y-58631557D01*
X155114184Y-58517219D01*
X154874669Y-58439397D01*
X154625928Y-58400000D01*
X154374072Y-58400000D01*
X154125330Y-58439397D01*
X153885815Y-58517219D01*
X153661413Y-58631559D01*
X153559301Y-58705747D01*
X153559300Y-58705748D01*
X154176509Y-59322957D01*
X154145073Y-59335979D01*
X154022349Y-59417980D01*
X153917980Y-59522349D01*
X153835979Y-59645073D01*
X153822957Y-59676509D01*
X153205748Y-59059300D01*
X153205747Y-59059301D01*
X153131559Y-59161413D01*
X153017219Y-59385815D01*
X152939397Y-59625330D01*
X152900000Y-59874071D01*
X142291991Y-59874071D01*
X142273848Y-59836396D01*
X142088567Y-59541524D01*
X142088566Y-59541522D01*
X141871451Y-59269267D01*
X141625201Y-59023017D01*
X141408187Y-58849955D01*
X141408185Y-58849953D01*
X141352940Y-58805896D01*
X141352938Y-58805895D01*
X141058069Y-58620616D01*
X140744321Y-58469523D01*
X140415631Y-58354509D01*
X140415623Y-58354506D01*
X140160987Y-58296387D01*
X140076110Y-58277015D01*
X140076106Y-58277014D01*
X140076097Y-58277013D01*
X139730063Y-58238024D01*
X139730059Y-58238024D01*
X139381819Y-58238024D01*
X139381814Y-58238024D01*
X139035780Y-58277013D01*
X139035768Y-58277015D01*
X138696254Y-58354506D01*
X138696246Y-58354509D01*
X138367556Y-58469523D01*
X138053808Y-58620616D01*
X137758939Y-58805895D01*
X137758937Y-58805896D01*
X137486682Y-59023011D01*
X137240426Y-59269267D01*
X137023311Y-59541522D01*
X137023310Y-59541524D01*
X136838031Y-59836393D01*
X136686938Y-60150141D01*
X136571924Y-60478831D01*
X136571921Y-60478839D01*
X136494430Y-60818353D01*
X136494428Y-60818365D01*
X136455439Y-61164399D01*
X132523216Y-61164399D01*
X132597935Y-61056783D01*
X132600452Y-61053294D01*
X133228924Y-60213754D01*
X133231596Y-60210313D01*
X133889636Y-59393735D01*
X133892446Y-59390373D01*
X134579183Y-58597835D01*
X134582136Y-58594549D01*
X134654133Y-58517219D01*
X135296739Y-57827011D01*
X135299758Y-57823883D01*
X136041298Y-57082343D01*
X136044426Y-57079324D01*
X136811970Y-56364715D01*
X136815257Y-56361763D01*
X137607788Y-55675031D01*
X137611150Y-55672221D01*
X138427728Y-55014181D01*
X138431169Y-55011509D01*
X139270709Y-54383037D01*
X139274208Y-54380513D01*
X140135662Y-53782395D01*
X140139331Y-53779945D01*
X141021485Y-53213019D01*
X141025223Y-53210709D01*
X141927167Y-52675560D01*
X141930933Y-52673417D01*
X142851344Y-52170834D01*
X142855249Y-52168792D01*
X143320096Y-51936106D01*
X143320098Y-51936105D01*
X143793004Y-51699385D01*
X143796998Y-51697475D01*
X143925962Y-51638579D01*
X144750853Y-51261863D01*
X144754904Y-51260100D01*
X145723790Y-50858775D01*
X145727794Y-50857199D01*
X146218783Y-50674069D01*
X152900000Y-50674069D01*
X152900000Y-50925926D01*
X152939397Y-51174667D01*
X153017219Y-51414182D01*
X153131557Y-51638581D01*
X153205748Y-51740695D01*
X153205748Y-51740696D01*
X153822957Y-51123487D01*
X153835979Y-51154925D01*
X153917980Y-51277649D01*
X154022349Y-51382018D01*
X154145073Y-51464019D01*
X154176509Y-51477040D01*
X153559300Y-52094248D01*
X153661416Y-52168440D01*
X153885815Y-52282778D01*
X154125330Y-52360600D01*
X154374072Y-52399998D01*
X154625928Y-52399998D01*
X154874669Y-52360600D01*
X155114184Y-52282778D01*
X155338575Y-52168444D01*
X155338581Y-52168440D01*
X155440697Y-52094248D01*
X155440698Y-52094248D01*
X154823490Y-51477040D01*
X154854927Y-51464019D01*
X154977651Y-51382018D01*
X155082020Y-51277649D01*
X155164021Y-51154925D01*
X155177042Y-51123488D01*
X155794250Y-51740696D01*
X155794250Y-51740695D01*
X155868442Y-51638579D01*
X155868446Y-51638573D01*
X155982780Y-51414182D01*
X156060602Y-51174667D01*
X156100000Y-50925926D01*
X156100000Y-50697646D01*
X157199501Y-50697646D01*
X157199501Y-50902349D01*
X157231523Y-51104532D01*
X157294782Y-51299221D01*
X157387716Y-51481611D01*
X157508029Y-51647211D01*
X157652787Y-51791969D01*
X157807750Y-51904554D01*
X157818391Y-51912285D01*
X157934608Y-51971501D01*
X158000777Y-52005216D01*
X158000779Y-52005216D01*
X158000782Y-52005218D01*
X158105138Y-52039125D01*
X158195466Y-52068475D01*
X158296558Y-52084486D01*
X158397649Y-52100498D01*
X158397650Y-52100498D01*
X158602352Y-52100498D01*
X158602353Y-52100498D01*
X158804535Y-52068475D01*
X158999220Y-52005218D01*
X159181611Y-51912285D01*
X159274591Y-51844730D01*
X159347214Y-51791969D01*
X159347216Y-51791966D01*
X159347220Y-51791964D01*
X159491967Y-51647217D01*
X159491969Y-51647213D01*
X159491972Y-51647211D01*
X159584029Y-51520503D01*
X159612288Y-51481608D01*
X159705221Y-51299217D01*
X159768478Y-51104532D01*
X159800501Y-50902350D01*
X159800501Y-50697646D01*
X159768478Y-50495464D01*
X159766930Y-50490701D01*
X159739128Y-50405135D01*
X159705221Y-50300779D01*
X159705219Y-50300776D01*
X159705219Y-50300774D01*
X159663032Y-50217978D01*
X159612288Y-50118388D01*
X159604557Y-50107747D01*
X159491972Y-49952784D01*
X159347214Y-49808026D01*
X159181614Y-49687713D01*
X159181613Y-49687712D01*
X159181611Y-49687711D01*
X159124654Y-49658689D01*
X158999224Y-49594779D01*
X158804535Y-49531520D01*
X158629996Y-49503876D01*
X158602353Y-49499498D01*
X158397649Y-49499498D01*
X158373330Y-49503349D01*
X158195466Y-49531520D01*
X158000777Y-49594779D01*
X157818387Y-49687713D01*
X157652787Y-49808026D01*
X157508029Y-49952784D01*
X157387716Y-50118384D01*
X157294782Y-50300774D01*
X157231523Y-50495463D01*
X157199501Y-50697646D01*
X156100000Y-50697646D01*
X156100000Y-50674069D01*
X156060602Y-50425328D01*
X155982780Y-50185813D01*
X155868442Y-49961414D01*
X155794250Y-49859299D01*
X155794250Y-49859298D01*
X155177042Y-50476506D01*
X155164021Y-50445071D01*
X155082020Y-50322347D01*
X154977651Y-50217978D01*
X154854927Y-50135977D01*
X154823488Y-50122954D01*
X155440698Y-49505746D01*
X155338583Y-49431555D01*
X155114184Y-49317217D01*
X154874669Y-49239395D01*
X154625928Y-49199998D01*
X154374072Y-49199998D01*
X154125330Y-49239395D01*
X153885815Y-49317217D01*
X153661413Y-49431557D01*
X153559301Y-49505745D01*
X153559300Y-49505746D01*
X154176509Y-50122955D01*
X154145073Y-50135977D01*
X154022349Y-50217978D01*
X153917980Y-50322347D01*
X153835979Y-50445071D01*
X153822957Y-50476507D01*
X153205748Y-49859298D01*
X153205747Y-49859299D01*
X153131559Y-49961411D01*
X153017219Y-50185813D01*
X152939397Y-50425328D01*
X152900000Y-50674069D01*
X146218783Y-50674069D01*
X146710464Y-50490681D01*
X146714531Y-50489248D01*
X147709551Y-50158073D01*
X147713748Y-50156759D01*
X148719984Y-49861301D01*
X148724173Y-49860152D01*
X149740307Y-49600800D01*
X149744565Y-49599793D01*
X150769289Y-49376878D01*
X150773568Y-49376027D01*
X151805624Y-49189823D01*
X151809949Y-49189122D01*
X152847956Y-49039879D01*
X152852298Y-49039334D01*
X153895042Y-48927227D01*
X153899338Y-48926844D01*
X154945358Y-48852030D01*
X154949765Y-48851794D01*
X155997753Y-48814364D01*
X156002179Y-48814286D01*
X157050825Y-48814286D01*
X157055250Y-48814364D01*
G37*
%TD.AperFunction*%
%TA.AperFunction,Conductor*%
G36*
X132811434Y-87395373D02*
G01*
X132878313Y-87511212D01*
X132972895Y-87605794D01*
X133088734Y-87672673D01*
X133148872Y-87688786D01*
X132586098Y-88251560D01*
X132586098Y-88251561D01*
X132623382Y-88278650D01*
X132780697Y-88358807D01*
X132831493Y-88406782D01*
X132848288Y-88474603D01*
X132825750Y-88540738D01*
X132780697Y-88579777D01*
X132623379Y-88659935D01*
X132586098Y-88687021D01*
X132586097Y-88687022D01*
X133148873Y-89249796D01*
X133088734Y-89265911D01*
X132972895Y-89332790D01*
X132878313Y-89427372D01*
X132811434Y-89543211D01*
X132795319Y-89603349D01*
X132232545Y-89040574D01*
X132232544Y-89040575D01*
X132205458Y-89077856D01*
X132125300Y-89235174D01*
X132077325Y-89285970D01*
X132009504Y-89302765D01*
X131943369Y-89280227D01*
X131904330Y-89235174D01*
X131824173Y-89077859D01*
X131797083Y-89040575D01*
X131234309Y-89603349D01*
X131218196Y-89543211D01*
X131151317Y-89427372D01*
X131056735Y-89332790D01*
X130940896Y-89265911D01*
X130880757Y-89249796D01*
X131443531Y-88687023D01*
X131443530Y-88687022D01*
X131406247Y-88659933D01*
X131248932Y-88579777D01*
X131198136Y-88531802D01*
X131181341Y-88463981D01*
X131203878Y-88397846D01*
X131248932Y-88358807D01*
X131406240Y-88278654D01*
X131443531Y-88251560D01*
X130880757Y-87688786D01*
X130940896Y-87672673D01*
X131056735Y-87605794D01*
X131151317Y-87511212D01*
X131218196Y-87395373D01*
X131234310Y-87335234D01*
X131797083Y-87898007D01*
X131824177Y-87860717D01*
X131904330Y-87703409D01*
X131952304Y-87652613D01*
X132020125Y-87635818D01*
X132086260Y-87658355D01*
X132125300Y-87703409D01*
X132205456Y-87860724D01*
X132232545Y-87898007D01*
X132232546Y-87898008D01*
X132795319Y-87335234D01*
X132811434Y-87395373D01*
G37*
%TD.AperFunction*%
%TD*%
M02*
