M48
; DRILL file {KiCad 9.0.6} date 2026-01-16T15:37:07+0000
; FORMAT={-:-/ absolute / metric / decimal}
; #@! TF.CreationDate,2026-01-16T15:37:07+00:00
; #@! TF.GenerationSoftware,Kicad,Pcbnew,9.0.6
; #@! TF.FileFunction,Plated,1,4,PTH
FMAT,2
METRIC
; #@! TA.AperFunction,Plated,PTH,ViaDrill
T1C0.300
; #@! TA.AperFunction,Plated,PTH,ComponentDrill
T2C0.500
; #@! TA.AperFunction,Plated,PTH,ComponentDrill
T3C0.600
; #@! TA.AperFunction,Plated,PTH,ComponentDrill
T4C1.016
; #@! TA.AperFunction,Plated,PTH,ComponentDrill
T5C1.499
%
G90
G05
T1
X139.0Y-85.45
X141.0Y-82.0
X141.0Y-88.5
X144.0Y-64.0
X144.6Y-65.0
X145.0Y-96.0
X146.575Y-59.356
X147.0Y-69.5
X147.0Y-71.0
X147.0Y-74.5
X147.365Y-90.976
X148.372Y-67.0
X148.5Y-91.0
X148.595Y-62.336
X149.372Y-85.596
X149.5Y-66.0
X149.586Y-63.595
X150.0Y-96.0
X150.5Y-60.0
X151.0Y-71.5
X151.831Y-98.683
X152.0Y-76.0
X152.0Y-79.0
X152.0Y-83.0
X153.5Y-85.5
X153.5Y-86.623
X153.5Y-95.5
X153.51Y-74.764
X153.64Y-67.263
X154.0Y-64.5
X154.331Y-96.183
X154.331Y-97.683
X154.5Y-55.5
X155.0Y-64.73
X155.0Y-66.0
X155.0Y-72.0
X155.5Y-92.0
X155.54Y-68.75
X156.0Y-70.25
X156.124Y-90.5
X156.224Y-98.58
X156.308Y-102.208
X156.331Y-93.871
X156.5Y-72.5
X156.79Y-93.216
X157.253Y-101.599
X157.285Y-83.48
X157.571Y-68.515
X157.6Y-86.589
X157.831Y-98.683
X158.0Y-92.0
X158.083Y-67.9
X158.385Y-93.5
X158.5Y-66.0
X158.5Y-86.5
X158.5Y-88.5
X159.372Y-72.5
X159.475Y-94.579
X159.5Y-63.0
X159.625Y-65.55
X160.356Y-74.75
X160.449Y-94.364
X160.5Y-87.0
X161.0Y-88.5
X161.023Y-69.999
X161.023Y-69.999
X161.331Y-98.683
X161.417Y-92.637
X161.475Y-94.579
X161.498Y-93.433
X161.5Y-79.0
X161.785Y-87.171
X162.0Y-67.55
X162.0Y-99.0
X162.806Y-94.089
X163.0Y-99.0
X163.041Y-92.459
X163.125Y-63.55
X163.125Y-67.55
X163.5Y-82.5
X163.5Y-86.5
X163.75Y-91.25
X164.0Y-80.0
X164.0Y-85.0
X164.188Y-97.5
X164.306Y-93.597
X164.5Y-60.55
X164.5Y-74.0
X164.829Y-94.4
X165.299Y-91.5
X165.5Y-95.719
X166.0Y-93.5
X166.293Y-91.601
X166.35Y-60.55
X167.796Y-86.899
X169.054Y-87.5
X170.5Y-67.0
X170.5Y-76.5
X171.0Y-82.5
X175.0Y-75.0
X177.024Y-76.712
X177.524Y-73.212
X179.5Y-76.192
X183.0Y-76.192
X183.5Y-79.692
X183.5Y-82.688
X184.0Y-73.212
T2
X152.0Y-92.0
X152.0Y-93.0
X152.0Y-94.0
X152.438Y-88.0
X152.438Y-89.0
X153.0Y-92.0
X153.0Y-93.0
X153.0Y-94.0
X153.438Y-88.0
X153.438Y-89.0
X154.438Y-88.0
X154.438Y-89.0
T4
X130.745Y-66.879
X130.745Y-69.419
X130.745Y-71.959
X130.745Y-74.499
X130.745Y-77.039
X130.745Y-79.579
X130.745Y-82.119
X130.745Y-84.659
X130.745Y-87.199
X130.745Y-89.739
X133.285Y-66.879
X133.285Y-69.419
X133.285Y-71.959
X133.285Y-74.499
X133.285Y-77.039
X133.285Y-79.579
X133.285Y-82.119
X133.285Y-84.659
X133.285Y-87.199
X133.285Y-89.739
T5
X154.5Y-50.8
X154.5Y-60.0
X158.5Y-50.8
X158.5Y-60.0
T3
G00X152.191Y-101.533
M15
G01X152.191Y-100.433
M16
G05
G00X152.191Y-105.583
M15
G01X152.191Y-104.783
M16
G05
G00X160.831Y-101.533
M15
G01X160.831Y-100.433
M16
G05
G00X160.831Y-105.583
M15
G01X160.831Y-104.783
M16
G05
M30
